<?xml version="1.0" encoding="UTF-8" standalone="no"?>
<!-- Created with Inkscape (http://www.inkscape.org/) -->

<svg
   width="80.531303mm"
   height="80.531303mm"
   viewBox="0 0 80.531303 80.531303"
   version="1.1"
   id="svg5"
   inkscape:version="1.4.4 (dcaf3e7d9e, 2026-05-05)"
   sodipodi:docname="Achille.svg"
   xml:space="preserve"
   xmlns:inkscape="http://www.inkscape.org/namespaces/inkscape"
   xmlns:sodipodi="http://sodipodi.sourceforge.net/DTD/sodipodi-0.dtd"
   xmlns="http://www.w3.org/2000/svg"
   xmlns:svg="http://www.w3.org/2000/svg"><sodipodi:namedview
     id="namedview7"
     pagecolor="#ffffff"
     bordercolor="#000000"
     borderopacity="0.25"
     inkscape:showpageshadow="2"
     inkscape:pageopacity="0.0"
     inkscape:pagecheckerboard="true"
     inkscape:deskcolor="#d1d1d1"
     inkscape:document-units="mm"
     showgrid="false"
     inkscape:zoom="0.3141388"
     inkscape:cx="-1349.7219"
     inkscape:cy="359.71361"
     inkscape:window-width="1920"
     inkscape:window-height="1014"
     inkscape:window-x="0"
     inkscape:window-y="0"
     inkscape:window-maximized="1"
     inkscape:current-layer="layer1"
     showguides="false" /><defs
     id="defs2"><inkscape:path-effect
   effect="fillet_chamfer"
   id="path-effect2"
   is_visible="true"
   lpeversion="1"
   nodesatellites_param="F,0,0,1,0,0,0,1 @ F,0,0,1,0,0,0,1 @ F,0,0,1,0,0,0,1 @ F,0,0,1,0,0,0,1 @ F,0,0,1,0,0,0,1 @ F,0,0,1,0,0,0,1 @ F,0,0,1,0,0,0,1 @ F,0,0,1,0,0,0,1 @ F,0,0,1,0,0,0,1"
   radius="0"
   unit="px"
   method="auto"
   mode="F"
   chamfer_steps="1"
   flexible="false"
   use_knot_distance="true"
   apply_no_radius="true"
   apply_with_radius="true"
   only_selected="false"
   hide_knots="false" /><inkscape:path-effect
   effect="fillet_chamfer"
   id="path-effect1"
   is_visible="true"
   lpeversion="1"
   nodesatellites_param="F,0,0,1,0,7.5338088,0,1 @ F,0,0,1,0,0,0,1 @ F,0,0,1,0,0,0,1 @ F,0,0,1,0,0,0,1 @ F,0,0,1,0,0,0,1 @ F,0,0,1,0,0,0,1 @ F,0,0,1,0,0,0,1 @ F,0,0,1,0,0,0,1 @ F,0,0,1,0,0,0,1 @ F,0,0,1,0,0,0,1 @ F,0,0,1,0,0,0,1"
   radius="0"
   unit="px"
   method="auto"
   mode="F"
   chamfer_steps="1"
   flexible="false"
   use_knot_distance="true"
   apply_no_radius="true"
   apply_with_radius="true"
   only_selected="false"
   hide_knots="false" /><inkscape:path-effect
   effect="spiro"
   id="path-effect6"
   is_visible="true"
   lpeversion="1" /><inkscape:path-effect
   effect="fillet_chamfer"
   id="path-effect3"
   is_visible="true"
   lpeversion="1"
   nodesatellites_param="F,0,0,1,0,0,0,1 @ F,0,0,1,0,0,0,1 @ F,0,0,1,0,0,0,1 @ F,0,0,1,0,0,0,1 @ F,0,0,1,0,0,0,1 @ F,0,0,1,0,0,0,1 @ F,0,0,1,0,0,0,1 @ F,0,0,1,0,0,0,1 @ F,0,0,1,0,0,0,1 @ F,0,0,1,0,0,0,1 @ F,0,0,1,0,0,0,1 @ F,0,0,1,0,0,0,1 @ F,0,0,1,0,0,0,1 @ F,0,0,1,0,0,0,1 | F,0,0,1,0,6.4303233,0,1 @ F,0,0,1,0,108.16171,0,1 @ F,0,0,1,0,0,0,1 @ F,0,0,1,0,20.169484,0,1 @ F,0,0,1,0,0,0,1 @ F,0,0,1,0,0,0,1 @ F,0,0,1,0,23.329183,0,1 @ F,0,0,1,0,0,0,1 @ F,0,0,1,0,0,0,1 @ F,0,0,1,0,0,0,1 | F,0,0,1,0,0,0,1 @ F,0,0,1,0,0,0,1 @ F,0,0,1,0,0,0,1 @ F,0,0,1,0,0,0,1 @ F,0,0,1,0,0,0,1 @ F,0,0,1,0,0,0,1 | F,0,0,1,0,0,0,1 @ F,0,0,1,0,0,0,1 @ F,0,0,1,0,0,0,1 @ F,0,0,1,0,0,0,1 @ F,0,0,1,0,0,0,1 @ F,0,0,1,0,0,0,1 @ F,0,0,1,0,0,0,1 @ F,0,0,1,0,0,0,1 @ F,0,0,1,0,0,0,1 @ F,0,0,1,0,0,0,1"
   radius="0"
   unit="px"
   method="auto"
   mode="F"
   chamfer_steps="1"
   flexible="false"
   use_knot_distance="true"
   apply_no_radius="true"
   apply_with_radius="true"
   only_selected="false"
   hide_knots="false" /><inkscape:path-effect
   effect="spiro"
   id="path-effect9346"
   is_visible="true"
   lpeversion="1" />
		
	
	
	

	

		
	
	

	

	

	

	

	
</defs><g
     inkscape:label="Calque 1"
     inkscape:groupmode="layer"
     id="layer1"
     transform="translate(-370.25,-100.25)"><g
       id="g48"><path
         id="rect941"
         style="stroke-width:0.05"
         d="m 377.69182,100.25 h 65.64766 c 4.12277,0 7.44182,3.31905 7.44182,7.44182 v 65.64766 c 0,4.12277 -3.31905,7.44182 -7.44182,7.44182 h -65.64766 c -4.12277,0 -7.44182,-3.31905 -7.44182,-7.44182 v -65.64766 c 0,-4.12277 3.31905,-7.44182 7.44182,-7.44182 z" /><path
         style="font-weight:bold;font-size:7.05556px;font-family:Cantarell;-inkscape-font-specification:'Cantarell Bold';fill:#cc0000;stroke-width:0.05"
         d="m 399.60751,177.02005 h 0.96662 l 0.40216,-1.22767 h 1.87678 l 0.39511,1.22767 h 1.00895 l -1.69334,-4.89656 h -1.17122 z m 1.62984,-2.03906 0.67733,-2.07433 0.67734,2.07433 z m 5.03767,2.10962 c 0.41628,0 0.80433,-0.0917 1.12889,-0.26812 l -0.19756,-0.62088 c -0.24694,0.10583 -0.508,0.16227 -0.73377,0.16227 -0.635,0 -1.00189,-0.39511 -1.00189,-1.0795 0,-0.64911 0.33161,-1.00189 0.93839,-1.00189 0.254,0 0.54327,0.0565 0.79022,0.15523 l 0.1905,-0.71262 c -0.29633,-0.13405 -0.65617,-0.20461 -1.00895,-0.20461 -1.10772,0 -1.82739,0.73378 -1.82739,1.86267 0,1.07245 0.64206,1.70745 1.72156,1.70745 z m 4.09223,-0.0706 h 0.90311 v -2.15195 c 0,-0.8255 -0.48683,-1.3335 -1.26295,-1.3335 -0.36688,0 -0.71966,0.11995 -1.00188,0.36689 v -2.0955 h -0.88901 v 5.21406 h 0.88901 v -2.42711 c 0.19755,-0.1905 0.43744,-0.27517 0.69144,-0.27517 0.4445,0 0.67028,0.24695 0.67028,0.71261 z m 1.84855,0 h 0.90311 v -3.429 h -0.90311 z m 0.45861,-4.064 c 0.33161,0 0.55034,-0.21167 0.55034,-0.55034 0,-0.33866 -0.21873,-0.55739 -0.55034,-0.55739 -0.33867,0 -0.55739,0.21873 -0.55739,0.55739 0,0.33867 0.21872,0.55034 0.55739,0.55034 z m 2.42005,4.11339 c 0.22578,0 0.47273,-0.0423 0.65617,-0.127 l -0.18344,-0.59972 c -0.0776,0.0282 -0.15523,0.0423 -0.21873,0.0423 -0.21166,0 -0.32455,-0.14111 -0.32455,-0.381 v -4.19806 h -0.889 v 4.31095 c 0,0.59267 0.35983,0.9525 0.95955,0.9525 z m 2.15195,0 c 0.22578,0 0.47273,-0.0423 0.65617,-0.127 l -0.18344,-0.59972 c -0.0776,0.0282 -0.15523,0.0423 -0.21873,0.0423 -0.21166,0 -0.32455,-0.14111 -0.32455,-0.381 v -4.19806 h -0.889 v 4.31095 c 0,0.59267 0.35983,0.9525 0.95955,0.9525 z m 2.87162,0.0212 c 0.40216,0 0.83961,-0.0847 1.21355,-0.23989 l -0.20461,-0.62089 c -0.27516,0.11289 -0.57855,0.17639 -0.86783,0.17639 -0.61384,0 -0.99484,-0.28928 -1.10067,-0.85373 h 2.2225 c 0.0212,-0.14111 0.0423,-0.35277 0.0423,-0.508 0,-0.93839 -0.5715,-1.524 -1.48873,-1.524 -1.02305,0 -1.70744,0.72672 -1.70744,1.79211 0,1.10067 0.71966,1.77801 1.89089,1.77801 z m -0.98073,-2.08845 c 0.0494,-0.51506 0.30339,-0.79022 0.73378,-0.79022 0.4445,0 0.70556,0.28928 0.70556,0.79022 z"
         id="text1489"
         aria-label="Achille" /><path
         id="path239"
         style="fill:none;stroke:#cc0000;stroke-width:1.79059;stroke-dasharray:none;stroke-opacity:1"
         d="m 401.57392,118.31957 c 0.66256,6.97115 -0.8132,15.54005 -4.01253,22.68077 l -3.21148,5.81658 c -3.3178,5.41673 -1.37027,8.55817 2.93386,9.63705 0.79698,0.19978 1.89557,0.42274 2.99857,0.0579 5.77561,-1.91009 10.37286,0.7367 14.9302,3.87007 2.494,1.71481 5.7315,1.57341 8.67268,2.24605 6.1256,1.40097 5.82604,-5.28451 -0.10801,-5.78734 l -10.36975,-9.01554 c -2.71841,-4.97372 0.12354,-18.74659 2.98657,-27.93062 z" /><path
         id="path43"
         style="fill:#cc0000;fill-opacity:1;stroke:none;stroke-width:0.397412;stroke-linecap:round;stroke-linejoin:round"
         d="m 441.66057,102.225 c -3.94641,0 -7.14558,3.19917 -7.14557,7.14556 -10e-6,3.9464 3.19916,7.14558 7.14557,7.14558 3.94642,0 7.1456,-3.19918 7.14559,-7.14558 0,-3.94639 -3.19917,-7.14556 -7.14559,-7.14556 z m 0.13193,2.12293 c 1.73876,-1e-5 3.14834,1.40952 3.14839,3.14828 2e-5,1.4665 -1.01249,2.73881 -2.44158,3.06804 1.62811,0.27559 2.97849,1.41285 3.52699,2.97035 h -8.57059 c 0.55588,-1.5785 1.93454,-2.72359 3.58826,-2.98033 -1.40888,-0.34484 -2.39985,-1.6076 -2.39986,-3.05806 5e-5,-1.73876 1.40962,-3.14829 3.14839,-3.14828 z"
         sodipodi:nodetypes="ssssssscccccs" /><path
         id="path44"
         style="fill:#cc0000;fill-opacity:1;stroke:none;stroke-width:0.397412;stroke-linecap:round;stroke-linejoin:round"
         d="m 379.37059,102.225 a 7.1455797,7.1455797 0 0 0 -7.14559,7.14558 7.1455797,7.1455797 0 0 0 7.14559,7.14558 7.1455797,7.1455797 0 0 0 7.14559,-7.14558 7.1455797,7.1455797 0 0 0 -7.14559,-7.14558 z m 0.0534,2.60722 c 0.0933,0 0.18655,0.028 0.26115,0.0839 l 4.02056,3.65571 c 0.18651,0.14921 0.0745,0.41024 -0.14929,0.41024 h -0.70871 v 4.10337 c 0,0.22382 -0.1492,0.37302 -0.37302,0.37302 h -1.93164 l -0.0486,-2.0437 c -0.0118,-0.49316 -0.57716,-1.02185 -1.07045,-1.02185 -0.4933,-1e-5 -1.05872,0.52869 -1.07045,1.02185 l -0.0487,2.0437 h -1.93154 c -0.22382,0 -0.37301,-0.1492 -0.37302,-0.37302 v -4.10327 l -0.7088,-1e-4 c -0.22382,0 -0.3357,-0.26103 -0.14919,-0.41024 l 1.19528,-0.97146 v -2.07773 c 0,-0.22382 0.14921,-0.37301 0.37302,-0.37301 h 0.43948 c 0.17584,0 0.37301,0.19717 0.37301,0.37301 v 0.84672 l 1.63976,-1.45324 c 0.0746,-0.056 0.16789,-0.0839 0.26114,-0.0839 z" /></g></g><style
     type="text/css"
     id="style10809">
	.puchipuchi_een{fill:#111918;}
</style><style
     type="text/css"
     id="style11287">
	.st0{fill:#000000;}
</style><style
     type="text/css"
     id="style1">
<![CDATA[
	.st0{fill:#000000;}
]]>
</style><style
     type="text/css"
     id="style1-3">
	.st0{fill:#FD6A7E;}
	.st1{fill:#17B978;}
	.st2{fill:#8797EE;}
	.st3{fill:#41A6F9;}
	.st4{fill:#37E0FF;}
	.st5{fill:#2FD9B9;}
	.st6{fill:#F498BD;}
	.st7{fill:#FFDF1D;}
	.st8{fill:#C6C9CC;}
</style></svg>
