<?xml version="1.0" encoding="UTF-8" standalone="no"?>
<!-- Created with Inkscape (http://www.inkscape.org/) -->

<svg
   width="80.531303mm"
   height="80.531303mm"
   viewBox="0 0 80.531303 80.531303"
   version="1.1"
   id="svg5"
   inkscape:version="1.4.4 (dcaf3e7d9e, 2026-05-05)"
   sodipodi:docname="Ange.svg"
   xml:space="preserve"
   xmlns:inkscape="http://www.inkscape.org/namespaces/inkscape"
   xmlns:sodipodi="http://sodipodi.sourceforge.net/DTD/sodipodi-0.dtd"
   xmlns="http://www.w3.org/2000/svg"
   xmlns:svg="http://www.w3.org/2000/svg"
   xmlns:osb="http://www.openswatchbook.org/uri/2009/osb"><sodipodi:namedview
     id="namedview7"
     pagecolor="#ffffff"
     bordercolor="#000000"
     borderopacity="0.25"
     inkscape:showpageshadow="2"
     inkscape:pageopacity="0.0"
     inkscape:pagecheckerboard="true"
     inkscape:deskcolor="#d1d1d1"
     inkscape:document-units="mm"
     showgrid="false"
     inkscape:zoom="0.39130381"
     inkscape:cx="-135.44463"
     inkscape:cy="140.55575"
     inkscape:window-width="1920"
     inkscape:window-height="1014"
     inkscape:window-x="0"
     inkscape:window-y="0"
     inkscape:window-maximized="1"
     inkscape:current-layer="layer1"
     showguides="false" /><defs
     id="defs2"><rect
   x="488.54166"
   y="174.47917"
   width="138.54167"
   height="32.8125"
   id="rect49" /><inkscape:path-effect
   effect="spiro"
   id="path-effect3997"
   is_visible="true"
   lpeversion="1" /><style
   id="style3170">.cls-1{fill:none;stroke:#020202;stroke-miterlimit:10;stroke-width:1.91px;}</style><linearGradient
   osb:paint="solid"
   id="linearGradient5606"><stop
     style="stop-color:#000000;stop-opacity:1;"
     offset="0"
     id="stop5608" /></linearGradient><filter
   style="color-interpolation-filters:sRGB"
   id="filter7554"><feBlend
     mode="darken"
     in2="BackgroundImage"
     id="feBlend7556" /></filter>
	

	

	

	
	
<inkscape:path-effect
   effect="fillet_chamfer"
   id="path-effect3"
   is_visible="true"
   lpeversion="1"
   nodesatellites_param="F,0,0,1,0,0,0,1 @ F,0,0,1,0,0,0,1 @ F,0,0,1,0,0,0,1 @ F,0,0,1,0,0,0,1 @ F,0,0,1,0,0,0,1 @ F,0,0,1,0,0,0,1 @ F,0,0,1,0,0,0,1 @ F,0,0,1,0,0,0,1 @ F,0,0,1,0,0,0,1 @ F,0,0,1,0,0,0,1 @ F,0,0,1,0,0,0,1 @ F,0,0,1,0,0,0,1 @ F,0,0,1,0,0,0,1 @ F,0,0,1,0,0,0,1 | F,0,0,1,0,6.4303233,0,1 @ F,0,0,1,0,108.16171,0,1 @ F,0,0,1,0,0,0,1 @ F,0,0,1,0,20.169484,0,1 @ F,0,0,1,0,0,0,1 @ F,0,0,1,0,0,0,1 @ F,0,0,1,0,23.329183,0,1 @ F,0,0,1,0,0,0,1 @ F,0,0,1,0,0,0,1 @ F,0,0,1,0,0,0,1 | F,0,0,1,0,0,0,1 @ F,0,0,1,0,0,0,1 @ F,0,0,1,0,0,0,1 @ F,0,0,1,0,0,0,1 @ F,0,0,1,0,0,0,1 @ F,0,0,1,0,0,0,1 | F,0,0,1,0,0,0,1 @ F,0,0,1,0,0,0,1 @ F,0,0,1,0,0,0,1 @ F,0,0,1,0,0,0,1 @ F,0,0,1,0,0,0,1 @ F,0,0,1,0,0,0,1 @ F,0,0,1,0,0,0,1 @ F,0,0,1,0,0,0,1 @ F,0,0,1,0,0,0,1 @ F,0,0,1,0,0,0,1"
   radius="0"
   unit="px"
   method="auto"
   mode="F"
   chamfer_steps="1"
   flexible="false"
   use_knot_distance="true"
   apply_no_radius="true"
   apply_with_radius="true"
   only_selected="false"
   hide_knots="false" /></defs><g
     inkscape:label="Calque 1"
     inkscape:groupmode="layer"
     id="layer1"
     transform="translate(-460.25,-100.25)"><g
       id="g6"><path
         id="rect943"
         style="fill:#000000;fill-opacity:1;stroke:none;stroke-width:0.05"
         d="m 467.69182,100.25 h 65.64766 c 4.12277,0 7.44182,3.31905 7.44182,7.44182 v 65.64766 c 0,4.12277 -3.31905,7.44182 -7.44182,7.44182 h -65.64766 c -4.12277,0 -7.44182,-3.31905 -7.44182,-7.44182 v -65.64766 c 0,-4.12277 3.31905,-7.44182 7.44182,-7.44182 z" /><path
         style="font-weight:bold;font-size:7.05556px;font-family:Cantarell;-inkscape-font-specification:'Cantarell Bold';fill:#cc0000;fill-opacity:1;stroke-width:0.05"
         d="m 492.327,176.70255 h 0.96661 l 0.40216,-1.22767 h 1.87678 l 0.39511,1.22767 h 1.00895 l -1.69333,-4.89656 h -1.17123 z m 1.62983,-2.03906 0.67733,-2.07434 0.67734,2.07434 z m 5.79262,2.03906 h 0.89605 v -2.11667 c 0,-0.84667 -0.47977,-1.36878 -1.24883,-1.36878 -0.41628,0 -0.80433,0.14817 -1.10772,0.43039 l -0.15523,-0.37395 h -0.64911 v 3.42901 h 0.90311 v -2.45534 c 0.20462,-0.16228 0.43745,-0.24694 0.69851,-0.24694 0.43744,0 0.66322,0.24694 0.66322,0.71261 z m 3.13972,1.62277 c 1.08656,0 1.81328,-0.67027 1.81328,-1.67922 v -3.37256 h -0.64205 l -0.11289,0.30339 c -0.23284,-0.24694 -0.55739,-0.37394 -0.95956,-0.37394 -0.9525,0 -1.60161,0.71966 -1.60161,1.81328 0,1.06539 0.61383,1.75683 1.48872,1.75683 0.37395,0 0.6985,-0.13405 0.94545,-0.37394 v 0.28927 c 0,0.58562 -0.33161,0.89606 -0.93839,0.89606 -0.29634,0 -0.64911,-0.0706 -0.9525,-0.19756 l -0.17639,0.67028 c 0.37394,0.17639 0.74789,0.26811 1.13594,0.26811 z m 0.93134,-4.00755 v 1.38994 c -0.15522,0.1905 -0.38806,0.30339 -0.67028,0.30339 -0.52211,0 -0.85372,-0.40922 -0.85372,-1.05128 0,-0.61383 0.31044,-0.99483 0.81844,-0.99483 0.28928,0 0.54328,0.127 0.70556,0.35278 z m 3.57716,2.45533 c 0.40217,0 0.83961,-0.0847 1.21356,-0.23989 l -0.20461,-0.62089 c -0.27517,0.11289 -0.57856,0.17639 -0.86784,0.17639 -0.61383,0 -0.99483,-0.28928 -1.10066,-0.85372 h 2.2225 c 0.0212,-0.14111 0.0423,-0.35278 0.0423,-0.508 0,-0.93839 -0.5715,-1.524 -1.48872,-1.524 -1.02306,0 -1.70745,0.72672 -1.70745,1.79211 0,1.10067 0.71967,1.778 1.89089,1.778 z m -0.98072,-2.08845 c 0.0494,-0.51505 0.30339,-0.79022 0.73378,-0.79022 0.4445,0 0.70555,0.28928 0.70555,0.79022 z"
         id="text1273"
         aria-label="Ange" /><path
         id="path7053"
         style="color:#bebebe;font-variation-settings:'wdth' 83, 'wght' 488;fill:none;stroke:#cc0000;stroke-width:1.85395;stroke-linecap:round;stroke-linejoin:round;stroke-opacity:1"
         d="m 520.74079,126.66481 a 19.355654,4.1828322 0 0 1 -19.35566,4.18283 19.355654,4.1828322 0 0 1 -19.35565,-4.18283 19.355654,4.1828322 0 0 1 19.35565,-4.18284 19.355654,4.1828322 0 0 1 19.35566,4.18284 z" /><path
         d="m 466.29258,128.55281 c 7.30608,4.62686 14.06347,8.25541 21.87469,9.08062 2.76523,0.29178 3.24752,2.37331 2.15124,4.76186 -1.80175,3.92467 1.11588,9.75123 7.63159,13.27855 -0.40608,1.90081 -3.14627,3.50117 -4.83371,2.9394 -1.40548,-2.93288 -3.59371,-6.02796 -5.96484,-5.18861 -4.85005,1.71793 -9.84378,2.08264 -13.23499,0.23408 4.49839,-0.61076 8.78123,-1.80721 12.55347,-3.69169 -6.81508,1.019 -14.88324,1.04512 -17.94024,-2.37549 6.18586,0.24712 11.19918,-0.37995 16.79604,-1.78106 -7.45521,-0.68697 -15.65183,-2.04997 -17.95982,-6.62132 5.50106,1.71465 12.87791,2.3537 17.86838,2.38855 -7.7742,-1.95851 -18.23092,-7.32241 -18.94181,-13.02597 v 0 z"
         id="path7275"
         style="color:#bebebe;fill:none;fill-opacity:1;stroke:#cc0000;stroke-width:1.48317;stroke-linecap:round;stroke-linejoin:round;stroke-dasharray:none;stroke-opacity:1" /><path
         d="m 534.73959,128.55281 c -7.30607,4.62686 -14.06346,8.25541 -21.87469,9.08062 -2.76522,0.29178 -3.24752,2.37331 -2.15123,4.76186 1.80175,3.92467 -1.11589,9.75123 -7.63159,13.27855 0.40607,1.90081 3.14627,3.50117 4.83371,2.9394 1.40548,-2.93288 3.59371,-6.02796 5.96484,-5.18861 4.85004,1.71793 9.84378,2.08264 13.23498,0.23408 -4.49839,-0.61076 -8.78122,-1.80721 -12.55346,-3.69169 6.81508,1.019 14.88323,1.04512 17.94023,-2.37549 -6.18585,0.24712 -11.19917,-0.37995 -16.79604,-1.78106 7.45522,-0.68697 15.65184,-2.04997 17.95983,-6.62132 -5.50106,1.71465 -12.87791,2.3537 -17.86839,2.38855 7.77421,-1.95851 18.23092,-7.32241 18.94181,-13.02597 v 0 z"
         id="path7286"
         style="color:#bebebe;fill:none;fill-opacity:1;stroke:#cc0000;stroke-width:1.48317;stroke-linecap:round;stroke-linejoin:round;stroke-dasharray:none;stroke-opacity:1" /><path
         id="path15"
         style="fill:#cc0000;fill-opacity:1;stroke:none;stroke-width:0.397412;stroke-linecap:round;stroke-linejoin:round"
         d="m 469.37059,102.225 a 7.1455797,7.1455797 0 0 0 -7.14559,7.14558 7.1455797,7.1455797 0 0 0 7.14559,7.14559 7.1455797,7.1455797 0 0 0 7.14558,-7.14559 7.1455797,7.1455797 0 0 0 -7.14558,-7.14558 z m 0.0534,2.60722 c 0.0933,0 0.18655,0.028 0.26115,0.0839 l 4.02056,3.65572 c 0.18651,0.14921 0.0745,0.41023 -0.14929,0.41023 h -0.70871 v 4.10338 c 0,0.22382 -0.1492,0.37301 -0.37302,0.37302 h -1.93164 l -0.0486,-2.04371 c -0.0118,-0.49316 -0.57716,-1.02185 -1.07045,-1.02185 -0.4933,0 -1.05872,0.52869 -1.07045,1.02185 l -0.0487,2.04371 h -1.93154 c -0.22382,0 -0.37301,-0.1492 -0.37302,-0.37302 v -4.10328 l -0.7088,-1e-4 c -0.22382,0 -0.3357,-0.26102 -0.14919,-0.41023 l 1.19528,-0.97146 v -2.07773 c 0,-0.22383 0.14921,-0.37303 0.37302,-0.37303 h 0.43948 c 0.17584,0 0.37301,0.19717 0.37301,0.37303 v 0.84671 l 1.63976,-1.45324 c 0.0746,-0.056 0.16789,-0.0839 0.26114,-0.0839 z" /><path
         id="path16"
         style="fill:#cc0000;fill-opacity:1;stroke:none;stroke-width:0.397412;stroke-linecap:round;stroke-linejoin:round"
         d="m 531.66057,102.225 c -3.94641,0 -7.14558,3.19918 -7.14557,7.14558 -10e-6,3.94641 3.19916,7.14559 7.14557,7.14559 3.94641,0 7.14559,-3.19918 7.14558,-7.14559 0,-3.9464 -3.19917,-7.14558 -7.14558,-7.14558 z m 0.13193,2.12294 c 1.73876,-10e-6 3.14833,1.40952 3.14838,3.14828 2e-5,1.46652 -1.01249,2.73883 -2.44157,3.06806 1.6281,0.27559 2.97848,1.41285 3.52698,2.97035 h -8.57058 c 0.55588,-1.5785 1.93454,-2.72359 3.58826,-2.98033 -1.40888,-0.34484 -2.39985,-1.60761 -2.39986,-3.05808 5e-5,-1.73877 1.40962,-3.14829 3.14839,-3.14828 z"
         sodipodi:nodetypes="ssssssscccccs" /></g></g><style
     type="text/css"
     id="style1397">
<![CDATA[
	.st0{fill:#000000;}
]]>
</style><style
     type="text/css"
     id="style1">
<![CDATA[
	.st0{fill:#000000;}
]]>
</style></svg>
