<?xml version="1.0" encoding="UTF-8" standalone="no"?>
<!-- Created with Inkscape (http://www.inkscape.org/) -->

<svg
   width="80.581299mm"
   height="80.581299mm"
   viewBox="0 0 80.581299 80.581299"
   version="1.1"
   id="svg5"
   inkscape:version="1.4.4 (dcaf3e7d9e, 2026-05-05)"
   sodipodi:docname="Bière.svg"
   xml:space="preserve"
   xmlns:inkscape="http://www.inkscape.org/namespaces/inkscape"
   xmlns:sodipodi="http://sodipodi.sourceforge.net/DTD/sodipodi-0.dtd"
   xmlns="http://www.w3.org/2000/svg"
   xmlns:svg="http://www.w3.org/2000/svg"
   xmlns:osb="http://www.openswatchbook.org/uri/2009/osb"><sodipodi:namedview
     id="namedview7"
     pagecolor="#ffffff"
     bordercolor="#000000"
     borderopacity="0.25"
     inkscape:showpageshadow="2"
     inkscape:pageopacity="0.0"
     inkscape:pagecheckerboard="true"
     inkscape:deskcolor="#d1d1d1"
     inkscape:document-units="mm"
     showgrid="false"
     inkscape:zoom="0.37155449"
     inkscape:cx="349.88139"
     inkscape:cy="99.581625"
     inkscape:window-width="1536"
     inkscape:window-height="798"
     inkscape:window-x="0"
     inkscape:window-y="0"
     inkscape:window-maximized="1"
     inkscape:current-layer="layer1"
     showguides="false" /><defs
     id="defs2"><rect
   x="448.54202"
   y="529.85144"
   width="38.197552"
   height="38.197552"
   id="rect11" /><rect
   x="537.06824"
   y="536.41333"
   width="327.48065"
   height="42.572483"
   id="rect19" /><rect
   x="399.63498"
   y="321.08899"
   width="176.94421"
   height="71.209251"
   id="rect7" /><rect
   x="174.4071"
   y="-141.92599"
   width="126.68596"
   height="81.17588"
   id="rect1725" /><rect
   x="194.46935"
   y="-66.436157"
   width="96.962852"
   height="99.154907"
   id="rect1515" /><rect
   x="336.52414"
   y="-64.164574"
   width="56.072357"
   height="65.948097"
   id="rect1509" /><rect
   x="338.37405"
   y="-146.20657"
   width="57.826"
   height="70.616623"
   id="rect1500" /><rect
   x="140.28249"
   y="-106.91901"
   width="162.33759"
   height="103.51467"
   id="rect1332" /><inkscape:path-effect
   effect="spiro"
   id="path-effect3997"
   is_visible="true"
   lpeversion="1" /><style
   id="style3170">.cls-1{fill:none;stroke:#020202;stroke-miterlimit:10;stroke-width:1.91px;}</style><linearGradient
   osb:paint="solid"
   id="linearGradient5606"><stop
     style="stop-color:#000000;stop-opacity:1;"
     offset="0"
     id="stop5608" /></linearGradient><filter
   style="color-interpolation-filters:sRGB"
   id="filter7554"><feBlend
     mode="darken"
     in2="BackgroundImage"
     id="feBlend7556" /></filter>
	

	

	

	
	
<rect
   x="174.4071"
   y="-141.92599"
   width="126.68596"
   height="81.17588"
   id="rect1735" /><rect
   x="399.63498"
   y="321.08899"
   width="176.94421"
   height="71.209251"
   id="rect8" /><rect
   x="399.63498"
   y="321.08899"
   width="176.94421"
   height="71.209251"
   id="rect9" /><rect
   x="399.63498"
   y="321.08899"
   width="165.41594"
   height="55.646091"
   id="rect16" /><rect
   x="399.63498"
   y="321.08899"
   width="176.94421"
   height="71.209251"
   id="rect17" /><rect
   x="399.63498"
   y="321.08899"
   width="176.94421"
   height="71.209251"
   id="rect18" /><rect
   x="399.63498"
   y="321.08899"
   width="176.94421"
   height="71.209251"
   id="rect10" /><rect
   x="399.63498"
   y="321.08899"
   width="176.94421"
   height="71.209251"
   id="rect12" /><rect
   x="399.63498"
   y="321.08899"
   width="176.94421"
   height="71.209251"
   id="rect13" /><rect
   x="399.63498"
   y="321.08899"
   width="176.94421"
   height="71.209251"
   id="rect55" /><rect
   x="399.63498"
   y="321.08899"
   width="176.94421"
   height="71.209251"
   id="rect56" /><rect
   x="399.63498"
   y="321.08899"
   width="176.94421"
   height="71.209251"
   id="rect57" /><rect
   x="399.63498"
   y="321.08899"
   width="165.41594"
   height="55.646091"
   id="rect58" /><rect
   x="399.63498"
   y="321.08899"
   width="176.94421"
   height="71.209251"
   id="rect59" /><rect
   x="537.06824"
   y="536.41333"
   width="327.48065"
   height="42.572483"
   id="rect60" /><rect
   x="399.63498"
   y="321.08899"
   width="176.94421"
   height="71.209251"
   id="rect61" /><rect
   x="399.63498"
   y="321.08899"
   width="176.94421"
   height="71.209251"
   id="rect62" /><rect
   x="399.63498"
   y="321.08899"
   width="176.94421"
   height="71.209251"
   id="rect63" /></defs><g
     inkscape:label="Calque 1"
     inkscape:groupmode="layer"
     id="layer1"
     transform="translate(-100.225,-190.225)"><g
       id="g1"><path
         id="rect1"
         style="fill:#cc0000;stroke:#ff0000;stroke-width:0.05"
         d="m 107.69182,190.25 h 65.64766 c 4.12277,0 7.44182,3.31905 7.44182,7.44182 v 65.64766 c 0,4.12277 -3.31905,7.44182 -7.44182,7.44182 h -65.64766 c -4.12277,0 -7.44182,-3.31905 -7.44182,-7.44182 v -65.64766 c 0,-4.12277 3.31905,-7.44182 7.44182,-7.44182 z" /><path
         style="font-weight:bold;font-size:7.05556px;font-family:Cantarell;-inkscape-font-specification:'Cantarell Bold';fill-opacity:0.790615;stroke-width:0.0506842"
         d="m 131.67151,267.18234 h 1.83444 c 1.17828,0 1.92617,-0.58561 1.92617,-1.51694 0,-0.61384 -0.33161,-1.05834 -0.889,-1.25589 0.30339,-0.21167 0.49389,-0.56445 0.49389,-0.95956 0,-0.75494 -0.61384,-1.16417 -1.74272,-1.16417 h -1.62278 z m 0.90311,-2.18017 h 1.05833 c 0.52917,0 0.85372,0.31045 0.85372,0.78317 0,0.45156 -0.27516,0.66322 -0.86783,0.66322 h -1.04422 z m 1.143,-0.71261 h -1.143 v -1.27 h 0.64911 c 0.57856,0 0.889,0.23989 0.889,0.66322 0,0.254 -0.11994,0.45156 -0.39511,0.60678 z m 2.4765,2.89278 h 0.90311 v -3.429 h -0.90311 z m 0.45861,-4.064 c 0.33161,0 0.55033,-0.21167 0.55033,-0.55033 0,-0.33867 -0.21872,-0.55739 -0.55033,-0.55739 -0.33867,0 -0.55739,0.21872 -0.55739,0.55739 0,0.33866 0.21872,0.55033 0.55739,0.55033 z m 3.13972,4.13456 c 0.40217,0 0.83961,-0.0847 1.21356,-0.23989 l -0.20462,-0.62089 c -0.27516,0.11289 -0.57855,0.17639 -0.86783,0.17639 -0.61383,0 -0.99483,-0.28928 -1.10067,-0.85372 h 2.2225 c 0.0212,-0.14112 0.0423,-0.35278 0.0423,-0.508 0,-0.93839 -0.5715,-1.52401 -1.48873,-1.52401 -1.02305,0 -1.70744,0.72673 -1.70744,1.79212 0,1.10066 0.71967,1.778 1.89089,1.778 z m -0.33867,-3.92289 0.41628,-0.33867 -0.78317,-1.18533 -0.67028,0.54327 z m -0.64205,1.83444 c 0.0494,-0.51505 0.30339,-0.79022 0.73377,-0.79022 0.4445,0 0.70556,0.28928 0.70556,0.79022 z m 3.09034,2.01789 h 0.90311 v -2.22955 c 0.20461,-0.24695 0.49389,-0.38806 0.81139,-0.38806 0.14111,0 0.31044,0.0282 0.43744,0.0776 l 0.20461,-0.8255 c -0.14111,-0.0635 -0.32455,-0.0988 -0.508,-0.0988 -0.40922,0 -0.78316,0.19756 -1.04422,0.54328 l -0.0847,-0.508 h -0.71966 z m 4.572,0.0706 c 0.40216,0 0.83961,-0.0847 1.21355,-0.23989 l -0.20461,-0.62089 c -0.27516,0.11289 -0.57855,0.17639 -0.86783,0.17639 -0.61383,0 -0.99483,-0.28928 -1.10067,-0.85372 h 2.2225 c 0.0212,-0.14112 0.0423,-0.35278 0.0423,-0.508 0,-0.93839 -0.5715,-1.52401 -1.48873,-1.52401 -1.02305,0 -1.70744,0.72673 -1.70744,1.79212 0,1.10066 0.71966,1.778 1.89089,1.778 z m -0.98072,-2.08845 c 0.0494,-0.51505 0.30338,-0.79022 0.73377,-0.79022 0.4445,0 0.70556,0.28928 0.70556,0.79022 z"
         id="text1"
         aria-label="Bière" /><g
         id="g14"
         transform="translate(-0.17307,3.91513)"><path
           d="m 158.67539,210.38605 h -5.47655 v 5.4493 h 2.7519 c 0,0 2.72465,0 2.72465,2.72466 v 16.3479 c 0,2.72465 -2.72465,2.72465 -2.72465,2.72465 h -2.7519 v 5.4493 h 5.47655 c 3.00529,0 5.4493,-2.44401 5.4493,-5.4493 v -21.79721 c 0,-3.00528 -2.44401,-5.4493 -5.4493,-5.4493 z"
           id="path1"
           style="fill:#000000;fill-opacity:1;stroke:#000000;stroke-width:1;stroke-dasharray:none;stroke-opacity:1"
           fill="#ffac33"
           sodipodi:nodetypes="scccsscccssss" /><path
           id="path15"
           style="fill:#eeeeee;fill-opacity:0;stroke:#000000;stroke-width:2;stroke-dasharray:none;stroke-opacity:1"
           d="m 149.0852,202.0789 a 4.0869761,4.0869761 0 0 1 4.08694,4.08693 v 4.08706 a 4.0869761,4.0869761 0 0 1 -4.08706,4.08693 c -0.64438,0 -1.24509,-0.16216 -1.78729,-0.42781 -0.57627,1.06125 -1.68797,1.79017 -2.98082,1.79017 a 3.400364,3.400364 0 0 1 -3.16605,-2.17021 5.4220549,5.4220549 0 0 1 -4.32676,2.17021 5.4329535,5.4329535 0 0 1 -4.5842,-2.52439 c -0.49316,0.7016 -1.30515,1.16203 -2.22744,1.16203 -0.67844,0 -1.29276,-0.25754 -1.76958,-0.66896 a 5.4493013,5.4493013 0 0 1 -7.96732,2.51816 5.4493013,5.4493013 0 0 1 -0.27612,-0.18451 5.4493013,5.4493013 0 0 1 -0.3137,-0.25097 5.4493013,5.4493013 0 0 1 -0.24774,-0.2172 5.4493013,5.4493013 0 0 1 -0.27683,-0.29203 5.4493013,5.4493013 0 0 1 -0.21708,-0.24714 5.4493013,5.4493013 0 0 1 -0.23731,-0.33178 5.4493013,5.4493013 0 0 1 -0.17913,-0.26773 5.4493013,5.4493013 0 0 1 -0.19397,-0.36939 5.4493013,5.4493013 0 0 1 -0.13913,-0.28114 5.4493013,5.4493013 0 0 1 -0.14764,-0.40985 5.4493013,5.4493013 0 0 1 -0.0951,-0.27863 5.4493013,5.4493013 0 0 1 -0.0998,-0.47223 5.4493013,5.4493013 0 0 1 -0.0487,-0.24307 5.4493013,5.4493013 0 0 1 -0.0493,-0.69446 5.4493013,5.4493013 0 0 1 -0.002,-0.0338 v -5.44929 a 4.0869761,4.0869761 0 0 1 4.08693,-4.08693 z" /><path
           id="path16"
           style="fill:#eeeeee;fill-opacity:0;stroke:#000000;stroke-width:2;stroke-dasharray:none;stroke-opacity:1"
           d="m 153.17218,210.25289 c -3e-5,2.25719 -1.82987,4.08698 -4.08706,4.08693 -0.64437,0 -1.24508,-0.16216 -1.78729,-0.42781 -0.57626,1.06125 -1.68797,1.79017 -2.98082,1.79017 -1.4018,-0.002 -2.65892,-0.86336 -3.16605,-2.17021 -1.02139,1.36277 -2.62372,2.16646 -4.32676,2.17021 -1.85936,-0.002 -3.58878,-0.95392 -4.5842,-2.52439 -0.49317,0.7016 -1.30515,1.16203 -2.22744,1.16203 -0.67844,0 -1.29276,-0.25754 -1.76958,-0.66896 -1.29294,3.13644 -5.10669,4.34182 -7.96733,2.51816 0.0659,0.0461 0.13281,0.0908 0.20068,0.13399 v 29.35031 c 10e-6,3.00956 2.43973,5.44928 5.44929,5.44929 h 21.79727 c 3.00956,-1e-5 5.44928,-2.43973 5.44929,-5.44929 z"
           sodipodi:nodetypes="cscccccsccccsscc" /><path
           id="path22"
           style="fill:#eeeeee;fill-opacity:0;stroke:#000000;stroke-width:2;stroke-dasharray:none;stroke-opacity:1"
           d="m 153.17218,210.25289 c -3e-5,2.25719 -1.82987,4.08698 -4.08706,4.08693 -0.64437,0 -1.24508,-0.16216 -1.78729,-0.42781 -0.57626,1.06125 -1.68797,1.79017 -2.98082,1.79017 -1.4018,-0.002 -2.65892,-0.86336 -3.16605,-2.17021 -1.02139,1.36277 -2.62372,2.16646 -4.32676,2.17021 -1.85936,-0.002 -3.58878,-0.95392 -4.5842,-2.52439 -0.49317,0.7016 -1.30515,1.16203 -2.22744,1.16203 -0.67844,0 -1.29276,-0.25754 -1.76958,-0.66896 -1.29294,3.13644 -5.10669,4.34182 -7.96733,2.51816 0.0659,0.0461 0.13281,0.0908 0.20068,0.13399 v 29.35031 c 10e-6,3.00956 2.43973,5.44928 5.44929,5.44929 h 21.79727 c 3.00956,-1e-5 5.44928,-2.43973 5.44929,-5.44929 z"
           sodipodi:nodetypes="cscccccsccccsscc" /><path
           style="fill:#000000;fill-opacity:1;stroke:#000000;stroke-width:2.63433;stroke-linecap:round;stroke-linejoin:round;stroke-dasharray:none;stroke-opacity:1"
           d="m 471.90527,944.67805 c -5.63881,-1.48384 -10.36866,-6.13149 -12.09017,-11.88005 -0.49407,-1.64985 -0.53147,-5.06298 -0.60946,-55.61996 -0.0779,-50.47224 -0.0515,-53.85013 0.41894,-53.66961 1.2196,0.46801 5.21576,0.81755 7.52897,0.65855 6.94883,-0.47761 13.53061,-3.85974 17.57874,-9.03304 l 1.57663,-2.01487 1.18793,0.35798 c 3.00952,0.90691 8.44876,0.24157 11.03014,-1.34922 l 0.93273,-0.5748 0.84916,0.89707 c 2.23306,2.35901 6.09183,4.56307 10.11281,5.77626 2.2772,0.68706 3.13446,0.78882 6.62493,0.78647 3.11559,-0.002 4.51472,-0.13945 6.27692,-0.61621 2.5377,-0.68656 5.91804,-2.28649 8.06981,-3.81948 l 1.42798,-1.01734 1.4697,1.32138 c 2.85681,2.56851 6.00037,3.89819 9.96387,4.21454 4.44234,0.35458 9.03658,-1.21081 12.22959,-4.16697 l 1.72332,-1.59549 1.42877,0.30472 c 0.78582,0.1676 2.91754,0.24431 4.73716,0.17048 3.78703,-0.15368 6.21228,-0.81476 8.87683,-2.41968 l 1.70765,-1.02856 -0.004,60.04305 c -0.005,66.59811 0.13809,61.86706 -1.99198,65.92059 -2.10733,4.01026 -6.38882,7.32564 -10.80451,8.36651 -2.79783,0.65951 -87.74308,0.64791 -90.25207,-0.0123 z m 15.01912,-14.91403 c 1.35653,-0.69745 2.50395,-1.8593 3.28565,-3.32696 0.53288,-1.00048 0.55362,-2.65872 0.55362,-44.2504 V 838.9757 l -0.64101,-1.18793 c -1.40254,-2.59919 -3.49442,-3.84171 -6.48657,-3.85281 -1.67596,-0.006 -2.33521,0.13616 -3.40143,0.73462 -1.73254,0.97245 -3.14501,2.86358 -3.55031,4.75345 -0.45052,2.10071 -0.45619,83.40011 -0.006,85.49946 0.3464,1.61521 1.6077,3.58203 2.79675,4.36112 2.17702,1.42644 5.2267,1.62312 7.44926,0.48041 z m 33.92721,-0.26426 c 0.75561,-0.46716 1.7789,-1.42571 2.27397,-2.13011 l 0.90014,-1.28073 v -43.90226 -43.90225 l -0.90014,-1.28073 c -0.49507,-0.7044 -1.55372,-1.68482 -2.35257,-2.17871 -1.26354,-0.78119 -1.72583,-0.89695 -3.5546,-0.89013 -3.01707,0.0112 -5.10308,1.24587 -6.50986,3.85293 l -0.64101,1.18793 v 43.21096 c 0,41.59168 0.0208,43.24992 0.55362,44.2504 1.53105,2.87458 3.94165,4.23776 7.12131,4.02707 1.25022,-0.0828 2.11933,-0.35241 3.10914,-0.96437 z m 32.02744,0.6525 c 1.74985,-0.51965 3.49016,-2.07703 4.29072,-3.83969 0.52768,-1.16186 0.55069,-2.98547 0.55695,-44.14184 l 0.007,-42.92992 -0.75698,-1.51904 c -2.59021,-5.19788 -10.1414,-5.21715 -12.72503,-0.0325 l -0.77315,1.55152 v 42.94585 42.94585 l 0.75697,1.51905 c 1.60448,3.21976 4.98283,4.58795 8.644,3.5007 z"
           id="path23"
           transform="scale(0.26458333)" /></g></g></g><style
     type="text/css"
     id="style1397">
<![CDATA[
	.st0{fill:#000000;}
]]>
</style></svg>
