<?xml version="1.0" encoding="UTF-8" standalone="no"?>
<!-- Created with Inkscape (http://www.inkscape.org/) -->

<svg
   width="80.581299mm"
   height="80.581299mm"
   viewBox="0 0 80.581299 80.581299"
   version="1.1"
   id="svg5"
   inkscape:version="1.4.4 (dcaf3e7d9e, 2026-05-05)"
   sodipodi:docname="Bouc émissaire.svg"
   xml:space="preserve"
   xmlns:inkscape="http://www.inkscape.org/namespaces/inkscape"
   xmlns:sodipodi="http://sodipodi.sourceforge.net/DTD/sodipodi-0.dtd"
   xmlns="http://www.w3.org/2000/svg"
   xmlns:svg="http://www.w3.org/2000/svg"><sodipodi:namedview
     id="namedview7"
     pagecolor="#ffffff"
     bordercolor="#000000"
     borderopacity="0.25"
     inkscape:showpageshadow="2"
     inkscape:pageopacity="0.0"
     inkscape:pagecheckerboard="true"
     inkscape:deskcolor="#d1d1d1"
     inkscape:document-units="mm"
     showgrid="false"
     inkscape:zoom="0.46346021"
     inkscape:cx="612.78184"
     inkscape:cy="364.64835"
     inkscape:window-width="1920"
     inkscape:window-height="1014"
     inkscape:window-x="0"
     inkscape:window-y="0"
     inkscape:window-maximized="1"
     inkscape:current-layer="layer1"
     showguides="false"
     inkscape:lockguides="false" /><defs
     id="defs2"><rect
   x="798.64246"
   y="148.92719"
   width="109.24054"
   height="274.53336"
   id="rect14" /><inkscape:path-effect
   effect="fillet_chamfer"
   id="path-effect30"
   is_visible="true"
   lpeversion="1"
   nodesatellites_param="F,0,0,1,0,0,0,1 @ F,0,0,1,0,0,0,1 @ F,0,0,1,0,0,0,1"
   radius="0"
   unit="px"
   method="auto"
   mode="F"
   chamfer_steps="1"
   flexible="false"
   use_knot_distance="true"
   apply_no_radius="true"
   apply_with_radius="true"
   only_selected="false"
   hide_knots="false" /><rect
   x="418.72342"
   y="605.67639"
   width="272.74643"
   height="87.073982"
   id="rect3" /><rect
   x="56.916111"
   y="260.71249"
   width="257.0405"
   height="55.080105"
   id="rect1" /><inkscape:path-effect
   effect="fillet_chamfer"
   id="path-effect2"
   is_visible="true"
   lpeversion="1"
   nodesatellites_param="F,0,0,1,0,0,0,1 @ F,0,0,1,0,0,0,1 @ F,0,0,1,0,0,0,1 @ F,0,0,1,0,0,0,1 @ F,0,0,1,0,0,0,1 @ F,0,0,1,0,0,0,1 @ F,0,0,1,0,0,0,1 @ F,0,0,1,0,0,0,1 @ F,0,0,1,0,0,0,1"
   radius="0"
   unit="px"
   method="auto"
   mode="F"
   chamfer_steps="1"
   flexible="false"
   use_knot_distance="true"
   apply_no_radius="true"
   apply_with_radius="true"
   only_selected="false"
   hide_knots="false" /><inkscape:path-effect
   effect="fillet_chamfer"
   id="path-effect1"
   is_visible="true"
   lpeversion="1"
   nodesatellites_param="F,0,0,1,0,7.5338088,0,1 @ F,0,0,1,0,0,0,1 @ F,0,0,1,0,0,0,1 @ F,0,0,1,0,0,0,1 @ F,0,0,1,0,0,0,1 @ F,0,0,1,0,0,0,1 @ F,0,0,1,0,0,0,1 @ F,0,0,1,0,0,0,1 @ F,0,0,1,0,0,0,1 @ F,0,0,1,0,0,0,1 @ F,0,0,1,0,0,0,1"
   radius="0"
   unit="px"
   method="auto"
   mode="F"
   chamfer_steps="1"
   flexible="false"
   use_knot_distance="true"
   apply_no_radius="true"
   apply_with_radius="true"
   only_selected="false"
   hide_knots="false" /><inkscape:path-effect
   effect="spiro"
   id="path-effect6"
   is_visible="true"
   lpeversion="1" /><inkscape:path-effect
   effect="fillet_chamfer"
   id="path-effect3"
   is_visible="true"
   lpeversion="1"
   nodesatellites_param="F,0,0,1,0,0,0,1 @ F,0,0,1,0,0,0,1 @ F,0,0,1,0,0,0,1 @ F,0,0,1,0,0,0,1 @ F,0,0,1,0,0,0,1 @ F,0,0,1,0,0,0,1 @ F,0,0,1,0,0,0,1 @ F,0,0,1,0,0,0,1 @ F,0,0,1,0,0,0,1 @ F,0,0,1,0,0,0,1 @ F,0,0,1,0,0,0,1 @ F,0,0,1,0,0,0,1 @ F,0,0,1,0,0,0,1 @ F,0,0,1,0,0,0,1 | F,0,0,1,0,6.4303233,0,1 @ F,0,0,1,0,108.16171,0,1 @ F,0,0,1,0,0,0,1 @ F,0,0,1,0,20.169484,0,1 @ F,0,0,1,0,0,0,1 @ F,0,0,1,0,0,0,1 @ F,0,0,1,0,23.329183,0,1 @ F,0,0,1,0,0,0,1 @ F,0,0,1,0,0,0,1 @ F,0,0,1,0,0,0,1 | F,0,0,1,0,0,0,1 @ F,0,0,1,0,0,0,1 @ F,0,0,1,0,0,0,1 @ F,0,0,1,0,0,0,1 @ F,0,0,1,0,0,0,1 @ F,0,0,1,0,0,0,1 | F,0,0,1,0,0,0,1 @ F,0,0,1,0,0,0,1 @ F,0,0,1,0,0,0,1 @ F,0,0,1,0,0,0,1 @ F,0,0,1,0,0,0,1 @ F,0,0,1,0,0,0,1 @ F,0,0,1,0,0,0,1 @ F,0,0,1,0,0,0,1 @ F,0,0,1,0,0,0,1 @ F,0,0,1,0,0,0,1"
   radius="0"
   unit="px"
   method="auto"
   mode="F"
   chamfer_steps="1"
   flexible="false"
   use_knot_distance="true"
   apply_no_radius="true"
   apply_with_radius="true"
   only_selected="false"
   hide_knots="false" /><inkscape:path-effect
   effect="spiro"
   id="path-effect9346"
   is_visible="true"
   lpeversion="1" />
		
	
	
	

	

		
	
	

	

	
<style
   id="style1-6">.cls-1{fill:#231f20;}.cls-2{fill:#ffba50;}.cls-3{fill:#ff8e5a;}.cls-4{fill:#8d7f89;}</style><style
   id="style1-2">.cls-1{fill:#231f20;}.cls-2{fill:#ffba50;}.cls-3{fill:#ff8e5a;}.cls-4{fill:#8d7f89;}</style>
	

		
		
		
		
		
		
	
	
	

		
		
		
		
		
		
		
		
		
		
		
		
	
	<linearGradient
   id="paint0_linear"
   x1="65.270203"
   y1="50.590801"
   x2="49.117599"
   y2="36.428001"
   gradientUnits="userSpaceOnUse"><stop
     offset="0.00132565"
     stop-color="#FFCB4B"
     id="stop19" /><stop
     offset="1"
     stop-color="#FFD748"
     id="stop20" /></linearGradient><linearGradient
   id="paint1_linear"
   x1="35.0326"
   y1="114.957"
   x2="61.179298"
   y2="30.624701"
   gradientUnits="userSpaceOnUse"><stop
     stop-color="#FFBC47"
     stop-opacity="0"
     id="stop21" /><stop
     offset="1"
     stop-color="#C86F34"
     id="stop22" /></linearGradient><linearGradient
   id="paint2_linear"
   x1="57.967701"
   y1="15.168"
   x2="43.850899"
   y2="32.230801"
   gradientUnits="userSpaceOnUse"><stop
     offset="0.00132565"
     stop-color="#FFCB4B"
     id="stop23" /><stop
     offset="1"
     stop-color="#FFD748"
     id="stop24" /></linearGradient><linearGradient
   id="paint3_linear"
   x1="33.141998"
   y1="53.251701"
   x2="35.597099"
   y2="41.467201"
   gradientUnits="userSpaceOnUse"><stop
     offset="0.00132565"
     stop-color="#FFCB4B"
     id="stop25" /><stop
     offset="1"
     stop-color="#FFD748"
     id="stop26" /></linearGradient><linearGradient
   id="paint4_linear"
   x1="39.8951"
   y1="31.3127"
   x2="25.5021"
   y2="77.169296"
   gradientUnits="userSpaceOnUse"><stop
     stop-color="#FFBC47"
     stop-opacity="0"
     id="stop27" /><stop
     offset="1"
     stop-color="#C86F34"
     id="stop28" /></linearGradient><linearGradient
   id="paint5_linear"
   x1="50.767899"
   y1="56.099499"
   x2="62.920601"
   y2="69.172897"
   gradientUnits="userSpaceOnUse"><stop
     stop-color="#FFBC47"
     stop-opacity="0"
     id="stop29" /><stop
     offset="1"
     stop-color="#C86F34"
     id="stop30" /></linearGradient><linearGradient
   id="paint6_linear"
   x1="47.577301"
   y1="20.198099"
   x2="4.12219"
   y2="116.929"
   gradientUnits="userSpaceOnUse"><stop
     stop-color="#FFBC47"
     stop-opacity="0"
     id="stop31" /><stop
     offset="1"
     stop-color="#C86F34"
     id="stop32" /></linearGradient><linearGradient
   id="paint7_linear"
   x1="101.568"
   y1="-32.417999"
   x2="-7.70081"
   y2="210.813"
   gradientUnits="userSpaceOnUse"><stop
     stop-color="#FFBC47"
     stop-opacity="0"
     id="stop33" /><stop
     offset="1"
     stop-color="#C86F34"
     id="stop34" /></linearGradient><linearGradient
   id="paint8_linear"
   x1="39.0569"
   y1="26.840799"
   x2="39.0569"
   y2="8.87605"
   gradientUnits="userSpaceOnUse"><stop
     stop-color="#FFBC47"
     stop-opacity="0"
     id="stop35" /><stop
     offset="1"
     stop-color="#C86F34"
     id="stop36" /></linearGradient><linearGradient
   id="paint9_linear"
   x1="57.075901"
   y1="67.800598"
   x2="57.075901"
   y2="3.35287"
   gradientUnits="userSpaceOnUse"><stop
     stop-color="#FFBC47"
     stop-opacity="0"
     id="stop37" /><stop
     offset="1"
     stop-color="#C86F34"
     id="stop38" /></linearGradient><linearGradient
   id="paint10_linear"
   x1="31.6098"
   y1="27.9687"
   x2="77.815804"
   y2="54.279499"
   gradientUnits="userSpaceOnUse"><stop
     stop-color="#FFBC47"
     stop-opacity="0"
     id="stop39" /><stop
     offset="1"
     stop-color="#C86F34"
     id="stop40" /></linearGradient><linearGradient
   id="paint11_linear"
   x1="60.021702"
   y1="-30.491501"
   x2="73.033699"
   y2="106.011"
   gradientUnits="userSpaceOnUse"><stop
     stop-color="#FFBC47"
     stop-opacity="0"
     id="stop41" /><stop
     offset="1"
     stop-color="#C86F34"
     id="stop42" /></linearGradient><linearGradient
   id="paint12_linear"
   x1="43.799999"
   y1="7.8622298"
   x2="31.0336"
   y2="72.185501"
   gradientUnits="userSpaceOnUse"><stop
     stop-color="#FFBC47"
     stop-opacity="0"
     id="stop43" /><stop
     offset="1"
     stop-color="#C86F34"
     id="stop44" /></linearGradient><linearGradient
   id="paint13_linear"
   x1="60.507099"
   y1="37.375801"
   x2="101.384"
   y2="40.1991"
   gradientUnits="userSpaceOnUse"><stop
     stop-color="#FFBC47"
     stop-opacity="0"
     id="stop45" /><stop
     offset="1"
     stop-color="#C86F34"
     id="stop46" /></linearGradient><radialGradient
   id="paint14_radial"
   cx="0"
   cy="0"
   r="1"
   gradientUnits="userSpaceOnUse"
   gradientTransform="matrix(-7.5111091,-10.279183,5.3760183,-3.9283142,39.4272,39.0565)"><stop
     stop-color="#FBE07A"
     id="stop47" /><stop
     offset="0.2654"
     stop-color="#FCDF73"
     stop-opacity="0.7346"
     id="stop48" /><stop
     offset="0.6548"
     stop-color="#FDDB5F"
     stop-opacity="0.3452"
     id="stop49" /><stop
     offset="1"
     stop-color="#FFD748"
     stop-opacity="0"
     id="stop50" /></radialGradient><radialGradient
   id="paint15_radial"
   cx="0"
   cy="0"
   r="1"
   gradientUnits="userSpaceOnUse"
   gradientTransform="matrix(-28.77857,-2.3245686,0.32574619,-4.0327954,38.8745,24.1327)"><stop
     stop-color="#FBE07A"
     id="stop51" /><stop
     offset="0.2654"
     stop-color="#FCDF73"
     stop-opacity="0.7346"
     id="stop52" /><stop
     offset="0.6548"
     stop-color="#FDDB5F"
     stop-opacity="0.3452"
     id="stop53" /><stop
     offset="1"
     stop-color="#FFD748"
     stop-opacity="0"
     id="stop54" /></radialGradient><radialGradient
   id="paint16_radial"
   cx="0"
   cy="0"
   r="1"
   gradientUnits="userSpaceOnUse"
   gradientTransform="matrix(-4.2932304,-3.2507155,1.5527715,-2.0507503,61.3922,47.0736)"><stop
     stop-color="#FBE07A"
     id="stop55" /><stop
     offset="0.2654"
     stop-color="#FCDF73"
     stop-opacity="0.7346"
     id="stop56" /><stop
     offset="0.6548"
     stop-color="#FDDB5F"
     stop-opacity="0.3452"
     id="stop57" /><stop
     offset="1"
     stop-color="#FFD748"
     stop-opacity="0"
     id="stop58" /></radialGradient><linearGradient
   id="paint0_linear-6"
   x1="65.269897"
   y1="50.596802"
   x2="49.1161"
   y2="36.432899"
   gradientUnits="userSpaceOnUse"
   gradientTransform="matrix(2.6458333,0,0,2.6458333,322.52702,243.66589)"><stop
     offset="0.00132565"
     stop-color="#FFCB4B"
     id="stop19-9" /><stop
     offset="1"
     stop-color="#FFD748"
     id="stop20-3" /></linearGradient><linearGradient
   id="paint1_linear-7"
   x1="35.031399"
   y1="114.968"
   x2="61.179901"
   y2="30.6304"
   gradientUnits="userSpaceOnUse"
   gradientTransform="matrix(2.6458333,0,0,2.6458333,322.52702,243.66589)"><stop
     stop-color="#FFBC47"
     stop-opacity="0"
     id="stop21-4" /><stop
     offset="1"
     stop-color="#C86F34"
     id="stop22-5" /></linearGradient><linearGradient
   id="paint2_linear-2"
   x1="70.511803"
   y1="-7.1276302"
   x2="46.2048"
   y2="28.2281"
   gradientUnits="userSpaceOnUse"
   gradientTransform="matrix(2.6458333,0,0,2.6458333,322.52702,243.66589)"><stop
     offset="0.00132565"
     stop-color="#F0C492"
     id="stop23-5" /><stop
     offset="1"
     stop-color="#F8DBBA"
     id="stop24-4" /></linearGradient><linearGradient
   id="paint3_linear-7"
   x1="33.140598"
   y1="53.258598"
   x2="35.595901"
   y2="41.4734"
   gradientUnits="userSpaceOnUse"
   gradientTransform="matrix(2.6458333,0,0,2.6458333,322.52702,243.66589)"><stop
     offset="0.00132565"
     stop-color="#F0C492"
     id="stop25-4" /><stop
     offset="1"
     stop-color="#F8DBBA"
     id="stop26-4" /></linearGradient><linearGradient
   id="paint4_linear-3"
   x1="42.973598"
   y1="31.887899"
   x2="13.5106"
   y2="85.842003"
   gradientUnits="userSpaceOnUse"
   gradientTransform="matrix(2.6458333,0,0,2.6458333,322.52702,243.66589)"><stop
     stop-color="#FFBC47"
     stop-opacity="0"
     id="stop27-0" /><stop
     offset="1"
     stop-color="#C86F34"
     id="stop28-7" /></linearGradient><linearGradient
   id="paint5_linear-8"
   x1="50.767799"
   y1="56.1064"
   x2="62.921299"
   y2="69.180702"
   gradientUnits="userSpaceOnUse"
   gradientTransform="matrix(2.6458333,0,0,2.6458333,322.52702,243.66589)"><stop
     stop-color="#FFBC47"
     stop-opacity="0"
     id="stop29-6" /><stop
     offset="1"
     stop-color="#C86F34"
     id="stop30-8" /></linearGradient><linearGradient
   id="paint6_linear-8"
   x1="47.577"
   y1="20.2033"
   x2="4.1188798"
   y2="116.941"
   gradientUnits="userSpaceOnUse"
   gradientTransform="matrix(2.6458333,0,0,2.6458333,322.52702,243.66589)"><stop
     stop-color="#E6AF74"
     stop-opacity="0"
     id="stop31-4" /><stop
     offset="1"
     stop-color="#E6AF74"
     id="stop32-3" /></linearGradient><linearGradient
   id="paint7_linear-1"
   x1="101.571"
   y1="-32.416698"
   x2="-7.70474"
   y2="210.83099"
   gradientUnits="userSpaceOnUse"
   gradientTransform="matrix(2.6458333,0,0,2.6458333,322.52702,243.66589)"><stop
     stop-color="#FFBC47"
     stop-opacity="0"
     id="stop33-4" /><stop
     offset="1"
     stop-color="#C86F34"
     id="stop34-9" /></linearGradient><linearGradient
   id="paint8_linear-2"
   x1="38.444302"
   y1="27.232401"
   x2="42.495499"
   y2="-14.5069"
   gradientUnits="userSpaceOnUse"
   gradientTransform="matrix(2.6458333,0,0,2.6458333,322.52702,243.66589)"><stop
     stop-color="#FFBC47"
     stop-opacity="0"
     id="stop35-0" /><stop
     offset="1"
     stop-color="#C86F34"
     id="stop36-6" /></linearGradient><linearGradient
   id="paint9_linear-8"
   x1="57.076199"
   y1="67.809402"
   x2="57.076199"
   y2="3.3571301"
   gradientUnits="userSpaceOnUse"
   gradientTransform="matrix(2.6458333,0,0,2.6458333,322.52702,243.66589)"><stop
     stop-color="#E6AF74"
     stop-opacity="0"
     id="stop37-9" /><stop
     offset="1"
     stop-color="#E6AF74"
     id="stop38-2" /></linearGradient><linearGradient
   id="paint10_linear-6"
   x1="31.608299"
   y1="27.9744"
   x2="77.817596"
   y2="54.2873"
   gradientUnits="userSpaceOnUse"
   gradientTransform="matrix(2.6458333,0,0,2.6458333,322.52702,243.66589)"><stop
     stop-color="#FFBC47"
     stop-opacity="0"
     id="stop39-6" /><stop
     offset="1"
     stop-color="#C86F34"
     id="stop40-4" /></linearGradient><linearGradient
   id="paint11_linear-9"
   x1="60.022202"
   y1="-30.490299"
   x2="73.035103"
   y2="106.022"
   gradientUnits="userSpaceOnUse"
   gradientTransform="matrix(2.6458333,0,0,2.6458333,322.52702,243.66589)"><stop
     stop-color="#FFBC47"
     stop-opacity="0"
     id="stop41-5" /><stop
     offset="1"
     stop-color="#C86F34"
     id="stop42-0" /></linearGradient><linearGradient
   id="paint12_linear-4"
   x1="43.799099"
   y1="7.8662901"
   x2="31.031799"
   y2="72.193901"
   gradientUnits="userSpaceOnUse"
   gradientTransform="matrix(2.6458333,0,0,2.6458333,322.52702,243.66589)"><stop
     stop-color="#FFBA47"
     stop-opacity="0"
     id="stop43-8" /><stop
     offset="1"
     stop-color="#C66F34"
     id="stop44-7" /></linearGradient><linearGradient
   id="paint13_linear-1"
   x1="60.507599"
   y1="37.382"
   x2="101.388"
   y2="40.205502"
   gradientUnits="userSpaceOnUse"
   gradientTransform="matrix(2.6458333,0,0,2.6458333,322.52702,243.66589)"><stop
     stop-color="#FFBA47"
     stop-opacity="0"
     id="stop45-7" /><stop
     offset="1"
     stop-color="#C66F34"
     id="stop46-2" /></linearGradient><radialGradient
   id="paint14_radial-7"
   cx="0"
   cy="0"
   r="1"
   gradientUnits="userSpaceOnUse"
   gradientTransform="matrix(-19.874391,-27.198714,14.225052,-10.394398,426.83318,347.02219)"><stop
     stop-color="#F8E6D2"
     id="stop47-2" /><stop
     offset="1"
     stop-color="#F8E6D2"
     stop-opacity="0"
     id="stop48-2" /></radialGradient><radialGradient
   id="paint15_radial-6"
   cx="0"
   cy="0"
   r="1"
   gradientUnits="userSpaceOnUse"
   gradientTransform="matrix(-76.148837,-6.1508682,0.86192975,-10.670843,425.37506,307.52652)"><stop
     stop-color="#F8E6D2"
     id="stop49-1" /><stop
     offset="1"
     stop-color="#F8E6D2"
     stop-opacity="0"
     id="stop50-0" /></radialGradient><radialGradient
   id="paint16_radial-6"
   cx="0"
   cy="0"
   r="1"
   gradientUnits="userSpaceOnUse"
   gradientTransform="matrix(-11.359952,-8.6014424,4.1086619,-5.4263231,484.95658,368.22246)"><stop
     stop-color="#F8E6D2"
     id="stop51-1" /><stop
     offset="1"
     stop-color="#F8E6D2"
     stop-opacity="0"
     id="stop52-5" /></radialGradient>
	

	

		
	
	
</defs><g
     inkscape:label="Calque 1"
     inkscape:groupmode="layer"
     id="layer1"
     transform="translate(-10.225,-190.225)"><g
       id="g4"><rect
         style="opacity:1;fill:#000000;fill-opacity:1;stroke:#ff0000;stroke-width:0.05;stroke-dasharray:none;stroke-opacity:1"
         id="rect945"
         width="80.531296"
         height="80.531296"
         x="10.25"
         y="190.25"
         ry="7.4418163" /><text
         xml:space="preserve"
         style="font-weight:bold;font-size:7.05556px;font-family:Ubuntu;-inkscape-font-specification:'Ubuntu Bold';opacity:1;fill:#cc0000;fill-opacity:1;stroke:#ff0000;stroke-width:0.05;stroke-dasharray:none;stroke-opacity:1"
         x="50.98127"
         y="267.18234"
         id="text21"><tspan
           sodipodi:role="line"
           style="font-style:normal;font-variant:normal;font-weight:bold;font-stretch:normal;font-size:7.05556px;font-family:Cantarell;-inkscape-font-specification:'Cantarell Bold';text-align:center;text-anchor:middle;fill:#cc0000;fill-opacity:1;stroke:none;stroke-width:0.05;stroke-dasharray:none"
           x="50.98127"
           y="267.18234"
           id="tspan21">Bouc émissaire</tspan></text><g
         id="g5"
         transform="matrix(0.94360886,0,0,0.94360886,3.7335857,17.715875)"
         style="stroke:#cc0000;stroke-opacity:1"><path
           style="fill:none;stroke:#cc0000;stroke-width:1.5;stroke-dasharray:none;stroke-opacity:1"
           d="m 49.476069,209.90798 c -14.831338,0 -10.769341,17.57566 -10.261466,19.60716 0.507874,2.0315 5.079745,17.47369 10.667366,17.47369 5.586621,0 9.040768,-13.30872 10.056517,-17.26874 6.705345,-21.23376 -10.462417,-19.81211 -10.462417,-19.81211 z"
           id="path1-7"
           sodipodi:nodetypes="csscc" /><path
           style="fill:none;stroke:#cc0000;stroke-width:1.3;stroke-dasharray:none;stroke-opacity:1"
           d="m 54.586807,244.88866 c -1.360664,1.38766 -2.919279,2.22745 -4.704838,2.22745 -1.749568,0 -3.418156,-0.88878 -5.033757,-2.69134 -0.736818,-0.82279 -1.201704,-0.67583 -1.061738,0.4199 0.298926,2.33242 0.857788,3.52013 1.552617,4.39092 0.688829,0.86278 1.139718,0.7968 1.134719,-0.021 -0.006,-0.8178 0.479882,-0.52087 0.85179,0.51787 0.318921,0.89178 0.717823,1.52463 1.180709,2.11048 0.683831,0.86679 2.006504,0.93577 2.621352,0.018 0.497877,-0.74182 0.871785,-1.53862 1.141719,-2.23045 0.398901,-1.02975 0.693828,-1.30168 0.736818,-0.54187 0.04099,0.75881 0.737817,0.8258 1.364663,-0.081 0.782806,-1.13172 1.167711,-2.4114 1.349666,-3.65709 0.157961,-1.09673 -0.359911,-1.2497 -1.13372,-0.46189 z"
           id="path2" /><path
           style="fill:none;stroke:#cc0000;stroke-width:1.3;stroke-dasharray:none;stroke-opacity:1"
           d="m 39.388808,211.65999 c -3.72708,-0.54087 -5.554629,3.86204 -5.743582,5.2577 -0.32392,1.39965 -0.761812,2.30543 -1.636597,3.38916 -0.69283,0.85879 -0.458888,1.74157 0.64584,1.70558 1.871539,-0.061 3.52813,-0.85179 4.74483,-1.69458 0.907776,-0.62885 1.6206,-2.17446 1.864539,-3.2522 0.233943,-1.03774 0.563861,-2.05849 1.016749,-3.02725 0.468885,-0.99975 0.200951,-2.22045 -0.891779,-2.37841 z"
           id="path3-0" /><path
           style="fill:none;stroke:#cc0000;stroke-width:1.3;stroke-dasharray:none;stroke-opacity:1"
           d="m 66.568163,216.91769 c -0.187953,-1.36366 -1.937521,-5.59762 -5.494643,-5.2877 -1.099729,0.096 -1.887534,0.58686 -1.857542,0.62285 0.017,0.021 0.03199,0.042 0.04999,0.065 1.044742,1.42565 1.74057,3.10624 2.089484,5.03176 0.195952,1.08673 0.882782,2.61236 1.813553,3.20621 1.174709,0.74782 2.692335,1.40165 4.388916,1.45664 1.103727,0.036 1.338669,-0.84679 0.64584,-1.70558 -0.876783,-1.08373 -1.313675,-1.98851 -1.635596,-3.38916 z"
           id="path4-9" /><path
           style="fill:none;stroke:#cc0000;stroke-width:1.3;stroke-dasharray:none;stroke-opacity:1"
           d="m 38.004901,208.80438 1.125722,2.09548 c 0.523871,0.97376 1.518625,1.14872 2.35042,0.55086 0.832794,-0.59785 1.17371,-1.73557 0.645841,-2.70533 -0.899778,-1.65559 -2.008504,-3.6411 -2.325426,-3.98701 -0.557863,-0.60985 -11.963046,-6.88331 -12.571897,-6.17148 -0.457886,0.53487 5.331684,5.04875 8.230968,7.25321 0.878784,0.66883 2.021501,1.99151 2.544372,2.96427 z"
           id="path5-3" /><path
           style="fill:none;stroke:#cc0000;stroke-width:1.3;stroke-dasharray:none;stroke-opacity:1"
           d="m 71.925527,199.17332 c -0.60885,-0.71183 -12.013034,5.56162 -12.570897,6.17147 -0.306924,0.33292 -1.351666,2.19846 -2.231449,3.81606 -0.528869,0.96976 -0.179955,2.06349 0.69083,2.58736 0.870785,0.52387 1.917526,0.28293 2.440397,-0.68983 l 0.895779,-1.66758 c 0.521871,-0.97277 1.665589,-2.29544 2.544372,-2.96427 2.899284,-2.20546 8.687855,-6.71935 8.230968,-7.25321 z"
           id="path6" /><path
           style="fill:none;stroke:#cc0000;stroke-width:1.3;stroke-dasharray:none;stroke-opacity:1"
           d="m 49.476069,209.90798 c -14.831338,0 -10.769341,17.57566 -10.261467,19.60716 0.507875,2.0315 5.079746,17.47368 10.667367,17.47368 5.586621,0 9.040768,-13.30871 10.056517,-17.26873 6.705345,-21.23376 -10.462417,-19.81211 -10.462417,-19.81211 z m -0.442891,34.07459 c -0.07298,0.063 -0.165958,0.099 -0.258936,0.099 -0.06598,0 -0.133966,-0.019 -0.192952,-0.053 -0.977758,-0.55387 -2.06449,-1.50963 -2.135472,-2.29943 -0.02599,-0.28893 0.07997,-0.54987 0.299925,-0.73082 0.117972,-0.1 0.259937,-0.14997 0.4089,-0.14997 0.741816,0 1.488632,1.46464 1.984509,2.69234 0.06199,0.15396 0.01999,0.33192 -0.105974,0.44189 z m 2.208456,-0.017 c -0.06099,0.033 -0.126969,0.051 -0.191953,0.051 -0.09498,0 -0.185954,-0.033 -0.259936,-0.1 -0.125969,-0.10797 -0.167959,-0.28693 -0.104974,-0.44089 0.495877,-1.22869 1.242693,-2.69233 1.98351,-2.69233 0.148963,0 0.290928,0.051 0.409899,0.14996 0.218946,0.18395 0.325919,0.44289 0.298926,0.73382 -0.07098,0.7908 -1.155715,1.74457 -2.135472,2.29843 z"
           id="path39"
           sodipodi:nodetypes="csscccscscscccsccsccc" /><path
           style="fill:none;fill-opacity:1;stroke:#cc0000;stroke-width:1.5;stroke-dasharray:none;stroke-opacity:1"
           d="m 44.423317,223.46963 c -0.867786,0 -1.573611,-0.70683 -1.573611,-1.57361 0,-0.86779 0.705825,-1.57361 1.573611,-1.57361 0.867786,0 1.574611,0.70582 1.574611,1.57361 9.93e-4,0.86678 -0.705826,1.57361 -1.574611,1.57361 z m 10.843323,0.033 c -0.867787,0 -1.573612,-0.70682 -1.573612,-1.57361 0,-0.86779 0.705825,-1.57361 1.573612,-1.57361 0.867785,0 1.572611,0.70582 1.572611,1.57361 0,0.86779 -0.704826,1.57361 -1.572611,1.57361 z"
           id="path40"
           sodipodi:nodetypes="ssscssssss" /></g><path
         id="path36"
         style="fill:#cc0000;fill-opacity:1;stroke:none;stroke-width:0.397412;stroke-linecap:round;stroke-linejoin:round"
         d="m 19.370588,192.225 a 7.1455797,7.1455797 0 0 0 -7.145588,7.14559 7.1455797,7.1455797 0 0 0 7.145588,7.14558 7.1455797,7.1455797 0 0 0 7.145579,-7.14558 7.1455797,7.1455797 0 0 0 -7.145579,-7.14559 z m 0.0534,2.60722 c 0.0933,0 0.186549,0.028 0.261149,0.0839 l 4.020561,3.65572 c 0.18651,0.14921 0.0745,0.41024 -0.149291,0.41024 h -0.70871 v 4.10337 c 0,0.22382 -0.1492,0.37302 -0.37302,0.37302 h -1.93164 l -0.0486,-2.0437 c -0.0118,-0.49316 -0.57716,-1.02185 -1.070449,-1.02185 -0.4933,-1e-5 -1.05872,0.52869 -1.07045,1.02185 l -0.0487,2.0437 h -1.931541 c -0.22382,0 -0.37301,-0.1492 -0.37302,-0.37302 v -4.10327 l -0.7088,-1e-4 c -0.22382,0 -0.3357,-0.26103 -0.14919,-0.41024 l 1.19528,-0.97146 v -2.07774 c 0,-0.22382 0.14921,-0.37301 0.37302,-0.37301 h 0.43948 c 0.17584,0 0.37301,0.19717 0.37301,0.37301 v 0.84672 l 1.639761,-1.45324 c 0.0746,-0.056 0.16789,-0.0839 0.26114,-0.0839 z" /><path
         id="path37"
         style="fill:#cc0000;fill-opacity:1;stroke:none;stroke-width:0.397412;stroke-linecap:round;stroke-linejoin:round"
         d="m 81.660568,192.225 c -3.946411,0 -7.145578,3.19917 -7.145568,7.14559 -1e-5,3.9464 3.199157,7.14558 7.145568,7.14558 3.946409,0 7.145589,-3.19918 7.145579,-7.14558 0,-3.94642 -3.19917,-7.14559 -7.145579,-7.14559 z m 0.131929,2.12293 c 1.73876,-1e-5 3.14833,1.40952 3.14838,3.1483 2e-5,1.46651 -1.01249,2.73882 -2.44157,3.06805 1.6281,0.27559 2.97848,1.41285 3.526981,2.97035 h -8.570581 c 0.55588,-1.5785 1.93454,-2.72359 3.588261,-2.98033 -1.408881,-0.34484 -2.399851,-1.6076 -2.399861,-3.05807 5e-5,-1.73878 1.40962,-3.14831 3.14839,-3.1483 z"
         sodipodi:nodetypes="ssssssscccccs" /></g></g><style
     type="text/css"
     id="style10809">
	.puchipuchi_een{fill:#111918;}
</style><style
     type="text/css"
     id="style11287">
	.st0{fill:#000000;}
</style><style
     type="text/css"
     id="style1">
<![CDATA[
	.st0{fill:#000000;}
]]>
</style><style
     type="text/css"
     id="style1-3">
	.st0{fill:#FD6A7E;}
	.st1{fill:#17B978;}
	.st2{fill:#8797EE;}
	.st3{fill:#41A6F9;}
	.st4{fill:#37E0FF;}
	.st5{fill:#2FD9B9;}
	.st6{fill:#F498BD;}
	.st7{fill:#FFDF1D;}
	.st8{fill:#C6C9CC;}
</style></svg>
