<?xml version="1.0" encoding="UTF-8" standalone="no"?>
<!-- Created with Inkscape (http://www.inkscape.org/) -->

<svg
   width="80.531303mm"
   height="80.531296mm"
   viewBox="0 0 80.531303 80.531296"
   version="1.1"
   id="svg5"
   inkscape:version="1.4.4 (dcaf3e7d9e, 2026-05-05)"
   sodipodi:docname="Chevalier à l'épée rouillée.svg"
   xml:space="preserve"
   xmlns:inkscape="http://www.inkscape.org/namespaces/inkscape"
   xmlns:sodipodi="http://sodipodi.sourceforge.net/DTD/sodipodi-0.dtd"
   xmlns="http://www.w3.org/2000/svg"
   xmlns:svg="http://www.w3.org/2000/svg"><sodipodi:namedview
     id="namedview7"
     pagecolor="#ffffff"
     bordercolor="#000000"
     borderopacity="0.25"
     inkscape:showpageshadow="2"
     inkscape:pageopacity="0.0"
     inkscape:pagecheckerboard="true"
     inkscape:deskcolor="#d1d1d1"
     inkscape:document-units="mm"
     showgrid="false"
     inkscape:zoom="0.62827759"
     inkscape:cx="-461.57941"
     inkscape:cy="133.69886"
     inkscape:window-width="1920"
     inkscape:window-height="1014"
     inkscape:window-x="0"
     inkscape:window-y="0"
     inkscape:window-maximized="1"
     inkscape:current-layer="layer1"
     showguides="false" /><defs
     id="defs2"><inkscape:path-effect
   effect="fillet_chamfer"
   id="path-effect2"
   is_visible="true"
   lpeversion="1"
   nodesatellites_param="F,0,0,1,0,0,0,1 @ F,0,0,1,0,0,0,1 @ F,0,0,1,0,0,0,1 @ F,0,0,1,0,0,0,1 @ F,0,0,1,0,0,0,1 @ F,0,0,1,0,0,0,1 @ F,0,0,1,0,0,0,1 @ F,0,0,1,0,0,0,1 @ F,0,0,1,0,0,0,1"
   radius="0"
   unit="px"
   method="auto"
   mode="F"
   chamfer_steps="1"
   flexible="false"
   use_knot_distance="true"
   apply_no_radius="true"
   apply_with_radius="true"
   only_selected="false"
   hide_knots="false" /><inkscape:path-effect
   effect="fillet_chamfer"
   id="path-effect1"
   is_visible="true"
   lpeversion="1"
   nodesatellites_param="F,0,0,1,0,7.5338088,0,1 @ F,0,0,1,0,0,0,1 @ F,0,0,1,0,0,0,1 @ F,0,0,1,0,0,0,1 @ F,0,0,1,0,0,0,1 @ F,0,0,1,0,0,0,1 @ F,0,0,1,0,0,0,1 @ F,0,0,1,0,0,0,1 @ F,0,0,1,0,0,0,1 @ F,0,0,1,0,0,0,1 @ F,0,0,1,0,0,0,1"
   radius="0"
   unit="px"
   method="auto"
   mode="F"
   chamfer_steps="1"
   flexible="false"
   use_knot_distance="true"
   apply_no_radius="true"
   apply_with_radius="true"
   only_selected="false"
   hide_knots="false" /><inkscape:path-effect
   effect="spiro"
   id="path-effect6"
   is_visible="true"
   lpeversion="1" /><inkscape:path-effect
   effect="fillet_chamfer"
   id="path-effect3"
   is_visible="true"
   lpeversion="1"
   nodesatellites_param="F,0,0,1,0,0,0,1 @ F,0,0,1,0,0,0,1 @ F,0,0,1,0,0,0,1 @ F,0,0,1,0,0,0,1 @ F,0,0,1,0,0,0,1 @ F,0,0,1,0,0,0,1 @ F,0,0,1,0,0,0,1 @ F,0,0,1,0,0,0,1 @ F,0,0,1,0,0,0,1 @ F,0,0,1,0,0,0,1 @ F,0,0,1,0,0,0,1 @ F,0,0,1,0,0,0,1 @ F,0,0,1,0,0,0,1 @ F,0,0,1,0,0,0,1 | F,0,0,1,0,6.4303233,0,1 @ F,0,0,1,0,108.16171,0,1 @ F,0,0,1,0,0,0,1 @ F,0,0,1,0,20.169484,0,1 @ F,0,0,1,0,0,0,1 @ F,0,0,1,0,0,0,1 @ F,0,0,1,0,23.329183,0,1 @ F,0,0,1,0,0,0,1 @ F,0,0,1,0,0,0,1 @ F,0,0,1,0,0,0,1 | F,0,0,1,0,0,0,1 @ F,0,0,1,0,0,0,1 @ F,0,0,1,0,0,0,1 @ F,0,0,1,0,0,0,1 @ F,0,0,1,0,0,0,1 @ F,0,0,1,0,0,0,1 | F,0,0,1,0,0,0,1 @ F,0,0,1,0,0,0,1 @ F,0,0,1,0,0,0,1 @ F,0,0,1,0,0,0,1 @ F,0,0,1,0,0,0,1 @ F,0,0,1,0,0,0,1 @ F,0,0,1,0,0,0,1 @ F,0,0,1,0,0,0,1 @ F,0,0,1,0,0,0,1 @ F,0,0,1,0,0,0,1"
   radius="0"
   unit="px"
   method="auto"
   mode="F"
   chamfer_steps="1"
   flexible="false"
   use_knot_distance="true"
   apply_no_radius="true"
   apply_with_radius="true"
   only_selected="false"
   hide_knots="false" /><inkscape:path-effect
   effect="spiro"
   id="path-effect9346"
   is_visible="true"
   lpeversion="1" />
		
	
	
	

	

		
	
	

	

	

	

	

	
</defs><g
     inkscape:label="Calque 1"
     inkscape:groupmode="layer"
     id="layer1"
     transform="translate(-190.25,-10.25)"><g
       id="g43"><path
         id="rect925"
         style="stroke-width:0.05"
         d="m 197.69182,10.25 h 65.64766 c 4.12277,0 7.44182,3.31905 7.44182,7.441816 v 65.647663 c 0,4.122767 -3.31905,7.441817 -7.44182,7.441817 h -65.64766 c -4.12277,0 -7.44182,-3.31905 -7.44182,-7.441817 V 17.691816 c 0,-4.122766 3.31905,-7.441816 7.44182,-7.441816 z" /><g
         id="text1194"
         style="font-weight:bold;font-size:7.05556px;font-family:Ubuntu;-inkscape-font-specification:'Ubuntu Bold';fill:#cc0000;stroke:#ff0000;stroke-width:0.05"
         aria-label="Chevalier à&#10;l'épée rouillée"><path
           style="font-family:Cantarell;-inkscape-font-specification:'Cantarell Bold';text-align:center;text-anchor:middle;stroke:none"
           d="m 215.32864,83.019555 c 0.50095,0 1.05128,-0.127001 1.47461,-0.331612 l -0.20461,-0.656167 c -0.3175,0.119945 -0.71261,0.1905 -1.05128,0.1905 -1.07244,0 -1.74272,-0.705556 -1.74272,-1.806223 0,-1.037167 0.60678,-1.629835 1.63689,-1.629835 0.38806,0 0.83256,0.07761 1.15006,0.204612 l 0.254,-0.705556 c -0.41628,-0.197556 -0.89606,-0.303389 -1.38289,-0.303389 -1.54517,0 -2.6035,1.023056 -2.6035,2.561168 0,1.481668 1.00189,2.476502 2.46944,2.476502 z m 4.48733,-0.07056 h 0.90312 v -2.151946 c 0,-0.8255 -0.48684,-1.333501 -1.26295,-1.333501 -0.36689,0 -0.71967,0.119945 -1.00189,0.366889 V 77.73494 h -0.889 v 5.214059 h 0.889 v -2.427113 c 0.19756,-0.1905 0.43745,-0.275167 0.69145,-0.275167 0.4445,0 0.67027,0.246945 0.67027,0.712612 z m 3.52778,0.07056 c 0.40217,0 0.83961,-0.08467 1.21356,-0.23989 l -0.20462,-0.620889 c -0.27516,0.112889 -0.57855,0.176389 -0.86783,0.176389 -0.61383,0 -0.99483,-0.289278 -1.10067,-0.853723 h 2.2225 c 0.0212,-0.141111 0.0423,-0.352778 0.0423,-0.508 0,-0.938389 -0.5715,-1.524001 -1.48873,-1.524001 -1.02305,0 -1.70744,0.726723 -1.70744,1.792112 0,1.100668 0.71967,1.778002 1.89089,1.778002 z m -0.98072,-2.088446 c 0.0494,-0.515056 0.30339,-0.790223 0.73377,-0.790223 0.44451,0 0.70556,0.289278 0.70556,0.790223 z m 3.937,2.01789 h 0.89606 l 1.3335,-3.429002 h -0.90311 l -0.85372,2.561168 -0.81139,-2.561168 h -0.99484 z m 4.91067,0 h 0.64911 v -2.060224 c 0,-0.931334 -0.52916,-1.439334 -1.54516,-1.439334 -0.48684,0 -1.01601,0.119945 -1.41817,0.331611 l 0.21166,0.627945 c 0.35984,-0.141111 0.69851,-0.211667 1.01601,-0.211667 0.55033,0 0.84666,0.211667 0.84666,0.62089 v 0.09172 c -1.48166,0.02117 -2.13783,0.359834 -2.13783,1.086556 0,0.62089 0.45861,1.023057 1.18533,1.023057 0.43745,0 0.80434,-0.141112 1.06539,-0.409223 z m -0.23989,-0.881945 c -0.16933,0.155222 -0.39511,0.246945 -0.65616,0.246945 -0.34573,0 -0.57856,-0.176389 -0.57856,-0.437445 0,-0.310445 0.35278,-0.451556 1.23472,-0.465667 z m 2.794,0.931334 c 0.22578,0 0.47273,-0.04233 0.65617,-0.127 l -0.18344,-0.599723 c -0.0776,0.02822 -0.15523,0.04233 -0.21873,0.04233 -0.21166,0 -0.32455,-0.141112 -0.32455,-0.381001 V 77.73494 h -0.889 v 4.310947 c 0,0.592667 0.35983,0.952501 0.95955,0.952501 z m 1.1924,-0.04939 h 0.90311 v -3.429002 h -0.90311 z m 0.45861,-4.064003 c 0.33161,0 0.55033,-0.211666 0.55033,-0.550333 0,-0.338667 -0.21872,-0.55739 -0.55033,-0.55739 -0.33867,0 -0.55739,0.218723 -0.55739,0.55739 0,0.338667 0.21872,0.550333 0.55739,0.550333 z m 3.13972,4.134559 c 0.40216,0 0.83961,-0.08467 1.21355,-0.23989 l -0.20461,-0.620889 c -0.27516,0.112889 -0.57855,0.176389 -0.86783,0.176389 -0.61383,0 -0.99484,-0.289278 -1.10067,-0.853723 h 2.2225 c 0.0212,-0.141111 0.0423,-0.352778 0.0423,-0.508 0,-0.938389 -0.5715,-1.524001 -1.48873,-1.524001 -1.02305,0 -1.70744,0.726723 -1.70744,1.792112 0,1.100668 0.71966,1.778002 1.89089,1.778002 z m -0.98073,-2.088446 c 0.0494,-0.515056 0.30339,-0.790223 0.73378,-0.790223 0.4445,0 0.70556,0.289278 0.70556,0.790223 z m 3.09035,2.01789 h 0.90311 v -2.229557 c 0.20461,-0.246945 0.49389,-0.388056 0.81139,-0.388056 0.14111,0 0.31044,0.02822 0.43744,0.07761 l 0.20461,-0.8255 c -0.14111,-0.0635 -0.32455,-0.09878 -0.508,-0.09878 -0.40922,0 -0.78316,0.197556 -1.04422,0.543278 l -0.0847,-0.508 h -0.71966 z m 6.52638,0 h 0.64911 v -2.060224 c 0,-0.931334 -0.52916,-1.439334 -1.54517,-1.439334 -0.48683,0 -1.016,0.119945 -1.41816,0.331611 l 0.21166,0.627945 c 0.35984,-0.141111 0.6985,-0.211667 1.016,-0.211667 0.55034,0 0.84667,0.211667 0.84667,0.62089 v 0.09172 c -1.48167,0.02117 -2.13783,0.359834 -2.13783,1.086556 0,0.62089 0.45861,1.023057 1.18533,1.023057 0.43745,0 0.80433,-0.141112 1.06539,-0.409223 z m -0.94544,-3.852336 0.41627,-0.338667 -0.78316,-1.185334 -0.67028,0.543278 z m 0.70555,2.970391 c -0.16933,0.155222 -0.39511,0.246945 -0.65617,0.246945 -0.34572,0 -0.57855,-0.176389 -0.57855,-0.437445 0,-0.310445 0.35278,-0.451556 1.23472,-0.465667 z"
           id="path25" /><path
           style="font-family:Cantarell;-inkscape-font-specification:'Cantarell Bold';text-align:center;text-anchor:middle;stroke:none"
           d="m 208.97157,89.081752 c 0.22578,0 0.47272,-0.04233 0.65617,-0.127 l -0.18345,-0.599723 c -0.0776,0.02822 -0.15522,0.04233 -0.21872,0.04233 -0.21167,0 -0.32455,-0.141111 -0.32455,-0.381 v -4.198058 h -0.88901 v 4.310947 c 0,0.592667 0.35984,0.952501 0.95956,0.952501 z m 1.24884,-2.970391 h 0.74083 l 0.10583,-2.010835 h -0.9525 z m 3.49249,2.991557 c 0.40217,0 0.83962,-0.08467 1.21356,-0.239889 l -0.20461,-0.620889 c -0.27517,0.112889 -0.57856,0.176389 -0.86783,0.176389 -0.61384,0 -0.99484,-0.289278 -1.10067,-0.853723 h 2.2225 c 0.0212,-0.141111 0.0423,-0.352778 0.0423,-0.508 0,-0.93839 -0.5715,-1.524001 -1.48872,-1.524001 -1.02306,0 -1.70745,0.726723 -1.70745,1.792112 0,1.100668 0.71967,1.778001 1.89089,1.778001 z m -0.18344,-3.922891 1.03717,-0.980723 -0.67734,-0.543278 -0.78316,1.185334 z m -0.79728,1.834446 c 0.0494,-0.515056 0.30339,-0.790223 0.73378,-0.790223 0.4445,0 0.70556,0.289278 0.70556,0.790223 z m 4.8119,2.088445 c 0.92428,0 1.5875,-0.762 1.5875,-1.841501 0,-1.023056 -0.61383,-1.728612 -1.49578,-1.728612 -0.41628,0 -0.78317,0.162278 -1.04422,0.451556 l -0.16228,-0.381 h -0.60678 v 4.960058 h 0.87489 v -1.756834 c 0.21872,0.1905 0.51506,0.296333 0.84667,0.296333 z m -0.84667,-1.150056 v -1.368779 c 0.17639,-0.183444 0.41628,-0.289278 0.68439,-0.289278 0.51506,0 0.83961,0.395112 0.83961,1.037168 0,0.620889 -0.29633,1.008945 -0.79728,1.008945 -0.30339,0 -0.5715,-0.148167 -0.72672,-0.388056 z m 4.91773,1.150056 c 0.40217,0 0.83961,-0.08467 1.21355,-0.239889 l -0.20461,-0.620889 c -0.27516,0.112889 -0.57855,0.176389 -0.86783,0.176389 -0.61383,0 -0.99483,-0.289278 -1.10067,-0.853723 h 2.2225 c 0.0212,-0.141111 0.0423,-0.352778 0.0423,-0.508 0,-0.93839 -0.5715,-1.524001 -1.48873,-1.524001 -1.02305,0 -1.70744,0.726723 -1.70744,1.792112 0,1.100668 0.71967,1.778001 1.89089,1.778001 z m -0.18345,-3.922891 1.03717,-0.980723 -0.67733,-0.543278 -0.78317,1.185334 z m -0.79727,1.834446 c 0.0494,-0.515056 0.30338,-0.790223 0.73377,-0.790223 0.4445,0 0.70556,0.289278 0.70556,0.790223 z m 4.76956,2.088445 c 0.40217,0 0.83961,-0.08467 1.21355,-0.239889 l -0.20461,-0.620889 c -0.27516,0.112889 -0.57855,0.176389 -0.86783,0.176389 -0.61383,0 -0.99483,-0.289278 -1.10067,-0.853723 h 2.2225 c 0.0212,-0.141111 0.0423,-0.352778 0.0423,-0.508 0,-0.93839 -0.5715,-1.524001 -1.48873,-1.524001 -1.02305,0 -1.70744,0.726723 -1.70744,1.792112 0,1.100668 0.71967,1.778001 1.89089,1.778001 z m -0.98072,-2.088445 c 0.0494,-0.515056 0.30338,-0.790223 0.73377,-0.790223 0.4445,0 0.70556,0.289278 0.70556,0.790223 z m 4.572,2.01789 h 0.90311 v -2.229557 c 0.20461,-0.246945 0.49389,-0.388056 0.81139,-0.388056 0.14111,0 0.31044,0.02822 0.43744,0.07761 l 0.20461,-0.8255 c -0.14111,-0.0635 -0.32455,-0.09878 -0.508,-0.09878 -0.40922,0 -0.78316,0.197555 -1.04422,0.543278 l -0.0847,-0.508 h -0.71966 z m 4.38855,0.07055 c 1.0795,0 1.80623,-0.740833 1.80623,-1.841501 0,-1.051278 -0.67028,-1.728612 -1.70039,-1.728612 -1.08656,0 -1.81328,0.733778 -1.81328,1.841501 0,1.044223 0.66322,1.728612 1.70744,1.728612 z m 0.0776,-0.762 c -0.52916,0 -0.87488,-0.409223 -0.87488,-1.044223 0,-0.620889 0.3175,-1.00189 0.81844,-1.00189 0.52917,0 0.87489,0.416279 0.87489,1.058334 0,0.606779 -0.3175,0.987779 -0.81845,0.987779 z m 3.6689,0.747889 c 0.40217,0 0.78317,-0.155222 1.07245,-0.430389 l 0.16228,0.373945 h 0.64205 v -3.429002 h -0.90311 v 2.46239 c -0.1905,0.155222 -0.40922,0.239889 -0.64206,0.239889 -0.48683,0 -0.635,-0.373945 -0.635,-0.712611 v -1.989668 h -0.89605 v 2.187223 c 0,0.790223 0.48683,1.298223 1.19944,1.298223 z m 2.89278,-0.05644 h 0.90311 V 85.60336 h -0.90311 z m 0.45861,-4.064003 c 0.33161,0 0.55033,-0.211667 0.55033,-0.550334 0,-0.338666 -0.21872,-0.557389 -0.55033,-0.557389 -0.33867,0 -0.55739,0.218723 -0.55739,0.557389 0,0.338667 0.21872,0.550334 0.55739,0.550334 z m 2.42005,4.113392 c 0.22578,0 0.47272,-0.04233 0.65616,-0.127 l -0.18344,-0.599723 c -0.0776,0.02822 -0.15522,0.04233 -0.21872,0.04233 -0.21167,0 -0.32456,-0.141111 -0.32456,-0.381 V 83.8183 h -0.889 v 4.310947 c 0,0.592667 0.35984,0.952501 0.95956,0.952501 z m 2.15195,0 c 0.22578,0 0.47272,-0.04233 0.65617,-0.127 l -0.18345,-0.599723 c -0.0776,0.02822 -0.15522,0.04233 -0.21872,0.04233 -0.21167,0 -0.32456,-0.141111 -0.32456,-0.381 V 83.8183 h -0.889 v 4.310947 c 0,0.592667 0.35984,0.952501 0.95956,0.952501 z m 2.87161,0.02117 c 0.40217,0 0.83961,-0.08467 1.21356,-0.239889 l -0.20461,-0.620889 c -0.27517,0.112889 -0.57856,0.176389 -0.86784,0.176389 -0.61383,0 -0.99483,-0.289278 -1.10066,-0.853723 h 2.2225 c 0.0212,-0.141111 0.0423,-0.352778 0.0423,-0.508 0,-0.93839 -0.5715,-1.524001 -1.48872,-1.524001 -1.02306,0 -1.70745,0.726723 -1.70745,1.792112 0,1.100668 0.71967,1.778001 1.89089,1.778001 z m -0.18344,-3.922891 1.03717,-0.980723 -0.67734,-0.543278 -0.78317,1.185334 z m -0.79728,1.834446 c 0.0494,-0.515056 0.30339,-0.790223 0.73378,-0.790223 0.4445,0 0.70555,0.289278 0.70555,0.790223 z m 4.76956,2.088445 c 0.40217,0 0.83962,-0.08467 1.21356,-0.239889 l -0.20461,-0.620889 c -0.27517,0.112889 -0.57856,0.176389 -0.86783,0.176389 -0.61384,0 -0.99484,-0.289278 -1.10067,-0.853723 h 2.2225 c 0.0212,-0.141111 0.0423,-0.352778 0.0423,-0.508 0,-0.93839 -0.5715,-1.524001 -1.48872,-1.524001 -1.02306,0 -1.70745,0.726723 -1.70745,1.792112 0,1.100668 0.71967,1.778001 1.89089,1.778001 z m -0.98072,-2.088445 c 0.0494,-0.515056 0.30339,-0.790223 0.73378,-0.790223 0.4445,0 0.70556,0.289278 0.70556,0.790223 z"
           id="path41" /></g><path
         fill-rule="evenodd"
         clip-rule="evenodd"
         d="m 248.80677,29.630431 3.547,0.289155 c 0.42756,0.0347 0.82372,0.238152 1.10155,0.565156 0.27761,0.327003 0.41416,0.75093 0.37929,1.178545 l -0.28915,3.547022 c -0.0347,0.427558 -0.23823,0.823829 -0.56515,1.101557 l -26.10983,25.775362 2.655,3.126284 c 0.57823,0.68088 0.49503,1.701807 -0.18585,2.280077 -0.68088,0.578389 -1.70183,0.495186 -2.28008,-0.185857 l -3.70212,-4.359253 -0.48735,-0.573872 -5.99443,4.571008 c -0.0992,1.23837 -0.6716,2.442215 -1.69592,3.312059 -2.04287,1.734952 -5.10538,1.485301 -6.84028,-0.557649 -1.73491,-2.042918 -1.48525,-5.105423 0.55765,-6.840392 1.02423,-0.869836 2.30473,-1.239693 3.54287,-1.136983 l 5.48153,-5.175013 -0.48744,-0.574033 -3.70207,-4.359245 c -0.57831,-0.680882 -0.49511,-1.701809 0.18585,-2.280077 0.68096,-0.578309 1.70179,-0.495106 2.28011,0.185857 l 2.65496,3.126275 28.77536,-22.636724 c 0.32692,-0.277695 0.751,-0.414162 1.17853,-0.379299 z"
         fill="#000000"
         id="path3520"
         sodipodi:nodetypes="sscssccsccccccssccccscccs"
         style="fill:none;stroke:#cc0000;stroke-width:1.83009;stroke-dasharray:none;stroke-opacity:1" /><path
         id="path32"
         style="fill:#cc0000;fill-opacity:1;stroke:none;stroke-width:0.397412;stroke-linecap:round;stroke-linejoin:round"
         d="m 261.66057,12.225 c -3.94641,0 -7.14558,3.19917 -7.14557,7.145557 -10e-6,3.946397 3.19916,7.145577 7.14557,7.145577 3.94642,0 7.1456,-3.19918 7.14559,-7.145577 0,-3.946387 -3.19917,-7.145557 -7.14559,-7.145557 z m 0.13193,2.12293 c 1.73876,-10e-6 3.14834,1.40952 3.14839,3.148277 2e-5,1.4665 -1.01249,2.73881 -2.44158,3.06804 1.62811,0.27559 2.97849,1.412847 3.52699,2.970347 h -8.57059 c 0.55588,-1.5785 1.93454,-2.723587 3.58826,-2.980327 -1.40888,-0.34484 -2.39985,-1.6076 -2.39986,-3.05806 5e-5,-1.738757 1.40962,-3.148287 3.14839,-3.148277 z"
         sodipodi:nodetypes="ssssssscccccs" /><path
         id="path33"
         style="fill:#cc0000;fill-opacity:1;stroke:none;stroke-width:0.397412;stroke-linecap:round;stroke-linejoin:round"
         d="m 199.37059,12.225 a 7.1455797,7.1455797 0 0 0 -7.14559,7.145577 7.1455797,7.1455797 0 0 0 7.14559,7.145577 7.1455797,7.1455797 0 0 0 7.14559,-7.145577 7.1455797,7.1455797 0 0 0 -7.14559,-7.145577 z m 0.0534,2.60722 c 0.0933,0 0.18655,0.028 0.26115,0.0839 l 4.02056,3.655707 c 0.18651,0.14921 0.0745,0.41024 -0.14929,0.41024 h -0.70871 v 4.103367 c 0,0.22382 -0.1492,0.37302 -0.37302,0.37302 h -1.93164 l -0.0486,-2.0437 c -0.0118,-0.493157 -0.57716,-1.021847 -1.07045,-1.021847 -0.4933,-10e-6 -1.05872,0.52869 -1.07045,1.021847 l -0.0487,2.0437 h -1.93154 c -0.22382,0 -0.37301,-0.1492 -0.37302,-0.37302 v -4.103267 l -0.7088,-10e-5 c -0.22382,0 -0.3357,-0.26103 -0.14919,-0.41024 l 1.19528,-0.97146 V 15.52264 c 0,-0.22382 0.14921,-0.37301 0.37302,-0.37301 h 0.43948 c 0.17584,0 0.37301,0.19717 0.37301,0.37301 v 0.846717 l 1.63976,-1.453237 c 0.0746,-0.056 0.16789,-0.0839 0.26114,-0.0839 z" /></g></g><style
     type="text/css"
     id="style10809">
	.puchipuchi_een{fill:#111918;}
</style><style
     type="text/css"
     id="style11287">
	.st0{fill:#000000;}
</style><style
     type="text/css"
     id="style1">
<![CDATA[
	.st0{fill:#000000;}
]]>
</style><style
     type="text/css"
     id="style1-3">
	.st0{fill:#FD6A7E;}
	.st1{fill:#17B978;}
	.st2{fill:#8797EE;}
	.st3{fill:#41A6F9;}
	.st4{fill:#37E0FF;}
	.st5{fill:#2FD9B9;}
	.st6{fill:#F498BD;}
	.st7{fill:#FFDF1D;}
	.st8{fill:#C6C9CC;}
</style></svg>
