<?xml version="1.0" encoding="UTF-8" standalone="no"?>
<!-- Created with Inkscape (http://www.inkscape.org/) -->

<svg
   width="80.531296mm"
   height="80.531296mm"
   viewBox="0 0 80.531296 80.531296"
   version="1.1"
   id="svg5"
   inkscape:version="1.4.4 (dcaf3e7d9e, 2026-05-05)"
   sodipodi:docname="Chien-Loup.svg"
   xml:space="preserve"
   xmlns:inkscape="http://www.inkscape.org/namespaces/inkscape"
   xmlns:sodipodi="http://sodipodi.sourceforge.net/DTD/sodipodi-0.dtd"
   xmlns="http://www.w3.org/2000/svg"
   xmlns:svg="http://www.w3.org/2000/svg"><sodipodi:namedview
     id="namedview7"
     pagecolor="#ffffff"
     bordercolor="#000000"
     borderopacity="0.25"
     inkscape:showpageshadow="2"
     inkscape:pageopacity="0.0"
     inkscape:pagecheckerboard="true"
     inkscape:deskcolor="#d1d1d1"
     inkscape:document-units="mm"
     showgrid="false"
     inkscape:zoom="0.62827759"
     inkscape:cx="1053.6744"
     inkscape:cy="458.3961"
     inkscape:window-width="1920"
     inkscape:window-height="1014"
     inkscape:window-x="0"
     inkscape:window-y="0"
     inkscape:window-maximized="1"
     inkscape:current-layer="layer1"
     showguides="false" /><defs
     id="defs2"><inkscape:path-effect
   effect="fillet_chamfer"
   id="path-effect2"
   is_visible="true"
   lpeversion="1"
   nodesatellites_param="F,0,0,1,0,0,0,1 @ F,0,0,1,0,0,0,1 @ F,0,0,1,0,0,0,1 @ F,0,0,1,0,0,0,1 @ F,0,0,1,0,0,0,1 @ F,0,0,1,0,0,0,1 @ F,0,0,1,0,0,0,1 @ F,0,0,1,0,0,0,1 @ F,0,0,1,0,0,0,1"
   radius="0"
   unit="px"
   method="auto"
   mode="F"
   chamfer_steps="1"
   flexible="false"
   use_knot_distance="true"
   apply_no_radius="true"
   apply_with_radius="true"
   only_selected="false"
   hide_knots="false" /><inkscape:path-effect
   effect="fillet_chamfer"
   id="path-effect1"
   is_visible="true"
   lpeversion="1"
   nodesatellites_param="F,0,0,1,0,7.5338088,0,1 @ F,0,0,1,0,0,0,1 @ F,0,0,1,0,0,0,1 @ F,0,0,1,0,0,0,1 @ F,0,0,1,0,0,0,1 @ F,0,0,1,0,0,0,1 @ F,0,0,1,0,0,0,1 @ F,0,0,1,0,0,0,1 @ F,0,0,1,0,0,0,1 @ F,0,0,1,0,0,0,1 @ F,0,0,1,0,0,0,1"
   radius="0"
   unit="px"
   method="auto"
   mode="F"
   chamfer_steps="1"
   flexible="false"
   use_knot_distance="true"
   apply_no_radius="true"
   apply_with_radius="true"
   only_selected="false"
   hide_knots="false" /><inkscape:path-effect
   effect="spiro"
   id="path-effect6"
   is_visible="true"
   lpeversion="1" /><inkscape:path-effect
   effect="fillet_chamfer"
   id="path-effect3"
   is_visible="true"
   lpeversion="1"
   nodesatellites_param="F,0,0,1,0,0,0,1 @ F,0,0,1,0,0,0,1 @ F,0,0,1,0,0,0,1 @ F,0,0,1,0,0,0,1 @ F,0,0,1,0,0,0,1 @ F,0,0,1,0,0,0,1 @ F,0,0,1,0,0,0,1 @ F,0,0,1,0,0,0,1 @ F,0,0,1,0,0,0,1 @ F,0,0,1,0,0,0,1 @ F,0,0,1,0,0,0,1 @ F,0,0,1,0,0,0,1 @ F,0,0,1,0,0,0,1 @ F,0,0,1,0,0,0,1 | F,0,0,1,0,6.4303233,0,1 @ F,0,0,1,0,108.16171,0,1 @ F,0,0,1,0,0,0,1 @ F,0,0,1,0,20.169484,0,1 @ F,0,0,1,0,0,0,1 @ F,0,0,1,0,0,0,1 @ F,0,0,1,0,23.329183,0,1 @ F,0,0,1,0,0,0,1 @ F,0,0,1,0,0,0,1 @ F,0,0,1,0,0,0,1 | F,0,0,1,0,0,0,1 @ F,0,0,1,0,0,0,1 @ F,0,0,1,0,0,0,1 @ F,0,0,1,0,0,0,1 @ F,0,0,1,0,0,0,1 @ F,0,0,1,0,0,0,1 | F,0,0,1,0,0,0,1 @ F,0,0,1,0,0,0,1 @ F,0,0,1,0,0,0,1 @ F,0,0,1,0,0,0,1 @ F,0,0,1,0,0,0,1 @ F,0,0,1,0,0,0,1 @ F,0,0,1,0,0,0,1 @ F,0,0,1,0,0,0,1 @ F,0,0,1,0,0,0,1 @ F,0,0,1,0,0,0,1"
   radius="0"
   unit="px"
   method="auto"
   mode="F"
   chamfer_steps="1"
   flexible="false"
   use_knot_distance="true"
   apply_no_radius="true"
   apply_with_radius="true"
   only_selected="false"
   hide_knots="false" /><inkscape:path-effect
   effect="spiro"
   id="path-effect9346"
   is_visible="true"
   lpeversion="1" />
		
	
	
	

	

		
	
	

	

	

	

	

	
</defs><g
     inkscape:label="Calque 1"
     inkscape:groupmode="layer"
     id="layer1"
     transform="translate(-10.25,-10.25)"><g
       id="g41"><path
         id="rect234"
         style="opacity:1;stroke-width:0.05"
         d="m 17.691816,10.25 h 65.647663 c 4.122767,0 7.441817,3.31905 7.441817,7.441816 v 65.647663 c 0,4.122767 -3.31905,7.441817 -7.441817,7.441817 H 17.691816 C 13.56905,90.781296 10.25,87.462246 10.25,83.339479 V 17.691816 C 10.25,13.56905 13.56905,10.25 17.691816,10.25 Z" /><path
         style="font-weight:bold;font-size:7.05556px;font-family:Cantarell;-inkscape-font-specification:'Cantarell Bold';fill:#cc0000;stroke-width:0.05"
         d="m 35.423459,87.090606 c 0.500945,0 1.051278,-0.127 1.474612,-0.331612 L 36.69346,86.102827 c -0.3175,0.119945 -0.712612,0.1905 -1.051279,0.1905 -1.072445,0 -1.742723,-0.705556 -1.742723,-1.806223 0,-1.037167 0.606778,-1.629834 1.63689,-1.629834 0.388056,0 0.832556,0.07761 1.150056,0.204611 l 0.254,-0.705556 c -0.416278,-0.197556 -0.896056,-0.303389 -1.382889,-0.303389 -1.545168,0 -2.603502,1.023056 -2.603502,2.561168 0,1.481668 1.001889,2.476502 2.469446,2.476502 z m 4.487332,-0.07056 h 0.903111 V 84.8681 c 0,-0.8255 -0.486833,-1.333501 -1.262945,-1.333501 -0.366889,0 -0.719667,0.119945 -1.001889,0.366889 v -2.095501 h -0.889001 v 5.214059 h 0.889001 v -2.427113 c 0.197555,-0.1905 0.437444,-0.275166 0.691445,-0.275166 0.4445,0 0.670278,0.246944 0.670278,0.712611 z m 1.848552,0 h 0.903112 v -3.429002 h -0.903112 z m 0.458612,-4.064003 c 0.331611,0 0.550333,-0.211666 0.550333,-0.550333 0,-0.338667 -0.218722,-0.55739 -0.550333,-0.55739 -0.338667,0 -0.55739,0.218723 -0.55739,0.55739 0,0.338667 0.218723,0.550333 0.55739,0.550333 z m 3.139719,4.134559 c 0.402167,0 0.839611,-0.08467 1.213556,-0.239889 l -0.204611,-0.62089 c -0.275167,0.112889 -0.578556,0.176389 -0.867834,0.176389 -0.613834,0 -0.994834,-0.289278 -1.100667,-0.853722 h 2.222501 c 0.02117,-0.141112 0.04233,-0.352778 0.04233,-0.508001 0,-0.938389 -0.5715,-1.524001 -1.488723,-1.524001 -1.023056,0 -1.707445,0.726723 -1.707445,1.792113 0,1.100667 0.719667,1.778001 1.89089,1.778001 z M 44.376951,85.00216 c 0.04939,-0.515056 0.303389,-0.790223 0.733778,-0.790223 0.444501,0 0.705556,0.289278 0.705556,0.790223 z m 5.355175,2.01789 h 0.896056 v -2.116668 c 0,-0.846667 -0.479778,-1.368779 -1.248834,-1.368779 -0.416278,0 -0.804334,0.148167 -1.107723,0.43039 l -0.155223,-0.373945 h -0.649111 v 3.429002 h 0.903112 v -2.455335 c 0.204611,-0.162278 0.437444,-0.246944 0.6985,-0.246944 0.437445,0 0.663223,0.246944 0.663223,0.712611 z m 1.74978,-1.44639 h 2.08139 v -0.733778 h -2.08139 z m 3.958164,1.495779 c 0.225778,0 0.472722,-0.04233 0.656167,-0.127 l -0.183445,-0.599723 c -0.07761,0.02822 -0.155222,0.04233 -0.218722,0.04233 -0.211667,0 -0.324556,-0.141112 -0.324556,-0.381001 v -4.198058 h -0.889 v 4.310947 c 0,0.592667 0.359833,0.952501 0.959556,0.952501 z m 2.688171,0.02117 c 1.079501,0 1.806224,-0.740834 1.806224,-1.841502 0,-1.051278 -0.670279,-1.728612 -1.70039,-1.728612 -1.086557,0 -1.813279,0.733778 -1.813279,1.841501 0,1.044223 0.663222,1.728613 1.707445,1.728613 z m 0.07761,-0.762001 c -0.529167,0 -0.874889,-0.409222 -0.874889,-1.044223 0,-0.620889 0.3175,-1.001889 0.818445,-1.001889 0.529167,0 0.874889,0.416278 0.874889,1.058334 0,0.606778 -0.3175,0.987778 -0.818445,0.987778 z m 3.668896,0.74789 c 0.402167,0 0.783167,-0.155223 1.072445,-0.43039 l 0.162278,0.373945 h 0.642056 v -3.429002 h -0.903112 v 2.46239 c -0.1905,0.155223 -0.409222,0.239889 -0.642056,0.239889 -0.486833,0 -0.635,-0.373944 -0.635,-0.712611 v -1.989668 h -0.896056 v 2.187223 c 0,0.790223 0.486833,1.298224 1.199445,1.298224 z m 4.61433,0.01411 c 0.924279,0 1.587502,-0.762001 1.587502,-1.841502 0,-1.023056 -0.613834,-1.728612 -1.495779,-1.728612 -0.416278,0 -0.783167,0.162278 -1.044223,0.451556 l -0.162278,-0.381 h -0.606778 v 4.960059 h 0.874889 v -1.756835 c 0.218723,0.1905 0.515056,0.296334 0.846667,0.296334 z M 65.64241,85.940551 v -1.368778 c 0.176389,-0.183445 0.416278,-0.289278 0.68439,-0.289278 0.515055,0 0.839611,0.395111 0.839611,1.037167 0,0.620889 -0.296333,1.008945 -0.797278,1.008945 -0.303389,0 -0.5715,-0.148167 -0.726723,-0.388056 z"
         id="text1011"
         aria-label="Chien-loup" /><path
         id="rect7"
         style="fill:none;stroke:#cc0000;stroke-width:1.728;stroke-linecap:round;stroke-linejoin:round;stroke-dasharray:none;stroke-opacity:1"
         d="m 35.295239,31.137334 c 0,0 7.410789,16.612895 15.219617,16.612895 7.808827,0 15.219616,-16.612895 15.219616,-16.612895 h 8.716297 c 0,0 -12.331426,23.034912 -23.935913,23.034912 -11.604488,0 -23.935913,-23.034912 -23.935913,-23.034912 z"
         sodipodi:nodetypes="csccscc" /><path
         id="path6"
         style="fill:#cc0000;fill-opacity:1;stroke:#cc0000;stroke-width:0.863999;stroke-linecap:round;stroke-linejoin:round;stroke-dasharray:none;stroke-opacity:1"
         d="m 49.863838,53.947748 a 9.2477873,9.2477873 0 0 0 -9.24773,9.247855 9.2477873,9.2477873 0 0 0 9.24773,9.247731 9.2477873,9.2477873 0 0 0 9.24773,-9.247731 9.2477873,9.2477873 0 0 0 -9.24773,-9.247855 z m 1.84456,2.646304 c 0.07707,-0.01016 0.150451,0.0429 0.257651,0.119663 0.528805,0.378671 0.880023,0.926231 1.368025,2.13275 0.74423,1.839998 0.831786,1.924426 2.234214,2.154812 0.791196,0.129976 0.757178,0.272553 -0.218261,0.915175 -0.380328,0.250561 -0.380343,0.250521 -0.06345,0.61128 0.691142,0.786802 0.992285,1.296256 1.065377,1.802428 0.04366,0.302345 0.06345,0.296572 -0.334309,0.09922 -0.32806,-0.162767 -1.002873,-0.328201 -1.338858,-0.328201 -0.193372,0 -0.193292,2.6e-5 9.89e-4,0.254534 0.596258,0.780894 0.97651,2.160552 0.75525,2.739915 -0.09471,0.247981 -0.09467,0.247978 -0.304394,-0.102212 -0.190616,-0.318281 -0.891662,-1.042022 -0.951448,-0.982236 -0.01367,0.01367 -0.07154,0.286806 -0.128638,0.606917 -0.226919,1.272216 -0.547717,1.994302 -1.199999,2.702023 -0.424327,0.460392 -0.43515,0.452695 -0.43515,-0.307012 0,-0.80756 -0.105134,-1.096082 -0.646058,-1.772637 -0.388661,-0.486112 -0.362563,-0.492273 -0.534122,0.126145 -0.157107,0.566322 -0.326859,0.939435 -0.546213,1.200124 -0.191606,0.227708 -0.208997,0.218718 -0.28445,-0.146589 -0.269625,-1.305396 -0.846413,-1.50822 -2.920532,-1.027109 -1.6836,0.390526 -2.373401,0.323534 -3.341972,-0.324587 -0.333352,-0.223065 -1.454657,-1.298715 -1.454657,-1.395449 0,-0.0253 0.701351,-0.53842 1.55849,-1.140292 1.558437,-1.094309 1.558376,-1.09426 1.788343,-1.746461 0.42137,-1.195026 0.745889,-1.698953 1.462012,-2.270486 0.200796,-0.160256 0.200744,-0.160347 0.09124,-1.26519 -0.208118,-2.099852 -0.139937,-2.78002 0.256777,-2.564036 0.803103,0.437237 1.383777,1.043258 1.775879,1.853161 0.37249,0.769394 0.379064,0.766277 1.124835,-0.535867 0.606253,-1.058542 0.793868,-1.387426 0.963414,-1.409784 z" /><path
         id="rect1121"
         style="font-variation-settings:'wdth' 83, 'wght' 488;fill:#d75454;fill-opacity:1;stroke-width:0.863999;stroke-dasharray:none"
         d="m 47.600319,63.177292 c -0.564749,0.06033 2.303099,-1.980908 2.309052,-1.716347 0.0056,0.249252 0.02229,0.747613 0.02229,0.747613 -0.04804,0.280201 -0.07807,0.347019 -1.48994,0.87885 z"
         sodipodi:nodetypes="ssccs" /><path
         id="path15"
         style="fill:#cc0000;fill-opacity:1;stroke:none;stroke-width:0.397415;stroke-linecap:round;stroke-linejoin:round"
         d="m 19.370765,12.225 c -3.946425,0 -7.145765,3.198812 -7.145765,7.145227 0,3.946424 3.19934,7.145773 7.145765,7.145773 3.946414,0 7.145237,-3.199349 7.145237,-7.145773 0,-3.946415 -3.198823,-7.145227 -7.145237,-7.145227 z m -0.06345,2.655601 c 1.709035,0 2.747299,0.822813 2.747299,2.177375 0,1.797648 -1.835625,2.266237 -1.835625,3.291645 v 0.506494 h -1.595166 v -0.506494 c 0,-1.481152 1.747115,-2.000201 1.747115,-3.076256 0,-0.607652 -0.544821,-0.974587 -1.481617,-0.974587 -0.594992,0 -1.202366,0.139073 -1.810028,0.43024 L 16.699689,15.50119 c 0.784888,-0.392439 1.721467,-0.620589 2.607626,-0.620589 z m 0.114086,6.848808 c 0.645629,0 1.0759,0.455981 1.0759,1.114269 0,0.620321 -0.44293,1.07589 -1.0759,1.07589 -0.63298,0 -1.088683,-0.455569 -1.088683,-1.07589 0,-0.658288 0.443044,-1.114269 1.088683,-1.114269 z" /><path
         id="path16"
         style="fill:#cc0000;fill-opacity:1;stroke:none;stroke-width:0.397415;stroke-linecap:round;stroke-linejoin:round"
         d="m 81.660765,12.225 c -3.946425,0 -7.145765,3.198812 -7.145765,7.145227 0,3.946424 3.19934,7.145773 7.145765,7.145773 3.946414,0 7.145237,-3.199349 7.145237,-7.145773 0,-3.946415 -3.198823,-7.145227 -7.145237,-7.145227 z m -0.06345,2.655601 c 1.709035,0 2.747299,0.822813 2.747299,2.177375 0,1.797648 -1.835625,2.266237 -1.835625,3.291645 v 0.506494 h -1.595166 v -0.506494 c 0,-1.481152 1.747115,-2.000201 1.747115,-3.076256 0,-0.607652 -0.544821,-0.974587 -1.481617,-0.974587 -0.594992,0 -1.202366,0.139073 -1.810028,0.43024 L 78.989689,15.50119 c 0.784888,-0.392439 1.721467,-0.620589 2.607626,-0.620589 z m 0.114086,6.848808 c 0.645629,0 1.0759,0.455981 1.0759,1.114269 0,0.620321 -0.44293,1.07589 -1.0759,1.07589 -0.63298,0 -1.088683,-0.455569 -1.088683,-1.07589 0,-0.658288 0.443044,-1.114269 1.088683,-1.114269 z" /></g></g><style
     type="text/css"
     id="style10809">
	.puchipuchi_een{fill:#111918;}
</style><style
     type="text/css"
     id="style11287">
	.st0{fill:#000000;}
</style><style
     type="text/css"
     id="style1">
<![CDATA[
	.st0{fill:#000000;}
]]>
</style><style
     type="text/css"
     id="style1-3">
	.st0{fill:#FD6A7E;}
	.st1{fill:#17B978;}
	.st2{fill:#8797EE;}
	.st3{fill:#41A6F9;}
	.st4{fill:#37E0FF;}
	.st5{fill:#2FD9B9;}
	.st6{fill:#F498BD;}
	.st7{fill:#FFDF1D;}
	.st8{fill:#C6C9CC;}
</style></svg>
