<?xml version="1.0" encoding="UTF-8" standalone="no"?>
<!-- Created with Inkscape (http://www.inkscape.org/) -->

<svg
   width="80.531303mm"
   height="80.531303mm"
   viewBox="0 0 80.531303 80.531303"
   version="1.1"
   id="svg5"
   inkscape:version="1.4.4 (dcaf3e7d9e, 2026-05-05)"
   sodipodi:docname="Corbeau.svg"
   xml:space="preserve"
   xmlns:inkscape="http://www.inkscape.org/namespaces/inkscape"
   xmlns:sodipodi="http://sodipodi.sourceforge.net/DTD/sodipodi-0.dtd"
   xmlns="http://www.w3.org/2000/svg"
   xmlns:svg="http://www.w3.org/2000/svg"
   xmlns:osb="http://www.openswatchbook.org/uri/2009/osb"><sodipodi:namedview
     id="namedview7"
     pagecolor="#ffffff"
     bordercolor="#000000"
     borderopacity="0.25"
     inkscape:showpageshadow="2"
     inkscape:pageopacity="0.0"
     inkscape:pagecheckerboard="true"
     inkscape:deskcolor="#d1d1d1"
     inkscape:document-units="mm"
     showgrid="false"
     inkscape:zoom="0.39130381"
     inkscape:cx="470.22287"
     inkscape:cy="391.00054"
     inkscape:window-width="1920"
     inkscape:window-height="1014"
     inkscape:window-x="0"
     inkscape:window-y="0"
     inkscape:window-maximized="1"
     inkscape:current-layer="layer1"
     showguides="false" /><defs
     id="defs2"><rect
   x="488.54166"
   y="174.47917"
   width="138.54167"
   height="32.8125"
   id="rect49" /><inkscape:path-effect
   effect="spiro"
   id="path-effect3997"
   is_visible="true"
   lpeversion="1" /><style
   id="style3170">.cls-1{fill:none;stroke:#020202;stroke-miterlimit:10;stroke-width:1.91px;}</style><linearGradient
   osb:paint="solid"
   id="linearGradient5606"><stop
     style="stop-color:#000000;stop-opacity:1;"
     offset="0"
     id="stop5608" /></linearGradient><filter
   style="color-interpolation-filters:sRGB"
   id="filter7554"><feBlend
     mode="darken"
     in2="BackgroundImage"
     id="feBlend7556" /></filter>
	

	

	

	
	
<inkscape:path-effect
   effect="fillet_chamfer"
   id="path-effect3"
   is_visible="true"
   lpeversion="1"
   nodesatellites_param="F,0,0,1,0,0,0,1 @ F,0,0,1,0,0,0,1 @ F,0,0,1,0,0,0,1 @ F,0,0,1,0,0,0,1 @ F,0,0,1,0,0,0,1 @ F,0,0,1,0,0,0,1 @ F,0,0,1,0,0,0,1 @ F,0,0,1,0,0,0,1 @ F,0,0,1,0,0,0,1 @ F,0,0,1,0,0,0,1 @ F,0,0,1,0,0,0,1 @ F,0,0,1,0,0,0,1 @ F,0,0,1,0,0,0,1 @ F,0,0,1,0,0,0,1 | F,0,0,1,0,6.4303233,0,1 @ F,0,0,1,0,108.16171,0,1 @ F,0,0,1,0,0,0,1 @ F,0,0,1,0,20.169484,0,1 @ F,0,0,1,0,0,0,1 @ F,0,0,1,0,0,0,1 @ F,0,0,1,0,23.329183,0,1 @ F,0,0,1,0,0,0,1 @ F,0,0,1,0,0,0,1 @ F,0,0,1,0,0,0,1 | F,0,0,1,0,0,0,1 @ F,0,0,1,0,0,0,1 @ F,0,0,1,0,0,0,1 @ F,0,0,1,0,0,0,1 @ F,0,0,1,0,0,0,1 @ F,0,0,1,0,0,0,1 | F,0,0,1,0,0,0,1 @ F,0,0,1,0,0,0,1 @ F,0,0,1,0,0,0,1 @ F,0,0,1,0,0,0,1 @ F,0,0,1,0,0,0,1 @ F,0,0,1,0,0,0,1 @ F,0,0,1,0,0,0,1 @ F,0,0,1,0,0,0,1 @ F,0,0,1,0,0,0,1 @ F,0,0,1,0,0,0,1"
   radius="0"
   unit="px"
   method="auto"
   mode="F"
   chamfer_steps="1"
   flexible="false"
   use_knot_distance="true"
   apply_no_radius="true"
   apply_with_radius="true"
   only_selected="false"
   hide_knots="false" /></defs><g
     inkscape:label="Calque 1"
     inkscape:groupmode="layer"
     id="layer1"
     transform="translate(-370.25,-100.25)"><g
       id="g7"><path
         id="rect941"
         style="fill:#000000;fill-opacity:1;stroke:none;stroke-width:0.05"
         d="m 377.69182,100.25 h 65.64766 c 4.12277,0 7.44182,3.31905 7.44182,7.44182 v 65.64766 c 0,4.12277 -3.31905,7.44182 -7.44182,7.44182 h -65.64766 c -4.12277,0 -7.44182,-3.31905 -7.44182,-7.44182 v -65.64766 c 0,-4.12277 3.31905,-7.44182 7.44182,-7.44182 z" /><path
         style="font-weight:bold;font-size:7.05556px;font-family:Cantarell;-inkscape-font-specification:'Cantarell Bold';fill:#cc0000;fill-opacity:1;stroke-width:0.05"
         d="m 398.53156,176.0878 c 0.50094,0 1.05128,-0.127 1.47461,-0.33161 l -0.20461,-0.65617 c -0.3175,0.11994 -0.71261,0.1905 -1.05128,0.1905 -1.07244,0 -1.74272,-0.70556 -1.74272,-1.80622 0,-1.03717 0.60678,-1.62984 1.63689,-1.62984 0.38805,0 0.83255,0.0776 1.15005,0.20461 l 0.254,-0.70555 c -0.41627,-0.19756 -0.89605,-0.30339 -1.38289,-0.30339 -1.54516,0 -2.6035,1.02305 -2.6035,2.56117 0,1.48166 1.00189,2.4765 2.46945,2.4765 z m 3.73238,0 c 1.07951,0 1.80623,-0.74084 1.80623,-1.8415 0,-1.05128 -0.67028,-1.72862 -1.70039,-1.72862 -1.08656,0 -1.81328,0.73378 -1.81328,1.84151 0,1.04422 0.66322,1.72861 1.70744,1.72861 z m 0.0776,-0.762 c -0.52917,0 -0.87489,-0.40922 -0.87489,-1.04423 0,-0.62088 0.3175,-1.00188 0.81844,-1.00188 0.52917,0 0.87489,0.41627 0.87489,1.05833 0,0.60678 -0.3175,0.98778 -0.81844,0.98778 z m 2.53295,0.69144 h 0.90311 v -2.22955 c 0.20461,-0.24695 0.49389,-0.38806 0.81139,-0.38806 0.14111,0 0.31044,0.0282 0.43744,0.0776 l 0.20461,-0.8255 c -0.14111,-0.0635 -0.32455,-0.0988 -0.508,-0.0988 -0.40922,0 -0.78316,0.19756 -1.04422,0.54328 l -0.0847,-0.508 h -0.71966 z m 4.59317,0.0706 c 0.96661,0 1.60866,-0.73378 1.60866,-1.82034 0,-1.05127 -0.60677,-1.74978 -1.50989,-1.74978 -0.36688,0 -0.68439,0.11289 -0.92427,0.32456 v -2.03906 h -0.87489 v 5.21406 h 0.57855 l 0.14817,-0.3175 c 0.23283,0.254 0.55739,0.38806 0.97367,0.38806 z m -0.8255,-2.53295 c 0.14816,-0.18344 0.381,-0.27516 0.635,-0.27516 0.55033,0 0.889,0.40216 0.889,1.05127 0,0.61384 -0.30339,0.99484 -0.81845,0.99484 -0.28928,0 -0.54328,-0.11995 -0.70555,-0.33867 z m 4.91772,2.53295 c 0.40217,0 0.83961,-0.0847 1.21356,-0.23989 l -0.20461,-0.62089 c -0.27517,0.11289 -0.57856,0.17639 -0.86784,0.17639 -0.61383,0 -0.99483,-0.28928 -1.10066,-0.85372 h 2.2225 c 0.0212,-0.14112 0.0423,-0.35278 0.0423,-0.508 0,-0.93839 -0.5715,-1.52401 -1.48872,-1.52401 -1.02306,0 -1.70745,0.72673 -1.70745,1.79212 0,1.10066 0.71967,1.778 1.89089,1.778 z m -0.98072,-2.08845 c 0.0494,-0.51505 0.30339,-0.79022 0.73378,-0.79022 0.4445,0 0.70555,0.28928 0.70555,0.79022 z m 5.24228,2.01789 h 0.64912 v -2.06022 c 0,-0.93134 -0.52917,-1.43934 -1.54517,-1.43934 -0.48684,0 -1.016,0.11995 -1.41817,0.33162 l 0.21167,0.62794 c 0.35983,-0.14111 0.6985,-0.21167 1.016,-0.21167 0.55033,0 0.84667,0.21167 0.84667,0.62089 v 0.0917 c -1.48167,0.0212 -2.13784,0.35983 -2.13784,1.08655 0,0.62089 0.45861,1.02306 1.18533,1.02306 0.43745,0 0.80434,-0.14111 1.06539,-0.40922 z m -0.23988,-0.88194 c -0.16934,0.15522 -0.39512,0.24694 -0.65617,0.24694 -0.34572,0 -0.57856,-0.17639 -0.57856,-0.43744 0,-0.31045 0.35278,-0.45156 1.23473,-0.46567 z m 2.97039,0.93839 c 0.40216,0 0.78316,-0.15523 1.07244,-0.43039 l 0.16228,0.37394 h 0.64206 v -3.429 h -0.90312 v 2.46239 c -0.1905,0.15522 -0.40922,0.23989 -0.64205,0.23989 -0.48683,0 -0.635,-0.37394 -0.635,-0.71261 v -1.98967 h -0.89606 v 2.18722 c 0,0.79023 0.48684,1.29823 1.19945,1.29823 z"
         id="text1261"
         aria-label="Corbeau" /><path
         fill="#000000"
         d="m 411.6324,135.03552 c -0.32544,0.0131 -0.72133,0.2029 -1.15245,0.67765 -0.5307,0.58441 -1.01582,1.55558 -1.2248,2.71571 -0.20895,1.15999 -0.0971,2.26065 0.19111,3.02207 0.28818,0.76139 0.67661,1.10138 1.03474,1.17884 0.35825,0.0774 0.83533,-0.0752 1.366,-0.6595 0.53071,-0.58438 1.01607,-1.55592 1.22503,-2.71593 0.20896,-1.15999 0.0969,-2.26068 -0.19133,-3.02208 -0.28827,-0.76149 -0.67658,-1.10154 -1.03476,-1.17885 -0.0701,-0.0152 -0.14188,-0.0208 -0.21354,-0.0179 z m -26.11024,17.62864 26.19824,13.57756 c 2.31877,0.78386 -5.11451,-10.9264 -2.14778,-13.35087 5.94778,-4.42724 12.12329,-3.35101 16.95584,-2.45575 4.0523,0.7507 7.80787,2.60522 12.07744,5.09574 -1.4452,-3.28658 -5.46969,-8.60516 -8.5824,-11.49266 -3.2921,-3.02866 -6.72612,-5.95171 -12.16633,-7.38214 -0.33808,-0.25249 -3.29443,-3.0241 -2.08169,-6.8448 l 3.50485,-5.31736 -6.89602,2.35736 -1.21817,-4.06536 c -1.05911,-3.53456 0.0427,-7.50861 0.0427,-7.50861 v 0 l -27.89188,10.13632 4.94469,8.58726 -5.68813,6.8949 7.31357,-0.7501 c 8.1003,15.51394 -1.11422,4.86296 -4.36491,12.51851 z"
         id="path4749"
         style="fill:none;fill-opacity:1;stroke:#cc0000;stroke-width:1.753;stroke-linecap:square;stroke-linejoin:miter;stroke-dasharray:none;stroke-opacity:1"
         sodipodi:nodetypes="ssssssssssccccccccccsscccccc" /><path
         id="path21"
         style="fill:#cc0000;fill-opacity:1;stroke:none;stroke-width:0.397412;stroke-linecap:round;stroke-linejoin:round"
         d="m 379.37059,102.225 a 7.1455797,7.1455797 0 0 0 -7.14559,7.14558 7.1455797,7.1455797 0 0 0 7.14559,7.14559 7.1455797,7.1455797 0 0 0 7.14558,-7.14559 7.1455797,7.1455797 0 0 0 -7.14558,-7.14558 z m 0.0534,2.60722 c 0.0933,0 0.18655,0.028 0.26115,0.0839 l 4.02056,3.65572 c 0.18651,0.14921 0.0745,0.41023 -0.14929,0.41023 h -0.70871 v 4.10338 c 0,0.22382 -0.1492,0.37301 -0.37302,0.37302 h -1.93164 l -0.0486,-2.04371 c -0.0118,-0.49316 -0.57716,-1.02185 -1.07045,-1.02185 -0.4933,0 -1.05872,0.52869 -1.07045,1.02185 l -0.0487,2.04371 h -1.93154 c -0.22382,0 -0.37301,-0.1492 -0.37302,-0.37302 v -4.10328 l -0.7088,-1e-4 c -0.22382,0 -0.3357,-0.26102 -0.14919,-0.41023 l 1.19528,-0.97146 v -2.07773 c 0,-0.22383 0.14921,-0.37303 0.37302,-0.37303 h 0.43948 c 0.17584,0 0.37301,0.19717 0.37301,0.37303 v 0.84671 l 1.63976,-1.45324 c 0.0746,-0.056 0.16789,-0.0839 0.26114,-0.0839 z" /><path
         id="path22"
         style="fill:#cc0000;fill-opacity:1;stroke:none;stroke-width:0.397412;stroke-linecap:round;stroke-linejoin:round"
         d="m 441.66057,102.225 c -3.94641,0 -7.14558,3.19918 -7.14557,7.14558 -10e-6,3.94641 3.19916,7.14559 7.14557,7.14559 3.94641,0 7.14559,-3.19918 7.14558,-7.14559 0,-3.9464 -3.19917,-7.14558 -7.14558,-7.14558 z m 0.13193,2.12294 c 1.73876,-10e-6 3.14833,1.40952 3.14838,3.14828 2e-5,1.46652 -1.01249,2.73883 -2.44157,3.06806 1.6281,0.27559 2.97848,1.41285 3.52698,2.97035 h -8.57058 c 0.55588,-1.5785 1.93454,-2.72359 3.58826,-2.98033 -1.40888,-0.34484 -2.39985,-1.60761 -2.39986,-3.05808 5e-5,-1.73877 1.40962,-3.14829 3.14839,-3.14828 z"
         sodipodi:nodetypes="ssssssscccccs" /></g></g><style
     type="text/css"
     id="style1397">
<![CDATA[
	.st0{fill:#000000;}
]]>
</style><style
     type="text/css"
     id="style1">
<![CDATA[
	.st0{fill:#000000;}
]]>
</style></svg>
