<?xml version="1.0" encoding="UTF-8" standalone="no"?>
<!-- Created with Inkscape (http://www.inkscape.org/) -->

<svg
   width="80.531303mm"
   height="80.531303mm"
   viewBox="0 0 80.531303 80.531303"
   version="1.1"
   id="svg5"
   inkscape:version="1.4.4 (dcaf3e7d9e, 2026-05-05)"
   sodipodi:docname="Détective.svg"
   xml:space="preserve"
   xmlns:inkscape="http://www.inkscape.org/namespaces/inkscape"
   xmlns:sodipodi="http://sodipodi.sourceforge.net/DTD/sodipodi-0.dtd"
   xmlns="http://www.w3.org/2000/svg"
   xmlns:svg="http://www.w3.org/2000/svg"><sodipodi:namedview
     id="namedview7"
     pagecolor="#ffffff"
     bordercolor="#000000"
     borderopacity="0.25"
     inkscape:showpageshadow="2"
     inkscape:pageopacity="0.0"
     inkscape:pagecheckerboard="true"
     inkscape:deskcolor="#d1d1d1"
     inkscape:document-units="mm"
     showgrid="false"
     inkscape:zoom="0.62827759"
     inkscape:cx="-327.88055"
     inkscape:cy="144.84044"
     inkscape:window-width="1920"
     inkscape:window-height="1014"
     inkscape:window-x="0"
     inkscape:window-y="0"
     inkscape:window-maximized="1"
     inkscape:current-layer="layer1"
     showguides="false" /><defs
     id="defs2"><inkscape:path-effect
   effect="fillet_chamfer"
   id="path-effect2"
   is_visible="true"
   lpeversion="1"
   nodesatellites_param="F,0,0,1,0,0,0,1 @ F,0,0,1,0,0,0,1 @ F,0,0,1,0,0,0,1 @ F,0,0,1,0,0,0,1 @ F,0,0,1,0,0,0,1 @ F,0,0,1,0,0,0,1 @ F,0,0,1,0,0,0,1 @ F,0,0,1,0,0,0,1 @ F,0,0,1,0,0,0,1"
   radius="0"
   unit="px"
   method="auto"
   mode="F"
   chamfer_steps="1"
   flexible="false"
   use_knot_distance="true"
   apply_no_radius="true"
   apply_with_radius="true"
   only_selected="false"
   hide_knots="false" /><inkscape:path-effect
   effect="fillet_chamfer"
   id="path-effect1"
   is_visible="true"
   lpeversion="1"
   nodesatellites_param="F,0,0,1,0,7.5338088,0,1 @ F,0,0,1,0,0,0,1 @ F,0,0,1,0,0,0,1 @ F,0,0,1,0,0,0,1 @ F,0,0,1,0,0,0,1 @ F,0,0,1,0,0,0,1 @ F,0,0,1,0,0,0,1 @ F,0,0,1,0,0,0,1 @ F,0,0,1,0,0,0,1 @ F,0,0,1,0,0,0,1 @ F,0,0,1,0,0,0,1"
   radius="0"
   unit="px"
   method="auto"
   mode="F"
   chamfer_steps="1"
   flexible="false"
   use_knot_distance="true"
   apply_no_radius="true"
   apply_with_radius="true"
   only_selected="false"
   hide_knots="false" /><inkscape:path-effect
   effect="spiro"
   id="path-effect6"
   is_visible="true"
   lpeversion="1" /><inkscape:path-effect
   effect="fillet_chamfer"
   id="path-effect3"
   is_visible="true"
   lpeversion="1"
   nodesatellites_param="F,0,0,1,0,0,0,1 @ F,0,0,1,0,0,0,1 @ F,0,0,1,0,0,0,1 @ F,0,0,1,0,0,0,1 @ F,0,0,1,0,0,0,1 @ F,0,0,1,0,0,0,1 @ F,0,0,1,0,0,0,1 @ F,0,0,1,0,0,0,1 @ F,0,0,1,0,0,0,1 @ F,0,0,1,0,0,0,1 @ F,0,0,1,0,0,0,1 @ F,0,0,1,0,0,0,1 @ F,0,0,1,0,0,0,1 @ F,0,0,1,0,0,0,1 | F,0,0,1,0,6.4303233,0,1 @ F,0,0,1,0,108.16171,0,1 @ F,0,0,1,0,0,0,1 @ F,0,0,1,0,20.169484,0,1 @ F,0,0,1,0,0,0,1 @ F,0,0,1,0,0,0,1 @ F,0,0,1,0,23.329183,0,1 @ F,0,0,1,0,0,0,1 @ F,0,0,1,0,0,0,1 @ F,0,0,1,0,0,0,1 | F,0,0,1,0,0,0,1 @ F,0,0,1,0,0,0,1 @ F,0,0,1,0,0,0,1 @ F,0,0,1,0,0,0,1 @ F,0,0,1,0,0,0,1 @ F,0,0,1,0,0,0,1 | F,0,0,1,0,0,0,1 @ F,0,0,1,0,0,0,1 @ F,0,0,1,0,0,0,1 @ F,0,0,1,0,0,0,1 @ F,0,0,1,0,0,0,1 @ F,0,0,1,0,0,0,1 @ F,0,0,1,0,0,0,1 @ F,0,0,1,0,0,0,1 @ F,0,0,1,0,0,0,1 @ F,0,0,1,0,0,0,1"
   radius="0"
   unit="px"
   method="auto"
   mode="F"
   chamfer_steps="1"
   flexible="false"
   use_knot_distance="true"
   apply_no_radius="true"
   apply_with_radius="true"
   only_selected="false"
   hide_knots="false" /><inkscape:path-effect
   effect="spiro"
   id="path-effect9346"
   is_visible="true"
   lpeversion="1" />
		
	
	
	

	

		
	
	

	

	

	

	

	
</defs><g
     inkscape:label="Calque 1"
     inkscape:groupmode="layer"
     id="layer1"
     transform="translate(-280.25,-100.25)"><g
       id="g49"><path
         id="rect939"
         style="stroke-width:0.05"
         d="m 287.69182,100.25 h 65.64766 c 4.12277,0 7.44182,3.31905 7.44182,7.44182 v 65.64766 c 0,4.12277 -3.31905,7.44182 -7.44182,7.44182 h -65.64766 c -4.12277,0 -7.44182,-3.31905 -7.44182,-7.44182 v -65.64766 c 0,-4.12277 3.31905,-7.44182 7.44182,-7.44182 z" /><path
         style="font-weight:bold;font-size:7.05562px;font-family:Cantarell;-inkscape-font-specification:'Cantarell Bold';fill:#cc0000;stroke-width:0.0500004"
         d="m 305.547,177.18237 h 1.62279 c 1.58046,0 2.64586,-0.98778 2.64586,-2.54708 0,-1.47462 -0.95251,-2.34952 -2.54708,-2.34952 H 305.547 Z m 0.90312,-0.78317 v -3.33025 h 0.74789 c 1.0654,0 1.67219,0.62089 1.67219,1.68629 0,1.05129 -0.57151,1.64396 -1.59457,1.64396 z m 5.87028,0.85373 c 0.40217,0 0.83962,-0.0847 1.21357,-0.23989 l -0.20461,-0.6209 c -0.27517,0.11289 -0.57857,0.17639 -0.86785,0.17639 -0.61384,0 -0.99484,-0.28928 -1.10067,-0.85373 h 2.22252 c 0.0212,-0.14111 0.0423,-0.35278 0.0423,-0.508 0,-0.9384 -0.5715,-1.52401 -1.48873,-1.52401 -1.02307,0 -1.70746,0.72672 -1.70746,1.79212 0,1.10068 0.71967,1.77802 1.8909,1.77802 z m -0.18344,-3.92293 1.03717,-0.98073 -0.67734,-0.54328 -0.78317,1.18534 z m -0.79729,1.83447 c 0.0494,-0.51506 0.30339,-0.79023 0.73378,-0.79023 0.44451,0 0.70557,0.28928 0.70557,0.79023 z m 4.4521,2.06729 c 0.23284,0 0.48684,-0.0494 0.70556,-0.11994 l -0.18344,-0.64206 c -0.0988,0.0423 -0.21873,0.0635 -0.32456,0.0635 -0.32456,0 -0.52917,-0.19051 -0.52917,-0.48684 v -1.57341 h 0.86078 v -0.71967 h -0.86078 v -0.99484 h -0.88901 v 0.99484 h -0.47978 v 0.71967 h 0.47978 v 1.62985 c 0,0.69145 0.45861,1.1289 1.22062,1.1289 z m 3.0198,0.0212 c 0.40217,0 0.83962,-0.0847 1.21357,-0.23989 l -0.20461,-0.6209 c -0.27517,0.11289 -0.57856,0.17639 -0.86784,0.17639 -0.61384,0 -0.99485,-0.28928 -1.10068,-0.85373 h 2.22252 c 0.0212,-0.14111 0.0423,-0.35278 0.0423,-0.508 0,-0.9384 -0.5715,-1.52401 -1.48873,-1.52401 -1.02307,0 -1.70746,0.72672 -1.70746,1.79212 0,1.10068 0.71967,1.77802 1.8909,1.77802 z m -0.98073,-2.08846 c 0.0494,-0.51506 0.30339,-0.79023 0.73379,-0.79023 0.4445,0 0.70556,0.28928 0.70556,0.79023 z m 4.60027,2.08846 c 0.41628,0 0.80434,-0.0917 1.1289,-0.26811 l -0.19756,-0.6209 c -0.24694,0.10584 -0.508,0.16228 -0.73378,0.16228 -0.63501,0 -1.0019,-0.39511 -1.0019,-1.07951 0,-0.64912 0.33161,-1.0019 0.9384,-1.0019 0.254,0 0.54328,0.0564 0.79023,0.15523 l 0.1905,-0.71262 c -0.29634,-0.13406 -0.65617,-0.20461 -1.00896,-0.20461 -1.10773,0 -1.8274,0.73378 -1.8274,1.86268 0,1.07245 0.64206,1.70746 1.72157,1.70746 z m 3.20325,-0.0212 c 0.23284,0 0.48684,-0.0494 0.70557,-0.11994 l -0.18345,-0.64206 c -0.0988,0.0423 -0.21872,0.0635 -0.32456,0.0635 -0.32456,0 -0.52917,-0.19051 -0.52917,-0.48684 v -1.57341 h 0.86079 v -0.71967 h -0.86079 v -0.99484 h -0.88901 v 0.99484 h -0.47978 v 0.71967 h 0.47978 v 1.62985 c 0,0.69145 0.45862,1.1289 1.22062,1.1289 z m 1.34057,-0.0494 h 0.90312 v -3.42903 h -0.90312 z m 0.45861,-4.06403 c 0.33162,0 0.55034,-0.21167 0.55034,-0.55034 0,-0.33867 -0.21872,-0.5574 -0.55034,-0.5574 -0.33867,0 -0.55739,0.21873 -0.55739,0.5574 0,0.33867 0.21872,0.55034 0.55739,0.55034 z m 2.30719,4.06403 h 0.89606 l 1.33351,-3.42903 h -0.90312 l -0.85373,2.56119 -0.81139,-2.56119 h -0.99485 z m 4.43798,0.0706 c 0.40217,0 0.83962,-0.0847 1.21357,-0.23989 l -0.20462,-0.6209 c -0.27517,0.11289 -0.57856,0.17639 -0.86784,0.17639 -0.61384,0 -0.99484,-0.28928 -1.10068,-0.85373 h 2.22252 c 0.0212,-0.14111 0.0423,-0.35278 0.0423,-0.508 0,-0.9384 -0.57151,-1.52401 -1.48874,-1.52401 -1.02306,0 -1.70746,0.72672 -1.70746,1.79212 0,1.10068 0.71968,1.77802 1.89091,1.77802 z m -0.98073,-2.08846 c 0.0494,-0.51506 0.30339,-0.79023 0.73378,-0.79023 0.44451,0 0.70556,0.28928 0.70556,0.79023 z"
         id="text1477"
         aria-label="Détective" /><g
         style="fill:#000000;stroke:#cc0000;stroke-opacity:1"
         id="g6"
         transform="matrix(-0.35682104,0,0,0.35682104,356.62684,31.772867)"><g
           id="g2"
           transform="matrix(0.36329736,0,0,0.36329736,23.782215,156.45425)"
           style="stroke:#cc0000;stroke-opacity:1">
	<g
   id="g1"
   transform="matrix(0.52058042,0,0,0.52058042,134.60859,217.74939)"
   style="stroke:#cc0000;stroke-opacity:1">
		<path
   d="m 221.09311,19.956717 c -151.959944,0 -275.589871,123.629923 -275.589871,275.589863 0,53.85282 15.538781,104.13693 42.350608,146.63076 L -177.25412,607.28531 c -23.91748,23.91748 -23.91748,62.69341 0,86.6085 23.91748,23.91748 62.69341,23.91748 86.608502,0 L 74.46235,528.78584 c 42.49621,26.81183 92.78033,42.35061 146.63076,42.35061 151.95994,0 275.58987,-123.62993 275.58987,-275.58987 0,-151.95994 -123.62754,-275.589863 -275.58987,-275.589863 z m 0,476.401683 c -118.19094,0 -200.811824,-82.62089 -200.811824,-200.81182 0,-118.19094 82.619694,-200.811822 200.811824,-200.811822 118.19213,0 200.81182,82.620882 200.81182,200.811822 0,118.19093 -82.6185,200.81182 -200.81182,200.81182 z"
   id="path1-2"
   sodipodi:nodetypes="sscscccssssssss"
   style="fill:none;stroke:#cc0000;stroke-width:25.5798;stroke-dasharray:none;stroke-opacity:1" />
	</g>
</g></g><path
         id="path36"
         style="fill:#cc0000;fill-opacity:1;stroke:none;stroke-width:0.397412;stroke-linecap:round;stroke-linejoin:round"
         d="m 351.66057,102.225 c -3.94641,0 -7.14558,3.19917 -7.14557,7.14556 -10e-6,3.9464 3.19916,7.14558 7.14557,7.14558 3.94642,0 7.1456,-3.19918 7.14559,-7.14558 0,-3.94639 -3.19917,-7.14556 -7.14559,-7.14556 z m 0.13193,2.12293 c 1.73876,-1e-5 3.14834,1.40952 3.14839,3.14828 2e-5,1.4665 -1.01249,2.73881 -2.44158,3.06804 1.62811,0.27559 2.97849,1.41285 3.52699,2.97035 h -8.57059 c 0.55588,-1.5785 1.93454,-2.72359 3.58826,-2.98033 -1.40888,-0.34484 -2.39985,-1.6076 -2.39986,-3.05806 5e-5,-1.73876 1.40962,-3.14829 3.14839,-3.14828 z"
         sodipodi:nodetypes="ssssssscccccs" /><path
         id="path37"
         style="fill:#cc0000;fill-opacity:1;stroke:none;stroke-width:0.397412;stroke-linecap:round;stroke-linejoin:round"
         d="m 289.37059,102.225 a 7.1455797,7.1455797 0 0 0 -7.14559,7.14558 7.1455797,7.1455797 0 0 0 7.14559,7.14558 7.1455797,7.1455797 0 0 0 7.14559,-7.14558 7.1455797,7.1455797 0 0 0 -7.14559,-7.14558 z m 0.0534,2.60722 c 0.0933,0 0.18655,0.028 0.26115,0.0839 l 4.02056,3.65571 c 0.18651,0.14921 0.0745,0.41024 -0.14929,0.41024 h -0.70871 v 4.10337 c 0,0.22382 -0.1492,0.37302 -0.37302,0.37302 h -1.93164 l -0.0486,-2.0437 c -0.0118,-0.49316 -0.57716,-1.02185 -1.07045,-1.02185 -0.4933,-1e-5 -1.05872,0.52869 -1.07045,1.02185 l -0.0487,2.0437 h -1.93154 c -0.22382,0 -0.37301,-0.1492 -0.37302,-0.37302 v -4.10327 l -0.7088,-1e-4 c -0.22382,0 -0.3357,-0.26103 -0.14919,-0.41024 l 1.19528,-0.97146 v -2.07773 c 0,-0.22382 0.14921,-0.37301 0.37302,-0.37301 h 0.43948 c 0.17584,0 0.37301,0.19717 0.37301,0.37301 v 0.84672 l 1.63976,-1.45324 c 0.0746,-0.056 0.16789,-0.0839 0.26114,-0.0839 z" /></g></g><style
     type="text/css"
     id="style10809">
	.puchipuchi_een{fill:#111918;}
</style><style
     type="text/css"
     id="style11287">
	.st0{fill:#000000;}
</style><style
     type="text/css"
     id="style1">
<![CDATA[
	.st0{fill:#000000;}
]]>
</style><style
     type="text/css"
     id="style1-3">
	.st0{fill:#FD6A7E;}
	.st1{fill:#17B978;}
	.st2{fill:#8797EE;}
	.st3{fill:#41A6F9;}
	.st4{fill:#37E0FF;}
	.st5{fill:#2FD9B9;}
	.st6{fill:#F498BD;}
	.st7{fill:#FFDF1D;}
	.st8{fill:#C6C9CC;}
</style></svg>
