<?xml version="1.0" encoding="UTF-8" standalone="no"?>
<!-- Created with Inkscape (http://www.inkscape.org/) -->

<svg
   width="80.531303mm"
   height="80.531303mm"
   viewBox="0 0 80.531303 80.531303"
   version="1.1"
   id="svg5"
   inkscape:version="1.4.4 (dcaf3e7d9e, 2026-05-05)"
   sodipodi:docname="Dictateur.svg"
   xml:space="preserve"
   xmlns:inkscape="http://www.inkscape.org/namespaces/inkscape"
   xmlns:sodipodi="http://sodipodi.sourceforge.net/DTD/sodipodi-0.dtd"
   xmlns="http://www.w3.org/2000/svg"
   xmlns:svg="http://www.w3.org/2000/svg"><sodipodi:namedview
     id="namedview7"
     pagecolor="#ffffff"
     bordercolor="#000000"
     borderopacity="0.25"
     inkscape:showpageshadow="2"
     inkscape:pageopacity="0.0"
     inkscape:pagecheckerboard="true"
     inkscape:deskcolor="#d1d1d1"
     inkscape:document-units="mm"
     showgrid="false"
     inkscape:zoom="0.62827759"
     inkscape:cx="257.84781"
     inkscape:cy="171.89854"
     inkscape:window-width="1920"
     inkscape:window-height="1014"
     inkscape:window-x="0"
     inkscape:window-y="0"
     inkscape:window-maximized="1"
     inkscape:current-layer="layer1"
     showguides="false" /><defs
     id="defs2"><inkscape:path-effect
   effect="fillet_chamfer"
   id="path-effect2"
   is_visible="true"
   lpeversion="1"
   nodesatellites_param="F,0,0,1,0,0,0,1 @ F,0,0,1,0,0,0,1 @ F,0,0,1,0,0,0,1 @ F,0,0,1,0,0,0,1 @ F,0,0,1,0,0,0,1 @ F,0,0,1,0,0,0,1 @ F,0,0,1,0,0,0,1 @ F,0,0,1,0,0,0,1 @ F,0,0,1,0,0,0,1"
   radius="0"
   unit="px"
   method="auto"
   mode="F"
   chamfer_steps="1"
   flexible="false"
   use_knot_distance="true"
   apply_no_radius="true"
   apply_with_radius="true"
   only_selected="false"
   hide_knots="false" /><inkscape:path-effect
   effect="fillet_chamfer"
   id="path-effect1"
   is_visible="true"
   lpeversion="1"
   nodesatellites_param="F,0,0,1,0,7.5338088,0,1 @ F,0,0,1,0,0,0,1 @ F,0,0,1,0,0,0,1 @ F,0,0,1,0,0,0,1 @ F,0,0,1,0,0,0,1 @ F,0,0,1,0,0,0,1 @ F,0,0,1,0,0,0,1 @ F,0,0,1,0,0,0,1 @ F,0,0,1,0,0,0,1 @ F,0,0,1,0,0,0,1 @ F,0,0,1,0,0,0,1"
   radius="0"
   unit="px"
   method="auto"
   mode="F"
   chamfer_steps="1"
   flexible="false"
   use_knot_distance="true"
   apply_no_radius="true"
   apply_with_radius="true"
   only_selected="false"
   hide_knots="false" /><inkscape:path-effect
   effect="spiro"
   id="path-effect6"
   is_visible="true"
   lpeversion="1" /><inkscape:path-effect
   effect="fillet_chamfer"
   id="path-effect3"
   is_visible="true"
   lpeversion="1"
   nodesatellites_param="F,0,0,1,0,0,0,1 @ F,0,0,1,0,0,0,1 @ F,0,0,1,0,0,0,1 @ F,0,0,1,0,0,0,1 @ F,0,0,1,0,0,0,1 @ F,0,0,1,0,0,0,1 @ F,0,0,1,0,0,0,1 @ F,0,0,1,0,0,0,1 @ F,0,0,1,0,0,0,1 @ F,0,0,1,0,0,0,1 @ F,0,0,1,0,0,0,1 @ F,0,0,1,0,0,0,1 @ F,0,0,1,0,0,0,1 @ F,0,0,1,0,0,0,1 | F,0,0,1,0,6.4303233,0,1 @ F,0,0,1,0,108.16171,0,1 @ F,0,0,1,0,0,0,1 @ F,0,0,1,0,20.169484,0,1 @ F,0,0,1,0,0,0,1 @ F,0,0,1,0,0,0,1 @ F,0,0,1,0,23.329183,0,1 @ F,0,0,1,0,0,0,1 @ F,0,0,1,0,0,0,1 @ F,0,0,1,0,0,0,1 | F,0,0,1,0,0,0,1 @ F,0,0,1,0,0,0,1 @ F,0,0,1,0,0,0,1 @ F,0,0,1,0,0,0,1 @ F,0,0,1,0,0,0,1 @ F,0,0,1,0,0,0,1 | F,0,0,1,0,0,0,1 @ F,0,0,1,0,0,0,1 @ F,0,0,1,0,0,0,1 @ F,0,0,1,0,0,0,1 @ F,0,0,1,0,0,0,1 @ F,0,0,1,0,0,0,1 @ F,0,0,1,0,0,0,1 @ F,0,0,1,0,0,0,1 @ F,0,0,1,0,0,0,1 @ F,0,0,1,0,0,0,1"
   radius="0"
   unit="px"
   method="auto"
   mode="F"
   chamfer_steps="1"
   flexible="false"
   use_knot_distance="true"
   apply_no_radius="true"
   apply_with_radius="true"
   only_selected="false"
   hide_knots="false" /><inkscape:path-effect
   effect="spiro"
   id="path-effect9346"
   is_visible="true"
   lpeversion="1" />
		
	
	
	

	

		
	
	

	

	

	

	

	
</defs><g
     inkscape:label="Calque 1"
     inkscape:groupmode="layer"
     id="layer1"
     transform="translate(-100.25,-100.25)"><g
       id="g55"><path
         id="rect935"
         style="stroke-width:0.05"
         d="m 107.69182,100.25 h 65.64766 c 4.12277,0 7.44182,3.31905 7.44182,7.44182 v 65.64766 c 0,4.12277 -3.31905,7.44182 -7.44182,7.44182 h -65.64766 c -4.12277,0 -7.44182,-3.31905 -7.44182,-7.44182 v -65.64766 c 0,-4.12277 3.31905,-7.44182 7.44182,-7.44182 z" /><path
         style="font-weight:bold;font-size:7.05556px;font-family:Cantarell;-inkscape-font-specification:'Cantarell Bold';fill:#cc0000;stroke-width:0.05"
         d="m 125.67051,176.97772 h 1.62278 c 1.58044,0 2.64583,-0.98778 2.64583,-2.54706 0,-1.47461 -0.9525,-2.3495 -2.54706,-2.3495 h -1.72155 z m 0.90311,-0.78317 v -3.33022 h 0.74789 c 1.06539,0 1.67217,0.62089 1.67217,1.68628 0,1.05128 -0.5715,1.64394 -1.59456,1.64394 z m 4.19101,0.78317 h 0.90311 v -3.429 h -0.90311 z m 0.45861,-4.064 c 0.33161,0 0.55033,-0.21167 0.55033,-0.55033 0,-0.33867 -0.21872,-0.55739 -0.55033,-0.55739 -0.33867,0 -0.55739,0.21872 -0.55739,0.55739 0,0.33866 0.21872,0.55033 0.55739,0.55033 z m 2.97039,4.13456 c 0.41627,0 0.80433,-0.0917 1.12889,-0.26811 l -0.19756,-0.62089 c -0.24695,0.10583 -0.508,0.16228 -0.73378,0.16228 -0.635,0 -1.00189,-0.39512 -1.00189,-1.07951 0,-0.64911 0.33161,-1.00189 0.93839,-1.00189 0.254,0 0.54328,0.0564 0.79022,0.15523 l 0.1905,-0.71261 c -0.29633,-0.13406 -0.65616,-0.20462 -1.00894,-0.20462 -1.10772,0 -1.82739,0.73378 -1.82739,1.86267 0,1.07245 0.64205,1.70745 1.72156,1.70745 z m 3.20322,-0.0212 c 0.23284,0 0.48684,-0.0494 0.70556,-0.11994 l -0.18345,-0.64206 c -0.0988,0.0423 -0.21872,0.0635 -0.32455,0.0635 -0.32456,0 -0.52917,-0.1905 -0.52917,-0.48683 v -1.57339 h 0.86078 v -0.71967 h -0.86078 v -0.99483 h -0.889 v 0.99483 h -0.47978 v 0.71967 h 0.47978 v 1.62983 c 0,0.69145 0.45861,1.12889 1.22061,1.12889 z m 3.4925,-0.0494 h 0.64911 v -2.06022 c 0,-0.93134 -0.52916,-1.43934 -1.54517,-1.43934 -0.48683,0 -1.016,0.11995 -1.41816,0.33162 l 0.21166,0.62794 c 0.35984,-0.14111 0.6985,-0.21167 1.016,-0.21167 0.55034,0 0.84667,0.21167 0.84667,0.62089 v 0.0917 c -1.48167,0.0212 -2.13783,0.35983 -2.13783,1.08655 0,0.62089 0.45861,1.02306 1.18533,1.02306 0.43745,0 0.80433,-0.14111 1.06539,-0.40922 z m -0.23989,-0.88194 c -0.16933,0.15522 -0.39511,0.24694 -0.65617,0.24694 -0.34572,0 -0.57855,-0.17639 -0.57855,-0.43744 0,-0.31045 0.35278,-0.45156 1.23472,-0.46567 z m 3.19617,0.93133 c 0.23284,0 0.48684,-0.0494 0.70556,-0.11994 l -0.18345,-0.64206 c -0.0988,0.0423 -0.21872,0.0635 -0.32455,0.0635 -0.32456,0 -0.52917,-0.1905 -0.52917,-0.48683 v -1.57339 h 0.86078 v -0.71967 h -0.86078 v -0.99483 h -0.889 v 0.99483 h -0.47978 v 0.71967 h 0.47978 v 1.62983 c 0,0.69145 0.45861,1.12889 1.22061,1.12889 z m 3.01978,0.0212 c 0.40216,0 0.83961,-0.0847 1.21355,-0.23989 l -0.20461,-0.62089 c -0.27517,0.11289 -0.57855,0.17639 -0.86783,0.17639 -0.61384,0 -0.99484,-0.28928 -1.10067,-0.85372 h 2.2225 c 0.0212,-0.14112 0.0423,-0.35278 0.0423,-0.508 0,-0.93839 -0.5715,-1.52401 -1.48872,-1.52401 -1.02305,0 -1.70744,0.72673 -1.70744,1.79212 0,1.10066 0.71966,1.778 1.89089,1.778 z m -0.98073,-2.08845 c 0.0494,-0.51505 0.30339,-0.79022 0.73378,-0.79022 0.4445,0 0.70556,0.28928 0.70556,0.79022 z m 4.22629,2.07434 c 0.40217,0 0.78317,-0.15523 1.07244,-0.43039 l 0.16228,0.37394 h 0.64206 v -3.429 h -0.90311 v 2.46239 c -0.1905,0.15522 -0.40923,0.23989 -0.64206,0.23989 -0.48683,0 -0.635,-0.37395 -0.635,-0.71261 v -1.98967 h -0.89606 v 2.18722 c 0,0.79023 0.48684,1.29823 1.19945,1.29823 z m 2.89277,-0.0564 h 0.90311 v -2.22955 c 0.20462,-0.24695 0.49389,-0.38806 0.81139,-0.38806 0.14112,0 0.31045,0.0282 0.43745,0.0776 l 0.20461,-0.8255 c -0.14111,-0.0635 -0.32456,-0.0988 -0.508,-0.0988 -0.40922,0 -0.78317,0.19756 -1.04422,0.54328 l -0.0847,-0.508 h -0.71967 z"
         id="text1149"
         aria-label="Dictateur" /><path
         id="path1-70"
         style="fill:none;stroke:#cc0000;stroke-width:1.45369;stroke-dasharray:none;stroke-opacity:1"
         class="st0"
         d="m 132.6553,126.25255 c -14.8896,0.29872 -24.67306,10.5383 -15.89717,21.95739 l 5.30086,0.74866 c 0.0495,-0.19829 0.0993,-0.3979 0.15439,-0.61685 l 0.34291,-1.36196 c 1.37881,0.93378 3.04999,1.46441 4.84157,1.42689 1.79157,-0.0375 3.43922,-0.63766 4.7778,-1.62835 l 0.39963,1.3464 c 0.30175,1.01669 0.53366,1.79995 0.66052,2.41266 l 24.25214,3.42547 c 2.79484,0.89365 6.57921,1.01749 7.89051,0.5515 3.38993,-1.21028 5.29528,-13.55013 -13.70447,-23.52109 -6.58406,-3.45232 -13.19232,-4.85762 -19.01869,-4.74072 z m -10.59631,22.70605 c -0.46033,1.84773 -0.65795,2.83079 -0.27522,3.37838 0.14853,0.21243 0.34534,0.38143 0.57192,0.49082 0.64651,0.31232 1.62343,-0.22296 3.57723,-1.29362 0.65014,-0.35624 0.97526,-0.53431 1.32362,-0.57887 0.12919,-0.0165 0.25967,-0.0193 0.38945,-0.008 0.34991,0.0299 0.68198,0.19424 1.34646,0.52295 1.99691,0.98792 2.99542,1.48182 3.62825,1.14271 0.22179,-0.11877 0.4114,-0.29587 0.55088,-0.51433 0.21688,-0.33972 0.21605,-0.8278 0.0643,-1.56109 m -6.15614,-17.32336 c 3.78937,-0.0794 6.92572,2.92809 7.00508,6.71746 0.0794,3.78938 -2.92831,6.92573 -6.71768,7.0051 -3.78937,0.0794 -6.92551,-2.92832 -7.00487,-6.7177 -0.0794,-3.78937 2.9281,-6.9255 6.71747,-7.00486 z"
         sodipodi:nodetypes="sccccsccccccsccccscccccsssss" /><path
         style="fill:#cc0000;fill-opacity:1;stroke:#cc0000;stroke-width:1.45369;stroke-linecap:round;stroke-linejoin:round;stroke-dasharray:none;stroke-opacity:1"
         d="m 160.75526,153.63727 c -0.69059,-0.0859 -1.58408,-0.25701 -1.98554,-0.38025 -0.40147,-0.12324 -6.07731,-0.98049 -12.61299,-1.90501 -6.53568,-0.92452 -11.94177,-1.73725 -12.01352,-1.80606 -0.0718,-0.0688 -0.38046,-0.96983 -0.686,-2.00226 l -0.55552,-1.87713 0.81758,-1.25083 c 2.91526,-4.46005 0.73348,-10.49163 -4.29396,-11.87075 -7.22584,-1.98218 -12.86846,6.05004 -8.52105,12.12963 0.83743,1.1711 0.85623,1.23332 0.64736,2.14282 -0.24618,1.07199 -0.24059,1.07053 -2.64955,0.69129 -1.73533,-0.2732 -1.80274,-0.33004 -2.94336,-2.48207 -1.91922,-3.62102 -1.95698,-7.1736 -0.10833,-10.19169 0.81611,-1.33238 2.86653,-3.32383 4.41913,-4.29205 1.55714,-0.97104 4.36462,-2.08303 6.59241,-2.61113 2.733,-0.64786 9.62638,-0.73526 12.51421,-0.15867 7.68685,1.53478 15.22007,5.23614 20.55909,10.10147 3.49804,3.1877 5.73311,6.66839 6.36887,9.91831 0.52758,2.69693 0.0105,5.04502 -1.26009,5.72181 -0.57146,0.3044 -2.40564,0.35682 -4.28874,0.12257 z"
         id="path10" /><path
         id="path23"
         style="fill:#cc0000;fill-opacity:1;stroke:none;stroke-width:0.397412;stroke-linecap:round;stroke-linejoin:round"
         d="m 171.66057,102.225 c -3.94641,0 -7.14558,3.19917 -7.14557,7.14556 -10e-6,3.9464 3.19916,7.14558 7.14557,7.14558 3.94642,0 7.1456,-3.19918 7.14559,-7.14558 0,-3.94639 -3.19917,-7.14556 -7.14559,-7.14556 z m 0.13193,2.12293 c 1.73876,-1e-5 3.14834,1.40952 3.14839,3.14828 2e-5,1.4665 -1.01249,2.73881 -2.44158,3.06804 1.62811,0.27559 2.97849,1.41285 3.52699,2.97035 h -8.57059 c 0.55588,-1.5785 1.93454,-2.72359 3.58826,-2.98033 -1.40888,-0.34484 -2.39985,-1.6076 -2.39986,-3.05806 5e-5,-1.73876 1.40962,-3.14829 3.14839,-3.14828 z"
         sodipodi:nodetypes="ssssssscccccs" /><path
         id="path24"
         style="fill:#cc0000;fill-opacity:1;stroke:none;stroke-width:0.397412;stroke-linecap:round;stroke-linejoin:round"
         d="m 109.37059,102.225 a 7.1455797,7.1455797 0 0 0 -7.14559,7.14558 7.1455797,7.1455797 0 0 0 7.14559,7.14558 7.1455797,7.1455797 0 0 0 7.14559,-7.14558 7.1455797,7.1455797 0 0 0 -7.14559,-7.14558 z m 0.0534,2.60722 c 0.0933,0 0.18655,0.028 0.26115,0.0839 l 4.02056,3.65571 c 0.18651,0.14921 0.0745,0.41024 -0.14929,0.41024 h -0.70871 v 4.10337 c 0,0.22382 -0.1492,0.37302 -0.37302,0.37302 h -1.93164 l -0.0486,-2.0437 c -0.0118,-0.49316 -0.57716,-1.02185 -1.07045,-1.02185 -0.4933,-1e-5 -1.05872,0.52869 -1.07045,1.02185 l -0.0487,2.0437 h -1.93154 c -0.22382,0 -0.37301,-0.1492 -0.37302,-0.37302 v -4.10327 l -0.7088,-1e-4 c -0.22382,0 -0.3357,-0.26103 -0.14919,-0.41024 l 1.19528,-0.97146 v -2.07773 c 0,-0.22382 0.14921,-0.37301 0.37302,-0.37301 h 0.43948 c 0.17584,0 0.37301,0.19717 0.37301,0.37301 v 0.84672 l 1.63976,-1.45324 c 0.0746,-0.056 0.16789,-0.0839 0.26114,-0.0839 z" /></g></g><style
     type="text/css"
     id="style10809">
	.puchipuchi_een{fill:#111918;}
</style><style
     type="text/css"
     id="style11287">
	.st0{fill:#000000;}
</style><style
     type="text/css"
     id="style1">
<![CDATA[
	.st0{fill:#000000;}
]]>
</style><style
     type="text/css"
     id="style1-3">
	.st0{fill:#FD6A7E;}
	.st1{fill:#17B978;}
	.st2{fill:#8797EE;}
	.st3{fill:#41A6F9;}
	.st4{fill:#37E0FF;}
	.st5{fill:#2FD9B9;}
	.st6{fill:#F498BD;}
	.st7{fill:#FFDF1D;}
	.st8{fill:#C6C9CC;}
</style></svg>
