<?xml version="1.0" encoding="UTF-8" standalone="no"?>
<!-- Created with Inkscape (http://www.inkscape.org/) -->

<svg
   width="80.531303mm"
   height="80.531303mm"
   viewBox="0 0 80.531303 80.531303"
   version="1.1"
   id="svg5"
   inkscape:version="1.4.4 (dcaf3e7d9e, 2026-05-05)"
   sodipodi:docname="Enfant sauvage.svg"
   xml:space="preserve"
   xmlns:inkscape="http://www.inkscape.org/namespaces/inkscape"
   xmlns:sodipodi="http://sodipodi.sourceforge.net/DTD/sodipodi-0.dtd"
   xmlns="http://www.w3.org/2000/svg"
   xmlns:svg="http://www.w3.org/2000/svg"
   xmlns:osb="http://www.openswatchbook.org/uri/2009/osb"><sodipodi:namedview
     id="namedview7"
     pagecolor="#ffffff"
     bordercolor="#000000"
     borderopacity="0.25"
     inkscape:showpageshadow="2"
     inkscape:pageopacity="0.0"
     inkscape:pagecheckerboard="true"
     inkscape:deskcolor="#d1d1d1"
     inkscape:document-units="mm"
     showgrid="false"
     inkscape:zoom="0.39130381"
     inkscape:cx="-930.2235"
     inkscape:cy="-327.11156"
     inkscape:window-width="1920"
     inkscape:window-height="1014"
     inkscape:window-x="0"
     inkscape:window-y="0"
     inkscape:window-maximized="1"
     inkscape:current-layer="layer1"
     showguides="false" /><defs
     id="defs2"><rect
   x="488.54166"
   y="174.47917"
   width="138.54167"
   height="32.8125"
   id="rect49" /><inkscape:path-effect
   effect="spiro"
   id="path-effect3997"
   is_visible="true"
   lpeversion="1" /><style
   id="style3170">.cls-1{fill:none;stroke:#020202;stroke-miterlimit:10;stroke-width:1.91px;}</style><linearGradient
   osb:paint="solid"
   id="linearGradient5606"><stop
     style="stop-color:#000000;stop-opacity:1;"
     offset="0"
     id="stop5608" /></linearGradient><filter
   style="color-interpolation-filters:sRGB"
   id="filter7554"><feBlend
     mode="darken"
     in2="BackgroundImage"
     id="feBlend7556" /></filter>
	

	

	

	
	
<inkscape:path-effect
   effect="fillet_chamfer"
   id="path-effect3"
   is_visible="true"
   lpeversion="1"
   nodesatellites_param="F,0,0,1,0,0,0,1 @ F,0,0,1,0,0,0,1 @ F,0,0,1,0,0,0,1 @ F,0,0,1,0,0,0,1 @ F,0,0,1,0,0,0,1 @ F,0,0,1,0,0,0,1 @ F,0,0,1,0,0,0,1 @ F,0,0,1,0,0,0,1 @ F,0,0,1,0,0,0,1 @ F,0,0,1,0,0,0,1 @ F,0,0,1,0,0,0,1 @ F,0,0,1,0,0,0,1 @ F,0,0,1,0,0,0,1 @ F,0,0,1,0,0,0,1 | F,0,0,1,0,6.4303233,0,1 @ F,0,0,1,0,108.16171,0,1 @ F,0,0,1,0,0,0,1 @ F,0,0,1,0,20.169484,0,1 @ F,0,0,1,0,0,0,1 @ F,0,0,1,0,0,0,1 @ F,0,0,1,0,23.329183,0,1 @ F,0,0,1,0,0,0,1 @ F,0,0,1,0,0,0,1 @ F,0,0,1,0,0,0,1 | F,0,0,1,0,0,0,1 @ F,0,0,1,0,0,0,1 @ F,0,0,1,0,0,0,1 @ F,0,0,1,0,0,0,1 @ F,0,0,1,0,0,0,1 @ F,0,0,1,0,0,0,1 | F,0,0,1,0,0,0,1 @ F,0,0,1,0,0,0,1 @ F,0,0,1,0,0,0,1 @ F,0,0,1,0,0,0,1 @ F,0,0,1,0,0,0,1 @ F,0,0,1,0,0,0,1 @ F,0,0,1,0,0,0,1 @ F,0,0,1,0,0,0,1 @ F,0,0,1,0,0,0,1 @ F,0,0,1,0,0,0,1"
   radius="0"
   unit="px"
   method="auto"
   mode="F"
   chamfer_steps="1"
   flexible="false"
   use_knot_distance="true"
   apply_no_radius="true"
   apply_with_radius="true"
   only_selected="false"
   hide_knots="false" /></defs><g
     inkscape:label="Calque 1"
     inkscape:groupmode="layer"
     id="layer1"
     transform="translate(-370.25,-190.25)"><g
       id="g8"><path
         id="rect953"
         style="fill:#000000;fill-opacity:1;stroke:none;stroke-width:0.05"
         d="m 377.69182,190.25 h 65.64766 c 4.12277,0 7.44182,3.31905 7.44182,7.44182 v 65.64766 c 0,4.12277 -3.31905,7.44182 -7.44182,7.44182 h -65.64766 c -4.12277,0 -7.44182,-3.31905 -7.44182,-7.44182 v -65.64766 c 0,-4.12277 3.31905,-7.44182 7.44182,-7.44182 z" /><path
         style="font-weight:bold;font-size:7.05556px;font-family:Cantarell;-inkscape-font-specification:'Cantarell Bold';fill:#cc0000;fill-opacity:1;stroke-width:0.05"
         d="m 386.21899,267.09061 h 3.302 v -0.79728 h -2.39183 v -1.31234 h 2.19428 v -0.79727 h -2.19428 v -1.19239 h 2.39183 v -0.79728 h -3.302 z m 6.44878,0 h 0.89605 v -2.11667 c 0,-0.84667 -0.47977,-1.36878 -1.24883,-1.36878 -0.41628,0 -0.80433,0.14817 -1.10772,0.43039 l -0.15522,-0.37395 h -0.64912 v 3.42901 h 0.90312 v -2.45534 c 0.20461,-0.16228 0.43744,-0.24694 0.6985,-0.24694 0.43744,0 0.66322,0.24694 0.66322,0.71261 z m 2.02495,0 h 0.86783 v -2.70934 h 0.98778 v -0.71967 h -0.98778 v -0.54327 c 0,-0.36689 0.19756,-0.56445 0.5715,-0.56445 0.17639,0 0.39511,0.0353 0.52917,0.10583 l 0.17639,-0.64911 c -0.21873,-0.127 -0.48684,-0.20461 -0.77612,-0.20461 -0.81844,0 -1.36877,0.55739 -1.36877,1.38995 v 0.46566 h -0.52917 v 0.71967 h 0.52917 z m 4.61434,0 h 0.64911 v -2.06023 c 0,-0.93133 -0.52917,-1.43933 -1.54517,-1.43933 -0.48683,0 -1.016,0.11994 -1.41817,0.33161 l 0.21167,0.62795 c 0.35983,-0.14112 0.6985,-0.21167 1.016,-0.21167 0.55033,0 0.84667,0.21167 0.84667,0.62089 v 0.0917 c -1.48167,0.0212 -2.13784,0.35983 -2.13784,1.08656 0,0.62089 0.45861,1.02305 1.18534,1.02305 0.43744,0 0.80433,-0.14111 1.06539,-0.40922 z m -0.23989,-0.88195 c -0.16934,0.15522 -0.39511,0.24695 -0.65617,0.24695 -0.34572,0 -0.57856,-0.17639 -0.57856,-0.43745 0,-0.31044 0.35278,-0.45155 1.23473,-0.46567 z m 4.09928,0.88195 h 0.89606 v -2.11667 c 0,-0.84667 -0.47978,-1.36878 -1.24884,-1.36878 -0.41628,0 -0.80433,0.14817 -1.10772,0.43039 l -0.15522,-0.37395 h -0.64912 v 3.42901 h 0.90312 v -2.45534 c 0.20461,-0.16228 0.43744,-0.24694 0.6985,-0.24694 0.43744,0 0.66322,0.24694 0.66322,0.71261 z m 3.21028,0.0494 c 0.23283,0 0.48683,-0.0494 0.70556,-0.11995 l -0.18345,-0.64205 c -0.0988,0.0423 -0.21872,0.0635 -0.32456,0.0635 -0.32455,0 -0.52916,-0.1905 -0.52916,-0.48684 v -1.57339 h 0.86078 v -0.71967 h -0.86078 v -0.99483 h -0.889 v 0.99483 h -0.47978 v 0.71967 h 0.47978 v 1.62984 c 0,0.69144 0.45861,1.12889 1.22061,1.12889 z m 3.9511,0.0212 c 0.93839,0 1.49578,-0.41628 1.49578,-1.10067 0,-1.28411 -1.94028,-0.85372 -1.94028,-1.43227 0,-0.20462 0.24695,-0.33162 0.66323,-0.33162 0.28222,0 0.62088,0.0564 0.93838,0.14817 l 0.1905,-0.67733 c -0.3175,-0.11289 -0.71966,-0.17639 -1.10772,-0.17639 -0.98072,0 -1.55222,0.39511 -1.55222,1.10067 0,1.27705 1.91206,0.79022 1.91206,1.41111 0,0.21872 -0.23284,0.35278 -0.61384,0.35278 -0.33161,0 -0.79022,-0.0917 -1.15005,-0.23284 l -0.19756,0.67028 c 0.38806,0.16933 0.889,0.26811 1.36172,0.26811 z m 4.40267,-0.0705 h 0.64911 v -2.06023 c 0,-0.93133 -0.52916,-1.43933 -1.54516,-1.43933 -0.48684,0 -1.016,0.11994 -1.41817,0.33161 l 0.21167,0.62795 c 0.35983,-0.14112 0.6985,-0.21167 1.016,-0.21167 0.55033,0 0.84666,0.21167 0.84666,0.62089 v 0.0917 c -1.48166,0.0212 -2.13783,0.35983 -2.13783,1.08656 0,0.62089 0.45861,1.02305 1.18533,1.02305 0.43745,0 0.80434,-0.14111 1.06539,-0.40922 z m -0.23989,-0.88195 c -0.16933,0.15522 -0.39511,0.24695 -0.65616,0.24695 -0.34573,0 -0.57856,-0.17639 -0.57856,-0.43745 0,-0.31044 0.35278,-0.45155 1.23472,-0.46567 z m 2.9704,0.93839 c 0.40216,0 0.78316,-0.15522 1.07244,-0.43039 l 0.16228,0.37395 h 0.64205 v -3.42901 h -0.90311 v 2.46239 c -0.1905,0.15523 -0.40922,0.23989 -0.64205,0.23989 -0.48684,0 -0.635,-0.37394 -0.635,-0.71261 v -1.98967 h -0.89606 v 2.18723 c 0,0.79022 0.48683,1.29822 1.19945,1.29822 z m 3.73944,-0.0564 h 0.89605 l 1.3335,-3.42901 h -0.90311 l -0.85372,2.56117 -0.81139,-2.56117 h -0.99483 z m 4.91066,0 h 0.64912 v -2.06023 c 0,-0.93133 -0.52917,-1.43933 -1.54517,-1.43933 -0.48684,0 -1.016,0.11994 -1.41817,0.33161 l 0.21167,0.62795 c 0.35983,-0.14112 0.6985,-0.21167 1.016,-0.21167 0.55033,0 0.84667,0.21167 0.84667,0.62089 v 0.0917 c -1.48167,0.0212 -2.13784,0.35983 -2.13784,1.08656 0,0.62089 0.45861,1.02305 1.18533,1.02305 0.43745,0 0.80434,-0.14111 1.06539,-0.40922 z m -0.23988,-0.88195 c -0.16934,0.15522 -0.39512,0.24695 -0.65617,0.24695 -0.34572,0 -0.57856,-0.17639 -0.57856,-0.43745 0,-0.31044 0.35278,-0.45155 1.23473,-0.46567 z m 3.12561,2.50473 c 1.08655,0 1.81328,-0.67028 1.81328,-1.67923 v -3.37256 h -0.64206 l -0.11289,0.30339 c -0.23283,-0.24694 -0.55739,-0.37394 -0.95955,-0.37394 -0.9525,0 -1.60162,0.71967 -1.60162,1.81328 0,1.06539 0.61384,1.75683 1.48873,1.75683 0.37394,0 0.6985,-0.13405 0.94544,-0.37394 v 0.28928 c 0,0.58561 -0.33161,0.89605 -0.93839,0.89605 -0.29633,0 -0.64911,-0.0706 -0.9525,-0.19755 l -0.17639,0.67027 c 0.37395,0.17639 0.74789,0.26812 1.13595,0.26812 z m 0.93133,-4.00756 v 1.38994 c -0.15522,0.1905 -0.38805,0.30339 -0.67028,0.30339 -0.52211,0 -0.85372,-0.40922 -0.85372,-1.05128 0,-0.61383 0.31045,-0.99483 0.81845,-0.99483 0.28927,0 0.54327,0.127 0.70555,0.35278 z m 3.57717,2.45533 c 0.40217,0 0.83961,-0.0847 1.21356,-0.23989 l -0.20462,-0.62089 c -0.27516,0.11289 -0.57855,0.17639 -0.86783,0.17639 -0.61383,0 -0.99483,-0.28928 -1.10067,-0.85372 h 2.2225 c 0.0212,-0.14111 0.0423,-0.35278 0.0423,-0.508 0,-0.93839 -0.5715,-1.524 -1.48873,-1.524 -1.02305,0 -1.70744,0.72672 -1.70744,1.79211 0,1.10067 0.71967,1.778 1.89089,1.778 z m -0.98072,-2.08844 c 0.0494,-0.51506 0.30339,-0.79023 0.73377,-0.79023 0.4445,0 0.70556,0.28928 0.70556,0.79023 z"
         id="text1265"
         aria-label="Enfant sauvage" /><path
         class="st0"
         d="m 418.37331,235.74459 -13.36156,-8.5851 c -0.77473,-0.49778 -1.79276,-0.25552 -2.27555,0.54003 l -2.56821,4.23192 c -0.48377,0.79716 -0.24832,1.84469 0.5263,2.34241 l 1.94277,1.24826 -8.19553,15.91119 c -1.79117,2.95153 -0.47354,4.55928 1.5638,5.86831 2.0343,1.30708 4.01659,1.81962 5.80777,-1.13191 l 10.29696,-14.56095 1.94589,1.25026 c 0.77619,0.49874 1.79275,0.25552 2.27646,-0.54154 l 2.56821,-4.23192 c 0.48264,-0.79551 0.24889,-1.84223 -0.52731,-2.34096 z"
         id="path1399"
         style="fill:none;stroke:#cc0000;stroke-width:1.81534;stroke-dasharray:none;stroke-opacity:1" /><path
         class="st0"
         d="m 421.27888,227.97556 c 1.81629,-0.94984 2.68869,-1.76449 4.4003,-4.22633 2.99744,-4.82825 2.1958,-11.2798 -1.94437,-18.58767 -0.0526,-0.0983 -0.71362,-1.22005 -1.13736,-0.0361 -0.2742,0.76901 -2.34208,4.47767 -3.11629,3.96198 -0.14605,-2.21429 -2.68588,-6.3902 -3.86172,-6.45133 -1.17462,-0.0631 -0.80195,3.56053 -4.90778,8.10238 -3.98086,3.7498 -5.63547,9.13494 -2.92305,13.80897 2.71069,4.67429 8.75761,5.90252 13.49027,3.42808 z m -6.34894,-13.62191 c 1.18464,-1.37707 2.14009,-2.56124 2.14009,-2.56124 0,0 1.51482,2.00363 1.57386,4.12922 1.25434,-0.42489 2.24774,-1.7547 2.24774,-1.7547 0,0 2.65796,4.15968 0.65292,8.27746 -2.14372,4.39864 -7.78766,4.19262 -9.43356,0.35557 -1.61214,-3.76981 1.63188,-7.0722 2.81895,-8.44631 z"
         id="path1401"
         style="fill:none;stroke:#cc0000;stroke-width:1.70866;stroke-dasharray:none;stroke-opacity:1" /><path
         style="fill:#cc0000;fill-opacity:1;stroke:#cc0000;stroke-width:0.628014;stroke-linecap:round;stroke-linejoin:round;stroke-dasharray:none;stroke-opacity:1"
         d="m 415.52133,224.66367 c -1.40044,-0.3766 -2.53167,-1.58223 -2.84192,-3.02886 -0.13367,-0.62333 -0.0496,-1.91659 0.1635,-2.51515 0.45249,-1.27097 0.97519,-2.05946 2.76478,-4.17077 l 1.35887,-1.60315 0.14332,0.27503 c 0.37683,0.72305 0.58442,1.56923 0.62679,2.55474 0.023,0.53692 0.0485,0.97621 0.0565,0.97621 0.008,0 0.33149,-0.10713 0.71884,-0.23807 0.86477,-0.2923 1.15694,-0.43773 1.71376,-0.85306 l 0.43449,-0.32406 0.12176,0.29145 c 0.5964,1.42738 0.76351,3.35699 0.41023,4.73775 -0.72951,2.85148 -3.21341,4.5588 -5.67092,3.89794 z"
         id="path2040" /><path
         id="path14-1"
         style="fill:#cc0000;fill-opacity:1;stroke:none;stroke-width:0.397415;stroke-linecap:round;stroke-linejoin:round"
         d="m 379.37076,192.225 c -3.94642,0 -7.14576,3.19881 -7.14576,7.14523 0,3.94642 3.19934,7.14577 7.14576,7.14577 3.94642,0 7.14524,-3.19935 7.14524,-7.14577 0,-3.94642 -3.19882,-7.14523 -7.14524,-7.14523 z m -0.0634,2.6556 c 1.70904,0 2.7473,0.82281 2.7473,2.17738 0,1.79764 -1.83562,2.26623 -1.83562,3.29164 v 0.50649 h -1.59517 v -0.50649 c 0,-1.48115 1.74712,-2.0002 1.74712,-3.07626 0,-0.60765 -0.54483,-0.97458 -1.48162,-0.97458 -0.59499,0 -1.20237,0.13907 -1.81003,0.43024 l -0.3796,-1.22783 c 0.78488,-0.39244 1.72146,-0.62059 2.60762,-0.62059 z m 0.11409,6.84881 c 0.64563,0 1.0759,0.45598 1.0759,1.11427 0,0.62032 -0.44293,1.07589 -1.0759,1.07589 -0.63298,0 -1.08868,-0.45557 -1.08868,-1.07589 0,-0.65829 0.44304,-1.11427 1.08868,-1.11427 z" /><path
         id="path50"
         style="fill:#cc0000;fill-opacity:1;stroke:none;stroke-width:0.397415;stroke-linecap:round;stroke-linejoin:round"
         d="m 441.66076,192.225 c -3.94642,0 -7.14576,3.19881 -7.14576,7.14523 0,3.94642 3.19934,7.14577 7.14576,7.14577 3.94642,0 7.14524,-3.19935 7.14524,-7.14577 0,-3.94642 -3.19882,-7.14523 -7.14524,-7.14523 z m -0.0634,2.6556 c 1.70904,0 2.7473,0.82281 2.7473,2.17738 0,1.79764 -1.83562,2.26623 -1.83562,3.29164 v 0.50649 h -1.59517 v -0.50649 c 0,-1.48115 1.74712,-2.0002 1.74712,-3.07626 0,-0.60765 -0.54483,-0.97458 -1.48162,-0.97458 -0.59499,0 -1.20237,0.13907 -1.81003,0.43024 l -0.3796,-1.22783 c 0.78488,-0.39244 1.72146,-0.62059 2.60762,-0.62059 z m 0.11409,6.84881 c 0.64563,0 1.0759,0.45598 1.0759,1.11427 0,0.62032 -0.44293,1.07589 -1.0759,1.07589 -0.63298,0 -1.08868,-0.45557 -1.08868,-1.07589 0,-0.65829 0.44304,-1.11427 1.08868,-1.11427 z" /></g></g><style
     type="text/css"
     id="style1397">
<![CDATA[
	.st0{fill:#000000;}
]]>
</style><style
     type="text/css"
     id="style1">
<![CDATA[
	.st0{fill:#000000;}
]]>
</style></svg>
