<?xml version="1.0" encoding="UTF-8" standalone="no"?>
<!-- Created with Inkscape (http://www.inkscape.org/) -->

<svg
   width="80.531303mm"
   height="80.531303mm"
   viewBox="0 0 80.531303 80.531303"
   version="1.1"
   id="svg5"
   inkscape:version="1.4.4 (dcaf3e7d9e, 2026-05-05)"
   sodipodi:docname="Greffier.svg"
   xml:space="preserve"
   xmlns:inkscape="http://www.inkscape.org/namespaces/inkscape"
   xmlns:sodipodi="http://sodipodi.sourceforge.net/DTD/sodipodi-0.dtd"
   xmlns="http://www.w3.org/2000/svg"
   xmlns:svg="http://www.w3.org/2000/svg"><sodipodi:namedview
     id="namedview7"
     pagecolor="#ffffff"
     bordercolor="#000000"
     borderopacity="0.25"
     inkscape:showpageshadow="2"
     inkscape:pageopacity="0.0"
     inkscape:pagecheckerboard="true"
     inkscape:deskcolor="#d1d1d1"
     inkscape:document-units="mm"
     showgrid="false"
     inkscape:zoom="0.3141388"
     inkscape:cx="1451.5877"
     inkscape:cy="776.72673"
     inkscape:window-width="1920"
     inkscape:window-height="1014"
     inkscape:window-x="0"
     inkscape:window-y="0"
     inkscape:window-maximized="1"
     inkscape:current-layer="layer1"
     showguides="false" /><defs
     id="defs2"><inkscape:path-effect
   effect="fillet_chamfer"
   id="path-effect2"
   is_visible="true"
   lpeversion="1"
   nodesatellites_param="F,0,0,1,0,0,0,1 @ F,0,0,1,0,0,0,1 @ F,0,0,1,0,0,0,1 @ F,0,0,1,0,0,0,1 @ F,0,0,1,0,0,0,1 @ F,0,0,1,0,0,0,1 @ F,0,0,1,0,0,0,1 @ F,0,0,1,0,0,0,1 @ F,0,0,1,0,0,0,1"
   radius="0"
   unit="px"
   method="auto"
   mode="F"
   chamfer_steps="1"
   flexible="false"
   use_knot_distance="true"
   apply_no_radius="true"
   apply_with_radius="true"
   only_selected="false"
   hide_knots="false" /><inkscape:path-effect
   effect="fillet_chamfer"
   id="path-effect1"
   is_visible="true"
   lpeversion="1"
   nodesatellites_param="F,0,0,1,0,7.5338088,0,1 @ F,0,0,1,0,0,0,1 @ F,0,0,1,0,0,0,1 @ F,0,0,1,0,0,0,1 @ F,0,0,1,0,0,0,1 @ F,0,0,1,0,0,0,1 @ F,0,0,1,0,0,0,1 @ F,0,0,1,0,0,0,1 @ F,0,0,1,0,0,0,1 @ F,0,0,1,0,0,0,1 @ F,0,0,1,0,0,0,1"
   radius="0"
   unit="px"
   method="auto"
   mode="F"
   chamfer_steps="1"
   flexible="false"
   use_knot_distance="true"
   apply_no_radius="true"
   apply_with_radius="true"
   only_selected="false"
   hide_knots="false" /><inkscape:path-effect
   effect="spiro"
   id="path-effect6"
   is_visible="true"
   lpeversion="1" /><inkscape:path-effect
   effect="fillet_chamfer"
   id="path-effect3"
   is_visible="true"
   lpeversion="1"
   nodesatellites_param="F,0,0,1,0,0,0,1 @ F,0,0,1,0,0,0,1 @ F,0,0,1,0,0,0,1 @ F,0,0,1,0,0,0,1 @ F,0,0,1,0,0,0,1 @ F,0,0,1,0,0,0,1 @ F,0,0,1,0,0,0,1 @ F,0,0,1,0,0,0,1 @ F,0,0,1,0,0,0,1 @ F,0,0,1,0,0,0,1 @ F,0,0,1,0,0,0,1 @ F,0,0,1,0,0,0,1 @ F,0,0,1,0,0,0,1 @ F,0,0,1,0,0,0,1 | F,0,0,1,0,6.4303233,0,1 @ F,0,0,1,0,108.16171,0,1 @ F,0,0,1,0,0,0,1 @ F,0,0,1,0,20.169484,0,1 @ F,0,0,1,0,0,0,1 @ F,0,0,1,0,0,0,1 @ F,0,0,1,0,23.329183,0,1 @ F,0,0,1,0,0,0,1 @ F,0,0,1,0,0,0,1 @ F,0,0,1,0,0,0,1 | F,0,0,1,0,0,0,1 @ F,0,0,1,0,0,0,1 @ F,0,0,1,0,0,0,1 @ F,0,0,1,0,0,0,1 @ F,0,0,1,0,0,0,1 @ F,0,0,1,0,0,0,1 | F,0,0,1,0,0,0,1 @ F,0,0,1,0,0,0,1 @ F,0,0,1,0,0,0,1 @ F,0,0,1,0,0,0,1 @ F,0,0,1,0,0,0,1 @ F,0,0,1,0,0,0,1 @ F,0,0,1,0,0,0,1 @ F,0,0,1,0,0,0,1 @ F,0,0,1,0,0,0,1 @ F,0,0,1,0,0,0,1"
   radius="0"
   unit="px"
   method="auto"
   mode="F"
   chamfer_steps="1"
   flexible="false"
   use_knot_distance="true"
   apply_no_radius="true"
   apply_with_radius="true"
   only_selected="false"
   hide_knots="false" /><inkscape:path-effect
   effect="spiro"
   id="path-effect9346"
   is_visible="true"
   lpeversion="1" />
		
	
	
	

	

		
	
	

	

	

	

	

	
</defs><g
     inkscape:label="Calque 1"
     inkscape:groupmode="layer"
     id="layer1"
     transform="translate(-280.25,-190.25)"><g
       id="g50"><path
         id="rect951"
         style="stroke-width:0.05"
         d="m 287.69182,190.25 h 65.64766 c 4.12277,0 7.44182,3.31905 7.44182,7.44182 v 65.64766 c 0,4.12277 -3.31905,7.44182 -7.44182,7.44182 h -65.64766 c -4.12277,0 -7.44182,-3.31905 -7.44182,-7.44182 v -65.64766 c 0,-4.12277 3.31905,-7.44182 7.44182,-7.44182 z" /><path
         style="font-weight:bold;font-size:7.05556px;font-family:Cantarell;-inkscape-font-specification:'Cantarell Bold';fill:#cc0000;stroke-width:0.05"
         d="m 310.36981,267.16116 c 0.73378,0 1.36878,-0.21872 1.89089,-0.64911 v -2.17311 h -2.08845 v 0.77611 h 1.2065 v 1.04422 c -0.24694,0.127 -0.55033,0.20461 -0.889,0.20461 -1.02305,0 -1.67922,-0.68439 -1.67922,-1.778 0,-1.05833 0.61383,-1.65805 1.70039,-1.65805 0.43039,0 0.93133,0.0917 1.31233,0.22577 l 0.254,-0.71261 c -0.42333,-0.20461 -0.95955,-0.3175 -1.50989,-0.3175 -1.64394,0 -2.70933,1.03011 -2.70933,2.56823 0,1.48166 1.00189,2.46944 2.51178,2.46944 z m 2.77988,-0.0705 h 0.90312 v -2.22956 c 0.20461,-0.24694 0.49389,-0.38806 0.81139,-0.38806 0.14111,0 0.31044,0.0282 0.43744,0.0776 l 0.20461,-0.82551 c -0.14111,-0.0635 -0.32455,-0.0988 -0.508,-0.0988 -0.40922,0 -0.78317,0.19755 -1.04422,0.54327 l -0.0847,-0.508 h -0.71967 z m 4.57201,0.0705 c 0.40216,0 0.83961,-0.0847 1.21355,-0.23989 l -0.20461,-0.62089 c -0.27517,0.11289 -0.57855,0.17639 -0.86783,0.17639 -0.61384,0 -0.99484,-0.28928 -1.10067,-0.85372 h 2.2225 c 0.0212,-0.14111 0.0423,-0.35278 0.0423,-0.508 0,-0.93839 -0.5715,-1.524 -1.48872,-1.524 -1.02305,0 -1.70744,0.72672 -1.70744,1.79211 0,1.10067 0.71966,1.778 1.89089,1.778 z m -0.98073,-2.08844 c 0.0494,-0.51506 0.30339,-0.79023 0.73378,-0.79023 0.4445,0 0.70556,0.28928 0.70556,0.79023 z m 3.26673,2.01789 h 0.86784 v -2.70934 h 0.98777 v -0.71967 h -0.98777 v -0.54327 c 0,-0.36689 0.19755,-0.56445 0.5715,-0.56445 0.17639,0 0.39511,0.0353 0.52916,0.10583 l 0.17639,-0.64911 c -0.21872,-0.127 -0.48683,-0.20461 -0.77611,-0.20461 -0.81844,0 -1.36878,0.55739 -1.36878,1.38995 v 0.46566 h -0.52916 v 0.71967 h 0.52916 z m 2.63879,0 h 0.86783 v -2.70934 h 0.98778 v -0.71967 h -0.98778 v -0.54327 c 0,-0.36689 0.19756,-0.56445 0.5715,-0.56445 0.17639,0 0.39511,0.0353 0.52917,0.10583 l 0.17639,-0.64911 c -0.21873,-0.127 -0.48684,-0.20461 -0.77612,-0.20461 -0.81844,0 -1.36877,0.55739 -1.36877,1.38995 v 0.46566 h -0.52917 v 0.71967 h 0.52917 z m 2.46239,0 h 0.90311 v -3.42901 h -0.90311 z m 0.45861,-4.06401 c 0.33161,0 0.55033,-0.21166 0.55033,-0.55033 0,-0.33867 -0.21872,-0.55739 -0.55033,-0.55739 -0.33867,0 -0.55739,0.21872 -0.55739,0.55739 0,0.33867 0.21872,0.55033 0.55739,0.55033 z m 3.13972,4.13456 c 0.40217,0 0.83961,-0.0847 1.21356,-0.23989 l -0.20461,-0.62089 c -0.27517,0.11289 -0.57856,0.17639 -0.86784,0.17639 -0.61383,0 -0.99483,-0.28928 -1.10067,-0.85372 h 2.22251 c 0.0212,-0.14111 0.0423,-0.35278 0.0423,-0.508 0,-0.93839 -0.5715,-1.524 -1.48872,-1.524 -1.02306,0 -1.70745,0.72672 -1.70745,1.79211 0,1.10067 0.71967,1.778 1.89089,1.778 z m -0.98072,-2.08844 c 0.0494,-0.51506 0.30339,-0.79023 0.73378,-0.79023 0.4445,0 0.70555,0.28928 0.70555,0.79023 z m 3.09034,2.01789 h 0.90311 v -2.22956 c 0.20461,-0.24694 0.49389,-0.38806 0.81139,-0.38806 0.14111,0 0.31044,0.0282 0.43744,0.0776 l 0.20462,-0.82551 c -0.14112,-0.0635 -0.32456,-0.0988 -0.508,-0.0988 -0.40923,0 -0.78317,0.19755 -1.04423,0.54327 l -0.0847,-0.508 h -0.71967 z"
         id="text1481"
         aria-label="Greffier" /><g
         id="g5"><path
           d="m 335.37656,218.94233 c 3.22128,-6.05911 4.4055,-10.77745 3.65821,-11.46994 -0.6399,-0.59621 -5.86899,1.37571 -8.39362,3.33454 -0.4828,0.37953 -2.40392,6.05397 -3.0222,6.30505 -0.52823,0.22249 -0.48039,-3.41802 -0.19624,-5.01603 -2.45543,1.1686 -6.57067,4.16311 -8.83957,6.23306 -0.17679,0.1637 -0.56993,7.58405 -0.78091,7.80827 -0.43134,0.43925 -1.7916,-5.00613 -2.15316,-4.53509 -5.18119,6.71607 -7.46809,14.17452 -5.25325,17.34981 -2.05781,3.38097 -3.08451,5.56695 -3.08451,5.56695 l 1.60862,-0.0772 c 0.95726,-1.67362 1.90853,-3.24531 2.85559,-4.76833 l 0.0652,0.0341 c 2.3128,0.20585 7.93324,-0.49608 13.50239,-5.8032 0,0 -3.14203,-1.75665 -2.63753,-2.29614 0.49986,-0.54178 5.33599,-2.18362 5.83757,-2.79023 1.79776,-2.18839 2.81659,-3.20727 4.17496,-5.33145 0.3585,-0.55438 -3.77225,0.48593 -3.44147,-0.0611 0.32165,-0.53089 1.05661,-3.22132 6.09998,-4.483 z"
           fill="#434343"
           class="si-glyph-fill"
           id="path1-1"
           style="fill:none;fill-rule:evenodd;stroke:#cc0000;stroke-width:1.20513;stroke-linecap:round;stroke-linejoin:round;stroke-dasharray:none;stroke-opacity:1" /><path
           style="fill:none;fill-opacity:1;stroke:#cc0000;stroke-width:1.40484;stroke-linecap:round;stroke-linejoin:round;stroke-dasharray:none;stroke-opacity:1"
           d="m 302.83992,241.66969 c 0,0 -2.40549,7.3912 0.43729,10.16379 2.52772,2.46531 8.09478,2.23415 10.5893,-0.26474 2.6815,-2.68618 0.70203,-9.63432 0.70203,-9.63432"
           id="path7"
           sodipodi:nodetypes="cssc" /><path
           style="fill:none;fill-opacity:1;stroke:#cc0000;stroke-width:1.40484;stroke-linecap:round;stroke-linejoin:round;stroke-dasharray:none;stroke-opacity:1"
           d="m 302.17595,246.58098 h 13.11761"
           id="path8" /><path
           style="fill:#cc0000;fill-opacity:1;stroke:#cc0000;stroke-width:0.501685;stroke-linecap:round;stroke-linejoin:round;stroke-dasharray:none;stroke-opacity:1"
           d="m 307.48547,252.79425 c -0.0644,-0.0126 -0.38064,-0.0654 -0.70272,-0.11738 -1.23323,-0.19888 -2.56987,-0.86671 -3.139,-1.56831 -0.58551,-0.72182 -0.89756,-1.67584 -0.97391,-2.97762 l -0.0492,-0.83938 h 5.95681 5.95683 l -0.0543,0.66873 c -0.0711,0.87579 -0.29375,1.72722 -0.60399,2.30931 -0.66802,1.25331 -2.412,2.21291 -4.51657,2.48514 -0.54324,0.0703 -1.60291,0.0926 -1.87394,0.0395 z"
           id="path9" /></g><path
         id="path38"
         style="fill:#cc0000;fill-opacity:1;stroke:none;stroke-width:0.397412;stroke-linecap:round;stroke-linejoin:round"
         d="m 351.66057,192.225 c -3.94641,0 -7.14558,3.19917 -7.14557,7.14556 -10e-6,3.9464 3.19916,7.14558 7.14557,7.14558 3.94642,0 7.1456,-3.19918 7.14559,-7.14558 0,-3.94639 -3.19917,-7.14556 -7.14559,-7.14556 z m 0.13193,2.12293 c 1.73876,-1e-5 3.14834,1.40952 3.14839,3.14828 2e-5,1.4665 -1.01249,2.73881 -2.44158,3.06804 1.62811,0.27559 2.97849,1.41285 3.52699,2.97035 h -8.57059 c 0.55588,-1.5785 1.93454,-2.72359 3.58826,-2.98033 -1.40888,-0.34484 -2.39985,-1.6076 -2.39986,-3.05806 5e-5,-1.73876 1.40962,-3.14829 3.14839,-3.14828 z"
         sodipodi:nodetypes="ssssssscccccs" /><path
         id="path39"
         style="fill:#cc0000;fill-opacity:1;stroke:none;stroke-width:0.397412;stroke-linecap:round;stroke-linejoin:round"
         d="m 289.37059,192.225 a 7.1455797,7.1455797 0 0 0 -7.14559,7.14558 7.1455797,7.1455797 0 0 0 7.14559,7.14558 7.1455797,7.1455797 0 0 0 7.14559,-7.14558 7.1455797,7.1455797 0 0 0 -7.14559,-7.14558 z m 0.0534,2.60722 c 0.0933,0 0.18655,0.028 0.26115,0.0839 l 4.02056,3.65571 c 0.18651,0.14921 0.0745,0.41024 -0.14929,0.41024 h -0.70871 v 4.10337 c 0,0.22382 -0.1492,0.37302 -0.37302,0.37302 h -1.93164 l -0.0486,-2.0437 c -0.0118,-0.49316 -0.57716,-1.02185 -1.07045,-1.02185 -0.4933,-1e-5 -1.05872,0.52869 -1.07045,1.02185 l -0.0487,2.0437 h -1.93154 c -0.22382,0 -0.37301,-0.1492 -0.37302,-0.37302 v -4.10327 l -0.7088,-1e-4 c -0.22382,0 -0.3357,-0.26103 -0.14919,-0.41024 l 1.19528,-0.97146 v -2.07773 c 0,-0.22382 0.14921,-0.37301 0.37302,-0.37301 h 0.43948 c 0.17584,0 0.37301,0.19717 0.37301,0.37301 v 0.84672 l 1.63976,-1.45324 c 0.0746,-0.056 0.16789,-0.0839 0.26114,-0.0839 z" /></g></g><style
     type="text/css"
     id="style10809">
	.puchipuchi_een{fill:#111918;}
</style><style
     type="text/css"
     id="style11287">
	.st0{fill:#000000;}
</style><style
     type="text/css"
     id="style1">
<![CDATA[
	.st0{fill:#000000;}
]]>
</style><style
     type="text/css"
     id="style1-3">
	.st0{fill:#FD6A7E;}
	.st1{fill:#17B978;}
	.st2{fill:#8797EE;}
	.st3{fill:#41A6F9;}
	.st4{fill:#37E0FF;}
	.st5{fill:#2FD9B9;}
	.st6{fill:#F498BD;}
	.st7{fill:#FFDF1D;}
	.st8{fill:#C6C9CC;}
</style></svg>
