<?xml version="1.0" encoding="UTF-8" standalone="no"?>
<!-- Created with Inkscape (http://www.inkscape.org/) -->

<svg
   width="80.531303mm"
   height="80.531296mm"
   viewBox="0 0 80.531303 80.531296"
   version="1.1"
   id="svg5"
   inkscape:version="1.4.4 (dcaf3e7d9e, 2026-05-05)"
   sodipodi:docname="Joueur de flute.svg"
   xml:space="preserve"
   xmlns:inkscape="http://www.inkscape.org/namespaces/inkscape"
   xmlns:sodipodi="http://sodipodi.sourceforge.net/DTD/sodipodi-0.dtd"
   xmlns="http://www.w3.org/2000/svg"
   xmlns:svg="http://www.w3.org/2000/svg"><sodipodi:namedview
     id="namedview7"
     pagecolor="#ffffff"
     bordercolor="#000000"
     borderopacity="0.25"
     inkscape:showpageshadow="2"
     inkscape:pageopacity="0.0"
     inkscape:pagecheckerboard="true"
     inkscape:deskcolor="#d1d1d1"
     inkscape:document-units="mm"
     showgrid="false"
     inkscape:zoom="0.62827759"
     inkscape:cx="730.56879"
     inkscape:cy="523.65388"
     inkscape:window-width="1920"
     inkscape:window-height="1014"
     inkscape:window-x="0"
     inkscape:window-y="0"
     inkscape:window-maximized="1"
     inkscape:current-layer="layer1"
     showguides="false" /><defs
     id="defs2"><inkscape:path-effect
   effect="fillet_chamfer"
   id="path-effect2"
   is_visible="true"
   lpeversion="1"
   nodesatellites_param="F,0,0,1,0,0,0,1 @ F,0,0,1,0,0,0,1 @ F,0,0,1,0,0,0,1 @ F,0,0,1,0,0,0,1 @ F,0,0,1,0,0,0,1 @ F,0,0,1,0,0,0,1 @ F,0,0,1,0,0,0,1 @ F,0,0,1,0,0,0,1 @ F,0,0,1,0,0,0,1"
   radius="0"
   unit="px"
   method="auto"
   mode="F"
   chamfer_steps="1"
   flexible="false"
   use_knot_distance="true"
   apply_no_radius="true"
   apply_with_radius="true"
   only_selected="false"
   hide_knots="false" /><inkscape:path-effect
   effect="fillet_chamfer"
   id="path-effect1"
   is_visible="true"
   lpeversion="1"
   nodesatellites_param="F,0,0,1,0,7.5338088,0,1 @ F,0,0,1,0,0,0,1 @ F,0,0,1,0,0,0,1 @ F,0,0,1,0,0,0,1 @ F,0,0,1,0,0,0,1 @ F,0,0,1,0,0,0,1 @ F,0,0,1,0,0,0,1 @ F,0,0,1,0,0,0,1 @ F,0,0,1,0,0,0,1 @ F,0,0,1,0,0,0,1 @ F,0,0,1,0,0,0,1"
   radius="0"
   unit="px"
   method="auto"
   mode="F"
   chamfer_steps="1"
   flexible="false"
   use_knot_distance="true"
   apply_no_radius="true"
   apply_with_radius="true"
   only_selected="false"
   hide_knots="false" /><inkscape:path-effect
   effect="spiro"
   id="path-effect6"
   is_visible="true"
   lpeversion="1" /><inkscape:path-effect
   effect="fillet_chamfer"
   id="path-effect3"
   is_visible="true"
   lpeversion="1"
   nodesatellites_param="F,0,0,1,0,0,0,1 @ F,0,0,1,0,0,0,1 @ F,0,0,1,0,0,0,1 @ F,0,0,1,0,0,0,1 @ F,0,0,1,0,0,0,1 @ F,0,0,1,0,0,0,1 @ F,0,0,1,0,0,0,1 @ F,0,0,1,0,0,0,1 @ F,0,0,1,0,0,0,1 @ F,0,0,1,0,0,0,1 @ F,0,0,1,0,0,0,1 @ F,0,0,1,0,0,0,1 @ F,0,0,1,0,0,0,1 @ F,0,0,1,0,0,0,1 | F,0,0,1,0,6.4303233,0,1 @ F,0,0,1,0,108.16171,0,1 @ F,0,0,1,0,0,0,1 @ F,0,0,1,0,20.169484,0,1 @ F,0,0,1,0,0,0,1 @ F,0,0,1,0,0,0,1 @ F,0,0,1,0,23.329183,0,1 @ F,0,0,1,0,0,0,1 @ F,0,0,1,0,0,0,1 @ F,0,0,1,0,0,0,1 | F,0,0,1,0,0,0,1 @ F,0,0,1,0,0,0,1 @ F,0,0,1,0,0,0,1 @ F,0,0,1,0,0,0,1 @ F,0,0,1,0,0,0,1 @ F,0,0,1,0,0,0,1 | F,0,0,1,0,0,0,1 @ F,0,0,1,0,0,0,1 @ F,0,0,1,0,0,0,1 @ F,0,0,1,0,0,0,1 @ F,0,0,1,0,0,0,1 @ F,0,0,1,0,0,0,1 @ F,0,0,1,0,0,0,1 @ F,0,0,1,0,0,0,1 @ F,0,0,1,0,0,0,1 @ F,0,0,1,0,0,0,1"
   radius="0"
   unit="px"
   method="auto"
   mode="F"
   chamfer_steps="1"
   flexible="false"
   use_knot_distance="true"
   apply_no_radius="true"
   apply_with_radius="true"
   only_selected="false"
   hide_knots="false" /><inkscape:path-effect
   effect="spiro"
   id="path-effect9346"
   is_visible="true"
   lpeversion="1" />
		
	
	
	

	

		
	
	

	

	

	

	

	
</defs><g
     inkscape:label="Calque 1"
     inkscape:groupmode="layer"
     id="layer1"
     transform="translate(-280.25,-10.25)"><g
       id="g44"><path
         id="rect927"
         style="stroke-width:0.05"
         d="m 287.69182,10.25 h 65.64766 c 4.12277,0 7.44182,3.31905 7.44182,7.441816 v 65.647663 c 0,4.122767 -3.31905,7.441817 -7.44182,7.441817 h -65.64766 c -4.12277,0 -7.44182,-3.31905 -7.44182,-7.441817 V 17.691816 c 0,-4.122766 3.31905,-7.441816 7.44182,-7.441816 z" /><path
         style="font-weight:bold;font-size:7.05556px;font-family:Cantarell;-inkscape-font-specification:'Cantarell Bold';fill:#cc0000;stroke-width:0.05"
         d="m 297.64829,87.161162 c 0.95956,0 1.50284,-0.592667 1.50284,-1.63689 v -3.330224 h -0.91017 v 3.40078 c 0,0.493889 -0.23283,0.762 -0.65617,0.762 -0.20461,0 -0.47272,-0.05644 -0.66322,-0.148166 l -0.26105,0.705556 c 0.29633,0.169333 0.635,0.246944 0.98777,0.246944 z m 4.00051,0 c 1.0795,0 1.80622,-0.740834 1.80622,-1.841501 0,-1.051278 -0.67028,-1.728612 -1.70039,-1.728612 -1.08656,0 -1.81328,0.733778 -1.81328,1.841501 0,1.044223 0.66322,1.728612 1.70745,1.728612 z m 0.0776,-0.762 c -0.52917,0 -0.87489,-0.409223 -0.87489,-1.044223 0,-0.620889 0.3175,-1.00189 0.81844,-1.00189 0.52917,0 0.87489,0.416278 0.87489,1.058334 0,0.606779 -0.3175,0.987779 -0.81844,0.987779 z m 3.66889,0.747889 c 0.40217,0 0.78317,-0.155222 1.07245,-0.430389 l 0.16228,0.373945 h 0.64205 v -3.429003 h -0.90311 v 2.462391 c -0.1905,0.155222 -0.40922,0.239889 -0.64205,0.239889 -0.48684,0 -0.635,-0.373945 -0.635,-0.712612 v -1.989668 h -0.89606 v 2.187224 c 0,0.790223 0.48683,1.298223 1.19944,1.298223 z m 4.572,0.01411 c 0.40217,0 0.83961,-0.08467 1.21356,-0.239889 l -0.20461,-0.620889 c -0.27517,0.112889 -0.57856,0.176389 -0.86784,0.176389 -0.61383,0 -0.99483,-0.289278 -1.10066,-0.853723 h 2.2225 c 0.0212,-0.141111 0.0423,-0.352778 0.0423,-0.508 0,-0.93839 -0.5715,-1.524001 -1.48872,-1.524001 -1.02306,0 -1.70745,0.726723 -1.70745,1.792112 0,1.100668 0.71967,1.778001 1.89089,1.778001 z m -0.98072,-2.088446 c 0.0494,-0.515055 0.30339,-0.790222 0.73378,-0.790222 0.4445,0 0.70555,0.289278 0.70555,0.790222 z m 4.22628,2.074335 c 0.40217,0 0.78317,-0.155222 1.07245,-0.430389 l 0.16228,0.373945 h 0.64205 v -3.429003 h -0.90311 v 2.462391 c -0.1905,0.155222 -0.40922,0.239889 -0.64205,0.239889 -0.48684,0 -0.63501,-0.373945 -0.63501,-0.712612 v -1.989668 h -0.89605 v 2.187224 c 0,0.790223 0.48683,1.298223 1.19944,1.298223 z m 2.89278,-0.05644 h 0.90311 v -2.22956 c 0.20461,-0.246945 0.49389,-0.388056 0.81139,-0.388056 0.14111,0 0.31044,0.02822 0.43744,0.07761 l 0.20461,-0.8255 c -0.14111,-0.0635 -0.32455,-0.09878 -0.508,-0.09878 -0.40922,0 -0.78316,0.197555 -1.04422,0.543278 l -0.0847,-0.508001 h -0.71966 z m 5.6515,0.07055 c 0.43038,0 0.79727,-0.169333 1.05127,-0.465667 l 0.1905,0.395112 h 0.57856 v -5.214059 h -0.87489 v 1.975557 c -0.21872,-0.176389 -0.50094,-0.261056 -0.8255,-0.261056 -0.96661,0 -1.60867,0.719667 -1.60867,1.813279 0,1.058334 0.61384,1.756834 1.48873,1.756834 z m 0.94544,-1.072445 c -0.15522,0.197556 -0.38806,0.310445 -0.66322,0.310445 -0.52917,0 -0.86078,-0.409223 -0.86078,-1.051279 0,-0.613833 0.31044,-0.994834 0.81844,-0.994834 0.28928,0 0.54328,0.119945 0.70556,0.324556 z m 3.57011,1.072445 c 0.40217,0 0.83962,-0.08467 1.21356,-0.239889 l -0.20461,-0.620889 c -0.27517,0.112889 -0.57856,0.176389 -0.86783,0.176389 -0.61384,0 -0.99484,-0.289278 -1.10067,-0.853723 h 2.2225 c 0.0212,-0.141111 0.0423,-0.352778 0.0423,-0.508 0,-0.93839 -0.5715,-1.524001 -1.48872,-1.524001 -1.02306,0 -1.70745,0.726723 -1.70745,1.792112 0,1.100668 0.71967,1.778001 1.89089,1.778001 z m -0.98072,-2.088446 c 0.0494,-0.515055 0.30339,-0.790222 0.73378,-0.790222 0.4445,0 0.70556,0.289278 0.70556,0.790222 z m 4.74839,2.017891 h 0.86784 V 84.38127 h 0.98777 v -0.719668 h -0.98777 v -0.543278 c 0,-0.366889 0.19755,-0.564444 0.5715,-0.564444 0.17638,0 0.39511,0.03528 0.52916,0.105833 l 0.17639,-0.649112 c -0.21872,-0.127 -0.48683,-0.204611 -0.77611,-0.204611 -0.81844,0 -1.36878,0.557389 -1.36878,1.389946 v 0.465666 h -0.52917 v 0.719668 h 0.52917 z m 3.42195,0.04939 c 0.22578,0 0.47272,-0.04233 0.65617,-0.127 l -0.18345,-0.599723 c -0.0776,0.02822 -0.15522,0.04233 -0.21872,0.04233 -0.21167,0 -0.32456,-0.141111 -0.32456,-0.381 v -4.198058 h -0.889 v 4.310947 c 0,0.592667 0.35984,0.952501 0.95956,0.952501 z m 2.32834,0.0071 c 0.40216,0 0.78316,-0.155222 1.07244,-0.430389 l 0.16228,0.373945 h 0.64206 v -3.429003 h -0.90312 v 2.462391 c -0.1905,0.155222 -0.40922,0.239889 -0.64205,0.239889 -0.48684,0 -0.635,-0.373945 -0.635,-0.712612 v -1.989668 h -0.89606 v 2.187224 c 0,0.790223 0.48684,1.298223 1.19945,1.298223 z m -0.46567,-3.915836 0.76906,-0.635 0.75494,0.642056 0.49389,-0.472723 -0.96661,-0.931334 h -0.45861 l -0.96661,1.086557 z m 4.72017,3.908781 c 0.23283,0 0.48683,-0.04939 0.70555,-0.119945 l -0.18344,-0.642056 c -0.0988,0.04233 -0.21872,0.0635 -0.32456,0.0635 -0.32455,0 -0.52917,-0.1905 -0.52917,-0.486833 v -1.57339 h 0.86078 v -0.719668 h -0.86078 V 82.66677 h -0.889 v 0.994834 h -0.47977 v 0.719668 h 0.47977 v 1.629834 c 0,0.691445 0.45862,1.12889 1.22062,1.12889 z m 3.01977,0.02117 c 0.40217,0 0.83961,-0.08467 1.21356,-0.239889 l -0.20461,-0.620889 c -0.27517,0.112889 -0.57856,0.176389 -0.86784,0.176389 -0.61383,0 -0.99483,-0.289278 -1.10067,-0.853723 h 2.22251 c 0.0212,-0.141111 0.0423,-0.352778 0.0423,-0.508 0,-0.93839 -0.5715,-1.524001 -1.48872,-1.524001 -1.02306,0 -1.70745,0.726723 -1.70745,1.792112 0,1.100668 0.71967,1.778001 1.89089,1.778001 z m -0.98072,-2.088446 c 0.0494,-0.515055 0.30339,-0.790222 0.73378,-0.790222 0.4445,0 0.70555,0.289278 0.70555,0.790222 z"
         id="text1228"
         aria-label="Joueur de flûte" /><path
         d="M 335.56378,39.857409 333.0928,37.38643 c -0.34609,-0.346087 -0.8054,-0.569034 -1.29481,-0.569034 -0.48922,0 -0.94872,0.158 -1.29481,0.504087 l -31.07437,31.074466 c -0.346,0.345996 -0.52058,0.821978 -0.52058,1.311201 0,0.489224 0.19855,0.957368 0.54454,1.303184 l 2.47494,2.475123 0.0216,0.02144 c 0.71433,0.714333 1.89807,0.735952 2.61231,0.02162 L 335.63603,42.45414 c 0.71424,-0.714153 0.64209,-1.882488 -0.0723,-2.59673 z"
         id="path1-7"
         style="fill:none;stroke:#cc0000;stroke-width:1.63847;stroke-dasharray:none;stroke-opacity:1"
         sodipodi:nodetypes="cssccscccccc" /><path
         d="m 305.94077,68.347493 -0.95053,0.950433 c -0.19682,0.196824 -0.43292,0.317081 -0.691,0.317081 -0.25798,0 -0.52696,-0.109358 -0.72379,-0.306181 -0.39382,-0.39383 -0.40473,-1.043035 -0.0109,-1.436863 l 0.95052,-0.950522 c 0.39356,-0.393559 1.03205,-0.393559 1.42579,0 0.39373,0.393919 0.39373,1.032224 -9e-5,1.426052 z m 9.50504,-9.505129 -0.95043,0.950432 c -0.19683,0.196825 -0.43302,0.317081 -0.69101,0.317081 -0.25798,0 -0.52696,-0.109357 -0.72388,-0.306361 -0.39374,-0.393649 -0.40454,-1.042945 -0.0109,-1.436683 l 0.95043,-0.950432 c 0.39357,-0.393559 1.03195,-0.393649 1.42579,9e-5 0.39374,0.393919 0.39374,1.032315 0,1.425873 z m 4.75252,-4.75252 -0.95053,0.950522 c -0.19682,0.196825 -0.43292,0.317081 -0.691,0.317081 -0.25807,0 -0.52696,-0.109357 -0.72388,-0.306362 -0.39373,-0.393648 -0.40455,-1.042943 -0.0109,-1.436683 l 0.95053,-0.950521 c 0.39364,-0.393649 1.03204,-0.393559 1.42578,9e-5 0.39383,0.393828 0.39374,1.032224 0,1.425873 z m 4.75261,-4.75252 -0.95052,0.950522 c -0.19683,0.196824 -0.43302,0.317171 -0.691,0.317171 -0.258,0 -0.52697,-0.109358 -0.72389,-0.306181 -0.39365,-0.393829 -0.40455,-1.043034 -0.0109,-1.436773 l 0.95051,-0.950522 c 0.39356,-0.393559 1.03196,-0.393649 1.42579,0 0.39382,0.393648 0.39364,1.032045 0,1.425783 z m 4.75261,-4.75261 -0.95052,0.950522 c -0.19683,0.196824 -0.43302,0.317171 -0.69101,0.317171 -0.25799,0 -0.52697,-0.109357 -0.72379,-0.306181 -0.39365,-0.393829 -0.40472,-1.043034 -0.011,-1.436773 l 0.95052,-0.950523 c 0.39383,-0.393828 1.03195,-0.393828 1.42578,-9e-5 0.39356,0.39383 0.39365,1.032135 0,1.425874 z"
         style="fill:#cc0000;fill-opacity:1;stroke:#cc0000;stroke-width:0.819235;stroke-dasharray:none;stroke-opacity:1"
         id="path1-5" /><g
         id="g3-5"
         style="fill:none;stroke:#cc0000;stroke-width:18.1891;stroke-dasharray:none;stroke-opacity:1"
         transform="matrix(0.09007979,0,0,0.09007979,296.97161,27.932826)">
		<path
   d="m 500.67274,74.370264 c -5.808,-24.459 -5.878,-49.984 -0.141,-74.56299992 1.958,-8.38599998 -8.289,-14.08500008 -14.379,-7.99599998 l -62.681,62.6809999 c -5.821,5.821 -5.821,15.256 0,21.077 l 34.327,34.326996 c 5.82,5.82 15.256,5.82 21.077,-0.001 l 16.509,-16.508996 c 4.975,-4.973 6.913,-12.172 5.288,-19.016 z"
   id="path2"
   style="fill:none;stroke:#cc0000;stroke-width:18.1891;stroke-dasharray:none;stroke-opacity:1"
   sodipodi:nodetypes="sscsssscs" />
	</g><path
         id="path40"
         style="fill:#cc0000;fill-opacity:1;stroke:none;stroke-width:0.397412;stroke-linecap:round;stroke-linejoin:round"
         d="m 351.66057,12.225 c -3.94641,0 -7.14558,3.19917 -7.14557,7.145557 -10e-6,3.946397 3.19916,7.145577 7.14557,7.145577 3.94642,0 7.1456,-3.19918 7.14559,-7.145577 0,-3.946387 -3.19917,-7.145557 -7.14559,-7.145557 z m 0.13193,2.12293 c 1.73876,-10e-6 3.14834,1.40952 3.14839,3.148277 2e-5,1.4665 -1.01249,2.73881 -2.44158,3.06804 1.62811,0.27559 2.97849,1.412847 3.52699,2.970347 h -8.57059 c 0.55588,-1.5785 1.93454,-2.723587 3.58826,-2.980327 -1.40888,-0.34484 -2.39985,-1.6076 -2.39986,-3.05806 5e-5,-1.738757 1.40962,-3.148287 3.14839,-3.148277 z"
         sodipodi:nodetypes="ssssssscccccs" /><path
         id="path42"
         style="fill:#cc0000;fill-opacity:1;stroke:none;stroke-width:0.397412;stroke-linecap:round;stroke-linejoin:round"
         d="m 289.37059,12.225 c -3.94641,0 -7.14559,3.19918 -7.14559,7.14558 0,3.94639 3.19918,7.14558 7.14559,7.14558 3.94639,0 7.14557,-3.19919 7.14557,-7.14558 0,-3.9464 -3.19918,-7.14558 -7.14557,-7.14558 z m 4.05816,2.48358 c 0.44262,2.21338 -0.64405,3.21941 -1.65013,4.22552 -0.78197,0.78196 -2.208,2.20772 -2.80441,2.8044 l 0.64315,0.64325 -0.43888,0.43868 -0.81517,-0.81489 -1.89843,1.89841 c -0.13562,0.13563 -0.35554,0.13563 -0.49117,0 l -0.9468,-0.94681 c -0.13564,-0.13534 -0.13564,-0.35527 0,-0.49117 l 1.8987,-1.89811 -0.74623,-0.74653 0.43868,-0.43858 0.58567,0.58497 4.01138,-4.01167 c 0,0 1.08666,-0.28167 2.21364,-1.24747 z m -0.31833,0.76689 c -0.75642,0.52318 -1.41782,0.76521 -1.67687,0.84721 l -3.91917,3.91947 0.47071,0.47101 3.19649,-3.19599 0.14639,0.1461 -3.19648,3.19628 0.5686,0.568 2.78565,-2.78594 0.0868,-0.0868 c 0.82508,-0.8231 1.61022,-1.60622 1.53787,-3.07933 z" /></g></g><style
     type="text/css"
     id="style10809">
	.puchipuchi_een{fill:#111918;}
</style><style
     type="text/css"
     id="style11287">
	.st0{fill:#000000;}
</style><style
     type="text/css"
     id="style1">
<![CDATA[
	.st0{fill:#000000;}
]]>
</style><style
     type="text/css"
     id="style1-3">
	.st0{fill:#FD6A7E;}
	.st1{fill:#17B978;}
	.st2{fill:#8797EE;}
	.st3{fill:#41A6F9;}
	.st4{fill:#37E0FF;}
	.st5{fill:#2FD9B9;}
	.st6{fill:#F498BD;}
	.st7{fill:#FFDF1D;}
	.st8{fill:#C6C9CC;}
</style></svg>
