<?xml version="1.0" encoding="UTF-8" standalone="no"?>
<!-- Created with Inkscape (http://www.inkscape.org/) -->

<svg
   width="80.531303mm"
   height="80.531303mm"
   viewBox="0 0 80.531303 80.531303"
   version="1.1"
   id="svg5"
   inkscape:version="1.4.4 (dcaf3e7d9e, 2026-05-05)"
   sodipodi:docname="Juge Bègue.svg"
   xml:space="preserve"
   xmlns:inkscape="http://www.inkscape.org/namespaces/inkscape"
   xmlns:sodipodi="http://sodipodi.sourceforge.net/DTD/sodipodi-0.dtd"
   xmlns="http://www.w3.org/2000/svg"
   xmlns:svg="http://www.w3.org/2000/svg"><sodipodi:namedview
     id="namedview7"
     pagecolor="#ffffff"
     bordercolor="#000000"
     borderopacity="0.25"
     inkscape:showpageshadow="2"
     inkscape:pageopacity="0.0"
     inkscape:pagecheckerboard="true"
     inkscape:deskcolor="#d1d1d1"
     inkscape:document-units="mm"
     showgrid="false"
     inkscape:zoom="0.62827759"
     inkscape:cx="-404.2799"
     inkscape:cy="311.96402"
     inkscape:window-width="1920"
     inkscape:window-height="1014"
     inkscape:window-x="0"
     inkscape:window-y="0"
     inkscape:window-maximized="1"
     inkscape:current-layer="layer1"
     showguides="false" /><defs
     id="defs2"><inkscape:path-effect
   effect="fillet_chamfer"
   id="path-effect2"
   is_visible="true"
   lpeversion="1"
   nodesatellites_param="F,0,0,1,0,0,0,1 @ F,0,0,1,0,0,0,1 @ F,0,0,1,0,0,0,1 @ F,0,0,1,0,0,0,1 @ F,0,0,1,0,0,0,1 @ F,0,0,1,0,0,0,1 @ F,0,0,1,0,0,0,1 @ F,0,0,1,0,0,0,1 @ F,0,0,1,0,0,0,1"
   radius="0"
   unit="px"
   method="auto"
   mode="F"
   chamfer_steps="1"
   flexible="false"
   use_knot_distance="true"
   apply_no_radius="true"
   apply_with_radius="true"
   only_selected="false"
   hide_knots="false" /><inkscape:path-effect
   effect="fillet_chamfer"
   id="path-effect1"
   is_visible="true"
   lpeversion="1"
   nodesatellites_param="F,0,0,1,0,7.5338088,0,1 @ F,0,0,1,0,0,0,1 @ F,0,0,1,0,0,0,1 @ F,0,0,1,0,0,0,1 @ F,0,0,1,0,0,0,1 @ F,0,0,1,0,0,0,1 @ F,0,0,1,0,0,0,1 @ F,0,0,1,0,0,0,1 @ F,0,0,1,0,0,0,1 @ F,0,0,1,0,0,0,1 @ F,0,0,1,0,0,0,1"
   radius="0"
   unit="px"
   method="auto"
   mode="F"
   chamfer_steps="1"
   flexible="false"
   use_knot_distance="true"
   apply_no_radius="true"
   apply_with_radius="true"
   only_selected="false"
   hide_knots="false" /><inkscape:path-effect
   effect="spiro"
   id="path-effect6"
   is_visible="true"
   lpeversion="1" /><inkscape:path-effect
   effect="fillet_chamfer"
   id="path-effect3"
   is_visible="true"
   lpeversion="1"
   nodesatellites_param="F,0,0,1,0,0,0,1 @ F,0,0,1,0,0,0,1 @ F,0,0,1,0,0,0,1 @ F,0,0,1,0,0,0,1 @ F,0,0,1,0,0,0,1 @ F,0,0,1,0,0,0,1 @ F,0,0,1,0,0,0,1 @ F,0,0,1,0,0,0,1 @ F,0,0,1,0,0,0,1 @ F,0,0,1,0,0,0,1 @ F,0,0,1,0,0,0,1 @ F,0,0,1,0,0,0,1 @ F,0,0,1,0,0,0,1 @ F,0,0,1,0,0,0,1 | F,0,0,1,0,6.4303233,0,1 @ F,0,0,1,0,108.16171,0,1 @ F,0,0,1,0,0,0,1 @ F,0,0,1,0,20.169484,0,1 @ F,0,0,1,0,0,0,1 @ F,0,0,1,0,0,0,1 @ F,0,0,1,0,23.329183,0,1 @ F,0,0,1,0,0,0,1 @ F,0,0,1,0,0,0,1 @ F,0,0,1,0,0,0,1 | F,0,0,1,0,0,0,1 @ F,0,0,1,0,0,0,1 @ F,0,0,1,0,0,0,1 @ F,0,0,1,0,0,0,1 @ F,0,0,1,0,0,0,1 @ F,0,0,1,0,0,0,1 | F,0,0,1,0,0,0,1 @ F,0,0,1,0,0,0,1 @ F,0,0,1,0,0,0,1 @ F,0,0,1,0,0,0,1 @ F,0,0,1,0,0,0,1 @ F,0,0,1,0,0,0,1 @ F,0,0,1,0,0,0,1 @ F,0,0,1,0,0,0,1 @ F,0,0,1,0,0,0,1 @ F,0,0,1,0,0,0,1"
   radius="0"
   unit="px"
   method="auto"
   mode="F"
   chamfer_steps="1"
   flexible="false"
   use_knot_distance="true"
   apply_no_radius="true"
   apply_with_radius="true"
   only_selected="false"
   hide_knots="false" /><inkscape:path-effect
   effect="spiro"
   id="path-effect9346"
   is_visible="true"
   lpeversion="1" />
		
	
	
	

	

		
	
	

	

	

	

	

	
</defs><g
     inkscape:label="Calque 1"
     inkscape:groupmode="layer"
     id="layer1"
     transform="translate(-190.25,-100.25)"><g
       id="g52"><path
         id="rect937"
         style="stroke-width:0.05"
         d="m 197.69182,100.25 h 65.64766 c 4.12277,0 7.44182,3.31905 7.44182,7.44182 v 65.64766 c 0,4.12277 -3.31905,7.44182 -7.44182,7.44182 h -65.64766 c -4.12277,0 -7.44182,-3.31905 -7.44182,-7.44182 v -65.64766 c 0,-4.12277 3.31905,-7.44182 7.44182,-7.44182 z" /><path
         style="font-weight:bold;font-size:7.05556px;font-family:Cantarell;-inkscape-font-specification:'Cantarell Bold';fill:#cc0000;stroke-width:0.05"
         d="m 213.29278,177.25288 c 0.95956,0 1.50283,-0.59266 1.50283,-1.63689 v -3.33022 h -0.91016 v 3.40078 c 0,0.49389 -0.23284,0.762 -0.65617,0.762 -0.20461,0 -0.47272,-0.0565 -0.66322,-0.14817 l -0.26106,0.70556 c 0.29633,0.16933 0.635,0.24694 0.98778,0.24694 z m 3.64067,-0.0141 c 0.40217,0 0.78317,-0.15522 1.07244,-0.43039 l 0.16228,0.37395 h 0.64206 v -3.429 h -0.90311 v 2.46239 c -0.1905,0.15522 -0.40923,0.23988 -0.64206,0.23988 -0.48683,0 -0.635,-0.37394 -0.635,-0.71261 v -1.98966 H 215.734 v 2.18722 c 0,0.79022 0.48684,1.29822 1.19945,1.29822 z m 4.18394,1.56634 c 1.08656,0 1.81328,-0.67028 1.81328,-1.67923 v -3.37255 h -0.64206 l -0.11289,0.30338 c -0.23283,-0.24694 -0.55738,-0.37394 -0.95955,-0.37394 -0.9525,0 -1.60161,0.71967 -1.60161,1.81328 0,1.06539 0.61383,1.75683 1.48872,1.75683 0.37394,0 0.6985,-0.13405 0.94544,-0.37394 v 0.28928 c 0,0.58561 -0.33161,0.89605 -0.93839,0.89605 -0.29633,0 -0.64911,-0.0705 -0.9525,-0.19755 l -0.17638,0.67027 c 0.37394,0.17639 0.74788,0.26812 1.13594,0.26812 z m 0.93133,-4.00756 v 1.38994 c -0.15522,0.1905 -0.38805,0.30339 -0.67027,0.30339 -0.52212,0 -0.85373,-0.40922 -0.85373,-1.05128 0,-0.61383 0.31045,-0.99483 0.81845,-0.99483 0.28928,0 0.54328,0.127 0.70555,0.35278 z m 3.57717,2.45533 c 0.40217,0 0.83961,-0.0847 1.21356,-0.23989 l -0.20461,-0.62089 c -0.27517,0.11289 -0.57856,0.17639 -0.86784,0.17639 -0.61383,0 -0.99483,-0.28927 -1.10067,-0.85372 h 2.22251 c 0.0212,-0.14111 0.0423,-0.35278 0.0423,-0.508 0,-0.93839 -0.5715,-1.524 -1.48872,-1.524 -1.02306,0 -1.70745,0.72672 -1.70745,1.79211 0,1.10067 0.71967,1.778 1.89089,1.778 z m -0.98072,-2.08844 c 0.0494,-0.51506 0.30339,-0.79023 0.73378,-0.79023 0.4445,0 0.70555,0.28928 0.70555,0.79023 z m 4.6355,2.01789 h 1.83444 c 1.17828,0 1.92617,-0.58561 1.92617,-1.51695 0,-0.61383 -0.33161,-1.05833 -0.889,-1.25589 0.30339,-0.21166 0.49389,-0.56444 0.49389,-0.95955 0,-0.75495 -0.61383,-1.16417 -1.74272,-1.16417 h -1.62278 z m 0.90311,-2.18017 h 1.05833 c 0.52917,0 0.85373,0.31044 0.85373,0.78317 0,0.45155 -0.27517,0.66322 -0.86784,0.66322 h -1.04422 z m 1.143,-0.71261 h -1.143 v -1.27 h 0.64911 c 0.57856,0 0.889,0.23989 0.889,0.66322 0,0.254 -0.11994,0.45156 -0.39511,0.60678 z m 4.15572,2.96333 c 0.40217,0 0.83962,-0.0847 1.21356,-0.23989 l -0.20461,-0.62089 c -0.27517,0.11289 -0.57856,0.17639 -0.86783,0.17639 -0.61384,0 -0.99484,-0.28927 -1.10067,-0.85372 h 2.2225 c 0.0212,-0.14111 0.0423,-0.35278 0.0423,-0.508 0,-0.93839 -0.5715,-1.524 -1.48872,-1.524 -1.02306,0 -1.70745,0.72672 -1.70745,1.79211 0,1.10067 0.71967,1.778 1.89089,1.778 z m -0.33866,-3.92289 0.41628,-0.33867 -0.78317,-1.18533 -0.67028,0.54328 z m -0.64206,1.83445 c 0.0494,-0.51506 0.30339,-0.79023 0.73378,-0.79023 0.4445,0 0.70556,0.28928 0.70556,0.79023 z m 4.38151,3.64067 c 1.08655,0 1.81328,-0.67028 1.81328,-1.67923 v -3.37255 h -0.64206 l -0.11289,0.30338 c -0.23283,-0.24694 -0.55739,-0.37394 -0.95955,-0.37394 -0.95251,0 -1.60162,0.71967 -1.60162,1.81328 0,1.06539 0.61384,1.75683 1.48873,1.75683 0.37394,0 0.6985,-0.13405 0.94544,-0.37394 v 0.28928 c 0,0.58561 -0.33161,0.89605 -0.93839,0.89605 -0.29633,0 -0.64911,-0.0705 -0.9525,-0.19755 l -0.17639,0.67027 c 0.37395,0.17639 0.74789,0.26812 1.13595,0.26812 z m 0.93133,-4.00756 v 1.38994 c -0.15522,0.1905 -0.38805,0.30339 -0.67028,0.30339 -0.52211,0 -0.85372,-0.40922 -0.85372,-1.05128 0,-0.61383 0.31045,-0.99483 0.81845,-0.99483 0.28927,0 0.54327,0.127 0.70555,0.35278 z m 3.03389,2.44122 c 0.40217,0 0.78317,-0.15522 1.07245,-0.43039 l 0.16227,0.37395 h 0.64206 v -3.429 h -0.90311 v 2.46239 c -0.1905,0.15522 -0.40922,0.23988 -0.64206,0.23988 -0.48683,0 -0.635,-0.37394 -0.635,-0.71261 v -1.98966 h -0.89605 v 2.18722 c 0,0.79022 0.48683,1.29822 1.19944,1.29822 z m 4.572,0.0141 c 0.40216,0 0.83961,-0.0847 1.21355,-0.23989 l -0.20461,-0.62089 c -0.27516,0.11289 -0.57855,0.17639 -0.86783,0.17639 -0.61383,0 -0.99484,-0.28927 -1.10067,-0.85372 h 2.2225 c 0.0212,-0.14111 0.0423,-0.35278 0.0423,-0.508 0,-0.93839 -0.5715,-1.524 -1.48873,-1.524 -1.02305,0 -1.70744,0.72672 -1.70744,1.79211 0,1.10067 0.71966,1.778 1.89089,1.778 z m -0.98073,-2.08844 c 0.0494,-0.51506 0.30339,-0.79023 0.73378,-0.79023 0.4445,0 0.70556,0.28928 0.70556,0.79023 z"
         id="text1216"
         aria-label="Juge Bègue" /><g
         id="g3311"
         transform="matrix(0.13441049,0,0,0.13441049,202.7866,114.64351)"
         style="fill:#000000;stroke:#cc0000;stroke-width:10.8781;stroke-dasharray:none;stroke-opacity:1"><path
           d="m 171.95966,342.65368 c 0,0 -47.11354,-1.01867 -68.12364,-1.01867 -24.877893,0 -69.540345,1.01867 -69.540345,1.01867 -9.999999,0 -0.186675,19.81332 -10.186675,19.81332 H 13.277008 c -8.5627714,0 -8.2315694,24.62665 0,24.62665 H 190.86632 c 8.25831,0 8,-24.62665 0,-24.62665 H 180.109 c -8,0 1.72257,-18.21787 -8.14934,-19.81332 z"
           id="path2922"
           sodipodi:nodetypes="ssssssssss"
           style="fill:none;stroke:#cc0000;stroke-width:10.8781;stroke-dasharray:none;stroke-opacity:1" /><path
           d="M 403.359,320.228 250.938,164.807 287.92633,127.81867 c 4.714,-4.714 13.83974,5.03881 18.21667,10.06733 8.49973,9.76508 40.67878,-22.96122 31.82,-31.82 L 231.897,0 c -10.60633,-10.606334 -42.59583,21.385946 -31.819,31.819 6.50157,6.294179 14.78132,13.50267 10.06732,18.21667 L 101.62167,158.55932 c -4.714,4.714 -13.293746,-5.57194 -18.21667,-10.06732 -14.799106,-13.51383 -49.431699,14.20713 -31.819,31.82 l 106.065,106.066 c 12.1429,12.14301 41.84983,-20.66629 31.82,-31.82 -6.87581,-7.64628 -14.78133,-13.50267 -10.06733,-18.21667 L 215.583,200.162 368.004,355.584 c 11.66972,11.89949 47.02476,-23.45655 35.355,-35.356 z"
           id="path2920"
           sodipodi:nodetypes="scsssssssssssscss"
           style="fill:none;stroke:#cc0000;stroke-width:10.8781;stroke-linecap:round;stroke-linejoin:round;stroke-miterlimit:1;stroke-dasharray:none;stroke-opacity:1" /></g><path
         id="path30"
         style="fill:#cc0000;fill-opacity:1;stroke:none;stroke-width:0.397412;stroke-linecap:round;stroke-linejoin:round"
         d="m 261.66057,102.225 c -3.94641,0 -7.14558,3.19917 -7.14557,7.14556 -10e-6,3.9464 3.19916,7.14558 7.14557,7.14558 3.94642,0 7.1456,-3.19918 7.14559,-7.14558 0,-3.94639 -3.19917,-7.14556 -7.14559,-7.14556 z m 0.13193,2.12293 c 1.73876,-1e-5 3.14834,1.40952 3.14839,3.14828 2e-5,1.4665 -1.01249,2.73881 -2.44158,3.06804 1.62811,0.27559 2.97849,1.41285 3.52699,2.97035 h -8.57059 c 0.55588,-1.5785 1.93454,-2.72359 3.58826,-2.98033 -1.40888,-0.34484 -2.39985,-1.6076 -2.39986,-3.05806 5e-5,-1.73876 1.40962,-3.14829 3.14839,-3.14828 z"
         sodipodi:nodetypes="ssssssscccccs" /><path
         id="path31"
         style="fill:#cc0000;fill-opacity:1;stroke:none;stroke-width:0.397412;stroke-linecap:round;stroke-linejoin:round"
         d="m 199.37059,102.225 a 7.1455797,7.1455797 0 0 0 -7.14559,7.14558 7.1455797,7.1455797 0 0 0 7.14559,7.14558 7.1455797,7.1455797 0 0 0 7.14559,-7.14558 7.1455797,7.1455797 0 0 0 -7.14559,-7.14558 z m 0.0534,2.60722 c 0.0933,0 0.18655,0.028 0.26115,0.0839 l 4.02056,3.65571 c 0.18651,0.14921 0.0745,0.41024 -0.14929,0.41024 h -0.70871 v 4.10337 c 0,0.22382 -0.1492,0.37302 -0.37302,0.37302 h -1.93164 l -0.0486,-2.0437 c -0.0118,-0.49316 -0.57716,-1.02185 -1.07045,-1.02185 -0.4933,-1e-5 -1.05872,0.52869 -1.07045,1.02185 l -0.0487,2.0437 h -1.93154 c -0.22382,0 -0.37301,-0.1492 -0.37302,-0.37302 v -4.10327 l -0.7088,-1e-4 c -0.22382,0 -0.3357,-0.26103 -0.14919,-0.41024 l 1.19528,-0.97146 v -2.07773 c 0,-0.22382 0.14921,-0.37301 0.37302,-0.37301 h 0.43948 c 0.17584,0 0.37301,0.19717 0.37301,0.37301 v 0.84672 l 1.63976,-1.45324 c 0.0746,-0.056 0.16789,-0.0839 0.26114,-0.0839 z" /></g></g><style
     type="text/css"
     id="style10809">
	.puchipuchi_een{fill:#111918;}
</style><style
     type="text/css"
     id="style11287">
	.st0{fill:#000000;}
</style><style
     type="text/css"
     id="style1">
<![CDATA[
	.st0{fill:#000000;}
]]>
</style><style
     type="text/css"
     id="style1-3">
	.st0{fill:#FD6A7E;}
	.st1{fill:#17B978;}
	.st2{fill:#8797EE;}
	.st3{fill:#41A6F9;}
	.st4{fill:#37E0FF;}
	.st5{fill:#2FD9B9;}
	.st6{fill:#F498BD;}
	.st7{fill:#FFDF1D;}
	.st8{fill:#C6C9CC;}
</style></svg>
