<?xml version="1.0" encoding="UTF-8" standalone="no"?>
<!-- Created with Inkscape (http://www.inkscape.org/) -->

<svg
   width="80.531303mm"
   height="80.531303mm"
   viewBox="0 0 80.531303 80.531303"
   version="1.1"
   id="svg5"
   inkscape:version="1.4.4 (dcaf3e7d9e, 2026-05-05)"
   sodipodi:docname="Lanceur de couteaux.svg"
   xml:space="preserve"
   xmlns:inkscape="http://www.inkscape.org/namespaces/inkscape"
   xmlns:sodipodi="http://sodipodi.sourceforge.net/DTD/sodipodi-0.dtd"
   xmlns="http://www.w3.org/2000/svg"
   xmlns:svg="http://www.w3.org/2000/svg"><sodipodi:namedview
     id="namedview7"
     pagecolor="#ffffff"
     bordercolor="#000000"
     borderopacity="0.25"
     inkscape:showpageshadow="2"
     inkscape:pageopacity="0.0"
     inkscape:pagecheckerboard="true"
     inkscape:deskcolor="#d1d1d1"
     inkscape:document-units="mm"
     showgrid="false"
     inkscape:zoom="0.88851869"
     inkscape:cx="696.66514"
     inkscape:cy="-173.32218"
     inkscape:window-width="1920"
     inkscape:window-height="1014"
     inkscape:window-x="0"
     inkscape:window-y="0"
     inkscape:window-maximized="1"
     inkscape:current-layer="layer1"
     showguides="false" /><defs
     id="defs2"><inkscape:path-effect
   effect="fillet_chamfer"
   id="path-effect2"
   is_visible="true"
   lpeversion="1"
   nodesatellites_param="F,0,0,1,0,0,0,1 @ F,0,0,1,0,0,0,1 @ F,0,0,1,0,0,0,1 @ F,0,0,1,0,0,0,1 @ F,0,0,1,0,0,0,1 @ F,0,0,1,0,0,0,1 @ F,0,0,1,0,0,0,1 @ F,0,0,1,0,0,0,1 @ F,0,0,1,0,0,0,1"
   radius="0"
   unit="px"
   method="auto"
   mode="F"
   chamfer_steps="1"
   flexible="false"
   use_knot_distance="true"
   apply_no_radius="true"
   apply_with_radius="true"
   only_selected="false"
   hide_knots="false" /><inkscape:path-effect
   effect="fillet_chamfer"
   id="path-effect1"
   is_visible="true"
   lpeversion="1"
   nodesatellites_param="F,0,0,1,0,7.5338088,0,1 @ F,0,0,1,0,0,0,1 @ F,0,0,1,0,0,0,1 @ F,0,0,1,0,0,0,1 @ F,0,0,1,0,0,0,1 @ F,0,0,1,0,0,0,1 @ F,0,0,1,0,0,0,1 @ F,0,0,1,0,0,0,1 @ F,0,0,1,0,0,0,1 @ F,0,0,1,0,0,0,1 @ F,0,0,1,0,0,0,1"
   radius="0"
   unit="px"
   method="auto"
   mode="F"
   chamfer_steps="1"
   flexible="false"
   use_knot_distance="true"
   apply_no_radius="true"
   apply_with_radius="true"
   only_selected="false"
   hide_knots="false" /><inkscape:path-effect
   effect="spiro"
   id="path-effect6"
   is_visible="true"
   lpeversion="1" /><inkscape:path-effect
   effect="fillet_chamfer"
   id="path-effect3"
   is_visible="true"
   lpeversion="1"
   nodesatellites_param="F,0,0,1,0,0,0,1 @ F,0,0,1,0,0,0,1 @ F,0,0,1,0,0,0,1 @ F,0,0,1,0,0,0,1 @ F,0,0,1,0,0,0,1 @ F,0,0,1,0,0,0,1 @ F,0,0,1,0,0,0,1 @ F,0,0,1,0,0,0,1 @ F,0,0,1,0,0,0,1 @ F,0,0,1,0,0,0,1 @ F,0,0,1,0,0,0,1 @ F,0,0,1,0,0,0,1 @ F,0,0,1,0,0,0,1 @ F,0,0,1,0,0,0,1 | F,0,0,1,0,6.4303233,0,1 @ F,0,0,1,0,108.16171,0,1 @ F,0,0,1,0,0,0,1 @ F,0,0,1,0,20.169484,0,1 @ F,0,0,1,0,0,0,1 @ F,0,0,1,0,0,0,1 @ F,0,0,1,0,23.329183,0,1 @ F,0,0,1,0,0,0,1 @ F,0,0,1,0,0,0,1 @ F,0,0,1,0,0,0,1 | F,0,0,1,0,0,0,1 @ F,0,0,1,0,0,0,1 @ F,0,0,1,0,0,0,1 @ F,0,0,1,0,0,0,1 @ F,0,0,1,0,0,0,1 @ F,0,0,1,0,0,0,1 | F,0,0,1,0,0,0,1 @ F,0,0,1,0,0,0,1 @ F,0,0,1,0,0,0,1 @ F,0,0,1,0,0,0,1 @ F,0,0,1,0,0,0,1 @ F,0,0,1,0,0,0,1 @ F,0,0,1,0,0,0,1 @ F,0,0,1,0,0,0,1 @ F,0,0,1,0,0,0,1 @ F,0,0,1,0,0,0,1"
   radius="0"
   unit="px"
   method="auto"
   mode="F"
   chamfer_steps="1"
   flexible="false"
   use_knot_distance="true"
   apply_no_radius="true"
   apply_with_radius="true"
   only_selected="false"
   hide_knots="false" /><inkscape:path-effect
   effect="spiro"
   id="path-effect9346"
   is_visible="true"
   lpeversion="1" />
		
	
	
	

	

		
	
	

	

	

	

	

	
</defs><g
     inkscape:label="Calque 1"
     inkscape:groupmode="layer"
     id="layer1"
     transform="translate(-190.25,-190.25)"><g
       id="g51"><path
         id="rect949"
         style="stroke-width:0.05"
         d="m 197.69182,190.25 h 65.64766 c 4.12277,0 7.44182,3.31905 7.44182,7.44182 v 65.64766 c 0,4.12277 -3.31905,7.44182 -7.44182,7.44182 h -65.64766 c -4.12277,0 -7.44182,-3.31905 -7.44182,-7.44182 v -65.64766 c 0,-4.12277 3.31905,-7.44182 7.44182,-7.44182 z" /><g
         id="text450"
         style="font-weight:bold;font-size:7.05556px;font-family:Ubuntu;-inkscape-font-specification:'Ubuntu Bold';fill:#cc0000;stroke:#ff0000;stroke-width:0.05"
         aria-label="Lanceur de couteaux"><path
           style="font-family:Cantarell;-inkscape-font-specification:'Cantarell Bold';text-align:center;text-anchor:middle;stroke:none"
           d="m 197.89801,267.02004 h 3.01978 v -0.80433 h -2.10962 v -4.09222 h -0.91016 z m 5.84906,0 h 0.64911 v -2.06022 c 0,-0.93133 -0.52916,-1.43933 -1.54516,-1.43933 -0.48684,0 -1.016,0.11994 -1.41817,0.33161 l 0.21166,0.62794 c 0.35984,-0.14111 0.69851,-0.21166 1.01601,-0.21166 0.55033,0 0.84666,0.21166 0.84666,0.62088 v 0.0917 c -1.48166,0.0212 -2.13783,0.35983 -2.13783,1.08655 0,0.62089 0.45861,1.02306 1.18533,1.02306 0.43745,0 0.80434,-0.14111 1.06539,-0.40922 z m -0.23989,-0.88194 c -0.16933,0.15522 -0.39511,0.24694 -0.65616,0.24694 -0.34573,0 -0.57856,-0.17639 -0.57856,-0.43744 0,-0.31045 0.35278,-0.45156 1.23472,-0.46567 z m 4.09928,0.88194 h 0.89606 v -2.11666 c 0,-0.84667 -0.47978,-1.36878 -1.24883,-1.36878 -0.41628,0 -0.80434,0.14816 -1.10773,0.43039 l -0.15522,-0.37395 h -0.64911 v 3.429 h 0.90311 v -2.45533 c 0.20461,-0.16228 0.43745,-0.24695 0.6985,-0.24695 0.43745,0 0.66322,0.24695 0.66322,0.71262 z m 3.35845,0.0706 c 0.41628,0 0.80434,-0.0917 1.12889,-0.26811 l -0.19755,-0.62089 c -0.24695,0.10583 -0.508,0.16228 -0.73378,0.16228 -0.635,0 -1.00189,-0.39511 -1.00189,-1.0795 0,-0.64912 0.33161,-1.00189 0.93839,-1.00189 0.254,0 0.54328,0.0564 0.79022,0.15522 l 0.1905,-0.71261 c -0.29633,-0.13406 -0.65617,-0.20461 -1.00895,-0.20461 -1.10772,0 -1.82739,0.73377 -1.82739,1.86266 0,1.07245 0.64206,1.70745 1.72156,1.70745 z m 3.52073,0 c 0.40217,0 0.83961,-0.0847 1.21356,-0.23989 l -0.20462,-0.62089 c -0.27516,0.11289 -0.57855,0.17639 -0.86783,0.17639 -0.61383,0 -0.99483,-0.28928 -1.10067,-0.85372 h 2.2225 c 0.0212,-0.14111 0.0423,-0.35278 0.0423,-0.508 0,-0.93839 -0.5715,-1.524 -1.48872,-1.524 -1.02306,0 -1.70745,0.72672 -1.70745,1.79211 0,1.10067 0.71967,1.778 1.89089,1.778 z m -0.98072,-2.08845 c 0.0494,-0.51505 0.30339,-0.79022 0.73378,-0.79022 0.4445,0 0.70555,0.28928 0.70555,0.79022 z m 4.22628,2.07434 c 0.40217,0 0.78317,-0.15522 1.07245,-0.43039 l 0.16227,0.37394 h 0.64206 v -3.429 h -0.90311 v 2.46239 c -0.1905,0.15522 -0.40922,0.23989 -0.64206,0.23989 -0.48683,0 -0.635,-0.37394 -0.635,-0.71261 v -1.98967 h -0.89605 v 2.18723 c 0,0.79022 0.48683,1.29822 1.19944,1.29822 z m 2.89277,-0.0564 h 0.90312 v -2.22955 c 0.20461,-0.24695 0.49389,-0.38806 0.81139,-0.38806 0.14111,0 0.31044,0.0282 0.43744,0.0776 l 0.20461,-0.8255 c -0.14111,-0.0635 -0.32455,-0.0988 -0.508,-0.0988 -0.40922,0 -0.78317,0.19756 -1.04422,0.54328 l -0.0847,-0.508 h -0.71967 z"
           id="path17" /><path
           style="font-family:Cantarell;-inkscape-font-specification:'Cantarell Bold';text-align:center;text-anchor:middle;stroke:none"
           d="m 226.27547,267.0906 c 0.43039,0 0.79728,-0.16933 1.05128,-0.46567 l 0.1905,0.39511 h 0.57856 v -5.21406 h -0.87489 v 1.97556 c -0.21873,-0.17639 -0.50095,-0.26105 -0.8255,-0.26105 -0.96662,0 -1.60867,0.71966 -1.60867,1.81327 0,1.05834 0.61383,1.75684 1.48872,1.75684 z m 0.94545,-1.07245 c -0.15523,0.19756 -0.38806,0.31045 -0.66323,0.31045 -0.52916,0 -0.86077,-0.40922 -0.86077,-1.05128 0,-0.61383 0.31044,-0.99483 0.81844,-0.99483 0.28928,0 0.54328,0.11994 0.70556,0.32455 z m 3.57011,1.07245 c 0.40217,0 0.83961,-0.0847 1.21356,-0.23989 l -0.20461,-0.62089 c -0.27517,0.11289 -0.57856,0.17639 -0.86784,0.17639 -0.61383,0 -0.99483,-0.28928 -1.10067,-0.85372 h 2.22251 c 0.0212,-0.14111 0.0423,-0.35278 0.0423,-0.508 0,-0.93839 -0.5715,-1.524 -1.48872,-1.524 -1.02306,0 -1.70745,0.72672 -1.70745,1.79211 0,1.10067 0.71967,1.778 1.89089,1.778 z m -0.98072,-2.08845 c 0.0494,-0.51505 0.30339,-0.79022 0.73378,-0.79022 0.4445,0 0.70555,0.28928 0.70555,0.79022 z m 6.08189,2.08845 c 0.41628,0 0.80433,-0.0917 1.12889,-0.26811 l -0.19756,-0.62089 c -0.24694,0.10583 -0.508,0.16228 -0.73378,0.16228 -0.635,0 -1.00189,-0.39511 -1.00189,-1.0795 0,-0.64912 0.33162,-1.00189 0.93839,-1.00189 0.254,0 0.54328,0.0564 0.79023,0.15522 l 0.1905,-0.71261 c -0.29634,-0.13406 -0.65617,-0.20461 -1.00895,-0.20461 -1.10772,0 -1.82739,0.73377 -1.82739,1.86266 0,1.07245 0.64206,1.70745 1.72156,1.70745 z m 3.33728,0 c 1.0795,0 1.80622,-0.74083 1.80622,-1.8415 0,-1.05128 -0.67027,-1.72861 -1.70039,-1.72861 -1.08655,0 -1.81327,0.73377 -1.81327,1.8415 0,1.04422 0.66322,1.72861 1.70744,1.72861 z m 0.0776,-0.762 c -0.52916,0 -0.87489,-0.40922 -0.87489,-1.04422 0,-0.62089 0.3175,-1.00189 0.81845,-1.00189 0.52916,0 0.87489,0.41627 0.87489,1.05833 0,0.60678 -0.3175,0.98778 -0.81845,0.98778 z m 3.6689,0.74789 c 0.40217,0 0.78317,-0.15522 1.07245,-0.43039 l 0.16227,0.37394 h 0.64206 v -3.429 h -0.90311 v 2.46239 c -0.1905,0.15522 -0.40923,0.23989 -0.64206,0.23989 -0.48683,0 -0.635,-0.37394 -0.635,-0.71261 v -1.98967 h -0.89606 v 2.18723 c 0,0.79022 0.48684,1.29822 1.19945,1.29822 z m 4.25449,-0.007 c 0.23284,0 0.48684,-0.0494 0.70556,-0.11994 l -0.18344,-0.64206 c -0.0988,0.0423 -0.21873,0.0635 -0.32456,0.0635 -0.32456,0 -0.52917,-0.1905 -0.52917,-0.48683 v -1.57339 h 0.86078 v -0.71967 h -0.86078 v -0.99483 h -0.889 v 0.99483 h -0.47978 v 0.71967 h 0.47978 v 1.62983 c 0,0.69145 0.45861,1.12889 1.22061,1.12889 z m 3.01978,0.0212 c 0.40217,0 0.83961,-0.0847 1.21356,-0.23989 l -0.20461,-0.62089 c -0.27517,0.11289 -0.57856,0.17639 -0.86784,0.17639 -0.61383,0 -0.99483,-0.28928 -1.10066,-0.85372 h 2.2225 c 0.0212,-0.14111 0.0423,-0.35278 0.0423,-0.508 0,-0.93839 -0.5715,-1.524 -1.48872,-1.524 -1.02306,0 -1.70745,0.72672 -1.70745,1.79211 0,1.10067 0.71967,1.778 1.89089,1.778 z m -0.98072,-2.08845 c 0.0494,-0.51505 0.30339,-0.79022 0.73378,-0.79022 0.4445,0 0.70555,0.28928 0.70555,0.79022 z m 5.24228,2.01789 h 0.64911 v -2.06022 c 0,-0.93133 -0.52916,-1.43933 -1.54516,-1.43933 -0.48684,0 -1.016,0.11994 -1.41817,0.33161 l 0.21167,0.62794 c 0.35983,-0.14111 0.6985,-0.21166 1.016,-0.21166 0.55033,0 0.84666,0.21166 0.84666,0.62088 v 0.0917 c -1.48166,0.0212 -2.13783,0.35983 -2.13783,1.08655 0,0.62089 0.45861,1.02306 1.18533,1.02306 0.43745,0 0.80434,-0.14111 1.06539,-0.40922 z m -0.23989,-0.88194 c -0.16933,0.15522 -0.39511,0.24694 -0.65616,0.24694 -0.34573,0 -0.57856,-0.17639 -0.57856,-0.43744 0,-0.31045 0.35278,-0.45156 1.23472,-0.46567 z m 2.9704,0.93839 c 0.40217,0 0.78317,-0.15522 1.07244,-0.43039 l 0.16228,0.37394 h 0.64206 v -3.429 h -0.9031 v 2.46239 c -0.1905,0.15522 -0.40923,0.23989 -0.64206,0.23989 -0.48683,0 -0.635,-0.37394 -0.635,-0.71261 v -1.98967 h -0.89606 v 2.18723 c 0,0.79022 0.48684,1.29822 1.19945,1.29822 z m 2.41299,-0.0564 h 0.97367 l 0.70556,-1.04422 0.69144,1.04422 h 1.03011 l -1.23472,-1.72155 1.31233,-1.70745 h -1.00189 l -0.74083,1.08656 -0.71261,-1.08656 h -1.03717 l 1.27,1.74978 z"
           id="path18" /></g><path
         d="M 467.10521,108.77488 C 467.90522,81.901882 456.70968,61.625544 440.425,40.971868 434.72429,33.741717 414.33578,25.438651 407.82478,31.949651 L 212.33422,227.44322 c -9.107,-4.3595 -20.39553,-12.49966 -31.36821,-12.46811 -10.97268,0.0316 -22.94932,3.48347 -30.79294,11.32735 -15.36775,15.36824 -7.05348,55.59213 1.80152,74.18013 l -70.408921,70.40992 c -38.129894,38.12872 -41.874804,82.22733 -25.574738,106.28029 16.300066,24.05296 52.645109,28.06027 94.695119,-13.99361 l 79.43114,-84.551 c 22.13829,11.16568 57.92749,27.17673 76.18195,9.50295 15.683,-15.681 14.60364,-42.62036 5.88064,-60.84136 L 440.425,199.04357 c 26.9107,-29.85372 25.5944,-53.79563 26.68021,-90.26869 z m -327.92927,357.3599 c -3.09467,2.30617 -7.44405,5.50078 -12.64453,9.19473 -46.986668,33.37501 -93.54661,-7.38659 -68.733803,-59.98204 8.184357,-17.3483 14.81664,-29.82937 14.81664,-29.82937 l 46.525893,43.07872 a 1.7057593,1.7057593 137.63094 0 0 2.51153,-2.29086 l -36.964228,-48.11186 37.778788,-37.13802 41.17119,40.87684 a 1.8429285,1.8429285 139.31125 0 0 2.78617,-2.39553 l -34.16325,-46.72613 23.21882,-24.7681 67.07647,67.07647 -73.95228,82.35516 c -2.37277,2.64238 -6.5798,6.53793 -9.42741,8.65999 z m 161.59063,-83.53821 c -8.05427,11.69078 -51.74377,-1.75807 -62.10689,-11.46124 l -80.41274,-75.29188 c -11.58362,-10.84595 -16.41067,-60.22588 -2.16977,-67.22674 12.0165,-5.90734 32.97448,-9.23247 42.57369,0 l 102.11571,98.21434 c 10.01739,9.63467 11.23075,39.46407 0,55.76552 z m 7.88765,-62.84835 -41.62244,-41.62244 93.639,-93.639 c 6.511,-6.511 15.53322,-8.04478 9.02222,-14.55578 -6.51,-6.511 -7.45035,3.16568 -14.55578,9.02222 l -93.639,93.639 -41.62244,-41.62244 198.91,-198.911997 c 25.09623,12.778798 37.59397,45.226528 41.26944,70.679647 5.55566,38.47375 -15.42514,87.24506 -39.332,107.1529 z"
         id="path1"
         style="fill:#cc0000;fill-opacity:1;stroke:#cc0000;stroke-width:9.67722;stroke-linejoin:round;stroke-dasharray:none;stroke-opacity:1"
         sodipodi:nodetypes="ssccssccscccccscscccccccccsssssssccssscccssc"
         transform="matrix(0.10333545,0,0,0.10333545,203.96217,203.40528)" /><path
         id="path34"
         style="fill:#cc0000;fill-opacity:1;stroke:none;stroke-width:0.397412;stroke-linecap:round;stroke-linejoin:round"
         d="m 261.66057,192.225 c -3.94641,0 -7.14558,3.19917 -7.14557,7.14556 -10e-6,3.9464 3.19916,7.14558 7.14557,7.14558 3.94642,0 7.1456,-3.19918 7.14559,-7.14558 0,-3.94639 -3.19917,-7.14556 -7.14559,-7.14556 z m 0.13193,2.12293 c 1.73876,-1e-5 3.14834,1.40952 3.14839,3.14828 2e-5,1.4665 -1.01249,2.73881 -2.44158,3.06804 1.62811,0.27559 2.97849,1.41285 3.52699,2.97035 h -8.57059 c 0.55588,-1.5785 1.93454,-2.72359 3.58826,-2.98033 -1.40888,-0.34484 -2.39985,-1.6076 -2.39986,-3.05806 5e-5,-1.73876 1.40962,-3.14829 3.14839,-3.14828 z"
         sodipodi:nodetypes="ssssssscccccs" /><path
         id="path35"
         style="fill:#cc0000;fill-opacity:1;stroke:none;stroke-width:0.397412;stroke-linecap:round;stroke-linejoin:round"
         d="m 199.37059,192.225 a 7.1455797,7.1455797 0 0 0 -7.14559,7.14558 7.1455797,7.1455797 0 0 0 7.14559,7.14558 7.1455797,7.1455797 0 0 0 7.14559,-7.14558 7.1455797,7.1455797 0 0 0 -7.14559,-7.14558 z m 0.0534,2.60722 c 0.0933,0 0.18655,0.028 0.26115,0.0839 l 4.02056,3.65571 c 0.18651,0.14921 0.0745,0.41024 -0.14929,0.41024 h -0.70871 v 4.10337 c 0,0.22382 -0.1492,0.37302 -0.37302,0.37302 h -1.93164 l -0.0486,-2.0437 c -0.0118,-0.49316 -0.57716,-1.02185 -1.07045,-1.02185 -0.4933,-1e-5 -1.05872,0.52869 -1.07045,1.02185 l -0.0487,2.0437 h -1.93154 c -0.22382,0 -0.37301,-0.1492 -0.37302,-0.37302 v -4.10327 l -0.7088,-1e-4 c -0.22382,0 -0.3357,-0.26103 -0.14919,-0.41024 l 1.19528,-0.97146 v -2.07773 c 0,-0.22382 0.14921,-0.37301 0.37302,-0.37301 h 0.43948 c 0.17584,0 0.37301,0.19717 0.37301,0.37301 v 0.84672 l 1.63976,-1.45324 c 0.0746,-0.056 0.16789,-0.0839 0.26114,-0.0839 z" /></g></g><style
     type="text/css"
     id="style10809">
	.puchipuchi_een{fill:#111918;}
</style><style
     type="text/css"
     id="style11287">
	.st0{fill:#000000;}
</style><style
     type="text/css"
     id="style1">
<![CDATA[
	.st0{fill:#000000;}
]]>
</style><style
     type="text/css"
     id="style1-3">
	.st0{fill:#FD6A7E;}
	.st1{fill:#17B978;}
	.st2{fill:#8797EE;}
	.st3{fill:#41A6F9;}
	.st4{fill:#37E0FF;}
	.st5{fill:#2FD9B9;}
	.st6{fill:#F498BD;}
	.st7{fill:#FFDF1D;}
	.st8{fill:#C6C9CC;}
</style></svg>
