<?xml version="1.0" encoding="UTF-8" standalone="no"?>
<!-- Created with Inkscape (http://www.inkscape.org/) -->

<svg
   width="80.531303mm"
   height="80.531296mm"
   viewBox="0 0 80.531303 80.531296"
   version="1.1"
   id="svg5"
   inkscape:version="1.4.4 (dcaf3e7d9e, 2026-05-05)"
   sodipodi:docname="L'Infect père des loups.svg"
   xml:space="preserve"
   xmlns:inkscape="http://www.inkscape.org/namespaces/inkscape"
   xmlns:sodipodi="http://sodipodi.sourceforge.net/DTD/sodipodi-0.dtd"
   xmlns="http://www.w3.org/2000/svg"
   xmlns:svg="http://www.w3.org/2000/svg"
   xmlns:osb="http://www.openswatchbook.org/uri/2009/osb"><sodipodi:namedview
     id="namedview7"
     pagecolor="#ffffff"
     bordercolor="#000000"
     borderopacity="0.25"
     inkscape:showpageshadow="2"
     inkscape:pageopacity="0.0"
     inkscape:pagecheckerboard="true"
     inkscape:deskcolor="#d1d1d1"
     inkscape:document-units="mm"
     showgrid="false"
     inkscape:zoom="0.39130381"
     inkscape:cx="152.05576"
     inkscape:cy="152.05576"
     inkscape:window-width="1536"
     inkscape:window-height="827"
     inkscape:window-x="0"
     inkscape:window-y="0"
     inkscape:window-maximized="1"
     inkscape:current-layer="layer1"
     showguides="false" /><defs
     id="defs2"><rect
   x="488.54166"
   y="174.47917"
   width="138.54167"
   height="32.8125"
   id="rect49" /><inkscape:path-effect
   effect="spiro"
   id="path-effect3997"
   is_visible="true"
   lpeversion="1" /><style
   id="style3170">.cls-1{fill:none;stroke:#020202;stroke-miterlimit:10;stroke-width:1.91px;}</style><linearGradient
   osb:paint="solid"
   id="linearGradient5606"><stop
     style="stop-color:#000000;stop-opacity:1;"
     offset="0"
     id="stop5608" /></linearGradient><filter
   style="color-interpolation-filters:sRGB"
   id="filter7554"><feBlend
     mode="darken"
     in2="BackgroundImage"
     id="feBlend7556" /></filter>
	

	

	

	
	
<inkscape:path-effect
   effect="fillet_chamfer"
   id="path-effect3"
   is_visible="true"
   lpeversion="1"
   nodesatellites_param="F,0,0,1,0,0,0,1 @ F,0,0,1,0,0,0,1 @ F,0,0,1,0,0,0,1 @ F,0,0,1,0,0,0,1 @ F,0,0,1,0,0,0,1 @ F,0,0,1,0,0,0,1 @ F,0,0,1,0,0,0,1 @ F,0,0,1,0,0,0,1 @ F,0,0,1,0,0,0,1 @ F,0,0,1,0,0,0,1 @ F,0,0,1,0,0,0,1 @ F,0,0,1,0,0,0,1 @ F,0,0,1,0,0,0,1 @ F,0,0,1,0,0,0,1 | F,0,0,1,0,6.4303233,0,1 @ F,0,0,1,0,108.16171,0,1 @ F,0,0,1,0,0,0,1 @ F,0,0,1,0,20.169484,0,1 @ F,0,0,1,0,0,0,1 @ F,0,0,1,0,0,0,1 @ F,0,0,1,0,23.329183,0,1 @ F,0,0,1,0,0,0,1 @ F,0,0,1,0,0,0,1 @ F,0,0,1,0,0,0,1 | F,0,0,1,0,0,0,1 @ F,0,0,1,0,0,0,1 @ F,0,0,1,0,0,0,1 @ F,0,0,1,0,0,0,1 @ F,0,0,1,0,0,0,1 @ F,0,0,1,0,0,0,1 | F,0,0,1,0,0,0,1 @ F,0,0,1,0,0,0,1 @ F,0,0,1,0,0,0,1 @ F,0,0,1,0,0,0,1 @ F,0,0,1,0,0,0,1 @ F,0,0,1,0,0,0,1 @ F,0,0,1,0,0,0,1 @ F,0,0,1,0,0,0,1 @ F,0,0,1,0,0,0,1 @ F,0,0,1,0,0,0,1"
   radius="0"
   unit="px"
   method="auto"
   mode="F"
   chamfer_steps="1"
   flexible="false"
   use_knot_distance="true"
   apply_no_radius="true"
   apply_with_radius="true"
   only_selected="false"
   hide_knots="false" /></defs><g
     inkscape:label="Calque 1"
     inkscape:groupmode="layer"
     id="layer1"
     transform="translate(-190.25,-10.25)"><g
       id="g3"><path
         id="rect925"
         style="fill:#000000;fill-opacity:1;stroke:none;stroke-width:0.05"
         d="m 197.69182,10.25 h 65.64766 c 4.12277,0 7.44182,3.31905 7.44182,7.441816 v 65.647663 c 0,4.122767 -3.31905,7.441817 -7.44182,7.441817 h -65.64766 c -4.12277,0 -7.44182,-3.31905 -7.44182,-7.441817 V 17.691816 c 0,-4.122766 3.31905,-7.441816 7.44182,-7.441816 z" /><g
         id="text1194"
         style="font-weight:bold;font-size:7.05554px;font-family:Ubuntu;-inkscape-font-specification:'Ubuntu Bold';fill:#cc0000;fill-opacity:1;stroke:#ff0000;stroke-width:0.0499999"
         aria-label="L'infect père des loups"><path
           style="font-family:Cantarell;-inkscape-font-specification:'Cantarell Bold';text-align:center;text-anchor:middle;fill:#cc0000;fill-opacity:1;stroke:none"
           d="m 194.80801,87.182319 h 3.01977 v -0.804331 h -2.10961 v -4.092214 h -0.91016 z m 3.75355,-2.920993 h 0.74083 l 0.10584,-2.010829 h -0.9525 z m 1.81327,2.920993 h 0.90311 v -3.428992 h -0.90311 z m 0.45861,-4.063991 c 0.33161,0 0.55033,-0.211666 0.55033,-0.550332 0,-0.338666 -0.21872,-0.557388 -0.55033,-0.557388 -0.33867,0 -0.55739,0.218722 -0.55739,0.557388 0,0.338666 0.21872,0.550332 0.55739,0.550332 z m 3.72532,4.063991 h 0.89605 v -2.116662 c 0,-0.846665 -0.47977,-1.368775 -1.24883,-1.368775 -0.41627,0 -0.80433,0.148167 -1.10772,0.430388 l -0.15522,-0.373943 h -0.64911 v 3.428992 h 0.90311 v -2.455328 c 0.20461,-0.162277 0.43745,-0.246944 0.6985,-0.246944 0.43744,0 0.66322,0.246944 0.66322,0.71261 z m 2.02494,0 h 0.86783 v -2.709327 h 0.98778 v -0.719665 h -0.98778 V 83.21005 c 0,-0.366888 0.19756,-0.564443 0.5715,-0.564443 0.17639,0 0.39511,0.03528 0.52917,0.105833 l 0.17639,-0.64911 c -0.21872,-0.126999 -0.48684,-0.20461 -0.77611,-0.20461 -0.81844,0 -1.36878,0.557387 -1.36878,1.389941 v 0.465666 h -0.52916 v 0.719665 h 0.52916 z m 4.14161,0.07056 c 0.40216,0 0.83961,-0.08467 1.21355,-0.239889 l -0.20461,-0.620887 c -0.27517,0.112888 -0.57855,0.176388 -0.86783,0.176388 -0.61383,0 -0.99483,-0.289277 -1.10066,-0.85372 h 2.22249 c 0.0212,-0.141111 0.0423,-0.352777 0.0423,-0.507999 0,-0.938387 -0.5715,-1.523997 -1.48872,-1.523997 -1.02305,0 -1.70744,0.726721 -1.70744,1.792107 0,1.100665 0.71967,1.777997 1.89089,1.777997 z m -0.98072,-2.08844 c 0.0494,-0.515055 0.30339,-0.790221 0.73377,-0.790221 0.4445,0 0.70556,0.289277 0.70556,0.790221 z m 4.60021,2.08844 c 0.41628,0 0.80434,-0.09172 1.12889,-0.268111 l -0.19755,-0.620887 c -0.24695,0.105833 -0.508,0.162277 -0.73378,0.162277 -0.635,0 -1.00189,-0.39511 -1.00189,-1.079498 0,-0.649109 0.33161,-1.001886 0.93839,-1.001886 0.254,0 0.54328,0.05644 0.79022,0.155221 l 0.1905,-0.712609 c -0.29633,-0.134055 -0.65617,-0.204611 -1.00894,-0.204611 -1.10772,0 -1.82739,0.733776 -1.82739,1.862663 0,1.072442 0.64206,1.707441 1.72155,1.707441 z m 3.20322,-0.02117 c 0.23284,0 0.48684,-0.04939 0.70556,-0.119944 l -0.18345,-0.642054 c -0.0988,0.04233 -0.21872,0.0635 -0.32455,0.0635 -0.32456,0 -0.52917,-0.190499 -0.52917,-0.486832 v -1.573385 h 0.86078 v -0.719665 h -0.86078 v -0.994831 h -0.889 v 0.994831 h -0.47977 v 0.719665 h 0.47977 v 1.62983 c 0,0.691442 0.45862,1.128886 1.22061,1.128885 z m 4.54376,0.02117 c 0.92428,0 1.5875,-0.761999 1.5875,-1.841496 0,-1.023054 -0.61384,-1.728608 -1.49578,-1.728608 -0.41628,0 -0.78316,0.162278 -1.04422,0.451555 L 220.977,83.753327 h -0.60677 v 4.960044 h 0.87488 v -1.756829 c 0.21873,0.190499 0.51506,0.296333 0.84667,0.296333 z m -0.84667,-1.150053 v -1.368775 c 0.17639,-0.183444 0.41628,-0.289277 0.68439,-0.289277 0.51506,0 0.83961,0.39511 0.83961,1.037164 0,0.620888 -0.29633,1.008942 -0.79727,1.008942 -0.30339,0 -0.5715,-0.148166 -0.72673,-0.388054 z m 4.91772,1.150053 c 0.40216,0 0.83961,-0.08467 1.21355,-0.239889 l -0.20461,-0.620887 c -0.27517,0.112888 -0.57855,0.176388 -0.86783,0.176388 -0.61383,0 -0.99483,-0.289277 -1.10066,-0.85372 h 2.22249 c 0.0212,-0.141111 0.0423,-0.352777 0.0423,-0.507999 0,-0.938387 -0.5715,-1.523997 -1.48872,-1.523997 -1.02305,0 -1.70744,0.726721 -1.70744,1.792107 0,1.100665 0.71967,1.777997 1.89089,1.777997 z m -0.33867,-3.922881 0.41628,-0.338666 -0.78317,-1.18533 -0.67027,0.543276 z m -0.64205,1.834441 c 0.0494,-0.515055 0.30339,-0.790221 0.73377,-0.790221 0.4445,0 0.70556,0.289277 0.70556,0.790221 z m 3.09033,2.017884 h 0.90311 v -2.229551 c 0.20461,-0.246943 0.49389,-0.388054 0.81138,-0.388054 0.14112,0 0.31045,0.02822 0.43745,0.07761 l 0.20461,-0.825498 c -0.14111,-0.0635 -0.32456,-0.09878 -0.508,-0.09878 -0.40922,0 -0.78317,0.197555 -1.04422,0.543277 l -0.0847,-0.507999 h -0.71966 z m 4.57199,0.07056 c 0.40217,0 0.83961,-0.08467 1.21355,-0.239889 l -0.20461,-0.620887 c -0.27516,0.112888 -0.57855,0.176388 -0.86783,0.176388 -0.61383,0 -0.99483,-0.289277 -1.10066,-0.85372 h 2.22249 c 0.0212,-0.141111 0.0423,-0.352777 0.0423,-0.507999 0,-0.938387 -0.57149,-1.523997 -1.48871,-1.523997 -1.02306,0 -1.70745,0.726721 -1.70745,1.792107 0,1.100665 0.71967,1.777997 1.89089,1.777997 z m -0.98072,-2.08844 c 0.0494,-0.515055 0.30339,-0.790221 0.73378,-0.790221 0.44449,0 0.70555,0.289277 0.70555,0.790221 z"
           id="path1" /><path
           style="font-family:Cantarell;-inkscape-font-specification:'Cantarell Bold';text-align:center;text-anchor:middle;fill:#cc0000;fill-opacity:1;stroke:none"
           d="m 237.71275,87.252875 c 0.43039,0 0.79727,-0.169333 1.05127,-0.465666 l 0.1905,0.39511 h 0.57856 v -5.214044 h -0.87489 v 1.975551 c -0.21872,-0.176388 -0.50094,-0.261055 -0.8255,-0.261055 -0.96661,0 -1.60866,0.719665 -1.60866,1.813274 0,1.058331 0.61383,1.75683 1.48872,1.75683 z m 0.94544,-1.072443 c -0.15522,0.197556 -0.38805,0.310444 -0.66322,0.310444 -0.52917,0 -0.86078,-0.409221 -0.86078,-1.051275 0,-0.613832 0.31045,-0.994831 0.81845,-0.994831 0.28927,0 0.54327,0.119944 0.70555,0.324554 z m 3.5701,1.072443 c 0.40217,0 0.83961,-0.08467 1.21356,-0.239889 l -0.20461,-0.620887 c -0.27517,0.112888 -0.57856,0.176388 -0.86783,0.176388 -0.61384,0 -0.99484,-0.289277 -1.10067,-0.85372 h 2.2225 c 0.0212,-0.141111 0.0423,-0.352777 0.0423,-0.507999 0,-0.938387 -0.5715,-1.523997 -1.48872,-1.523997 -1.02305,0 -1.70744,0.726721 -1.70744,1.792107 0,1.100665 0.71967,1.777997 1.89088,1.777997 z m -0.98072,-2.08844 c 0.0494,-0.515055 0.30339,-0.790221 0.73378,-0.790221 0.4445,0 0.70555,0.289277 0.70555,0.790221 z m 4.21922,2.08844 c 0.93839,0 1.49578,-0.416277 1.49578,-1.100665 0,-1.284108 -1.94028,-0.85372 -1.94028,-1.432274 0,-0.204611 0.24695,-0.331611 0.66322,-0.331611 0.28223,0 0.62089,0.05645 0.93839,0.148167 l 0.1905,-0.677332 c -0.3175,-0.112889 -0.71966,-0.176389 -1.10772,-0.176389 -0.98072,0 -1.55222,0.395111 -1.55222,1.100665 0,1.277052 1.91205,0.79022 1.91205,1.411108 0,0.218721 -0.23283,0.352777 -0.61383,0.352777 -0.33161,0 -0.79022,-0.09172 -1.15005,-0.232833 l -0.19756,0.670276 c 0.38806,0.169333 0.889,0.268111 1.36172,0.268111 z m 4.69193,-0.02117 c 0.22578,0 0.47272,-0.04233 0.65617,-0.127 l -0.18345,-0.599721 c -0.0776,0.02822 -0.15522,0.04233 -0.21872,0.04233 -0.21166,0 -0.32455,-0.141111 -0.32455,-0.381 v -4.198046 h -0.889 v 4.310935 c 0,0.592665 0.35983,0.952498 0.95955,0.952498 z m 2.68816,0.02117 c 1.0795,0 1.80622,-0.740832 1.80622,-1.841496 0,-1.051276 -0.67027,-1.728608 -1.70038,-1.728608 -1.08656,0 -1.81328,0.733776 -1.81328,1.841496 0,1.04422 0.66322,1.728608 1.70744,1.728608 z m 0.0776,-0.761999 c -0.52916,0 -0.87488,-0.409221 -0.87488,-1.04422 0,-0.620887 0.3175,-1.001886 0.81844,-1.001886 0.52917,0 0.87489,0.416276 0.87489,1.058331 0,0.606776 -0.3175,0.987775 -0.81845,0.987775 z m 3.66889,0.747887 c 0.40217,0 0.78317,-0.155221 1.07244,-0.430387 l 0.16228,0.373943 h 0.64206 v -3.428992 h -0.90311 v 2.462383 c -0.1905,0.155222 -0.40923,0.239889 -0.64206,0.239889 -0.48683,0 -0.635,-0.373944 -0.635,-0.71261 v -1.989662 h -0.89605 v 2.187217 c 0,0.790221 0.48683,1.298219 1.19944,1.298219 z m 4.61432,0.01411 c 0.92427,0 1.58749,-0.761999 1.58749,-1.841496 0,-1.023054 -0.61383,-1.728608 -1.49577,-1.728608 -0.41628,0 -0.78317,0.162278 -1.04422,0.451555 l -0.16228,-0.380999 h -0.60677 v 4.960044 h 0.87488 V 86.95654 c 0.21872,0.190499 0.51506,0.296333 0.84667,0.296333 z m -0.84667,-1.150053 v -1.368775 c 0.17639,-0.183444 0.41628,-0.289277 0.68439,-0.289277 0.51505,0 0.83961,0.39511 0.83961,1.037164 0,0.620888 -0.29633,1.008942 -0.79728,1.008942 -0.30339,0 -0.5715,-0.148166 -0.72672,-0.388054 z m 4.36738,1.150053 c 0.93839,0 1.49578,-0.416277 1.49578,-1.100665 0,-1.284108 -1.94028,-0.85372 -1.94028,-1.432274 0,-0.204611 0.24695,-0.331611 0.66322,-0.331611 0.28223,0 0.62089,0.05645 0.93839,0.148167 l 0.1905,-0.677332 c -0.3175,-0.112889 -0.71966,-0.176389 -1.10772,-0.176389 -0.98072,0 -1.55222,0.395111 -1.55222,1.100665 0,1.277052 1.91205,0.79022 1.91205,1.411108 0,0.218721 -0.23283,0.352777 -0.61383,0.352777 -0.33161,0 -0.79022,-0.09172 -1.15005,-0.232833 l -0.19756,0.670276 c 0.38806,0.169333 0.889,0.268111 1.36172,0.268111 z"
           id="path2" /></g><path
         style="fill:none;stroke:#cc0000;stroke-width:1.90007;stroke-dasharray:none;stroke-opacity:1"
         d="m 242.47291,74.984458 c 0,-3.347938 -0.43596,-4.544051 -2.67849,-7.348879 -1.61129,-2.015298 -1.50288,-2.040904 -2.21412,0.522899 -0.65133,2.347829 -1.35538,3.8945 -2.26476,4.975247 -0.79435,0.944025 -0.86627,0.906974 -1.17907,-0.607497 -1.1178,-5.411845 -3.50901,-6.252823 -12.10778,-4.258261 -6.97978,1.619025 -9.83977,1.341247 -13.85522,-1.3457 -1.382,-0.924771 -6.03044,-5.384187 -6.03044,-5.785222 0,-0.104877 2.9074,-2.232216 6.46088,-4.727421 6.46089,-4.536729 6.46089,-4.536729 7.41428,-7.240587 1.74689,-4.954277 3.09206,-7.043373 6.06093,-9.412805 0.83245,-0.664379 0.83245,-0.664379 0.37848,-5.24478 -0.8628,-8.705452 -0.58049,-11.525411 1.06418,-10.629995 3.32947,1.812676 5.73708,4.324905 7.36264,7.682558 1.54425,3.189715 1.57157,3.176698 4.66335,-2.221663 3.65581,-6.383192 3.63996,-6.366448 5.06212,-5.348067 2.19229,1.569874 3.64813,3.839491 5.67126,8.84141 3.08539,7.628167 3.44854,7.97842 9.26265,8.933541 3.2801,0.538847 3.13916,1.12989 -0.90477,3.794036 -1.57674,1.038763 -1.57674,1.038763 -0.26296,2.534378 2.8653,3.261884 4.11371,5.374015 4.41673,7.472479 0.18101,1.253445 0.26311,1.229099 -1.3859,0.410934 -1.36005,-0.674791 -4.15767,-1.360526 -5.55058,-1.360526 -0.80167,0 -0.80167,0 0.004,1.055122 2.47194,3.237391 4.04883,8.957384 3.13154,11.359276 -0.39263,1.028065 -0.39263,1.028065 -1.26209,-0.423735 -0.79025,-1.319511 -3.69678,-4.319957 -3.94463,-4.072099 -0.0567,0.05669 -0.29675,1.188893 -0.53346,2.515992 -0.94075,5.274286 -2.27019,8.268114 -4.97438,11.20214 -1.75916,1.908666 -1.80436,1.876776 -1.80436,-1.272775 z"
         id="path2370" /><path
         id="path2372"
         style="font-variation-settings:'wdth' 83, 'wght' 488;fill:#cc0000;fill-opacity:1;stroke-width:0.0233928"
         d="m 219.26852,51.697163 c -2.34131,0.250113 9.54806,-8.21234 9.57275,-7.115537 0.0232,1.033334 0.0924,3.099415 0.0924,3.099415 -0.19914,1.16164 -0.32367,1.438651 -6.17691,3.643487 z"
         sodipodi:nodetypes="ssccs" /><path
         style="font-variation-settings:'wdth' 83, 'wght' 488;fill:none;fill-opacity:0.790615;stroke:#cc0000;stroke-width:1.6;stroke-linecap:round;stroke-dasharray:none;stroke-opacity:1"
         d="m 207.81317,66.39743 2.92139,-4.406776 4.15582,2.436755 1.20125,-3.655331 3.93868,1.815235 0.92112,-3.090121 3.2549,2.25371 1.0976,-4.136263"
         id="path2439"
         sodipodi:nodetypes="cccccccc" /><path
         id="path31"
         style="fill:#cc0000;fill-opacity:1;stroke:none;stroke-width:0.397412;stroke-linecap:round;stroke-linejoin:round"
         d="m 199.37058,12.225 a 7.1455797,7.1455797 0 0 0 -7.14558,7.145581 7.1455797,7.1455797 0 0 0 7.14558,7.145579 7.1455797,7.1455797 0 0 0 7.14558,-7.145579 7.1455797,7.1455797 0 0 0 -7.14558,-7.145581 z m 1.74294,2.179519 c 0.0553,0.0015 0.11056,0.04149 0.1878,0.0968 0.42335,0.303153 0.70452,0.741411 1.0952,1.707311 0.59581,1.473045 0.6659,1.540734 1.78864,1.725174 0.6334,0.104055 0.60617,0.218198 -0.17473,0.732661 -0.30448,0.200591 -0.30449,0.200558 -0.0508,0.489371 0.5533,0.629888 0.79439,1.037741 0.8529,1.442966 0.035,0.242049 0.0508,0.237326 -0.26764,0.07933 -0.26263,-0.130306 -0.80286,-0.262647 -1.07184,-0.262647 -0.15481,0 -0.15475,-8e-5 5.6e-4,0.203671 0.47735,0.625159 0.78177,1.729769 0.60463,2.19359 -0.0758,0.198524 -0.0758,0.198523 -0.24368,-0.08183 -0.15261,-0.254805 -0.71384,-0.83421 -0.7617,-0.786346 -0.011,0.01095 -0.0573,0.229607 -0.10299,0.485877 -0.18167,1.018497 -0.43838,1.596577 -0.96058,2.163154 -0.33971,0.368575 -0.34847,0.362413 -0.34847,-0.245784 0,-0.646506 -0.0842,-0.877489 -0.51721,-1.419115 -0.31115,-0.389167 -0.29026,-0.394099 -0.42761,0.100985 -0.12577,0.453381 -0.26167,0.752082 -0.43727,0.960782 -0.1534,0.182296 -0.16732,0.175098 -0.22772,-0.117354 -0.21586,-1.045058 -0.67762,-1.207434 -2.33809,-0.822271 -1.34784,0.312643 -1.90007,0.259012 -2.67547,-0.259854 -0.26688,-0.178579 -1.16456,-1.03971 -1.16456,-1.117153 0,-0.02025 0.56148,-0.431041 1.24768,-0.912881 1.24763,-0.876069 1.24759,-0.876129 1.43169,-1.39826 0.33734,-0.9567 0.59713,-1.360128 1.17044,-1.817679 0.16075,-0.128296 0.16071,-0.128269 0.073,-1.012771 -0.16661,-1.681074 -0.11203,-2.225596 0.20557,-2.052685 0.64294,0.350037 1.10781,0.835198 1.42171,1.48358 0.29821,0.615954 0.30347,0.613359 0.90051,-0.429096 0.50741,-0.885955 0.64852,-1.133407 0.78974,-1.129527 z" /><path
         id="path32"
         style="fill:#cc0000;fill-opacity:1;stroke:none;stroke-width:0.397412;stroke-linecap:round;stroke-linejoin:round"
         d="m 261.66058,12.225 a 7.1455797,7.1455797 0 0 0 -7.14558,7.145581 7.1455797,7.1455797 0 0 0 7.14558,7.145579 7.1455797,7.1455797 0 0 0 7.14558,-7.145579 7.1455797,7.1455797 0 0 0 -7.14558,-7.145581 z m 1.74294,2.179519 c 0.0553,0.0015 0.11056,0.04149 0.1878,0.0968 0.42335,0.303153 0.70452,0.741411 1.0952,1.707311 0.59581,1.473045 0.6659,1.540734 1.78864,1.725174 0.6334,0.104055 0.60617,0.218198 -0.17473,0.732661 -0.30448,0.200591 -0.30449,0.200558 -0.0508,0.489371 0.5533,0.629888 0.79439,1.037741 0.8529,1.442966 0.035,0.242049 0.0508,0.237326 -0.26764,0.07933 -0.26263,-0.130306 -0.80286,-0.262647 -1.07184,-0.262647 -0.15481,0 -0.15475,-8e-5 5.6e-4,0.203671 0.47735,0.625159 0.78177,1.729769 0.60463,2.19359 -0.0758,0.198524 -0.0758,0.198523 -0.24368,-0.08183 -0.15261,-0.254805 -0.71384,-0.83421 -0.7617,-0.786346 -0.011,0.01095 -0.0573,0.229607 -0.10299,0.485877 -0.18167,1.018497 -0.43838,1.596577 -0.96058,2.163154 -0.33971,0.368575 -0.34847,0.362413 -0.34847,-0.245784 0,-0.646506 -0.0842,-0.877489 -0.51721,-1.419115 -0.31115,-0.389167 -0.29026,-0.394099 -0.42761,0.100985 -0.12577,0.453381 -0.26167,0.752082 -0.43727,0.960782 -0.1534,0.182296 -0.16732,0.175098 -0.22772,-0.117354 -0.21586,-1.045058 -0.67762,-1.207434 -2.33809,-0.822271 -1.34784,0.312643 -1.90007,0.259012 -2.67547,-0.259854 -0.26688,-0.178579 -1.16456,-1.03971 -1.16456,-1.117153 0,-0.02025 0.56148,-0.431041 1.24768,-0.912881 1.24763,-0.876069 1.24759,-0.876129 1.43169,-1.39826 0.33734,-0.9567 0.59713,-1.360128 1.17044,-1.817679 0.16075,-0.128296 0.16071,-0.128269 0.073,-1.012771 -0.16661,-1.681074 -0.11203,-2.225596 0.20557,-2.052685 0.64294,0.350037 1.10781,0.835198 1.42171,1.48358 0.29821,0.615954 0.30347,0.613359 0.90051,-0.429096 0.50741,-0.885955 0.64852,-1.133407 0.78974,-1.129527 z" /></g></g><style
     type="text/css"
     id="style1397">
<![CDATA[
	.st0{fill:#000000;}
]]>
</style><style
     type="text/css"
     id="style1">
<![CDATA[
	.st0{fill:#000000;}
]]>
</style></svg>
