<?xml version="1.0" encoding="UTF-8" standalone="no"?>
<!-- Created with Inkscape (http://www.inkscape.org/) -->

<svg
   width="80.531296mm"
   height="80.531296mm"
   viewBox="0 0 80.531296 80.531296"
   version="1.1"
   id="svg5"
   inkscape:version="1.4.4 (dcaf3e7d9e, 2026-05-05)"
   sodipodi:docname="Loups-Garous.svg"
   xml:space="preserve"
   xmlns:inkscape="http://www.inkscape.org/namespaces/inkscape"
   xmlns:sodipodi="http://sodipodi.sourceforge.net/DTD/sodipodi-0.dtd"
   xmlns="http://www.w3.org/2000/svg"
   xmlns:svg="http://www.w3.org/2000/svg"
   xmlns:osb="http://www.openswatchbook.org/uri/2009/osb"><sodipodi:namedview
     id="namedview7"
     pagecolor="#ffffff"
     bordercolor="#000000"
     borderopacity="0.25"
     inkscape:showpageshadow="2"
     inkscape:pageopacity="0.0"
     inkscape:pagecheckerboard="true"
     inkscape:deskcolor="#d1d1d1"
     inkscape:document-units="mm"
     showgrid="false"
     inkscape:zoom="0.39130381"
     inkscape:cx="1110.3904"
     inkscape:cy="603.11194"
     inkscape:window-width="1920"
     inkscape:window-height="1014"
     inkscape:window-x="0"
     inkscape:window-y="0"
     inkscape:window-maximized="1"
     inkscape:current-layer="layer1"
     showguides="false" /><defs
     id="defs2"><rect
   x="488.54166"
   y="174.47917"
   width="138.54167"
   height="32.8125"
   id="rect49" /><inkscape:path-effect
   effect="spiro"
   id="path-effect3997"
   is_visible="true"
   lpeversion="1" /><style
   id="style3170">.cls-1{fill:none;stroke:#020202;stroke-miterlimit:10;stroke-width:1.91px;}</style><linearGradient
   osb:paint="solid"
   id="linearGradient5606"><stop
     style="stop-color:#000000;stop-opacity:1;"
     offset="0"
     id="stop5608" /></linearGradient><filter
   style="color-interpolation-filters:sRGB"
   id="filter7554"><feBlend
     mode="darken"
     in2="BackgroundImage"
     id="feBlend7556" /></filter>
	

	

	

	
	
<inkscape:path-effect
   effect="fillet_chamfer"
   id="path-effect3"
   is_visible="true"
   lpeversion="1"
   nodesatellites_param="F,0,0,1,0,0,0,1 @ F,0,0,1,0,0,0,1 @ F,0,0,1,0,0,0,1 @ F,0,0,1,0,0,0,1 @ F,0,0,1,0,0,0,1 @ F,0,0,1,0,0,0,1 @ F,0,0,1,0,0,0,1 @ F,0,0,1,0,0,0,1 @ F,0,0,1,0,0,0,1 @ F,0,0,1,0,0,0,1 @ F,0,0,1,0,0,0,1 @ F,0,0,1,0,0,0,1 @ F,0,0,1,0,0,0,1 @ F,0,0,1,0,0,0,1 | F,0,0,1,0,6.4303233,0,1 @ F,0,0,1,0,108.16171,0,1 @ F,0,0,1,0,0,0,1 @ F,0,0,1,0,20.169484,0,1 @ F,0,0,1,0,0,0,1 @ F,0,0,1,0,0,0,1 @ F,0,0,1,0,23.329183,0,1 @ F,0,0,1,0,0,0,1 @ F,0,0,1,0,0,0,1 @ F,0,0,1,0,0,0,1 | F,0,0,1,0,0,0,1 @ F,0,0,1,0,0,0,1 @ F,0,0,1,0,0,0,1 @ F,0,0,1,0,0,0,1 @ F,0,0,1,0,0,0,1 @ F,0,0,1,0,0,0,1 | F,0,0,1,0,0,0,1 @ F,0,0,1,0,0,0,1 @ F,0,0,1,0,0,0,1 @ F,0,0,1,0,0,0,1 @ F,0,0,1,0,0,0,1 @ F,0,0,1,0,0,0,1 @ F,0,0,1,0,0,0,1 @ F,0,0,1,0,0,0,1 @ F,0,0,1,0,0,0,1 @ F,0,0,1,0,0,0,1"
   radius="0"
   unit="px"
   method="auto"
   mode="F"
   chamfer_steps="1"
   flexible="false"
   use_knot_distance="true"
   apply_no_radius="true"
   apply_with_radius="true"
   only_selected="false"
   hide_knots="false" /></defs><g
     inkscape:label="Calque 1"
     inkscape:groupmode="layer"
     id="layer1"
     transform="translate(-10.25,-10.25)"><g
       id="g2"><path
         id="rect234"
         style="opacity:1;fill:#000000;fill-opacity:1;stroke:none;stroke-width:0.05"
         d="m 17.691816,10.25 h 65.647663 c 4.122767,0 7.441817,3.31905 7.441817,7.441816 v 65.647663 c 0,4.122767 -3.31905,7.441817 -7.441817,7.441817 H 17.691816 C 13.56905,90.781296 10.25,87.462246 10.25,83.339479 V 17.691816 C 10.25,13.56905 13.56905,10.25 17.691816,10.25 Z" /><path
         style="font-weight:bold;font-size:7.05554px;font-family:Cantarell;-inkscape-font-specification:'Cantarell Bold';fill:#cc0000;fill-opacity:1;stroke-width:0.0499999"
         d="m 32.153593,86.70253 h 3.019771 v -0.804332 h -2.109606 v -4.092213 h -0.910165 z m 5.192884,0.07055 c 1.079498,0 1.806218,-0.740831 1.806218,-1.841496 0,-1.051275 -0.670276,-1.728607 -1.700385,-1.728607 -1.086553,0 -1.813273,0.733776 -1.813273,1.841496 0,1.04422 0.66322,1.728607 1.70744,1.728607 z m 0.07761,-0.761998 c -0.529165,0 -0.874887,-0.409221 -0.874887,-1.04422 0,-0.620887 0.317499,-1.001887 0.818443,-1.001887 0.529165,0 0.874887,0.416277 0.874887,1.058331 0,0.606777 -0.3175,0.987776 -0.818443,0.987776 z m 3.668886,0.747887 c 0.402166,0 0.783165,-0.155222 1.072442,-0.430388 l 0.162278,0.373944 h 0.642054 v -3.428993 h -0.903109 v 2.462384 c -0.1905,0.155222 -0.409222,0.239888 -0.642055,0.239888 -0.486832,0 -0.634998,-0.373943 -0.634998,-0.712609 v -1.989663 h -0.896054 v 2.187218 c 0,0.79022 0.486833,1.298219 1.199442,1.298219 z m 4.614318,0.01411 c 0.924276,0 1.587496,-0.761998 1.587496,-1.841496 0,-1.023053 -0.613832,-1.728607 -1.495774,-1.728607 -0.416277,0 -0.783165,0.162277 -1.04422,0.451555 l -0.162277,-0.381 H 43.98574 v 4.960045 h 0.874887 v -1.756829 c 0.218722,0.190499 0.515055,0.296332 0.846665,0.296332 z m -0.846665,-1.150053 v -1.368775 c 0.176389,-0.183444 0.416277,-0.289277 0.684387,-0.289277 0.515055,0 0.83961,0.395111 0.83961,1.037165 0,0.620887 -0.296333,1.008942 -0.797276,1.008942 -0.303388,0 -0.571499,-0.148166 -0.726721,-0.388055 z m 3.139716,-0.366888 h 2.081384 v -0.733776 h -2.081384 z m 4.289764,3.06916 c 1.086553,0 1.813273,-0.670276 1.813273,-1.679218 v -3.372549 h -0.642054 l -0.112888,0.303389 c -0.232833,-0.246944 -0.557388,-0.373944 -0.959554,-0.373944 -0.952498,0 -1.601607,0.719665 -1.601607,1.813274 0,1.065386 0.613832,1.756829 1.488719,1.756829 0.373943,0 0.698498,-0.134055 0.945442,-0.373943 v 0.289277 c 0,0.58561 -0.33161,0.896053 -0.938387,0.896053 -0.296333,0 -0.64911,-0.07055 -0.952498,-0.197555 l -0.176388,0.670277 c 0.373943,0.176388 0.747887,0.26811 1.135942,0.26811 z m 0.931331,-4.007547 v 1.389942 c -0.155222,0.190499 -0.388055,0.303388 -0.670276,0.303388 -0.52211,0 -0.853721,-0.409221 -0.853721,-1.051275 0,-0.613832 0.310444,-0.994832 0.818443,-0.994832 0.289277,0 0.543276,0.127 0.705554,0.352777 z m 4.049878,2.384773 h 0.64911 v -2.060218 c 0,-0.931331 -0.529165,-1.43933 -1.545163,-1.43933 -0.486833,0 -1.015998,0.119944 -1.418164,0.33161 l 0.211666,0.627943 c 0.359833,-0.14111 0.698499,-0.211666 1.015998,-0.211666 0.550332,0 0.846665,0.211666 0.846665,0.620888 v 0.09172 c -1.481663,0.02117 -2.137829,0.359832 -2.137829,1.086553 0,0.620888 0.45861,1.023053 1.185331,1.023053 0.437444,0 0.804332,-0.14111 1.065387,-0.409221 z m -0.239888,-0.881943 c -0.169333,0.155222 -0.39511,0.246944 -0.656165,0.246944 -0.345722,0 -0.578555,-0.176388 -0.578555,-0.437443 0,-0.310444 0.352777,-0.451555 1.23472,-0.465666 z m 1.834441,0.881943 h 0.903109 v -2.229551 c 0.204611,-0.246944 0.493888,-0.388054 0.811387,-0.388054 0.141111,0 0.310444,0.02822 0.437444,0.07761 l 0.20461,-0.825498 c -0.14111,-0.0635 -0.324554,-0.09878 -0.507999,-0.09878 -0.409221,0 -0.783164,0.197555 -1.044219,0.543276 l -0.08467,-0.507999 h -0.719665 z m 4.388545,0.07055 c 1.079498,0 1.806219,-0.740831 1.806219,-1.841496 0,-1.051275 -0.670277,-1.728607 -1.700386,-1.728607 -1.086553,0 -1.813273,0.733776 -1.813273,1.841496 0,1.04422 0.66322,1.728607 1.70744,1.728607 z m 0.07761,-0.761998 c -0.529165,0 -0.874887,-0.409221 -0.874887,-1.04422 0,-0.620887 0.3175,-1.001887 0.818443,-1.001887 0.529165,0 0.874887,0.416277 0.874887,1.058331 0,0.606777 -0.317499,0.987776 -0.818443,0.987776 z m 3.668886,0.747887 c 0.402165,0 0.783165,-0.155222 1.072442,-0.430388 l 0.162277,0.373944 h 0.642054 v -3.428993 h -0.903109 v 2.462384 c -0.190499,0.155222 -0.409221,0.239888 -0.642054,0.239888 -0.486832,0 -0.634999,-0.373943 -0.634999,-0.712609 v -1.989663 h -0.896053 v 2.187218 c 0,0.79022 0.486832,1.298219 1.199442,1.298219 z"
         id="text1011"
         aria-label="Loup-garou" /><path
         style="fill:none;stroke:#cc0000;stroke-width:1.90007;stroke-dasharray:none;stroke-opacity:1"
         d="m 62.472908,74.984484 c 0,-3.34794 -0.435952,-4.544054 -2.678485,-7.348883 -1.611292,-2.015298 -1.502881,-2.040905 -2.214121,0.5229 -0.651326,2.34783 -1.355378,3.894501 -2.264765,4.975249 -0.79435,0.944026 -0.866261,0.906974 -1.17907,-0.607497 -1.117799,-5.411848 -3.509006,-6.252826 -12.107777,-4.258264 -6.979778,1.619026 -9.839771,1.341248 -13.855222,-1.3457 -1.381991,-0.924772 -6.030433,-5.384189 -6.030433,-5.785225 0,-0.104878 2.9074,-2.232217 6.460881,-4.727423 6.460887,-4.536732 6.460887,-4.536732 7.414273,-7.240591 1.746894,-4.954279 3.092068,-7.043376 6.060929,-9.41281 0.832452,-0.664379 0.832452,-0.664379 0.378488,-5.244782 -0.862804,-8.705457 -0.580497,-11.525416 1.064179,-10.630001 3.329462,1.812677 5.73708,4.324908 7.362635,7.682562 1.544251,3.189717 1.571574,3.1767 4.66335,-2.221664 3.655813,-6.383194 3.639966,-6.36645 5.062119,-5.348069 2.192295,1.569874 3.648136,3.839492 5.671268,8.841414 3.085386,7.628171 3.44854,7.978424 9.262649,8.933545 3.280099,0.538848 3.139152,1.129891 -0.904769,3.794039 -1.576742,1.038762 -1.576742,1.038762 -0.26297,2.534379 2.865301,3.261885 4.113711,5.374017 4.416734,7.472482 0.181007,1.253446 0.263109,1.229099 -1.385899,0.410935 -1.360052,-0.674792 -4.157666,-1.360528 -5.550576,-1.360528 -0.801672,0 -0.801672,0 0.0038,1.055123 2.471935,3.237393 4.048823,8.957388 3.131532,11.359282 -0.392624,1.028065 -0.392624,1.028065 -1.26209,-0.423735 -0.790246,-1.319512 -3.696772,-4.319959 -3.94463,-4.072101 -0.05669,0.05669 -0.296746,1.188894 -0.533457,2.515993 -0.940751,5.274289 -2.270186,8.268118 -4.97438,11.202146 -1.759155,1.908666 -1.804364,1.876776 -1.804364,-1.272776 z"
         id="path966" /><path
         id="rect1121"
         style="font-variation-settings:'wdth' 83, 'wght' 488;fill:#cc0000;fill-opacity:1;stroke-width:0.0233928"
         d="m 39.26852,51.697178 c -2.341305,0.250113 9.548065,-8.212345 9.572747,-7.115541 0.02324,1.033335 0.09239,3.099416 0.09239,3.099416 -0.199146,1.161641 -0.323677,1.438652 -6.176915,3.643489 z"
         sodipodi:nodetypes="ssccs" /><path
         id="path43"
         style="fill:#cc0000;fill-opacity:1;stroke:none;stroke-width:0.397412;stroke-linecap:round;stroke-linejoin:round"
         d="M 19.370577,12.225 A 7.1455797,7.1455797 0 0 0 12.225,19.370581 7.1455797,7.1455797 0 0 0 19.370577,26.51616 7.1455797,7.1455797 0 0 0 26.516154,19.370581 7.1455797,7.1455797 0 0 0 19.370577,12.225 Z m 1.74294,2.179519 c 0.0553,0.0015 0.11056,0.04149 0.1878,0.0968 0.423347,0.303153 0.704517,0.741411 1.095197,1.707311 0.59581,1.473045 0.6659,1.540734 1.78864,1.725174 0.6334,0.104055 0.60617,0.218198 -0.17473,0.732661 -0.30448,0.200591 -0.30449,0.200558 -0.0508,0.489371 0.5533,0.629888 0.79439,1.037741 0.8529,1.442966 0.035,0.242049 0.0508,0.237326 -0.26764,0.07933 -0.26263,-0.130306 -0.80286,-0.262647 -1.07184,-0.262647 -0.15481,0 -0.15475,-8e-5 5.6e-4,0.203671 0.47735,0.625159 0.78177,1.729769 0.60463,2.19359 -0.0758,0.198524 -0.0758,0.198523 -0.24368,-0.08183 -0.15261,-0.254805 -0.71384,-0.83421 -0.7617,-0.786346 -0.011,0.01095 -0.0573,0.229607 -0.10299,0.485877 -0.18167,1.018497 -0.43838,1.596577 -0.96058,2.163154 -0.33971,0.368575 -0.34847,0.362413 -0.34847,-0.245784 0,-0.646506 -0.0842,-0.877489 -0.517207,-1.419115 -0.31115,-0.389167 -0.29026,-0.394099 -0.42761,0.100985 -0.12577,0.453381 -0.26167,0.752082 -0.43727,0.960782 -0.1534,0.182296 -0.16732,0.175098 -0.22772,-0.117354 -0.21586,-1.045058 -0.67762,-1.207434 -2.33809,-0.822271 -1.34784,0.312643 -1.900067,0.259012 -2.675467,-0.259854 -0.26688,-0.178579 -1.16456,-1.03971 -1.16456,-1.117153 0,-0.02025 0.56148,-0.431041 1.24768,-0.912881 1.247627,-0.876069 1.247587,-0.876129 1.431687,-1.39826 0.33734,-0.9567 0.59713,-1.360128 1.17044,-1.817679 0.16075,-0.128296 0.16071,-0.128269 0.073,-1.012771 -0.16661,-1.681074 -0.11203,-2.225596 0.20557,-2.052685 0.64294,0.350037 1.10781,0.835198 1.42171,1.48358 0.29821,0.615954 0.30347,0.613359 0.90051,-0.429096 0.50741,-0.885955 0.64852,-1.133407 0.78974,-1.129527 z" /><path
         id="path44"
         style="fill:#cc0000;fill-opacity:1;stroke:none;stroke-width:0.397412;stroke-linecap:round;stroke-linejoin:round"
         d="M 81.660577,12.225 A 7.1455797,7.1455797 0 0 0 74.515,19.370581 7.1455797,7.1455797 0 0 0 81.660577,26.51616 7.1455797,7.1455797 0 0 0 88.806154,19.370581 7.1455797,7.1455797 0 0 0 81.660577,12.225 Z m 1.74294,2.179519 c 0.0553,0.0015 0.11056,0.04149 0.1878,0.0968 0.423347,0.303153 0.704517,0.741411 1.095197,1.707311 0.59581,1.473045 0.6659,1.540734 1.78864,1.725174 0.6334,0.104055 0.60617,0.218198 -0.17473,0.732661 -0.30448,0.200591 -0.30449,0.200558 -0.0508,0.489371 0.5533,0.629888 0.79439,1.037741 0.8529,1.442966 0.035,0.242049 0.0508,0.237326 -0.26764,0.07933 -0.26263,-0.130306 -0.80286,-0.262647 -1.07184,-0.262647 -0.15481,0 -0.15475,-8e-5 5.6e-4,0.203671 0.47735,0.625159 0.78177,1.729769 0.60463,2.19359 -0.0758,0.198524 -0.0758,0.198523 -0.24368,-0.08183 -0.15261,-0.254805 -0.71384,-0.83421 -0.7617,-0.786346 -0.011,0.01095 -0.0573,0.229607 -0.10299,0.485877 -0.18167,1.018497 -0.43838,1.596577 -0.96058,2.163154 -0.33971,0.368575 -0.34847,0.362413 -0.34847,-0.245784 0,-0.646506 -0.0842,-0.877489 -0.517207,-1.419115 -0.31115,-0.389167 -0.29026,-0.394099 -0.42761,0.100985 -0.12577,0.453381 -0.26167,0.752082 -0.43727,0.960782 -0.1534,0.182296 -0.16732,0.175098 -0.22772,-0.117354 -0.21586,-1.045058 -0.67762,-1.207434 -2.33809,-0.822271 -1.34784,0.312643 -1.900067,0.259012 -2.675467,-0.259854 -0.26688,-0.178579 -1.16456,-1.03971 -1.16456,-1.117153 0,-0.02025 0.56148,-0.431041 1.24768,-0.912881 1.247627,-0.876069 1.247587,-0.876129 1.431687,-1.39826 0.33734,-0.9567 0.59713,-1.360128 1.17044,-1.817679 0.16075,-0.128296 0.16071,-0.128269 0.073,-1.012771 -0.16661,-1.681074 -0.11203,-2.225596 0.20557,-2.052685 0.64294,0.350037 1.10781,0.835198 1.42171,1.48358 0.29821,0.615954 0.30347,0.613359 0.90051,-0.429096 0.50741,-0.885955 0.64852,-1.133407 0.78974,-1.129527 z" /></g></g><style
     type="text/css"
     id="style1397">
<![CDATA[
	.st0{fill:#000000;}
]]>
</style><style
     type="text/css"
     id="style1">
<![CDATA[
	.st0{fill:#000000;}
]]>
</style></svg>
