<?xml version="1.0" encoding="UTF-8" standalone="no"?>
<!-- Created with Inkscape (http://www.inkscape.org/) -->

<svg
   width="80.531303mm"
   height="80.531303mm"
   viewBox="0 0 80.531303 80.531303"
   version="1.1"
   id="svg5"
   inkscape:version="1.4.4 (dcaf3e7d9e, 2026-05-05)"
   sodipodi:docname="Loup Blanc.svg"
   xml:space="preserve"
   xmlns:inkscape="http://www.inkscape.org/namespaces/inkscape"
   xmlns:sodipodi="http://sodipodi.sourceforge.net/DTD/sodipodi-0.dtd"
   xmlns="http://www.w3.org/2000/svg"
   xmlns:svg="http://www.w3.org/2000/svg"
   xmlns:osb="http://www.openswatchbook.org/uri/2009/osb"><sodipodi:namedview
     id="namedview7"
     pagecolor="#ffffff"
     bordercolor="#000000"
     borderopacity="0.25"
     inkscape:showpageshadow="2"
     inkscape:pageopacity="0.0"
     inkscape:pagecheckerboard="true"
     inkscape:deskcolor="#d1d1d1"
     inkscape:document-units="mm"
     showgrid="false"
     inkscape:zoom="0.39130381"
     inkscape:cx="732.16767"
     inkscape:cy="293.88929"
     inkscape:window-width="1920"
     inkscape:window-height="1014"
     inkscape:window-x="0"
     inkscape:window-y="0"
     inkscape:window-maximized="1"
     inkscape:current-layer="layer1"
     showguides="false" /><defs
     id="defs2"><rect
   x="488.54166"
   y="174.47917"
   width="138.54167"
   height="32.8125"
   id="rect49" /><inkscape:path-effect
   effect="spiro"
   id="path-effect3997"
   is_visible="true"
   lpeversion="1" /><style
   id="style3170">.cls-1{fill:none;stroke:#020202;stroke-miterlimit:10;stroke-width:1.91px;}</style><linearGradient
   osb:paint="solid"
   id="linearGradient5606"><stop
     style="stop-color:#000000;stop-opacity:1;"
     offset="0"
     id="stop5608" /></linearGradient><filter
   style="color-interpolation-filters:sRGB"
   id="filter7554"><feBlend
     mode="darken"
     in2="BackgroundImage"
     id="feBlend7556" /></filter>
	

	

	

	
	
<inkscape:path-effect
   effect="fillet_chamfer"
   id="path-effect3"
   is_visible="true"
   lpeversion="1"
   nodesatellites_param="F,0,0,1,0,0,0,1 @ F,0,0,1,0,0,0,1 @ F,0,0,1,0,0,0,1 @ F,0,0,1,0,0,0,1 @ F,0,0,1,0,0,0,1 @ F,0,0,1,0,0,0,1 @ F,0,0,1,0,0,0,1 @ F,0,0,1,0,0,0,1 @ F,0,0,1,0,0,0,1 @ F,0,0,1,0,0,0,1 @ F,0,0,1,0,0,0,1 @ F,0,0,1,0,0,0,1 @ F,0,0,1,0,0,0,1 @ F,0,0,1,0,0,0,1 | F,0,0,1,0,6.4303233,0,1 @ F,0,0,1,0,108.16171,0,1 @ F,0,0,1,0,0,0,1 @ F,0,0,1,0,20.169484,0,1 @ F,0,0,1,0,0,0,1 @ F,0,0,1,0,0,0,1 @ F,0,0,1,0,23.329183,0,1 @ F,0,0,1,0,0,0,1 @ F,0,0,1,0,0,0,1 @ F,0,0,1,0,0,0,1 | F,0,0,1,0,0,0,1 @ F,0,0,1,0,0,0,1 @ F,0,0,1,0,0,0,1 @ F,0,0,1,0,0,0,1 @ F,0,0,1,0,0,0,1 @ F,0,0,1,0,0,0,1 | F,0,0,1,0,0,0,1 @ F,0,0,1,0,0,0,1 @ F,0,0,1,0,0,0,1 @ F,0,0,1,0,0,0,1 @ F,0,0,1,0,0,0,1 @ F,0,0,1,0,0,0,1 @ F,0,0,1,0,0,0,1 @ F,0,0,1,0,0,0,1 @ F,0,0,1,0,0,0,1 @ F,0,0,1,0,0,0,1"
   radius="0"
   unit="px"
   method="auto"
   mode="F"
   chamfer_steps="1"
   flexible="false"
   use_knot_distance="true"
   apply_no_radius="true"
   apply_with_radius="true"
   only_selected="false"
   hide_knots="false" /></defs><g
     inkscape:label="Calque 1"
     inkscape:groupmode="layer"
     id="layer1"
     transform="translate(-100.25,-190.25)"><g
       id="g10"><path
         id="rect947"
         style="fill:#000000;fill-opacity:1;stroke:none;stroke-width:0.05"
         d="m 107.69182,190.25 h 65.64766 c 4.12277,0 7.44182,3.31905 7.44182,7.44182 v 65.64766 c 0,4.12277 -3.31905,7.44182 -7.44182,7.44182 h -65.64766 c -4.12277,0 -7.44182,-3.31905 -7.44182,-7.44182 v -65.64766 c 0,-4.12277 3.31905,-7.44182 7.44182,-7.44182 z" /><path
         style="font-weight:bold;font-size:7.05556px;font-family:Cantarell;-inkscape-font-specification:'Cantarell Bold';fill:#cc0000;fill-opacity:1;stroke-width:0.05"
         d="m 123.42,267.02005 h 3.01978 v -0.80433 h -2.10961 v -4.09223 H 123.42 Z m 5.1929,0.0706 c 1.0795,0 1.80623,-0.74084 1.80623,-1.84151 0,-1.05127 -0.67028,-1.72861 -1.70039,-1.72861 -1.08656,0 -1.81328,0.73378 -1.81328,1.8415 0,1.04423 0.66322,1.72862 1.70744,1.72862 z m 0.0776,-0.762 c -0.52916,0 -0.87489,-0.40923 -0.87489,-1.04423 0,-0.62089 0.3175,-1.00189 0.81845,-1.00189 0.52917,0 0.87489,0.41628 0.87489,1.05834 0,0.60677 -0.3175,0.98778 -0.81845,0.98778 z m 3.6689,0.74788 c 0.40217,0 0.78317,-0.15522 1.07245,-0.43038 l 0.16227,0.37394 h 0.64206 v -3.429 h -0.90311 v 2.46239 c -0.1905,0.15522 -0.40923,0.23989 -0.64206,0.23989 -0.48683,0 -0.635,-0.37395 -0.635,-0.71261 v -1.98967 h -0.89606 v 2.18722 c 0,0.79022 0.48684,1.29822 1.19945,1.29822 z m 4.61433,0.0141 c 0.92428,0 1.5875,-0.762 1.5875,-1.84151 0,-1.02305 -0.61383,-1.72861 -1.49578,-1.72861 -0.41628,0 -0.78316,0.16228 -1.04422,0.45156 l -0.16228,-0.381 h -0.60678 v 4.96006 h 0.87489 v -1.75684 c 0.21873,0.1905 0.51506,0.29634 0.84667,0.29634 z m -0.84667,-1.15006 v -1.36878 c 0.17639,-0.18344 0.41628,-0.28928 0.68439,-0.28928 0.51506,0 0.83961,0.39511 0.83961,1.03717 0,0.62089 -0.29633,1.00895 -0.79727,1.00895 -0.30339,0 -0.5715,-0.14817 -0.72673,-0.38806 z m 6.42056,1.15006 c 0.96661,0 1.60867,-0.73378 1.60867,-1.82034 0,-1.05128 -0.60678,-1.74978 -1.50989,-1.74978 -0.36689,0 -0.68439,0.11289 -0.92428,0.32456 v -2.03906 h -0.87489 v 5.21406 h 0.57855 l 0.14817,-0.3175 c 0.23283,0.254 0.55739,0.38806 0.97367,0.38806 z m -0.8255,-2.53295 c 0.14816,-0.18344 0.381,-0.27517 0.635,-0.27517 0.55033,0 0.889,0.40217 0.889,1.05128 0,0.61383 -0.30339,0.99484 -0.81845,0.99484 -0.28927,0 -0.54328,-0.11995 -0.70555,-0.33867 z m 4.19806,2.51178 c 0.22578,0 0.47272,-0.0423 0.65616,-0.127 l -0.18344,-0.59972 c -0.0776,0.0282 -0.15522,0.0423 -0.21872,0.0423 -0.21167,0 -0.32456,-0.14111 -0.32456,-0.381 v -4.19806 h -0.889 v 4.31095 c 0,0.59267 0.35983,0.9525 0.95956,0.9525 z m 3.34433,-0.0494 h 0.64912 v -2.06022 c 0,-0.93134 -0.52917,-1.43934 -1.54517,-1.43934 -0.48684,0 -1.016,0.11995 -1.41817,0.33161 l 0.21167,0.62795 c 0.35983,-0.14111 0.6985,-0.21167 1.016,-0.21167 0.55033,0 0.84667,0.21167 0.84667,0.62089 v 0.0917 c -1.48167,0.0212 -2.13784,0.35984 -2.13784,1.08656 0,0.62089 0.45861,1.02306 1.18533,1.02306 0.43745,0 0.80434,-0.14112 1.06539,-0.40923 z m -0.23988,-0.88194 c -0.16934,0.15522 -0.39512,0.24694 -0.65617,0.24694 -0.34572,0 -0.57856,-0.17639 -0.57856,-0.43745 0,-0.31044 0.35278,-0.45155 1.23473,-0.46566 z m 4.09928,0.88194 h 0.89605 v -2.11667 c 0,-0.84667 -0.47977,-1.36878 -1.24883,-1.36878 -0.41628,0 -0.80433,0.14817 -1.10772,0.43039 l -0.15523,-0.37394 h -0.64911 v 3.429 h 0.90311 v -2.45533 c 0.20462,-0.16228 0.43745,-0.24695 0.6985,-0.24695 0.43745,0 0.66323,0.24695 0.66323,0.71261 z m 3.35844,0.0706 c 0.41628,0 0.80434,-0.0917 1.12889,-0.26812 l -0.19755,-0.62088 c -0.24695,0.10583 -0.508,0.16227 -0.73378,0.16227 -0.635,0 -1.00189,-0.39511 -1.00189,-1.0795 0,-0.64911 0.33161,-1.00189 0.93839,-1.00189 0.254,0 0.54328,0.0564 0.79022,0.15523 l 0.1905,-0.71262 c -0.29633,-0.13405 -0.65616,-0.20461 -1.00894,-0.20461 -1.10773,0 -1.82739,0.73378 -1.82739,1.86267 0,1.07245 0.64205,1.70745 1.72155,1.70745 z"
         id="text1157"
         aria-label="Loup blanc" /><path
         id="path1826"
         style="fill:#cc0000;fill-opacity:1;stroke-width:0.230924"
         d="m 149.9444,202.58124 c -0.75582,-0.0207 -1.51097,1.30416 -4.22666,6.04589 -3.19543,5.57934 -3.22365,5.5928 -4.81967,2.29616 -1.68004,-3.47021 -4.16862,-6.06674 -7.6097,-7.94017 -1.69981,-0.92544 -1.99143,1.98899 -1.0997,10.98629 0.46918,4.73394 0.46932,4.73411 -0.39105,5.42075 -3.06839,2.44887 -4.45894,4.60792 -6.26439,9.72828 -0.98534,2.7945 -0.98533,2.79437 -7.66281,7.48318 -3.6726,2.57885 -6.67742,4.77757 -6.67742,4.88596 0,0.41448 4.80427,5.02347 6.2326,5.97924 4.15006,2.77702 7.10583,3.06392 14.31961,1.39062 8.88702,-2.06143 11.35863,-1.19205 12.5139,4.40122 0.3233,1.56524 0.39746,1.6035 1.21845,0.62783 0.93987,-1.11698 1.66766,-2.7155 2.34083,-5.14203 0.73507,-2.64975 0.62307,-2.62341 2.28838,-0.54055 2.31772,2.89886 2.76805,4.13531 2.76805,7.59549 0,3.25513 0.0468,3.28783 1.86488,1.31519 2.79485,-3.03239 4.16873,-6.12649 5.14101,-11.57759 0.24464,-1.3716 0.4928,-2.54169 0.55138,-2.60027 0.25616,-0.25618 3.26007,2.84465 4.07682,4.2084 0.89861,1.50047 0.89857,1.50059 1.30436,0.43805 0.94805,-2.48241 -0.68176,-8.39403 -3.23656,-11.73996 -0.83247,-1.09049 -0.83226,-1.09057 -0.004,-1.09057 1.43961,0 4.33105,0.70877 5.7367,1.40618 1.70429,0.8456 1.6193,0.8706 1.43222,-0.42486 -0.31317,-2.16882 -1.60324,-4.35178 -4.56459,-7.72303 -1.35781,-1.54574 -1.35797,-1.54561 0.27164,-2.61921 4.17947,-2.75346 4.32503,-3.36429 0.93496,-3.92121 -6.00902,-0.98714 -6.38418,-1.34916 -9.57301,-9.23305 -2.09095,-5.16961 -3.59572,-7.51515 -5.86152,-9.13765 -0.41339,-0.29603 -0.70924,-0.51044 -1.005,-0.51858 z m -11.29987,21.69455 c 0.0909,-0.001 0.14019,0.0306 0.14175,0.10148 0.0241,1.06798 0.0954,3.20307 0.0954,3.20307 -0.20583,1.20058 -0.33435,1.4872 -6.38381,3.76596 l -3.60528,0.38495 c -2.26855,0.24234 8.38981,-7.42955 9.75197,-7.45545 z" /><path
         id="path41"
         style="fill:#cc0000;fill-opacity:1;stroke:none;stroke-width:0.397412;stroke-linecap:round;stroke-linejoin:round"
         d="m 171.66058,192.225 a 7.1455797,7.1455797 0 0 0 -7.14558,7.14558 7.1455797,7.1455797 0 0 0 7.14558,7.14559 7.1455797,7.1455797 0 0 0 7.14558,-7.14559 7.1455797,7.1455797 0 0 0 -7.14558,-7.14558 z m 1.74294,2.17952 c 0.0553,0.001 0.11056,0.0415 0.1878,0.0968 0.42335,0.30315 0.70452,0.74141 1.0952,1.70731 0.59581,1.47305 0.6659,1.54074 1.78864,1.72518 0.6334,0.10405 0.60617,0.21819 -0.17473,0.73266 -0.30448,0.20059 -0.30449,0.20056 -0.0508,0.48937 0.5533,0.62989 0.79439,1.03774 0.8529,1.44296 0.035,0.24205 0.0508,0.23733 -0.26764,0.0793 -0.26263,-0.1303 -0.80286,-0.26264 -1.07184,-0.26264 -0.15481,0 -0.15475,-8e-5 5.6e-4,0.20367 0.47735,0.62516 0.78177,1.72977 0.60463,2.19359 -0.0758,0.19853 -0.0758,0.19852 -0.24368,-0.0818 -0.15261,-0.2548 -0.71384,-0.83421 -0.7617,-0.78634 -0.011,0.0109 -0.0573,0.2296 -0.10299,0.48587 -0.18167,1.0185 -0.43838,1.59658 -0.96058,2.16316 -0.33971,0.36857 -0.34847,0.36241 -0.34847,-0.24579 0,-0.6465 -0.0842,-0.87749 -0.51721,-1.41911 -0.31115,-0.38917 -0.29026,-0.3941 -0.42761,0.10098 -0.12577,0.45338 -0.26167,0.75208 -0.43727,0.96078 -0.1534,0.1823 -0.16732,0.1751 -0.22772,-0.11735 -0.21586,-1.04506 -0.67762,-1.20743 -2.33809,-0.82227 -1.34784,0.31264 -1.90007,0.25901 -2.67547,-0.25985 -0.26688,-0.17858 -1.16456,-1.03971 -1.16456,-1.11716 0,-0.0203 0.56148,-0.43104 1.24768,-0.91288 1.24763,-0.87607 1.24759,-0.87613 1.43169,-1.39826 0.33734,-0.9567 0.59713,-1.36013 1.17044,-1.81768 0.16075,-0.1283 0.16071,-0.12827 0.073,-1.01277 -0.16661,-1.68108 -0.11203,-2.2256 0.20557,-2.05269 0.64294,0.35004 1.10781,0.8352 1.42171,1.48358 0.29821,0.61596 0.30347,0.61336 0.90051,-0.4291 0.50741,-0.88595 0.64852,-1.1334 0.78974,-1.12952 z" /><path
         id="path49"
         style="fill:#cc0000;fill-opacity:1;stroke:none;stroke-width:0.397412;stroke-linecap:round;stroke-linejoin:round"
         d="m 109.37058,192.225 c -3.9464,0 -7.14558,3.19919 -7.14558,7.14558 0,3.9464 3.19918,7.14559 7.14558,7.14559 3.94639,0 7.14557,-3.19919 7.14557,-7.14559 0,-3.94639 -3.19918,-7.14558 -7.14557,-7.14558 z m 4.05816,2.48358 c 0.44262,2.21339 -0.64405,3.21942 -1.65013,4.22552 -0.78197,0.78197 -2.208,2.20773 -2.80441,2.80441 l 0.64315,0.64325 -0.43888,0.43868 -0.81517,-0.81489 -1.89842,1.89841 c -0.13562,0.13562 -0.35554,0.13562 -0.49117,0 l -0.9468,-0.94681 c -0.13564,-0.13534 -0.13564,-0.35527 0,-0.49117 l 1.8987,-1.89811 -0.74623,-0.74653 0.43868,-0.43858 0.58567,0.58497 4.01137,-4.01167 c 0,0 1.08666,-0.28167 2.21364,-1.24748 z m -0.31833,0.76689 c -0.75642,0.52319 -1.41782,0.76521 -1.67687,0.84722 l -3.91916,3.91946 0.47071,0.47101 3.19648,-3.19598 0.14639,0.14609 -3.19648,3.19628 0.5686,0.56801 2.78565,-2.78595 0.0868,-0.0868 c 0.82508,-0.82309 1.61022,-1.60622 1.53787,-3.07933 z" /></g></g><style
     type="text/css"
     id="style1397">
<![CDATA[
	.st0{fill:#000000;}
]]>
</style><style
     type="text/css"
     id="style1">
<![CDATA[
	.st0{fill:#000000;}
]]>
</style></svg>
