<?xml version="1.0" encoding="UTF-8" standalone="no"?>
<!-- Created with Inkscape (http://www.inkscape.org/) -->

<svg
   width="80.581299mm"
   height="80.581299mm"
   viewBox="0 0 80.581299 80.581299"
   version="1.1"
   id="svg5"
   inkscape:version="1.4.4 (dcaf3e7d9e, 2026-05-05)"
   sodipodi:docname="Maire.svg"
   xml:space="preserve"
   xmlns:inkscape="http://www.inkscape.org/namespaces/inkscape"
   xmlns:sodipodi="http://sodipodi.sourceforge.net/DTD/sodipodi-0.dtd"
   xmlns="http://www.w3.org/2000/svg"
   xmlns:svg="http://www.w3.org/2000/svg"
   xmlns:osb="http://www.openswatchbook.org/uri/2009/osb"><sodipodi:namedview
     id="namedview7"
     pagecolor="#ffffff"
     bordercolor="#000000"
     borderopacity="0.25"
     inkscape:showpageshadow="2"
     inkscape:pageopacity="0.0"
     inkscape:pagecheckerboard="true"
     inkscape:deskcolor="#d1d1d1"
     inkscape:document-units="mm"
     showgrid="false"
     inkscape:zoom="0.37155449"
     inkscape:cx="729.36812"
     inkscape:cy="-341.8072"
     inkscape:window-width="1536"
     inkscape:window-height="798"
     inkscape:window-x="0"
     inkscape:window-y="0"
     inkscape:window-maximized="1"
     inkscape:current-layer="layer1"
     showguides="false" /><defs
     id="defs2"><rect
   x="448.54202"
   y="529.85144"
   width="38.197552"
   height="38.197552"
   id="rect11" /><rect
   x="537.06824"
   y="536.41333"
   width="327.48065"
   height="42.572483"
   id="rect19" /><rect
   x="399.63498"
   y="321.08899"
   width="176.94421"
   height="71.209251"
   id="rect7" /><rect
   x="174.4071"
   y="-141.92599"
   width="126.68596"
   height="81.17588"
   id="rect1725" /><rect
   x="194.46935"
   y="-66.436157"
   width="96.962852"
   height="99.154907"
   id="rect1515" /><rect
   x="336.52414"
   y="-64.164574"
   width="56.072357"
   height="65.948097"
   id="rect1509" /><rect
   x="338.37405"
   y="-146.20657"
   width="57.826"
   height="70.616623"
   id="rect1500" /><rect
   x="140.28249"
   y="-106.91901"
   width="162.33759"
   height="103.51467"
   id="rect1332" /><inkscape:path-effect
   effect="spiro"
   id="path-effect3997"
   is_visible="true"
   lpeversion="1" /><style
   id="style3170">.cls-1{fill:none;stroke:#020202;stroke-miterlimit:10;stroke-width:1.91px;}</style><linearGradient
   osb:paint="solid"
   id="linearGradient5606"><stop
     style="stop-color:#000000;stop-opacity:1;"
     offset="0"
     id="stop5608" /></linearGradient><filter
   style="color-interpolation-filters:sRGB"
   id="filter7554"><feBlend
     mode="darken"
     in2="BackgroundImage"
     id="feBlend7556" /></filter>
	

	

	

	
	
<rect
   x="174.4071"
   y="-141.92599"
   width="126.68596"
   height="81.17588"
   id="rect1735" /><rect
   x="399.63498"
   y="321.08899"
   width="176.94421"
   height="71.209251"
   id="rect8" /><rect
   x="399.63498"
   y="321.08899"
   width="176.94421"
   height="71.209251"
   id="rect9" /><rect
   x="399.63498"
   y="321.08899"
   width="165.41594"
   height="55.646091"
   id="rect16" /><rect
   x="399.63498"
   y="321.08899"
   width="176.94421"
   height="71.209251"
   id="rect17" /><rect
   x="399.63498"
   y="321.08899"
   width="176.94421"
   height="71.209251"
   id="rect18" /><rect
   x="399.63498"
   y="321.08899"
   width="176.94421"
   height="71.209251"
   id="rect10" /><rect
   x="399.63498"
   y="321.08899"
   width="176.94421"
   height="71.209251"
   id="rect12" /><rect
   x="399.63498"
   y="321.08899"
   width="176.94421"
   height="71.209251"
   id="rect13" /><rect
   x="399.63498"
   y="321.08899"
   width="176.94421"
   height="71.209251"
   id="rect55" /><rect
   x="399.63498"
   y="321.08899"
   width="176.94421"
   height="71.209251"
   id="rect56" /><rect
   x="399.63498"
   y="321.08899"
   width="176.94421"
   height="71.209251"
   id="rect57" /><rect
   x="399.63498"
   y="321.08899"
   width="165.41594"
   height="55.646091"
   id="rect58" /><rect
   x="399.63498"
   y="321.08899"
   width="176.94421"
   height="71.209251"
   id="rect59" /><rect
   x="537.06824"
   y="536.41333"
   width="327.48065"
   height="42.572483"
   id="rect60" /><rect
   x="399.63498"
   y="321.08899"
   width="176.94421"
   height="71.209251"
   id="rect61" /><rect
   x="399.63498"
   y="321.08899"
   width="176.94421"
   height="71.209251"
   id="rect62" /><rect
   x="399.63498"
   y="321.08899"
   width="176.94421"
   height="71.209251"
   id="rect63" /></defs><g
     inkscape:label="Calque 1"
     inkscape:groupmode="layer"
     id="layer1"
     transform="translate(-10.225,-190.225)"><g
       id="g2"><path
         id="rect925"
         style="fill:#cc0000;stroke:#cc0000;stroke-width:0.05"
         d="m 17.691816,190.25 h 65.647663 c 4.122767,0 7.441817,3.31905 7.441817,7.44182 v 65.64766 c 0,4.12277 -3.31905,7.44182 -7.441817,7.44182 H 17.691816 c -4.122766,0 -7.441816,-3.31905 -7.441816,-7.44182 v -65.64766 c 0,-4.12277 3.31905,-7.44182 7.441816,-7.44182 z" /><path
         style="font-weight:bold;font-size:7.05556px;font-family:Cantarell;-inkscape-font-specification:'Cantarell Bold';fill-opacity:0.790615;stroke-width:0.0506842"
         d="m 41.672006,266.97772 h 0.881945 v -3.28789 l 1.291168,2.53295 h 0.6985 l 1.312334,-2.62467 v 3.37961 h 0.881945 v -4.89656 h -0.881945 l -1.615723,3.17501 -1.672168,-3.17501 h -0.896056 z m 8.297333,0 h 0.649112 v -2.06022 c 0,-0.93134 -0.529167,-1.43934 -1.545168,-1.43934 -0.486834,0 -1.016001,0.11995 -1.418168,0.33162 l 0.211667,0.62794 c 0.359834,-0.14111 0.698501,-0.21167 1.016001,-0.21167 0.550334,0 0.846667,0.21167 0.846667,0.62089 v 0.0917 c -1.481668,0.0212 -2.137835,0.35983 -2.137835,1.08655 0,0.62089 0.458612,1.02306 1.185334,1.02306 0.437445,0 0.804334,-0.14111 1.06539,-0.40922 z m -0.239889,-0.88194 c -0.169333,0.15522 -0.395111,0.24694 -0.656167,0.24694 -0.345722,0 -0.578556,-0.17639 -0.578556,-0.43744 0,-0.31045 0.352778,-0.45156 1.234723,-0.46567 z m 1.834447,0.88194 h 0.903112 v -3.429 h -0.903112 z m 0.458611,-4.064 c 0.331612,0 0.550334,-0.21167 0.550334,-0.55033 0,-0.33867 -0.218722,-0.55739 -0.550334,-0.55739 -0.338666,0 -0.557389,0.21872 -0.557389,0.55739 0,0.33866 0.218723,0.55033 0.557389,0.55033 z m 1.460497,4.064 h 0.903111 v -2.22955 c 0.204611,-0.24695 0.493889,-0.38806 0.81139,-0.38806 0.141111,0 0.310444,0.0282 0.437444,0.0776 l 0.204612,-0.8255 c -0.141112,-0.0635 -0.324556,-0.0988 -0.508001,-0.0988 -0.409222,0 -0.783167,0.19756 -1.044223,0.54328 l -0.08467,-0.508 h -0.719667 z m 4.572001,0.0706 c 0.402167,0 0.839612,-0.0847 1.213557,-0.23989 l -0.204612,-0.62089 c -0.275167,0.11289 -0.578556,0.17639 -0.867834,0.17639 -0.613833,0 -0.994834,-0.28928 -1.100667,-0.85372 h 2.222501 c 0.02117,-0.14112 0.04233,-0.35278 0.04233,-0.508 0,-0.93839 -0.571501,-1.52401 -1.488723,-1.52401 -1.023057,0 -1.707446,0.72673 -1.707446,1.79212 0,1.10066 0.719667,1.778 1.89089,1.778 z m -0.980723,-2.08845 c 0.04939,-0.51505 0.303389,-0.79022 0.733779,-0.79022 0.4445,0 0.705556,0.28928 0.705556,0.79022 z"
         id="text1951"
         aria-label="Maire" /><g
         id="g3175"
         transform="matrix(0.55799134,0,0,0.55799132,-115.37558,144.28806)"><g
           style="fill:none;fill-opacity:1;stroke:#000000;stroke-width:0.774441;stroke-dasharray:none;stroke-opacity:1"
           id="g1224"
           transform="matrix(2.5825067,0,0,2.5825067,199.81002,15.164928)"><path
             style="fill:#000000;fill-opacity:1;stroke:#000000;stroke-width:5.26614;stroke-linecap:round;stroke-linejoin:round;stroke-dasharray:none;stroke-opacity:1"
             d="m 1057.8373,544.42928 c -18.4186,-14.25912 -22.8808,-18.49146 -25.8277,-24.49708 l -1.9875,-4.05031 -0.1884,-63.96618 c -0.1235,-41.94116 0.057,-64.87598 0.5232,-66.6085 0.9272,-3.44338 5.827,-8.96588 9.3916,-10.58505 2.4671,-1.12067 4.8084,-1.27995 19.0111,-1.29336 l 16.1975,-0.0153 -0.1166,185.75817 c -0.1241,0 -7.8355,-7.64501 -17.0032,-14.74238 z"
             id="path2697"
             transform="matrix(0.10245214,0,0,0.10245214,-77.370572,-5.8721737)"
             sodipodi:nodetypes="sscscssccss" /><path
             id="path2104"
             style="fill:#030608;fill-opacity:0;stroke-width:0.870962"
             d="m 29.877807,31.885641 a 2.2492658,2.2492658 0 0 0 -2.249144,2.249345 v 12.370896 c 0,0 -6e-5,1.124512 1.124572,2.249144 l 5.833569,4.536909 a 1.6869493,1.6869493 0 0 0 -1.33508,1.648639 c 0,0.205808 0.04278,0.401582 0.110256,0.584898 a 8.9891908,8.9891908 0 0 0 -4.608745,7.849795 8.9970786,8.9970786 0 1 0 17.994157,0 c 0,-3.373895 -1.860145,-6.310175 -4.608745,-7.849795 a 1.6869493,1.6869493 0 0 0 0.110256,-0.584898 1.6869493,1.6869493 0 0 0 -1.335079,-1.648639 l 5.833568,-4.536909 c 1.124632,-1.124632 1.124573,-2.249144 1.124573,-2.249144 V 34.134986 A 2.2492658,2.2492658 0 0 0 45.62282,31.885641 Z" /><path
             style="fill:#000000;fill-opacity:1;stroke:#000000;stroke-width:0.539527;stroke-linecap:round;stroke-linejoin:round;stroke-dasharray:none;stroke-opacity:1"
             d="m 44.436385,49.905771 c 1.887025,-1.460877 2.344187,-1.89449 2.646103,-2.509778 l 0.203624,-0.414963 0.0193,-6.553472 c 0.01265,-4.296962 -0.0058,-6.646683 -0.0536,-6.824183 -0.09499,-0.352782 -0.596989,-0.918574 -0.96219,-1.084462 -0.252759,-0.114815 -0.492631,-0.131133 -1.947728,-0.132507 l -1.659468,-0.0016 0.01195,19.031323 c 0.01271,0 0.802764,-0.783248 1.742014,-1.510389 z"
             id="path2699"
             sodipodi:nodetypes="sscscssccss" /><path
             style="fill:#000000;fill-opacity:1;stroke:#000000;stroke-width:0.774441;stroke-linecap:round;stroke-linejoin:round;stroke-dasharray:none;stroke-opacity:1"
             d="m 34.472106,53.295143 c 0,0 2.134472,-0.193608 3.204979,-0.193607 1.070508,0 3.20498,0.193607 3.20498,0.193607"
             id="path2765"
             sodipodi:nodetypes="csc" /><path
             class="st7"
             d="m 32.942049,62.54413 1.369279,-1.112881 4e-6,-2.380095 c 0,-0.256399 0.170933,-0.427332 0.427328,-0.427332 h 0.503481 c 0.201445,2e-6 0.427334,0.225883 0.427332,0.427327 l 2e-6,0.969905 1.878432,-1.664769 c 0.170932,-0.128202 0.427332,-0.128201 0.598266,-3e-6 l 4.605856,4.187848 c 0.213667,0.170933 0.08546,0.47006 -0.170928,0.47006 H 41.76917 v 4.700651 c 0,0.256402 -0.170933,0.42733 -0.427332,0.427334 l -2.212806,-4e-6 -0.0557,-2.341221 c -0.01345,-0.564948 -0.661191,-1.170605 -1.226299,-1.170608 -0.565108,0 -1.21286,0.60566 -1.226299,1.170608 l -0.05569,2.341221 h -2.212806 c -0.2564,0 -0.427329,-0.170934 -0.427332,-0.427336 l 3e-6,-4.700641 -0.811931,-4e-6 c -0.2564,-2e-6 -0.384595,-0.299127 -0.170933,-0.47006 z"
             id="path4"
             style="fill:#000000;fill-opacity:1;stroke:#000000;stroke-width:0.474203;stroke-linecap:round;stroke-dasharray:none"
             sodipodi:nodetypes="ccssssccccsccccssscsccsc" /></g></g></g></g><style
     type="text/css"
     id="style1397">
<![CDATA[
	.st0{fill:#000000;}
]]>
</style></svg>
