<?xml version="1.0" encoding="UTF-8" standalone="no"?>
<!-- Created with Inkscape (http://www.inkscape.org/) -->

<svg
   width="80.531303mm"
   height="80.531303mm"
   viewBox="0 0 80.531303 80.531303"
   version="1.1"
   id="svg5"
   inkscape:version="1.4.4 (dcaf3e7d9e, 2026-05-05)"
   sodipodi:docname="Montreur d'Ours.svg"
   xml:space="preserve"
   xmlns:inkscape="http://www.inkscape.org/namespaces/inkscape"
   xmlns:sodipodi="http://sodipodi.sourceforge.net/DTD/sodipodi-0.dtd"
   xmlns="http://www.w3.org/2000/svg"
   xmlns:svg="http://www.w3.org/2000/svg"
   xmlns:osb="http://www.openswatchbook.org/uri/2009/osb"><sodipodi:namedview
     id="namedview7"
     pagecolor="#ffffff"
     bordercolor="#000000"
     borderopacity="0.25"
     inkscape:showpageshadow="2"
     inkscape:pageopacity="0.0"
     inkscape:pagecheckerboard="true"
     inkscape:deskcolor="#d1d1d1"
     inkscape:document-units="mm"
     showgrid="false"
     inkscape:zoom="0.78260762"
     inkscape:cx="544.33408"
     inkscape:cy="481.72288"
     inkscape:window-width="1920"
     inkscape:window-height="1014"
     inkscape:window-x="0"
     inkscape:window-y="0"
     inkscape:window-maximized="1"
     inkscape:current-layer="layer1"
     showguides="false" /><defs
     id="defs2"><rect
   x="488.54166"
   y="174.47917"
   width="138.54167"
   height="32.8125"
   id="rect49" /><inkscape:path-effect
   effect="spiro"
   id="path-effect3997"
   is_visible="true"
   lpeversion="1" /><style
   id="style3170">.cls-1{fill:none;stroke:#020202;stroke-miterlimit:10;stroke-width:1.91px;}</style><linearGradient
   osb:paint="solid"
   id="linearGradient5606"><stop
     style="stop-color:#000000;stop-opacity:1;"
     offset="0"
     id="stop5608" /></linearGradient><filter
   style="color-interpolation-filters:sRGB"
   id="filter7554"><feBlend
     mode="darken"
     in2="BackgroundImage"
     id="feBlend7556" /></filter>
	

	

	

	
	
<inkscape:path-effect
   effect="fillet_chamfer"
   id="path-effect3"
   is_visible="true"
   lpeversion="1"
   nodesatellites_param="F,0,0,1,0,0,0,1 @ F,0,0,1,0,0,0,1 @ F,0,0,1,0,0,0,1 @ F,0,0,1,0,0,0,1 @ F,0,0,1,0,0,0,1 @ F,0,0,1,0,0,0,1 @ F,0,0,1,0,0,0,1 @ F,0,0,1,0,0,0,1 @ F,0,0,1,0,0,0,1 @ F,0,0,1,0,0,0,1 @ F,0,0,1,0,0,0,1 @ F,0,0,1,0,0,0,1 @ F,0,0,1,0,0,0,1 @ F,0,0,1,0,0,0,1 | F,0,0,1,0,6.4303233,0,1 @ F,0,0,1,0,108.16171,0,1 @ F,0,0,1,0,0,0,1 @ F,0,0,1,0,20.169484,0,1 @ F,0,0,1,0,0,0,1 @ F,0,0,1,0,0,0,1 @ F,0,0,1,0,23.329183,0,1 @ F,0,0,1,0,0,0,1 @ F,0,0,1,0,0,0,1 @ F,0,0,1,0,0,0,1 | F,0,0,1,0,0,0,1 @ F,0,0,1,0,0,0,1 @ F,0,0,1,0,0,0,1 @ F,0,0,1,0,0,0,1 @ F,0,0,1,0,0,0,1 @ F,0,0,1,0,0,0,1 | F,0,0,1,0,0,0,1 @ F,0,0,1,0,0,0,1 @ F,0,0,1,0,0,0,1 @ F,0,0,1,0,0,0,1 @ F,0,0,1,0,0,0,1 @ F,0,0,1,0,0,0,1 @ F,0,0,1,0,0,0,1 @ F,0,0,1,0,0,0,1 @ F,0,0,1,0,0,0,1 @ F,0,0,1,0,0,0,1"
   radius="0"
   unit="px"
   method="auto"
   mode="F"
   chamfer_steps="1"
   flexible="false"
   use_knot_distance="true"
   apply_no_radius="true"
   apply_with_radius="true"
   only_selected="false"
   hide_knots="false" /></defs><g
     inkscape:label="Calque 1"
     inkscape:groupmode="layer"
     id="layer1"
     transform="translate(-460.25,-190.25)"><g
       id="g9"><path
         id="rect955"
         style="fill:#000000;fill-opacity:1;stroke:none;stroke-width:0.05"
         d="m 467.69182,190.25 h 65.64766 c 4.12277,0 7.44182,3.31905 7.44182,7.44182 v 65.64766 c 0,4.12277 -3.31905,7.44182 -7.44182,7.44182 h -65.64766 c -4.12277,0 -7.44182,-3.31905 -7.44182,-7.44182 v -65.64766 c 0,-4.12277 3.31905,-7.44182 7.44182,-7.44182 z" /><path
         style="font-weight:bold;font-size:7.05556px;font-family:Cantarell;-inkscape-font-specification:'Cantarell Bold';fill:#cc0000;fill-opacity:1;stroke-width:0.05"
         d="m 474.62152,267.02005 h 0.88194 v -3.28789 l 1.29117,2.53295 h 0.6985 l 1.31234,-2.62467 v 3.37961 h 0.88194 v -4.89656 h -0.88194 l -1.61573,3.175 -1.67217,-3.175 h -0.89605 z m 7.64116,0.0706 c 1.07951,0 1.80623,-0.74084 1.80623,-1.84151 0,-1.05127 -0.67028,-1.72861 -1.70039,-1.72861 -1.08656,0 -1.81328,0.73378 -1.81328,1.8415 0,1.04423 0.66322,1.72862 1.70744,1.72862 z m 0.0776,-0.762 c -0.52917,0 -0.87489,-0.40923 -0.87489,-1.04423 0,-0.62089 0.3175,-1.00189 0.81844,-1.00189 0.52917,0 0.87489,0.41628 0.87489,1.05834 0,0.60677 -0.3175,0.98778 -0.81844,0.98778 z m 4.79778,0.69144 h 0.89606 v -2.11667 c 0,-0.84667 -0.47978,-1.36878 -1.24884,-1.36878 -0.41627,0 -0.80433,0.14817 -1.10772,0.43039 l -0.15522,-0.37394 h -0.64911 v 3.429 h 0.90311 v -2.45533 c 0.20461,-0.16228 0.43744,-0.24695 0.6985,-0.24695 0.43744,0 0.66322,0.24695 0.66322,0.71261 z m 3.21028,0.0494 c 0.23284,0 0.48684,-0.0494 0.70556,-0.11995 l -0.18345,-0.64205 c -0.0988,0.0423 -0.21872,0.0635 -0.32455,0.0635 -0.32456,0 -0.52917,-0.1905 -0.52917,-0.48684 v -1.57339 h 0.86078 v -0.71966 h -0.86078 v -0.99484 h -0.889 v 0.99484 h -0.47978 v 0.71966 h 0.47978 v 1.62984 c 0,0.69144 0.45861,1.12889 1.22061,1.12889 z m 1.34056,-0.0494 h 0.90311 v -2.22956 c 0.20461,-0.24694 0.49389,-0.38805 0.81139,-0.38805 0.14111,0 0.31044,0.0282 0.43744,0.0776 l 0.20461,-0.8255 c -0.14111,-0.0635 -0.32455,-0.0988 -0.508,-0.0988 -0.40922,0 -0.78316,0.19756 -1.04422,0.54328 l -0.0847,-0.508 h -0.71966 z m 4.572,0.0706 c 0.40216,0 0.83961,-0.0847 1.21355,-0.23989 l -0.20461,-0.62089 c -0.27516,0.11289 -0.57855,0.17639 -0.86783,0.17639 -0.61383,0 -0.99483,-0.28928 -1.10067,-0.85373 h 2.2225 c 0.0212,-0.14111 0.0423,-0.35277 0.0423,-0.508 0,-0.93839 -0.5715,-1.524 -1.48873,-1.524 -1.02305,0 -1.70744,0.72672 -1.70744,1.79211 0,1.10067 0.71966,1.77801 1.89089,1.77801 z m -0.98072,-2.08845 c 0.0494,-0.51506 0.30338,-0.79022 0.73377,-0.79022 0.4445,0 0.70556,0.28928 0.70556,0.79022 z m 4.22628,2.07433 c 0.40217,0 0.78317,-0.15522 1.07244,-0.43038 l 0.16228,0.37394 h 0.64206 v -3.429 h -0.90311 v 2.46239 c -0.1905,0.15522 -0.40923,0.23989 -0.64206,0.23989 -0.48683,0 -0.635,-0.37395 -0.635,-0.71261 v -1.98967 h -0.89606 v 2.18722 c 0,0.79022 0.48684,1.29822 1.19945,1.29822 z m 2.89277,-0.0564 h 0.90311 v -2.22956 c 0.20462,-0.24694 0.49389,-0.38805 0.81139,-0.38805 0.14112,0 0.31045,0.0282 0.43745,0.0776 l 0.20461,-0.8255 c -0.14111,-0.0635 -0.32456,-0.0988 -0.508,-0.0988 -0.40922,0 -0.78317,0.19756 -1.04422,0.54328 l -0.0847,-0.508 h -0.71967 z m 5.6515,0.0706 c 0.43039,0 0.79728,-0.16934 1.05128,-0.46567 l 0.1905,0.39511 h 0.57855 v -5.21406 h -0.87488 v 1.97556 c -0.21873,-0.17639 -0.50095,-0.26106 -0.82551,-0.26106 -0.96661,0 -1.60866,0.71967 -1.60866,1.81328 0,1.05834 0.61383,1.75684 1.48872,1.75684 z m 0.94545,-1.07245 c -0.15523,0.19756 -0.38806,0.31045 -0.66323,0.31045 -0.52916,0 -0.86078,-0.40923 -0.86078,-1.05128 0,-0.61384 0.31045,-0.99484 0.81845,-0.99484 0.28928,0 0.54328,0.11995 0.70556,0.32456 z m 1.94733,-1.91911 h 0.74083 l 0.10584,-2.01084 h -0.9525 z m 3.30906,2.99156 c 1.0795,0 1.80622,-0.74084 1.80622,-1.84151 0,-1.05127 -0.67028,-1.72861 -1.70039,-1.72861 -1.08656,0 -1.81328,0.73378 -1.81328,1.8415 0,1.04423 0.66322,1.72862 1.70745,1.72862 z m 0.0776,-0.762 c -0.52917,0 -0.87489,-0.40923 -0.87489,-1.04423 0,-0.62089 0.3175,-1.00189 0.81844,-1.00189 0.52917,0 0.87489,0.41628 0.87489,1.05834 0,0.60677 -0.3175,0.98778 -0.81844,0.98778 z m 3.66889,0.74788 c 0.40217,0 0.78317,-0.15522 1.07245,-0.43038 l 0.16227,0.37394 h 0.64206 v -3.429 h -0.90311 v 2.46239 c -0.1905,0.15522 -0.40923,0.23989 -0.64206,0.23989 -0.48683,0 -0.635,-0.37395 -0.635,-0.71261 v -1.98967 h -0.89606 v 2.18722 c 0,0.79022 0.48684,1.29822 1.19945,1.29822 z m 2.89278,-0.0564 h 0.90311 v -2.22956 c 0.20461,-0.24694 0.49389,-0.38805 0.81139,-0.38805 0.14111,0 0.31044,0.0282 0.43744,0.0776 l 0.20461,-0.8255 c -0.14111,-0.0635 -0.32455,-0.0988 -0.508,-0.0988 -0.40922,0 -0.78316,0.19756 -1.04422,0.54328 l -0.0847,-0.508 h -0.71966 z m 4.02166,0.0706 c 0.93839,0 1.49578,-0.41628 1.49578,-1.10067 0,-1.28411 -1.94028,-0.85372 -1.94028,-1.43228 0,-0.20461 0.24695,-0.33161 0.66322,-0.33161 0.28223,0 0.62089,0.0564 0.93839,0.14817 l 0.1905,-0.67734 c -0.3175,-0.11289 -0.71966,-0.17639 -1.10772,-0.17639 -0.98072,0 -1.55222,0.39511 -1.55222,1.10067 0,1.27706 1.91205,0.79022 1.91205,1.41111 0,0.21872 -0.23283,0.35278 -0.61383,0.35278 -0.33161,0 -0.79022,-0.0917 -1.15006,-0.23283 l -0.19755,0.67027 c 0.38805,0.16934 0.889,0.26812 1.36172,0.26812 z"
         id="text1277"
         aria-label="Montreur d'ours" /><path
         style="color:#bebebe;fill:#cc0000;fill-opacity:1;stroke:none;stroke-width:1.086;stroke-dasharray:none;stroke-opacity:1"
         d="m 513.948,247.43675 c 0,1.31582 -0.16589,5.92304 -4.77123,5.92304 -2.46762,0 -3.61942,-4.11332 -9.04479,-4.11332 -3.61754,0 -2.96152,1.47793 -9.7027,1.47793 -6.74495,0 -10.6924,-3.28765 -10.6924,-8.221 0,-5.92304 3.58927,-4.01907 7.23698,-6.90707 3.94932,-3.12552 3.61942,-5.59315 8.55465,-5.59315 4.10957,0 6.40564,5.61954 9.2088,6.74307 4.11145,1.64383 9.21069,7.23696 9.21069,10.6905 z m -29.89985,-19.30549 c 0.10745,-2.81071 -1.08206,-5.19162 -3.35174,-5.19162 -2.38091,0 -3.57041,2.38091 -3.57041,4.32447 0,2.70514 1.51375,5.29906 3.57041,5.29906 2.05478,-0.002 3.24241,-1.61932 3.35174,-4.43191 z m 17.08294,-2.59581 c 2.05478,0 4.75804,-3.78343 4.86549,-6.59603 0.10934,-2.81259 -0.21491,-5.72887 -2.48647,-5.72887 -2.37902,0 -5.73076,3.56664 -5.73076,6.48669 0,2.70326 1.29884,5.83821 3.35174,5.83821 z m 8.21912,6.92027 c 3.02561,0 4.86737,-3.35174 4.97482,-6.16433 0.10745,-2.8126 -0.54103,-5.19162 -2.8126,-5.19162 -3.67409,0 -5.51397,3.57042 -5.51397,6.48858 0,2.70326 1.29696,4.86737 3.35175,4.86737 z m 9.62164,-2.26969 c -3.67599,0 -5.83822,4.21324 -5.83822,7.13518 0,2.70514 1.72865,4.65059 3.78532,4.65059 3.02561,0 4.97483,-3.02562 5.08039,-5.83821 0.10746,-2.81449 -0.75782,-5.94756 -3.02749,-5.94756 z m -29.19295,-3.67785 c 2.05479,0 3.67599,-1.51187 3.67599,-4.32635 0,-4.75615 2.16034,-9.51419 -0.10745,-9.51419 -4.54314,0 -7.13895,6.59414 -7.13895,8.54147 0,2.70514 1.51376,5.29907 3.57041,5.29907 z m -8.78276,-5.18597 c 0.62963,0.17155 1.21779,0.49013 1.20082,-0.39964 -0.0283,-1.38933 0.115,-3.65712 -0.57119,-3.71557 -0.40907,-0.032 -1.55334,2.35074 -1.88135,3.5346 -0.30539,1.12541 0.52596,0.38456 1.25172,0.58061 z m 12.80561,-10.90352 c 0.68806,0.20925 1.32712,0.56365 1.36671,-0.27899 0.0678,-1.3177 0.38645,-3.44789 -0.37514,-3.55722 -0.44865,-0.066 -1.89455,2.08871 -2.3432,3.1802 -0.42038,1.0387 0.558,0.40529 1.35163,0.65601 z m 12.18917,0.78044 c 0.62963,0.17155 1.23099,0.49013 1.2027,-0.40153 -0.0566,-1.60046 -0.16966,-3.81925 -0.85395,-3.87768 -0.40718,-0.034 -1.32524,2.00576 -1.65136,3.18961 -0.30728,1.1273 0.57873,0.89167 1.30261,1.0896 z m 10.04579,6.1436 c 0.62963,0.17343 1.23288,0.49202 1.20082,-0.39965 -0.0546,-1.60046 -0.43357,-4.59591 -1.11976,-4.65058 -0.40718,-0.034 -1.0123,2.34698 -1.49867,3.63451 -0.41095,1.08959 0.69373,1.21967 1.41761,1.41572 z m 7.88168,6.70725 c -0.40718,-0.034 -1.05378,1.63063 -1.37991,2.81637 -0.30539,1.12541 0.52972,1.00099 1.25549,1.19893 0.62964,0.17155 1.23098,0.49014 1.20082,-0.39964 -0.0584,-1.60047 -0.39021,-3.55911 -1.0764,-3.61566 z"
         id="path8052" /><path
         id="path17"
         style="fill:#cc0000;fill-opacity:1;stroke:none;stroke-width:0.397412;stroke-linecap:round;stroke-linejoin:round"
         d="m 469.37059,192.225 a 7.1455797,7.1455797 0 0 0 -7.14559,7.14558 7.1455797,7.1455797 0 0 0 7.14559,7.14559 7.1455797,7.1455797 0 0 0 7.14558,-7.14559 7.1455797,7.1455797 0 0 0 -7.14558,-7.14558 z m 0.0534,2.60722 c 0.0933,0 0.18655,0.028 0.26115,0.0839 l 4.02056,3.65572 c 0.18651,0.14921 0.0745,0.41023 -0.14929,0.41023 h -0.70871 v 4.10338 c 0,0.22382 -0.1492,0.37301 -0.37302,0.37302 h -1.93164 l -0.0486,-2.04371 c -0.0118,-0.49316 -0.57716,-1.02185 -1.07045,-1.02185 -0.4933,0 -1.05872,0.52869 -1.07045,1.02185 l -0.0487,2.04371 h -1.93154 c -0.22382,0 -0.37301,-0.1492 -0.37302,-0.37302 v -4.10328 l -0.7088,-1e-4 c -0.22382,0 -0.3357,-0.26102 -0.14919,-0.41023 l 1.19528,-0.97146 v -2.07773 c 0,-0.22383 0.14921,-0.37303 0.37302,-0.37303 h 0.43948 c 0.17584,0 0.37301,0.19717 0.37301,0.37303 v 0.84671 l 1.63976,-1.45324 c 0.0746,-0.056 0.16789,-0.0839 0.26114,-0.0839 z" /><path
         id="path18"
         style="fill:#cc0000;fill-opacity:1;stroke:none;stroke-width:0.397412;stroke-linecap:round;stroke-linejoin:round"
         d="m 531.66057,192.225 c -3.94641,0 -7.14558,3.19918 -7.14557,7.14558 -10e-6,3.94641 3.19916,7.14559 7.14557,7.14559 3.94641,0 7.14559,-3.19918 7.14558,-7.14559 0,-3.9464 -3.19917,-7.14558 -7.14558,-7.14558 z m 0.13193,2.12294 c 1.73876,-1e-5 3.14833,1.40952 3.14838,3.14828 2e-5,1.46652 -1.01249,2.73883 -2.44157,3.06806 1.6281,0.27559 2.97848,1.41285 3.52698,2.97035 h -8.57058 c 0.55588,-1.5785 1.93454,-2.72359 3.58826,-2.98033 -1.40888,-0.34484 -2.39985,-1.60761 -2.39986,-3.05808 5e-5,-1.73877 1.40962,-3.14829 3.14839,-3.14828 z"
         sodipodi:nodetypes="ssssssscccccs" /></g></g><style
     type="text/css"
     id="style1397">
<![CDATA[
	.st0{fill:#000000;}
]]>
</style><style
     type="text/css"
     id="style1">
<![CDATA[
	.st0{fill:#000000;}
]]>
</style></svg>
