<?xml version="1.0" encoding="UTF-8" standalone="no"?>
<!-- Created with Inkscape (http://www.inkscape.org/) -->

<svg
   width="80.531303mm"
   height="80.531296mm"
   viewBox="0 0 80.531303 80.531296"
   version="1.1"
   id="svg5"
   inkscape:version="1.4.4 (dcaf3e7d9e, 2026-05-05)"
   sodipodi:docname="Noctambule.svg"
   xml:space="preserve"
   xmlns:inkscape="http://www.inkscape.org/namespaces/inkscape"
   xmlns:sodipodi="http://sodipodi.sourceforge.net/DTD/sodipodi-0.dtd"
   xmlns="http://www.w3.org/2000/svg"
   xmlns:svg="http://www.w3.org/2000/svg"><sodipodi:namedview
     id="namedview7"
     pagecolor="#ffffff"
     bordercolor="#000000"
     borderopacity="0.25"
     inkscape:showpageshadow="2"
     inkscape:pageopacity="0.0"
     inkscape:pagecheckerboard="true"
     inkscape:deskcolor="#d1d1d1"
     inkscape:document-units="mm"
     showgrid="false"
     inkscape:zoom="0.62827759"
     inkscape:cx="636.66126"
     inkscape:cy="41.382982"
     inkscape:window-width="1920"
     inkscape:window-height="1014"
     inkscape:window-x="0"
     inkscape:window-y="0"
     inkscape:window-maximized="1"
     inkscape:current-layer="layer1"
     showguides="false" /><defs
     id="defs2"><inkscape:path-effect
   effect="fillet_chamfer"
   id="path-effect2"
   is_visible="true"
   lpeversion="1"
   nodesatellites_param="F,0,0,1,0,0,0,1 @ F,0,0,1,0,0,0,1 @ F,0,0,1,0,0,0,1 @ F,0,0,1,0,0,0,1 @ F,0,0,1,0,0,0,1 @ F,0,0,1,0,0,0,1 @ F,0,0,1,0,0,0,1 @ F,0,0,1,0,0,0,1 @ F,0,0,1,0,0,0,1"
   radius="0"
   unit="px"
   method="auto"
   mode="F"
   chamfer_steps="1"
   flexible="false"
   use_knot_distance="true"
   apply_no_radius="true"
   apply_with_radius="true"
   only_selected="false"
   hide_knots="false" /><inkscape:path-effect
   effect="fillet_chamfer"
   id="path-effect1"
   is_visible="true"
   lpeversion="1"
   nodesatellites_param="F,0,0,1,0,7.5338088,0,1 @ F,0,0,1,0,0,0,1 @ F,0,0,1,0,0,0,1 @ F,0,0,1,0,0,0,1 @ F,0,0,1,0,0,0,1 @ F,0,0,1,0,0,0,1 @ F,0,0,1,0,0,0,1 @ F,0,0,1,0,0,0,1 @ F,0,0,1,0,0,0,1 @ F,0,0,1,0,0,0,1 @ F,0,0,1,0,0,0,1"
   radius="0"
   unit="px"
   method="auto"
   mode="F"
   chamfer_steps="1"
   flexible="false"
   use_knot_distance="true"
   apply_no_radius="true"
   apply_with_radius="true"
   only_selected="false"
   hide_knots="false" /><inkscape:path-effect
   effect="spiro"
   id="path-effect6"
   is_visible="true"
   lpeversion="1" /><inkscape:path-effect
   effect="fillet_chamfer"
   id="path-effect3"
   is_visible="true"
   lpeversion="1"
   nodesatellites_param="F,0,0,1,0,0,0,1 @ F,0,0,1,0,0,0,1 @ F,0,0,1,0,0,0,1 @ F,0,0,1,0,0,0,1 @ F,0,0,1,0,0,0,1 @ F,0,0,1,0,0,0,1 @ F,0,0,1,0,0,0,1 @ F,0,0,1,0,0,0,1 @ F,0,0,1,0,0,0,1 @ F,0,0,1,0,0,0,1 @ F,0,0,1,0,0,0,1 @ F,0,0,1,0,0,0,1 @ F,0,0,1,0,0,0,1 @ F,0,0,1,0,0,0,1 | F,0,0,1,0,6.4303233,0,1 @ F,0,0,1,0,108.16171,0,1 @ F,0,0,1,0,0,0,1 @ F,0,0,1,0,20.169484,0,1 @ F,0,0,1,0,0,0,1 @ F,0,0,1,0,0,0,1 @ F,0,0,1,0,23.329183,0,1 @ F,0,0,1,0,0,0,1 @ F,0,0,1,0,0,0,1 @ F,0,0,1,0,0,0,1 | F,0,0,1,0,0,0,1 @ F,0,0,1,0,0,0,1 @ F,0,0,1,0,0,0,1 @ F,0,0,1,0,0,0,1 @ F,0,0,1,0,0,0,1 @ F,0,0,1,0,0,0,1 | F,0,0,1,0,0,0,1 @ F,0,0,1,0,0,0,1 @ F,0,0,1,0,0,0,1 @ F,0,0,1,0,0,0,1 @ F,0,0,1,0,0,0,1 @ F,0,0,1,0,0,0,1 @ F,0,0,1,0,0,0,1 @ F,0,0,1,0,0,0,1 @ F,0,0,1,0,0,0,1 @ F,0,0,1,0,0,0,1"
   radius="0"
   unit="px"
   method="auto"
   mode="F"
   chamfer_steps="1"
   flexible="false"
   use_knot_distance="true"
   apply_no_radius="true"
   apply_with_radius="true"
   only_selected="false"
   hide_knots="false" /><inkscape:path-effect
   effect="spiro"
   id="path-effect9346"
   is_visible="true"
   lpeversion="1" />
		
	
	
	

	

		
	
	

	

	

	

	

	
</defs><g
     inkscape:label="Calque 1"
     inkscape:groupmode="layer"
     id="layer1"
     transform="translate(-100.25,-10.25)"><g
       id="g42"><path
         id="rect234-3"
         style="stroke-width:0.05"
         d="m 107.69182,10.25 h 65.64766 c 4.12277,0 7.44182,3.31905 7.44182,7.441816 v 65.647663 c 0,4.122767 -3.31905,7.441817 -7.44182,7.441817 h -65.64766 c -4.12277,0 -7.44182,-3.31905 -7.44182,-7.441817 V 17.691816 c 0,-4.122766 3.31905,-7.441816 7.44182,-7.441816 z" /><path
         style="font-weight:bold;font-size:7.05556px;font-family:Cantarell;-inkscape-font-specification:'Cantarell Bold';fill:#cc0000;stroke-width:0.05"
         d="m 121.074,87.02005 h 0.86078 v -3.65478 l 2.40595,3.65478 h 1.016 v -4.896559 h -0.86784 l -0.007,3.640669 -2.36361,-3.640669 H 121.074 Z m 6.858,0.07056 c 1.0795,0 1.80622,-0.740834 1.80622,-1.841502 0,-1.051278 -0.67027,-1.728612 -1.70039,-1.728612 -1.08655,0 -1.81327,0.733778 -1.81327,1.841501 0,1.044223 0.66322,1.728613 1.70744,1.728613 z m 0.0776,-0.762001 c -0.52917,0 -0.87489,-0.409222 -0.87489,-1.044223 0,-0.620889 0.3175,-1.001889 0.81845,-1.001889 0.52916,0 0.87489,0.416278 0.87489,1.058334 0,0.606778 -0.3175,0.987778 -0.81845,0.987778 z m 4.04284,0.762001 c 0.41628,0 0.80434,-0.09172 1.12889,-0.268112 l -0.19755,-0.620889 c -0.24695,0.105833 -0.508,0.162278 -0.73378,0.162278 -0.635,0 -1.00189,-0.395111 -1.00189,-1.079501 0,-0.649111 0.33161,-1.001889 0.93839,-1.001889 0.254,0 0.54328,0.05644 0.79022,0.155222 l 0.1905,-0.712612 c -0.29633,-0.134055 -0.65617,-0.204611 -1.00894,-0.204611 -1.10773,0 -1.82739,0.733778 -1.82739,1.862668 0,1.072445 0.64205,1.707446 1.72155,1.707446 z m 3.20323,-0.02117 c 0.23283,0 0.48683,-0.04939 0.70556,-0.119945 l -0.18345,-0.642056 c -0.0988,0.04233 -0.21872,0.0635 -0.32455,0.0635 -0.32456,0 -0.52917,-0.190501 -0.52917,-0.486834 v -1.57339 h 0.86078 v -0.719667 h -0.86078 v -0.994834 h -0.889 v 0.994834 h -0.47978 v 0.719667 h 0.47978 v 1.629834 c 0,0.691445 0.45861,1.12889 1.22061,1.128891 z m 3.4925,-0.04939 h 0.64911 v -2.060224 c 0,-0.931333 -0.52917,-1.439334 -1.54517,-1.439334 -0.48683,0 -1.016,0.119945 -1.41817,0.331612 l 0.21167,0.627944 c 0.35983,-0.141111 0.6985,-0.211666 1.016,-0.211666 0.55034,0 0.84667,0.211666 0.84667,0.620889 v 0.09172 c -1.48167,0.02117 -2.13784,0.359834 -2.13784,1.086556 0,0.62089 0.45862,1.023057 1.18534,1.023057 0.43744,0 0.80433,-0.141112 1.06539,-0.409223 z m -0.23989,-0.881945 c -0.16933,0.155222 -0.39511,0.246945 -0.65617,0.246945 -0.34572,0 -0.57855,-0.176389 -0.57855,-0.437445 0,-0.310445 0.35277,-0.451556 1.23472,-0.465667 z m 6.32178,0.881945 h 0.90311 v -2.116668 c 0,-0.846667 -0.47977,-1.368779 -1.24883,-1.368779 -0.45861,0 -0.889,0.183445 -1.2065,0.536223 -0.20461,-0.345723 -0.56445,-0.536223 -1.03011,-0.536223 -0.40923,0 -0.79728,0.148167 -1.10067,0.423334 l -0.15522,-0.366889 h -0.64911 v 3.429002 h 0.90311 v -2.46239 c 0.19755,-0.155223 0.43039,-0.239889 0.68439,-0.239889 0.43744,0 0.65616,0.246944 0.65616,0.712611 v 1.989668 h 0.90312 v -2.116668 c 0,-0.112889 -0.007,-0.218722 -0.0282,-0.324556 0.20462,-0.169333 0.45156,-0.261055 0.71262,-0.261055 0.43744,0 0.65616,0.246944 0.65616,0.712611 z m 3.54895,0.07056 c 0.96662,0 1.60867,-0.733779 1.60867,-1.820335 0,-1.051278 -0.60678,-1.749779 -1.50989,-1.749779 -0.36689,0 -0.68439,0.112889 -0.92428,0.324556 v -2.039057 h -0.87489 v 5.214059 h 0.57856 l 0.14817,-0.3175 c 0.23283,0.254 0.55739,0.388056 0.97366,0.388056 z m -0.8255,-2.532946 c 0.14817,-0.183445 0.381,-0.275167 0.635,-0.275167 0.55034,0 0.889,0.402167 0.889,1.051278 0,0.613834 -0.30339,0.994834 -0.81844,0.994834 -0.28928,0 -0.54328,-0.119944 -0.70556,-0.338667 z m 4.37445,2.518835 c 0.40217,0 0.78317,-0.155223 1.07245,-0.43039 l 0.16228,0.373945 h 0.64205 v -3.429002 h -0.90311 v 2.46239 c -0.1905,0.155223 -0.40922,0.239889 -0.64206,0.239889 -0.48683,0 -0.635,-0.373944 -0.635,-0.712611 v -1.989668 h -0.89605 v 2.187223 c 0,0.790223 0.48683,1.298224 1.19944,1.298224 z m 3.85233,-0.0071 c 0.22578,0 0.47272,-0.04233 0.65617,-0.127 l -0.18345,-0.599723 c -0.0776,0.02822 -0.15522,0.04233 -0.21872,0.04233 -0.21167,0 -0.32455,-0.141112 -0.32455,-0.381001 v -4.198058 h -0.88901 v 4.310947 c 0,0.592667 0.35984,0.952501 0.95956,0.952501 z m 2.87162,0.02117 c 0.40217,0 0.83961,-0.08467 1.21355,-0.239889 l -0.20461,-0.62089 c -0.27516,0.112889 -0.57855,0.176389 -0.86783,0.176389 -0.61383,0 -0.99483,-0.289278 -1.10067,-0.853722 h 2.2225 c 0.0212,-0.141112 0.0423,-0.352778 0.0423,-0.508001 0,-0.938389 -0.5715,-1.524001 -1.48873,-1.524001 -1.02305,0 -1.70744,0.726723 -1.70744,1.792113 0,1.100667 0.71967,1.778001 1.89089,1.778001 z M 157.6712,85.00216 c 0.0494,-0.515056 0.30338,-0.790223 0.73377,-0.790223 0.4445,0 0.70556,0.289278 0.70556,0.790223 z"
         id="text1121"
         aria-label="Noctambule" /><path
         style="font-variation-settings:'wdth' 83, 'wght' 488;fill:none;fill-opacity:1;stroke:#cc0000;stroke-width:1.75383;stroke-dasharray:none;stroke-opacity:1"
         d="m 126.50344,66.506148 c 3.43507,-7.541559 15.2954,-28.373553 6.25043,-32.323864 -6.19006,-1.893064 -5.53682,5.145436 -7.46356,6.634463 -0.92147,0.63946 -2.68479,0.751808 -3.36183,-0.142414 -1.50095,-8.204466 6.6656,-11.379753 12.8294,-10.605507 3.90554,0.490582 8.91234,0.660218 14.09751,10.176417 4.22274,7.749878 8.45022,20.39535 11.104,26.095001 z"
         id="path8995"
         sodipodi:nodetypes="ccccsscc" /><path
         id="path9049"
         style="font-variation-settings:'wdth' 83, 'wght' 488;fill:#cc0000;stroke:#cc0000;stroke-width:2.0394"
         d="m 126.94799,37.619644 a 3.8441427,3.8441427 0 0 1 -3.84415,3.844143 3.8441427,3.8441427 0 0 1 -3.84414,-3.844143 3.8441427,3.8441427 0 0 1 3.84414,-3.844143 3.8441427,3.8441427 0 0 1 3.84415,3.844143 z" /><path
         id="rect9053"
         style="font-variation-settings:'wdth' 83, 'wght' 488;fill:#cc0000;stroke:#cc0000;stroke-width:1.86524"
         d="m 127.17947,65.738029 h 32.11312 c 1.42104,0 2.56505,1.144013 2.56505,2.565051 v 0.154203 c 0,1.421038 -1.14401,2.565051 -2.56505,2.565051 h -32.11312 c -1.42104,0 -2.56505,-1.144013 -2.56505,-2.565051 V 68.30308 c 0,-1.421038 1.14401,-2.565051 2.56505,-2.565051 z" /><path
         id="path27"
         style="fill:#cc0000;fill-opacity:1;stroke:none;stroke-width:0.397412;stroke-linecap:round;stroke-linejoin:round"
         d="m 171.66057,12.225 c -3.94641,0 -7.14558,3.19917 -7.14557,7.145557 -10e-6,3.946397 3.19916,7.145577 7.14557,7.145577 3.94642,0 7.1456,-3.19918 7.14559,-7.145577 0,-3.946387 -3.19917,-7.145557 -7.14559,-7.145557 z m 0.13193,2.12293 c 1.73876,-10e-6 3.14834,1.40952 3.14839,3.148277 2e-5,1.4665 -1.01249,2.73881 -2.44158,3.06804 1.62811,0.27559 2.97849,1.412847 3.52699,2.970347 h -8.57059 c 0.55588,-1.5785 1.93454,-2.723587 3.58826,-2.980327 -1.40888,-0.34484 -2.39985,-1.6076 -2.39986,-3.05806 5e-5,-1.738757 1.40962,-3.148287 3.14839,-3.148277 z"
         sodipodi:nodetypes="ssssssscccccs" /><path
         id="path28"
         style="fill:#cc0000;fill-opacity:1;stroke:none;stroke-width:0.397412;stroke-linecap:round;stroke-linejoin:round"
         d="m 109.37059,12.225 a 7.1455797,7.1455797 0 0 0 -7.14559,7.145577 7.1455797,7.1455797 0 0 0 7.14559,7.145577 7.1455797,7.1455797 0 0 0 7.14559,-7.145577 7.1455797,7.1455797 0 0 0 -7.14559,-7.145577 z m 0.0534,2.60722 c 0.0933,0 0.18655,0.028 0.26115,0.0839 l 4.02056,3.655707 c 0.18651,0.14921 0.0745,0.41024 -0.14929,0.41024 h -0.70871 v 4.103367 c 0,0.22382 -0.1492,0.37302 -0.37302,0.37302 h -1.93164 l -0.0486,-2.0437 c -0.0118,-0.493157 -0.57716,-1.021847 -1.07045,-1.021847 -0.4933,-10e-6 -1.05872,0.52869 -1.07045,1.021847 l -0.0487,2.0437 h -1.93154 c -0.22382,0 -0.37301,-0.1492 -0.37302,-0.37302 v -4.103267 l -0.7088,-10e-5 c -0.22382,0 -0.3357,-0.26103 -0.14919,-0.41024 l 1.19528,-0.97146 V 15.52264 c 0,-0.22382 0.14921,-0.37301 0.37302,-0.37301 h 0.43948 c 0.17584,0 0.37301,0.19717 0.37301,0.37301 v 0.846717 l 1.63976,-1.453237 c 0.0746,-0.056 0.16789,-0.0839 0.26114,-0.0839 z" /></g></g><style
     type="text/css"
     id="style10809">
	.puchipuchi_een{fill:#111918;}
</style><style
     type="text/css"
     id="style11287">
	.st0{fill:#000000;}
</style><style
     type="text/css"
     id="style1">
<![CDATA[
	.st0{fill:#000000;}
]]>
</style><style
     type="text/css"
     id="style1-3">
	.st0{fill:#FD6A7E;}
	.st1{fill:#17B978;}
	.st2{fill:#8797EE;}
	.st3{fill:#41A6F9;}
	.st4{fill:#37E0FF;}
	.st5{fill:#2FD9B9;}
	.st6{fill:#F498BD;}
	.st7{fill:#FFDF1D;}
	.st8{fill:#C6C9CC;}
</style></svg>
