<?xml version="1.0" encoding="UTF-8" standalone="no"?>
<!-- Created with Inkscape (http://www.inkscape.org/) -->

<svg
   width="80.581299mm"
   height="80.581299mm"
   viewBox="0 0 80.581299 80.581299"
   version="1.1"
   id="svg5"
   inkscape:version="1.4.4 (dcaf3e7d9e, 2026-05-05)"
   sodipodi:docname="plus2corbeau.svg"
   xml:space="preserve"
   xmlns:inkscape="http://www.inkscape.org/namespaces/inkscape"
   xmlns:sodipodi="http://sodipodi.sourceforge.net/DTD/sodipodi-0.dtd"
   xmlns="http://www.w3.org/2000/svg"
   xmlns:svg="http://www.w3.org/2000/svg"
   xmlns:osb="http://www.openswatchbook.org/uri/2009/osb"><sodipodi:namedview
     id="namedview7"
     pagecolor="#ffffff"
     bordercolor="#000000"
     borderopacity="0.25"
     inkscape:showpageshadow="2"
     inkscape:pageopacity="0.0"
     inkscape:pagecheckerboard="true"
     inkscape:deskcolor="#d1d1d1"
     inkscape:document-units="mm"
     showgrid="false"
     inkscape:zoom="0.37155449"
     inkscape:cx="767.04765"
     inkscape:cy="376.79534"
     inkscape:window-width="1536"
     inkscape:window-height="798"
     inkscape:window-x="0"
     inkscape:window-y="0"
     inkscape:window-maximized="1"
     inkscape:current-layer="layer1"
     showguides="false" /><defs
     id="defs2"><rect
   x="448.54202"
   y="529.85144"
   width="38.197552"
   height="38.197552"
   id="rect11" /><rect
   x="537.06824"
   y="536.41333"
   width="327.48065"
   height="42.572483"
   id="rect19" /><rect
   x="399.63498"
   y="321.08899"
   width="176.94421"
   height="71.209251"
   id="rect7" /><rect
   x="174.4071"
   y="-141.92599"
   width="126.68596"
   height="81.17588"
   id="rect1725" /><rect
   x="194.46935"
   y="-66.436157"
   width="96.962852"
   height="99.154907"
   id="rect1515" /><rect
   x="336.52414"
   y="-64.164574"
   width="56.072357"
   height="65.948097"
   id="rect1509" /><rect
   x="338.37405"
   y="-146.20657"
   width="57.826"
   height="70.616623"
   id="rect1500" /><rect
   x="140.28249"
   y="-106.91901"
   width="162.33759"
   height="103.51467"
   id="rect1332" /><inkscape:path-effect
   effect="spiro"
   id="path-effect3997"
   is_visible="true"
   lpeversion="1" /><style
   id="style3170">.cls-1{fill:none;stroke:#020202;stroke-miterlimit:10;stroke-width:1.91px;}</style><linearGradient
   osb:paint="solid"
   id="linearGradient5606"><stop
     style="stop-color:#000000;stop-opacity:1;"
     offset="0"
     id="stop5608" /></linearGradient><filter
   style="color-interpolation-filters:sRGB"
   id="filter7554"><feBlend
     mode="darken"
     in2="BackgroundImage"
     id="feBlend7556" /></filter>
	

	

	

	
	
<rect
   x="174.4071"
   y="-141.92599"
   width="126.68596"
   height="81.17588"
   id="rect1735" /><rect
   x="399.63498"
   y="321.08899"
   width="176.94421"
   height="71.209251"
   id="rect8" /><rect
   x="399.63498"
   y="321.08899"
   width="176.94421"
   height="71.209251"
   id="rect9" /><rect
   x="399.63498"
   y="321.08899"
   width="165.41594"
   height="55.646091"
   id="rect16" /><rect
   x="399.63498"
   y="321.08899"
   width="176.94421"
   height="71.209251"
   id="rect17" /><rect
   x="399.63498"
   y="321.08899"
   width="176.94421"
   height="71.209251"
   id="rect18" /><rect
   x="399.63498"
   y="321.08899"
   width="176.94421"
   height="71.209251"
   id="rect10" /><rect
   x="399.63498"
   y="321.08899"
   width="176.94421"
   height="71.209251"
   id="rect12" /><rect
   x="399.63498"
   y="321.08899"
   width="176.94421"
   height="71.209251"
   id="rect13" /><rect
   x="399.63498"
   y="321.08899"
   width="176.94421"
   height="71.209251"
   id="rect55" /><rect
   x="399.63498"
   y="321.08899"
   width="176.94421"
   height="71.209251"
   id="rect56" /><rect
   x="399.63498"
   y="321.08899"
   width="176.94421"
   height="71.209251"
   id="rect57" /><rect
   x="399.63498"
   y="321.08899"
   width="165.41594"
   height="55.646091"
   id="rect58" /><rect
   x="399.63498"
   y="321.08899"
   width="176.94421"
   height="71.209251"
   id="rect59" /><rect
   x="537.06824"
   y="536.41333"
   width="327.48065"
   height="42.572483"
   id="rect60" /><rect
   x="399.63498"
   y="321.08899"
   width="176.94421"
   height="71.209251"
   id="rect61" /><rect
   x="399.63498"
   y="321.08899"
   width="176.94421"
   height="71.209251"
   id="rect62" /><rect
   x="399.63498"
   y="321.08899"
   width="176.94421"
   height="71.209251"
   id="rect63" /></defs><g
     inkscape:label="Calque 1"
     inkscape:groupmode="layer"
     id="layer1"
     transform="translate(-10.225,-100.225)"><g
       id="g3"><path
         id="rect234-3"
         style="fill:#cc0000;stroke:#ff0000;stroke-width:0.05"
         d="m 17.691816,100.25 h 65.647663 c 4.122767,0 7.441817,3.31905 7.441817,7.44182 v 65.64766 c 0,4.12277 -3.31905,7.44182 -7.441817,7.44182 H 17.691816 c -4.122766,0 -7.441816,-3.31905 -7.441816,-7.44182 v -65.64766 c 0,-4.12277 3.31905,-7.44182 7.441816,-7.44182 z" /><path
         id="path1729"
         style="stroke-width:0.2;stroke-linecap:round;stroke-linejoin:round"
         d="m 77.04721,105.87552 a 8.2013931,8.2013931 0 0 0 -8.20157,8.20105 8.2013931,8.2013931 0 0 0 8.20157,8.20157 8.2013931,8.2013931 0 0 0 8.20157,-8.20157 8.2013931,8.2013931 0 0 0 -8.20157,-8.20105 z m 3.3786,3.36724 c 0.99907,0 1.72717,0.22409 2.18437,0.67282 0.46566,0.44027 0.69815,1.04596 0.69815,1.81643 0,0.42333 -0.10563,0.82958 -0.3173,1.21905 -0.21166,0.381 -0.48267,0.74479 -0.81287,1.09192 -0.32173,0.33866 -0.65197,0.6689 -0.99064,0.99064 -0.18626,0.1778 -0.38913,0.38118 -0.60926,0.60978 -0.22013,0.2286 -0.41513,0.45321 -0.58446,0.67334 -0.16087,0.21167 -0.25417,0.38937 -0.27957,0.5333 h 3.86127 l -0.14625,1.39682 h -5.54334 c -0.008,-0.0762 -0.0129,-0.17344 -0.0129,-0.29198 v -0.29197 c 0,-0.54186 0.11402,-1.02464 0.34262,-1.44797 0.2286,-0.42333 0.51245,-0.8128 0.85111,-1.1684 0.34714,-0.3556 0.69415,-0.70262 1.04128,-1.04128 0.2794,-0.26247 0.52918,-0.50831 0.74931,-0.73691 0.2286,-0.23707 0.41075,-0.46955 0.54622,-0.69815 0.13547,-0.2286 0.20309,-0.47444 0.20309,-0.7369 0,-0.42334 -0.11847,-0.71951 -0.35553,-0.88884 -0.23707,-0.1778 -0.5293,-0.26665 -0.87644,-0.26665 -0.31326,0 -0.60104,0.0548 -0.86351,0.16485 -0.254,0.11006 -0.46971,0.23744 -0.64751,0.38137 -0.1778,0.14393 -0.30465,0.25401 -0.38085,0.33021 l -0.82579,-1.156 c 0.21166,-0.2032 0.4575,-0.38929 0.73691,-0.55862 0.28786,-0.1778 0.60081,-0.32195 0.93947,-0.43202 0.34714,-0.11006 0.71144,-0.16484 1.09244,-0.16484 z m -7.62021,2.10788 h 1.51154 v 2.43861 h 2.19677 v 1.38441 h -2.19677 v 2.45101 H 72.8056 v -2.45101 h -2.20968 v -1.38441 h 2.20968 z" /><path
         style="font-weight:bold;font-size:7.05556px;font-family:Cantarell;-inkscape-font-specification:'Cantarell Bold';fill-opacity:0.790615;stroke-width:0.05"
         d="m 39.801457,177.09061 c 0.500945,0 1.051279,-0.127 1.474612,-0.33162 l -0.204611,-0.65616 c -0.3175,0.11994 -0.712611,0.1905 -1.051278,0.1905 -1.072445,0 -1.742724,-0.70556 -1.742724,-1.80623 0,-1.03716 0.606779,-1.62983 1.63689,-1.62983 0.388056,0 0.832556,0.0776 1.150057,0.20461 l 0.254,-0.70556 c -0.416278,-0.19755 -0.896056,-0.30338 -1.38289,-0.30338 -1.545168,0 -2.603502,1.02305 -2.603502,2.56116 0,1.48167 1.00189,2.47651 2.469446,2.47651 z m 3.732387,0 c 1.079501,0 1.806224,-0.74084 1.806224,-1.84151 0,-1.05127 -0.670279,-1.72861 -1.70039,-1.72861 -1.086557,0 -1.813279,0.73378 -1.813279,1.8415 0,1.04423 0.663222,1.72862 1.707445,1.72862 z m 0.07761,-0.762 c -0.529167,0 -0.874889,-0.40923 -0.874889,-1.04423 0,-0.62089 0.3175,-1.00189 0.818445,-1.00189 0.529167,0 0.874889,0.41628 0.874889,1.05834 0,0.60677 -0.3175,0.98778 -0.818445,0.98778 z m 2.532951,0.69144 h 0.903112 v -2.22956 c 0.204611,-0.24694 0.493889,-0.38805 0.811389,-0.38805 0.141112,0 0.310445,0.0282 0.437445,0.0776 l 0.204611,-0.8255 c -0.141111,-0.0635 -0.324555,-0.0988 -0.508,-0.0988 -0.409222,0 -0.783167,0.19756 -1.044223,0.54328 l -0.08467,-0.508 h -0.719667 z m 4.59317,0.0706 c 0.966611,0 1.608667,-0.73378 1.608667,-1.82034 0,-1.05128 -0.606778,-1.74978 -1.50989,-1.74978 -0.366889,0 -0.684389,0.11289 -0.924278,0.32456 v -2.03906 h -0.874889 v 5.21406 h 0.578556 l 0.148166,-0.3175 c 0.232834,0.254 0.55739,0.38806 0.973668,0.38806 z m -0.825501,-2.53295 c 0.148167,-0.18344 0.381,-0.27517 0.635,-0.27517 0.550334,0 0.889001,0.40217 0.889001,1.05128 0,0.61383 -0.303389,0.99484 -0.818445,0.99484 -0.289278,0 -0.543278,-0.11995 -0.705556,-0.33867 z m 4.917727,2.53295 c 0.402167,0 0.839611,-0.0847 1.213556,-0.23989 l -0.204611,-0.62089 c -0.275167,0.11289 -0.578556,0.17639 -0.867834,0.17639 -0.613834,0 -0.994834,-0.28928 -1.100667,-0.85373 h 2.222501 c 0.02117,-0.14111 0.04233,-0.35277 0.04233,-0.508 0,-0.93839 -0.5715,-1.524 -1.488723,-1.524 -1.023056,0 -1.707445,0.72672 -1.707445,1.79211 0,1.10067 0.719667,1.77801 1.89089,1.77801 z m -0.980723,-2.08845 c 0.04939,-0.51506 0.303389,-0.79022 0.733778,-0.79022 0.4445,0 0.705556,0.28928 0.705556,0.79022 z m 5.242285,2.01789 h 0.649111 v -2.06022 c 0,-0.93134 -0.529167,-1.43934 -1.545168,-1.43934 -0.486833,0 -1.016,0.11995 -1.418167,0.33161 l 0.211667,0.62795 c 0.359833,-0.14111 0.6985,-0.21167 1.016,-0.21167 0.550334,0 0.846668,0.21167 0.846668,0.62089 v 0.0917 c -1.481668,0.0212 -2.137835,0.35984 -2.137835,1.08656 0,0.62089 0.458611,1.02306 1.185334,1.02306 0.437445,0 0.804334,-0.14112 1.06539,-0.40923 z m -0.239889,-0.88194 c -0.169334,0.15522 -0.395112,0.24694 -0.656168,0.24694 -0.345722,0 -0.578555,-0.17639 -0.578555,-0.43745 0,-0.31044 0.352778,-0.45155 1.234723,-0.46566 z m 2.970392,0.93838 c 0.402167,0 0.783167,-0.15522 1.072445,-0.43038 l 0.162278,0.37394 h 0.642056 v -3.429 h -0.903112 v 2.46239 c -0.1905,0.15522 -0.409222,0.23989 -0.642056,0.23989 -0.486834,0 -0.635,-0.37395 -0.635,-0.71261 v -1.98967 h -0.896056 v 2.18722 c 0,0.79022 0.486833,1.29822 1.199445,1.29822 z"
         id="text12"
         aria-label="Corbeau" /><path
         fill="#000000"
         d="m 51.632406,135.03603 c -0.32544,0.0129 -0.721334,0.2029 -1.152455,0.67764 -0.530695,0.58442 -1.01581,1.55559 -1.22479,2.71571 -0.208949,1.16 -0.09707,2.26065 0.191101,3.02207 0.288169,0.76137 0.676604,1.10139 1.03474,1.17885 0.358253,0.0774 0.835333,-0.0751 1.365997,-0.6595 0.530716,-0.58441 1.016074,-1.55594 1.225034,-2.71594 0.20895,-1.15999 0.09688,-2.26068 -0.191344,-3.02207 -0.288246,-0.76151 -0.676566,-1.10154 -1.034741,-1.17885 -0.07014,-0.0151 -0.141881,-0.0207 -0.213542,-0.0178 z M 25.522163,152.66466 51.7204,166.24223 c 2.318769,0.78383 -5.114509,-10.9264 -2.147772,-13.35088 5.947779,-4.42722 12.123289,-3.351 16.955835,-2.45573 4.052297,0.75069 7.807867,2.6052 12.07744,5.09573 -1.445204,-3.28659 -5.469686,-8.60516 -8.582395,-11.49266 -3.292098,-3.02866 -6.726127,-5.95172 -12.166331,-7.38216 -0.338088,-0.25248 -3.294432,-3.0241 -2.081704,-6.84478 l 3.504851,-5.31737 -6.896014,2.35736 -1.218164,-4.06537 c -1.059116,-3.53454 0.0427,-7.5086 0.0427,-7.5086 v 0 l -27.891901,10.13632 4.944701,8.58726 -5.688139,6.89492 7.313584,-0.7501 c 8.100286,15.51393 -1.114223,4.86295 -4.364921,12.51849 z"
         id="path14"
         style="fill:none;fill-opacity:1;stroke:#000000;stroke-width:1.75312;stroke-dasharray:none;stroke-opacity:1"
         sodipodi:nodetypes="ssssssssssccccccccccsscccccc" /></g></g><style
     type="text/css"
     id="style1397">
<![CDATA[
	.st0{fill:#000000;}
]]>
</style></svg>
