<?xml version="1.0" encoding="UTF-8" standalone="no"?>
<!-- Created with Inkscape (http://www.inkscape.org/) -->

<svg
   width="80.581299mm"
   height="80.581299mm"
   viewBox="0 0 80.581299 80.581299"
   version="1.1"
   id="svg5"
   inkscape:version="1.4.4 (dcaf3e7d9e, 2026-05-05)"
   sodipodi:docname="plus1corbeau.svg"
   xml:space="preserve"
   xmlns:inkscape="http://www.inkscape.org/namespaces/inkscape"
   xmlns:sodipodi="http://sodipodi.sourceforge.net/DTD/sodipodi-0.dtd"
   xmlns="http://www.w3.org/2000/svg"
   xmlns:svg="http://www.w3.org/2000/svg"
   xmlns:osb="http://www.openswatchbook.org/uri/2009/osb"><sodipodi:namedview
     id="namedview7"
     pagecolor="#ffffff"
     bordercolor="#000000"
     borderopacity="0.25"
     inkscape:showpageshadow="2"
     inkscape:pageopacity="0.0"
     inkscape:pagecheckerboard="true"
     inkscape:deskcolor="#d1d1d1"
     inkscape:document-units="mm"
     showgrid="false"
     inkscape:zoom="0.37155449"
     inkscape:cx="804.72719"
     inkscape:cy="756.28207"
     inkscape:window-width="1536"
     inkscape:window-height="798"
     inkscape:window-x="0"
     inkscape:window-y="0"
     inkscape:window-maximized="1"
     inkscape:current-layer="layer1"
     showguides="false" /><defs
     id="defs2"><rect
   x="448.54202"
   y="529.85144"
   width="38.197552"
   height="38.197552"
   id="rect11" /><rect
   x="537.06824"
   y="536.41333"
   width="327.48065"
   height="42.572483"
   id="rect19" /><rect
   x="399.63498"
   y="321.08899"
   width="176.94421"
   height="71.209251"
   id="rect7" /><rect
   x="174.4071"
   y="-141.92599"
   width="126.68596"
   height="81.17588"
   id="rect1725" /><rect
   x="194.46935"
   y="-66.436157"
   width="96.962852"
   height="99.154907"
   id="rect1515" /><rect
   x="336.52414"
   y="-64.164574"
   width="56.072357"
   height="65.948097"
   id="rect1509" /><rect
   x="338.37405"
   y="-146.20657"
   width="57.826"
   height="70.616623"
   id="rect1500" /><rect
   x="140.28249"
   y="-106.91901"
   width="162.33759"
   height="103.51467"
   id="rect1332" /><inkscape:path-effect
   effect="spiro"
   id="path-effect3997"
   is_visible="true"
   lpeversion="1" /><style
   id="style3170">.cls-1{fill:none;stroke:#020202;stroke-miterlimit:10;stroke-width:1.91px;}</style><linearGradient
   osb:paint="solid"
   id="linearGradient5606"><stop
     style="stop-color:#000000;stop-opacity:1;"
     offset="0"
     id="stop5608" /></linearGradient><filter
   style="color-interpolation-filters:sRGB"
   id="filter7554"><feBlend
     mode="darken"
     in2="BackgroundImage"
     id="feBlend7556" /></filter>
	

	

	

	
	
<rect
   x="174.4071"
   y="-141.92599"
   width="126.68596"
   height="81.17588"
   id="rect1735" /><rect
   x="399.63498"
   y="321.08899"
   width="176.94421"
   height="71.209251"
   id="rect8" /><rect
   x="399.63498"
   y="321.08899"
   width="176.94421"
   height="71.209251"
   id="rect9" /><rect
   x="399.63498"
   y="321.08899"
   width="165.41594"
   height="55.646091"
   id="rect16" /><rect
   x="399.63498"
   y="321.08899"
   width="176.94421"
   height="71.209251"
   id="rect17" /><rect
   x="399.63498"
   y="321.08899"
   width="176.94421"
   height="71.209251"
   id="rect18" /><rect
   x="399.63498"
   y="321.08899"
   width="176.94421"
   height="71.209251"
   id="rect10" /><rect
   x="399.63498"
   y="321.08899"
   width="176.94421"
   height="71.209251"
   id="rect12" /><rect
   x="399.63498"
   y="321.08899"
   width="176.94421"
   height="71.209251"
   id="rect13" /><rect
   x="399.63498"
   y="321.08899"
   width="176.94421"
   height="71.209251"
   id="rect55" /><rect
   x="399.63498"
   y="321.08899"
   width="176.94421"
   height="71.209251"
   id="rect56" /><rect
   x="399.63498"
   y="321.08899"
   width="176.94421"
   height="71.209251"
   id="rect57" /><rect
   x="399.63498"
   y="321.08899"
   width="165.41594"
   height="55.646091"
   id="rect58" /><rect
   x="399.63498"
   y="321.08899"
   width="176.94421"
   height="71.209251"
   id="rect59" /><rect
   x="537.06824"
   y="536.41333"
   width="327.48065"
   height="42.572483"
   id="rect60" /><rect
   x="399.63498"
   y="321.08899"
   width="176.94421"
   height="71.209251"
   id="rect61" /><rect
   x="399.63498"
   y="321.08899"
   width="176.94421"
   height="71.209251"
   id="rect62" /><rect
   x="399.63498"
   y="321.08899"
   width="176.94421"
   height="71.209251"
   id="rect63" /></defs><g
     inkscape:label="Calque 1"
     inkscape:groupmode="layer"
     id="layer1"
     transform="translate(-10.225,-10.225)"><g
       id="g4"><path
         id="rect234"
         style="opacity:1;fill:#cc0000;stroke:#ff0000;stroke-width:0.05"
         d="m 17.691816,10.25 h 65.647663 c 4.122767,0 7.441817,3.31905 7.441817,7.441816 v 65.647663 c 0,4.122767 -3.31905,7.441817 -7.441817,7.441817 H 17.691816 C 13.56905,90.781296 10.25,87.462246 10.25,83.339479 V 17.691816 C 10.25,13.56905 13.56905,10.25 17.691816,10.25 Z" /><path
         style="font-weight:bold;font-size:7.05556px;font-family:Cantarell;-inkscape-font-specification:'Cantarell Bold';fill-opacity:0.790615;stroke-width:0.05"
         d="m 39.801457,87.090606 c 0.500945,0 1.051279,-0.127 1.474612,-0.331612 l -0.204611,-0.656167 c -0.3175,0.119945 -0.712611,0.1905 -1.051278,0.1905 -1.072445,0 -1.742724,-0.705556 -1.742724,-1.806223 0,-1.037167 0.606779,-1.629834 1.63689,-1.629834 0.388056,0 0.832556,0.07761 1.150057,0.204611 l 0.254,-0.705556 c -0.416278,-0.197556 -0.896056,-0.303389 -1.38289,-0.303389 -1.545168,0 -2.603502,1.023056 -2.603502,2.561168 0,1.481668 1.00189,2.476502 2.469446,2.476502 z m 3.732387,0 c 1.079501,0 1.806224,-0.740834 1.806224,-1.841502 0,-1.051278 -0.670279,-1.728612 -1.70039,-1.728612 -1.086557,0 -1.813279,0.733778 -1.813279,1.841501 0,1.044223 0.663222,1.728613 1.707445,1.728613 z m 0.07761,-0.762001 c -0.529167,0 -0.874889,-0.409222 -0.874889,-1.044223 0,-0.620889 0.3175,-1.001889 0.818445,-1.001889 0.529167,0 0.874889,0.416278 0.874889,1.058334 0,0.606778 -0.3175,0.987778 -0.818445,0.987778 z m 2.532951,0.691445 h 0.903112 v -2.229557 c 0.204611,-0.246945 0.493889,-0.388056 0.811389,-0.388056 0.141112,0 0.310445,0.02822 0.437445,0.07761 l 0.204611,-0.8255 c -0.141111,-0.0635 -0.324555,-0.09878 -0.508,-0.09878 -0.409222,0 -0.783167,0.197556 -1.044223,0.543278 l -0.08467,-0.508 h -0.719667 z m 4.59317,0.07056 c 0.966611,0 1.608667,-0.733779 1.608667,-1.820335 0,-1.051278 -0.606778,-1.749779 -1.50989,-1.749779 -0.366889,0 -0.684389,0.112889 -0.924278,0.324556 v -2.039057 h -0.874889 v 5.214059 h 0.578556 l 0.148166,-0.3175 c 0.232834,0.254 0.55739,0.388056 0.973668,0.388056 z m -0.8255,-2.53295 c 0.148167,-0.183445 0.381,-0.275167 0.635,-0.275167 0.550334,0 0.889001,0.402167 0.889001,1.051278 0,0.613834 -0.303389,0.994834 -0.818445,0.994834 -0.289278,0 -0.543278,-0.119944 -0.705556,-0.338667 z m 4.917727,2.532946 c 0.402167,0 0.839611,-0.08467 1.213556,-0.239889 l -0.204611,-0.62089 c -0.275167,0.112889 -0.578556,0.176389 -0.867834,0.176389 -0.613834,0 -0.994834,-0.289278 -1.100667,-0.853722 h 2.222501 c 0.02117,-0.141112 0.04233,-0.352778 0.04233,-0.508001 0,-0.938389 -0.5715,-1.524001 -1.488723,-1.524001 -1.023056,0 -1.707445,0.726723 -1.707445,1.792113 0,1.100667 0.719667,1.778001 1.89089,1.778001 z M 53.849079,85.00216 c 0.04939,-0.515056 0.303389,-0.790223 0.733778,-0.790223 0.4445,0 0.705556,0.289278 0.705556,0.790223 z m 5.242285,2.01789 h 0.649111 v -2.060224 c 0,-0.931333 -0.529167,-1.439334 -1.545168,-1.439334 -0.486833,0 -1.016,0.119945 -1.418167,0.331612 l 0.211667,0.627944 c 0.359833,-0.141111 0.6985,-0.211666 1.016,-0.211666 0.550334,0 0.846668,0.211666 0.846668,0.620889 v 0.09172 c -1.481668,0.02117 -2.137835,0.359834 -2.137835,1.086556 0,0.62089 0.458611,1.023057 1.185334,1.023057 0.437445,0 0.804334,-0.141112 1.06539,-0.409223 z m -0.239889,-0.881945 c -0.169334,0.155222 -0.395112,0.246945 -0.656168,0.246945 -0.345722,0 -0.578555,-0.176389 -0.578555,-0.437445 0,-0.310445 0.352778,-0.451556 1.234723,-0.465667 z m 2.970392,0.93839 c 0.402167,0 0.783167,-0.155223 1.072445,-0.43039 l 0.162278,0.373945 h 0.642056 v -3.429002 h -0.903112 v 2.46239 c -0.1905,0.155223 -0.409222,0.239889 -0.642056,0.239889 -0.486834,0 -0.635,-0.373944 -0.635,-0.712611 v -1.989668 h -0.896056 v 2.187223 c 0,0.790223 0.486833,1.298224 1.199445,1.298224 z"
         id="text1261"
         aria-label="Corbeau" /><path
         id="path1666"
         style="stroke-width:0.2;stroke-linecap:round;stroke-linejoin:round"
         d="m 77.088836,15.875519 a 8.2013931,8.2013931 0 0 0 -8.201567,8.201049 8.2013931,8.2013931 0 0 0 8.201567,8.201568 8.2013931,8.2013931 0 0 0 8.201566,-8.201568 8.2013931,8.2013931 0 0 0 -8.201566,-8.201049 z m 3.886584,3.570324 h 1.168404 v 8.801013 h -1.663981 v -6.60373 c -0.1524,0.110067 -0.334037,0.224082 -0.545703,0.342615 -0.2032,0.110066 -0.41497,0.21621 -0.635103,0.317809 -0.211667,0.09313 -0.42789,0.173596 -0.648023,0.241329 l -0.49506,-1.283125 c 0.499533,-0.194734 1.003019,-0.44451 1.511019,-0.749309 0.507999,-0.3048 0.944381,-0.660202 1.308447,-1.066602 z m -8.128186,1.904794 h 1.511536 v 2.43861 h 2.196765 v 1.384412 H 74.35877 v 2.451013 H 72.847234 V 25.173659 H 70.63755 v -1.384412 h 2.209684 z" /><path
         fill="#000000"
         d="m 51.632406,45.03602 c -0.32544,0.0129 -0.721334,0.2029 -1.152455,0.67764 -0.530695,0.58442 -1.01581,1.55559 -1.22479,2.71571 -0.208949,1.16 -0.09707,2.26065 0.191101,3.02207 0.288169,0.76137 0.676604,1.10139 1.03474,1.17885 0.358253,0.0774 0.835333,-0.0751 1.365997,-0.6595 0.530716,-0.58441 1.016074,-1.55594 1.225034,-2.71594 0.20895,-1.15999 0.09688,-2.26068 -0.191344,-3.02207 -0.288246,-0.76151 -0.676566,-1.10154 -1.034741,-1.17885 -0.07014,-0.0151 -0.141881,-0.0207 -0.213542,-0.0178 z M 25.522163,62.66465 51.7204,76.24222 c 2.318769,0.78383 -5.114509,-10.9264 -2.147772,-13.35088 5.947779,-4.42722 12.123289,-3.351 16.955835,-2.45573 4.052297,0.75069 7.807867,2.6052 12.07744,5.09573 -1.445204,-3.28659 -5.469686,-8.60516 -8.582395,-11.49266 -3.292098,-3.02866 -6.726127,-5.95172 -12.166331,-7.38216 -0.338088,-0.25248 -3.294432,-3.0241 -2.081704,-6.84478 l 3.504851,-5.31737 -6.896014,2.35736 -1.218164,-4.06537 c -1.059116,-3.53454 0.0427,-7.5086 0.0427,-7.5086 v 0 l -27.891901,10.13632 4.944701,8.58726 -5.688139,6.89492 7.313584,-0.7501 c 8.100286,15.51393 -1.114223,4.86295 -4.364921,12.51849 z"
         id="path17"
         style="fill:none;fill-opacity:1;stroke:#000000;stroke-width:1.75312;stroke-dasharray:none;stroke-opacity:1"
         sodipodi:nodetypes="ssssssssssccccccccccsscccccc" /></g></g><style
     type="text/css"
     id="style1397">
<![CDATA[
	.st0{fill:#000000;}
]]>
</style></svg>
