<?xml version="1.0" encoding="UTF-8" standalone="no"?>
<!-- Created with Inkscape (http://www.inkscape.org/) -->

<svg
   width="80.531303mm"
   height="80.531303mm"
   viewBox="0 0 80.531303 80.531303"
   version="1.1"
   id="svg5"
   inkscape:version="1.4.4 (dcaf3e7d9e, 2026-05-05)"
   sodipodi:docname="Renard.svg"
   xml:space="preserve"
   xmlns:inkscape="http://www.inkscape.org/namespaces/inkscape"
   xmlns:sodipodi="http://sodipodi.sourceforge.net/DTD/sodipodi-0.dtd"
   xmlns="http://www.w3.org/2000/svg"
   xmlns:svg="http://www.w3.org/2000/svg"><sodipodi:namedview
     id="namedview7"
     pagecolor="#ffffff"
     bordercolor="#000000"
     borderopacity="0.25"
     inkscape:showpageshadow="2"
     inkscape:pageopacity="0.0"
     inkscape:pagecheckerboard="true"
     inkscape:deskcolor="#d1d1d1"
     inkscape:document-units="mm"
     showgrid="false"
     inkscape:zoom="0.62827759"
     inkscape:cx="713.06061"
     inkscape:cy="-223.62727"
     inkscape:window-width="1920"
     inkscape:window-height="1043"
     inkscape:window-x="0"
     inkscape:window-y="0"
     inkscape:window-maximized="1"
     inkscape:current-layer="layer1"
     showguides="false" /><defs
     id="defs2"><inkscape:path-effect
   effect="fillet_chamfer"
   id="path-effect2"
   is_visible="true"
   lpeversion="1"
   nodesatellites_param="F,0,0,1,0,0,0,1 @ F,0,0,1,0,0,0,1 @ F,0,0,1,0,0,0,1 @ F,0,0,1,0,0,0,1 @ F,0,0,1,0,0,0,1 @ F,0,0,1,0,0,0,1 @ F,0,0,1,0,0,0,1 @ F,0,0,1,0,0,0,1 @ F,0,0,1,0,0,0,1"
   radius="0"
   unit="px"
   method="auto"
   mode="F"
   chamfer_steps="1"
   flexible="false"
   use_knot_distance="true"
   apply_no_radius="true"
   apply_with_radius="true"
   only_selected="false"
   hide_knots="false" /><inkscape:path-effect
   effect="fillet_chamfer"
   id="path-effect1"
   is_visible="true"
   lpeversion="1"
   nodesatellites_param="F,0,0,1,0,7.5338088,0,1 @ F,0,0,1,0,0,0,1 @ F,0,0,1,0,0,0,1 @ F,0,0,1,0,0,0,1 @ F,0,0,1,0,0,0,1 @ F,0,0,1,0,0,0,1 @ F,0,0,1,0,0,0,1 @ F,0,0,1,0,0,0,1 @ F,0,0,1,0,0,0,1 @ F,0,0,1,0,0,0,1 @ F,0,0,1,0,0,0,1"
   radius="0"
   unit="px"
   method="auto"
   mode="F"
   chamfer_steps="1"
   flexible="false"
   use_knot_distance="true"
   apply_no_radius="true"
   apply_with_radius="true"
   only_selected="false"
   hide_knots="false" /><inkscape:path-effect
   effect="spiro"
   id="path-effect6"
   is_visible="true"
   lpeversion="1" /><inkscape:path-effect
   effect="fillet_chamfer"
   id="path-effect3"
   is_visible="true"
   lpeversion="1"
   nodesatellites_param="F,0,0,1,0,0,0,1 @ F,0,0,1,0,0,0,1 @ F,0,0,1,0,0,0,1 @ F,0,0,1,0,0,0,1 @ F,0,0,1,0,0,0,1 @ F,0,0,1,0,0,0,1 @ F,0,0,1,0,0,0,1 @ F,0,0,1,0,0,0,1 @ F,0,0,1,0,0,0,1 @ F,0,0,1,0,0,0,1 @ F,0,0,1,0,0,0,1 @ F,0,0,1,0,0,0,1 @ F,0,0,1,0,0,0,1 @ F,0,0,1,0,0,0,1 | F,0,0,1,0,6.4303233,0,1 @ F,0,0,1,0,108.16171,0,1 @ F,0,0,1,0,0,0,1 @ F,0,0,1,0,20.169484,0,1 @ F,0,0,1,0,0,0,1 @ F,0,0,1,0,0,0,1 @ F,0,0,1,0,23.329183,0,1 @ F,0,0,1,0,0,0,1 @ F,0,0,1,0,0,0,1 @ F,0,0,1,0,0,0,1 | F,0,0,1,0,0,0,1 @ F,0,0,1,0,0,0,1 @ F,0,0,1,0,0,0,1 @ F,0,0,1,0,0,0,1 @ F,0,0,1,0,0,0,1 @ F,0,0,1,0,0,0,1 | F,0,0,1,0,0,0,1 @ F,0,0,1,0,0,0,1 @ F,0,0,1,0,0,0,1 @ F,0,0,1,0,0,0,1 @ F,0,0,1,0,0,0,1 @ F,0,0,1,0,0,0,1 @ F,0,0,1,0,0,0,1 @ F,0,0,1,0,0,0,1 @ F,0,0,1,0,0,0,1 @ F,0,0,1,0,0,0,1"
   radius="0"
   unit="px"
   method="auto"
   mode="F"
   chamfer_steps="1"
   flexible="false"
   use_knot_distance="true"
   apply_no_radius="true"
   apply_with_radius="true"
   only_selected="false"
   hide_knots="false" /><inkscape:path-effect
   effect="spiro"
   id="path-effect9346"
   is_visible="true"
   lpeversion="1" />
		
	
	
	

	

		
	
	

	

	

	

	

	
</defs><g
     inkscape:label="Calque 1"
     inkscape:groupmode="layer"
     id="layer1"
     transform="translate(-100.25,-190.25)"><g
       id="g53"><path
         id="rect947"
         style="stroke-width:0.05"
         d="m 107.69182,190.25 h 65.64766 c 4.12277,0 7.44182,3.31905 7.44182,7.44182 v 65.64766 c 0,4.12277 -3.31905,7.44182 -7.44182,7.44182 h -65.64766 c -4.12277,0 -7.44182,-3.31905 -7.44182,-7.44182 v -65.64766 c 0,-4.12277 3.31905,-7.44182 7.44182,-7.44182 z" /><path
         style="font-weight:bold;font-size:7.05556px;font-family:Cantarell;-inkscape-font-specification:'Cantarell Bold';fill:#cc0000;stroke-width:0.05"
         d="m 129.449,267.02005 h 0.91017 v -1.82739 h 0.79728 c 0.007,0 0.0212,0 0.0282,0 l 1.04422,1.82739 h 1.09362 l -1.22767,-2.01789 c 0.5715,-0.26811 0.91722,-0.79728 0.91722,-1.45345 0,-0.90311 -0.65617,-1.42522 -1.73567,-1.42522 H 129.449 Z m 0.91017,-2.59645 v -1.50989 h 0.79728 c 0.5715,0 0.91017,0.28928 0.91017,0.77612 0,0.45861 -0.28223,0.73377 -0.79023,0.73377 z m 5.26345,2.66701 c 0.40216,0 0.83961,-0.0847 1.21355,-0.23989 l -0.20461,-0.62089 c -0.27516,0.11289 -0.57855,0.17639 -0.86783,0.17639 -0.61384,0 -0.99484,-0.28928 -1.10067,-0.85373 h 2.2225 c 0.0212,-0.14111 0.0423,-0.35277 0.0423,-0.508 0,-0.93839 -0.5715,-1.524 -1.48873,-1.524 -1.02305,0 -1.70744,0.72672 -1.70744,1.79211 0,1.10067 0.71966,1.77801 1.89089,1.77801 z m -0.98073,-2.08845 c 0.0494,-0.51506 0.30339,-0.79022 0.73378,-0.79022 0.4445,0 0.70556,0.28928 0.70556,0.79022 z m 5.35518,2.01789 h 0.89605 v -2.11667 c 0,-0.84667 -0.47977,-1.36878 -1.24883,-1.36878 -0.41628,0 -0.80433,0.14817 -1.10772,0.43039 l -0.15522,-0.37394 h -0.64912 v 3.429 h 0.90312 v -2.45533 c 0.20461,-0.16228 0.43744,-0.24695 0.6985,-0.24695 0.43744,0 0.66322,0.24695 0.66322,0.71261 z m 4.0005,0 h 0.64912 v -2.06022 c 0,-0.93134 -0.52917,-1.43934 -1.54517,-1.43934 -0.48684,0 -1.016,0.11995 -1.41817,0.33161 l 0.21167,0.62795 c 0.35983,-0.14111 0.6985,-0.21167 1.016,-0.21167 0.55033,0 0.84666,0.21167 0.84666,0.62089 v 0.0917 c -1.48166,0.0212 -2.13783,0.35984 -2.13783,1.08656 0,0.62089 0.45861,1.02306 1.18533,1.02306 0.43745,0 0.80434,-0.14112 1.06539,-0.40923 z m -0.23989,-0.88194 c -0.16933,0.15522 -0.39511,0.24694 -0.65616,0.24694 -0.34573,0 -0.57856,-0.17639 -0.57856,-0.43745 0,-0.31044 0.35278,-0.45155 1.23472,-0.46566 z m 1.83445,0.88194 h 0.90311 v -2.22956 c 0.20461,-0.24694 0.49389,-0.38805 0.81139,-0.38805 0.14111,0 0.31045,0.0282 0.43745,0.0776 l 0.20461,-0.8255 c -0.14111,-0.0635 -0.32456,-0.0988 -0.508,-0.0988 -0.40923,0 -0.78317,0.19756 -1.04423,0.54328 l -0.0847,-0.508 h -0.71967 z m 4.16984,0.0706 c 0.43039,0 0.79727,-0.16934 1.05127,-0.46567 l 0.1905,0.39511 h 0.57856 v -5.21406 h -0.87489 v 1.97556 c -0.21872,-0.17639 -0.50094,-0.26106 -0.8255,-0.26106 -0.96661,0 -1.60867,0.71967 -1.60867,1.81328 0,1.05834 0.61384,1.75684 1.48873,1.75684 z m 0.94544,-1.07245 c -0.15522,0.19756 -0.38805,0.31045 -0.66322,0.31045 -0.52917,0 -0.86078,-0.40923 -0.86078,-1.05128 0,-0.61384 0.31045,-0.99484 0.81845,-0.99484 0.28927,0 0.54327,0.11995 0.70555,0.32456 z"
         id="text1157"
         aria-label="Renard" /><path
         fill="#000000"
         d="m 127.79795,209.01707 c -0.54,0.0567 -1.07248,0.13102 -1.59515,0.22189 -4.18137,0.72815 -7.79261,2.52276 -9.50899,5.43973 -0.6147,1.04483 -0.29068,2.36072 0.62002,2.99073 0.91097,0.62998 2.29896,0.52844 3.47981,-0.4378 2.03855,-1.66853 4.50826,-1.43372 6.24821,-0.0941 1.74026,1.33965 2.72683,3.73337 1.48668,6.76278 -1.46786,3.58559 -2.11793,9.59914 -0.26269,15.27195 1.85525,5.67287 6.3767,10.9529 15.00057,12.5265 3.32749,0.60706 7.76148,0.7676 11.78313,-0.56446 4.18712,-1.32164 8.84791,-4.36918 9.60661,-7.21455 -0.79467,0.95364 -1.70791,1.66437 -2.69335,2.22683 1.53697,-2.20822 2.52037,-5.12338 2.5952,-8.87524 l 0.0375,-1.87779 -1.4577,1.18431 c -0.93799,0.76217 -1.83664,1.50953 -2.69778,2.09158 0.19092,-0.59306 0.34306,-1.32557 0.49982,-2.27366 -0.90484,1.57991 -2.01124,2.69287 -3.37593,3.44039 -0.89361,0.0504 -1.81749,-0.27174 -2.982,-1.23577 -1.21825,-1.00839 -2.08647,-2.89332 -2.77789,-5.30653 -0.69151,-2.41329 -1.21993,-5.31051 -1.95591,-8.24257 -1.47241,-5.86428 -3.86101,-12.02287 -10.35556,-14.52965 -3.76021,-1.45136 -7.91374,-1.90239 -11.69463,-1.50471 z m 0.18092,1.73371 c 3.51003,-0.36569 7.41807,0.0574 10.88645,1.39607 5.73805,2.21486 7.85772,7.61156 9.2932,13.32862 0.7177,2.85863 1.24309,5.75851 1.97088,8.29818 0.20956,0.73167 0.43581,1.43579 0.69099,2.10299 -1.48554,0.16918 -2.71048,-0.50739 -4.27607,-1.93122 1.03583,2.84613 1.54432,3.38591 3.06709,5.0683 -2.80263,-0.49013 -6.20479,-2.6927 -8.47225,-5.29594 0.11368,3.88719 2.71126,6.66833 4.09898,7.71718 -2.57361,-1.09609 -6.28453,-3.34562 -9.08873,-7.62214 0.34562,3.99566 2.08647,8.31132 4.75257,10.81275 -3.44347,-0.74028 -7.31407,-8.87295 -9.58254,-11.36292 -0.89882,3.33471 0.66982,8.6007 2.93855,12.3445 -2.13243,-1.98674 -3.49945,-4.41885 -4.33598,-6.9766 -1.70077,-5.20005 -1.05006,-10.96974 0.21905,-14.07045 1.49694,-3.65689 0.28205,-7.01849 -2.03604,-8.80325 -2.31836,-1.78473 -5.7638,-2.04294 -8.41466,0.12648 -0.76399,0.62547 -1.18053,0.49477 -1.385,0.35325 -0.20466,-0.14149 -0.30658,-0.33984 -0.10973,-0.67463 1.31901,-2.24181 4.44448,-3.93438 8.30631,-4.60682 0.48261,-0.084 0.97584,-0.1524 1.47719,-0.20467 z"
         id="path10067"
         style="fill:#cc0000;fill-opacity:1;stroke:#cc0000;stroke-width:0.2;stroke-dasharray:none;stroke-opacity:1" /><path
         id="path26"
         style="fill:#cc0000;fill-opacity:1;stroke:none;stroke-width:0.397412;stroke-linecap:round;stroke-linejoin:round"
         d="m 109.37059,192.225 a 7.1455797,7.1455797 0 0 0 -7.14559,7.14558 7.1455797,7.1455797 0 0 0 7.14559,7.14558 7.1455797,7.1455797 0 0 0 7.14559,-7.14558 7.1455797,7.1455797 0 0 0 -7.14559,-7.14558 z m 0.0534,2.60722 c 0.0933,0 0.18655,0.028 0.26115,0.0839 l 4.02056,3.65571 c 0.18651,0.14921 0.0745,0.41024 -0.14929,0.41024 h -0.70871 v 4.10337 c 0,0.22382 -0.1492,0.37302 -0.37302,0.37302 h -1.93164 l -0.0486,-2.0437 c -0.0118,-0.49316 -0.57716,-1.02185 -1.07045,-1.02185 -0.4933,-1e-5 -1.05872,0.52869 -1.07045,1.02185 l -0.0487,2.0437 h -1.93154 c -0.22382,0 -0.37301,-0.1492 -0.37302,-0.37302 v -4.10327 l -0.7088,-1e-4 c -0.22382,0 -0.3357,-0.26103 -0.14919,-0.41024 l 1.19528,-0.97146 v -2.07773 c 0,-0.22382 0.14921,-0.37301 0.37302,-0.37301 h 0.43948 c 0.17584,0 0.37301,0.19717 0.37301,0.37301 v 0.84672 l 1.63976,-1.45324 c 0.0746,-0.056 0.16789,-0.0839 0.26114,-0.0839 z" /><path
         id="path29"
         style="fill:#cc0000;fill-opacity:1;stroke:none;stroke-width:0.385203;stroke-linecap:round;stroke-linejoin:round"
         d="m 171.4412,192.225 c -3.82516,0 -6.9262,3.10052 -6.9262,6.92567 0,3.82516 3.10104,6.92619 6.9262,6.92619 3.82515,0 6.92567,-3.10103 6.92567,-6.92619 0,-3.82515 -3.10052,-6.92567 -6.92567,-6.92567 z m -1.41594,2.49855 c 0.63046,0.0273 1.18405,0.70066 1.26711,1.5751 0.0886,0.93273 -0.39277,1.74139 -1.07436,1.80557 -0.68158,0.0642 -1.30581,-0.63978 -1.39371,-1.57251 -0.0886,-0.93204 0.39277,-1.74036 1.07435,-1.80454 0.0426,-0.004 0.0846,-0.005 0.12661,-0.004 z m 2.91093,0 c 0.042,-0.002 0.084,-4.4e-4 0.12661,0.004 0.68159,0.0642 1.16295,0.8725 1.07436,1.80454 -0.0886,0.93273 -0.71213,1.6367 -1.39372,1.57251 -0.68159,-0.0642 -1.16295,-0.87284 -1.07435,-1.80557 0.0824,-0.87444 0.63658,-1.54781 1.2671,-1.5751 z m -5.48441,1.7756 c 0.51206,-0.0333 1.06117,0.40834 1.29862,1.08469 v 5.2e-4 a 1.332479,1.332479 0 0 1 -0.53226,1.75803 c -0.56509,0.19883 -1.24344,-0.26779 -1.51412,-1.04076 a 1.332479,1.332479 0 0 1 0.53175,-1.75855 c 0.0706,-0.0249 0.14285,-0.0392 0.21601,-0.0439 z m 7.94783,0 c 0.11047,-0.007 0.22013,0.007 0.32608,0.0439 a 1.332479,1.332479 0 0 1 0.53175,1.75855 c -0.27068,0.77297 -0.94904,1.23992 -1.51412,1.04179 a 1.332479,1.332479 0 0 1 -0.53227,-1.75958 c 0.2205,-0.62804 0.70984,-1.05371 1.18856,-1.08469 z m -3.91862,2.07171 a 4.4488057,4.4488057 0 0 1 3.14657,1.3038 1.8780281,1.8780281 0 0 1 -1.32808,3.206 1.8717494,1.8717494 0 0 1 -1.32757,-0.54983 0.69484248,0.69484248 0 0 0 -0.98237,0 1.8780281,1.8780281 0 0 1 -2.65565,-2.65617 4.4488057,4.4488057 0 0 1 3.1471,-1.3038 z" /></g></g><style
     type="text/css"
     id="style10809">
	.puchipuchi_een{fill:#111918;}
</style><style
     type="text/css"
     id="style11287">
	.st0{fill:#000000;}
</style><style
     type="text/css"
     id="style1">
<![CDATA[
	.st0{fill:#000000;}
]]>
</style><style
     type="text/css"
     id="style1-3">
	.st0{fill:#FD6A7E;}
	.st1{fill:#17B978;}
	.st2{fill:#8797EE;}
	.st3{fill:#41A6F9;}
	.st4{fill:#37E0FF;}
	.st5{fill:#2FD9B9;}
	.st6{fill:#F498BD;}
	.st7{fill:#FFDF1D;}
	.st8{fill:#C6C9CC;}
</style></svg>
