<?xml version="1.0" encoding="UTF-8" standalone="no"?>
<!-- Created with Inkscape (http://www.inkscape.org/) -->

<svg
   width="80.531303mm"
   height="80.531296mm"
   viewBox="0 0 80.531303 80.531296"
   version="1.1"
   id="svg5"
   inkscape:version="1.4.4 (dcaf3e7d9e, 2026-05-05)"
   sodipodi:docname="Salvateur.svg"
   xml:space="preserve"
   xmlns:inkscape="http://www.inkscape.org/namespaces/inkscape"
   xmlns:sodipodi="http://sodipodi.sourceforge.net/DTD/sodipodi-0.dtd"
   xmlns="http://www.w3.org/2000/svg"
   xmlns:svg="http://www.w3.org/2000/svg"
   xmlns:osb="http://www.openswatchbook.org/uri/2009/osb"><sodipodi:namedview
     id="namedview7"
     pagecolor="#ffffff"
     bordercolor="#000000"
     borderopacity="0.25"
     inkscape:showpageshadow="2"
     inkscape:pageopacity="0.0"
     inkscape:pagecheckerboard="true"
     inkscape:deskcolor="#d1d1d1"
     inkscape:document-units="mm"
     showgrid="false"
     inkscape:zoom="0.39130381"
     inkscape:cx="-669.55648"
     inkscape:cy="255.55591"
     inkscape:window-width="1920"
     inkscape:window-height="1014"
     inkscape:window-x="0"
     inkscape:window-y="0"
     inkscape:window-maximized="1"
     inkscape:current-layer="layer1"
     showguides="false" /><defs
     id="defs2"><rect
   x="488.54166"
   y="174.47917"
   width="138.54167"
   height="32.8125"
   id="rect49" /><inkscape:path-effect
   effect="spiro"
   id="path-effect3997"
   is_visible="true"
   lpeversion="1" /><style
   id="style3170">.cls-1{fill:none;stroke:#020202;stroke-miterlimit:10;stroke-width:1.91px;}</style><linearGradient
   osb:paint="solid"
   id="linearGradient5606"><stop
     style="stop-color:#000000;stop-opacity:1;"
     offset="0"
     id="stop5608" /></linearGradient><filter
   style="color-interpolation-filters:sRGB"
   id="filter7554"><feBlend
     mode="darken"
     in2="BackgroundImage"
     id="feBlend7556" /></filter>
	

	

	

	
	
<inkscape:path-effect
   effect="fillet_chamfer"
   id="path-effect3"
   is_visible="true"
   lpeversion="1"
   nodesatellites_param="F,0,0,1,0,0,0,1 @ F,0,0,1,0,0,0,1 @ F,0,0,1,0,0,0,1 @ F,0,0,1,0,0,0,1 @ F,0,0,1,0,0,0,1 @ F,0,0,1,0,0,0,1 @ F,0,0,1,0,0,0,1 @ F,0,0,1,0,0,0,1 @ F,0,0,1,0,0,0,1 @ F,0,0,1,0,0,0,1 @ F,0,0,1,0,0,0,1 @ F,0,0,1,0,0,0,1 @ F,0,0,1,0,0,0,1 @ F,0,0,1,0,0,0,1 | F,0,0,1,0,6.4303233,0,1 @ F,0,0,1,0,108.16171,0,1 @ F,0,0,1,0,0,0,1 @ F,0,0,1,0,20.169484,0,1 @ F,0,0,1,0,0,0,1 @ F,0,0,1,0,0,0,1 @ F,0,0,1,0,23.329183,0,1 @ F,0,0,1,0,0,0,1 @ F,0,0,1,0,0,0,1 @ F,0,0,1,0,0,0,1 | F,0,0,1,0,0,0,1 @ F,0,0,1,0,0,0,1 @ F,0,0,1,0,0,0,1 @ F,0,0,1,0,0,0,1 @ F,0,0,1,0,0,0,1 @ F,0,0,1,0,0,0,1 | F,0,0,1,0,0,0,1 @ F,0,0,1,0,0,0,1 @ F,0,0,1,0,0,0,1 @ F,0,0,1,0,0,0,1 @ F,0,0,1,0,0,0,1 @ F,0,0,1,0,0,0,1 @ F,0,0,1,0,0,0,1 @ F,0,0,1,0,0,0,1 @ F,0,0,1,0,0,0,1 @ F,0,0,1,0,0,0,1"
   radius="0"
   unit="px"
   method="auto"
   mode="F"
   chamfer_steps="1"
   flexible="false"
   use_knot_distance="true"
   apply_no_radius="true"
   apply_with_radius="true"
   only_selected="false"
   hide_knots="false" /></defs><g
     inkscape:label="Calque 1"
     inkscape:groupmode="layer"
     id="layer1"
     transform="translate(-370.25,-10.25)"><g
       id="g4"><path
         id="rect929"
         style="fill:#000000;fill-opacity:1;stroke:none;stroke-width:0.05"
         d="m 377.69182,10.25 h 65.64766 c 4.12277,0 7.44182,3.31905 7.44182,7.441816 v 65.647663 c 0,4.122767 -3.31905,7.441817 -7.44182,7.441817 h -65.64766 c -4.12277,0 -7.44182,-3.31905 -7.44182,-7.441817 V 17.691816 c 0,-4.122766 3.31905,-7.441816 7.44182,-7.441816 z" /><path
         style="font-weight:bold;font-size:7.05556px;font-family:Cantarell;-inkscape-font-specification:'Cantarell Bold';fill:#cc0000;fill-opacity:1;stroke-width:0.05"
         d="m 396.97935,87.090606 c 1.19239,0 1.91205,-0.592667 1.91205,-1.50989 0,-1.770946 -2.57527,-1.157112 -2.57527,-2.14489 0,-0.373945 0.33866,-0.585612 0.9525,-0.585612 0.40216,0 0.84666,0.07761 1.19944,0.211667 l 0.26106,-0.719667 c -0.41628,-0.183445 -0.92428,-0.289278 -1.41112,-0.289278 -1.16416,0 -1.94733,0.599722 -1.94733,1.524001 0,1.672167 2.56822,1.121834 2.56822,2.116668 0,0.359833 -0.3175,0.578556 -0.91722,0.578556 -0.4445,0 -0.98778,-0.09878 -1.47461,-0.303389 l -0.26106,0.733778 c 0.52212,0.239889 1.12889,0.388056 1.69334,0.388056 z m 4.79072,-0.07056 h 0.64911 v -2.060224 c 0,-0.931333 -0.52916,-1.439334 -1.54516,-1.439334 -0.48684,0 -1.016,0.119945 -1.41817,0.331612 l 0.21167,0.627944 c 0.35983,-0.141111 0.6985,-0.211666 1.016,-0.211666 0.55033,0 0.84666,0.211666 0.84666,0.620889 v 0.09172 c -1.48166,0.02117 -2.13783,0.359834 -2.13783,1.086556 0,0.62089 0.45861,1.023057 1.18533,1.023057 0.43745,0 0.80434,-0.141112 1.06539,-0.409223 z m -0.23989,-0.881945 c -0.16933,0.155222 -0.39511,0.246945 -0.65616,0.246945 -0.34573,0 -0.57856,-0.176389 -0.57856,-0.437445 0,-0.310445 0.35278,-0.451556 1.23472,-0.465667 z m 2.79401,0.931334 c 0.22577,0 0.47272,-0.04233 0.65616,-0.127 l -0.18344,-0.599723 c -0.0776,0.02822 -0.15522,0.04233 -0.21872,0.04233 -0.21167,0 -0.32456,-0.141112 -0.32456,-0.381001 v -4.198058 h -0.889 v 4.310947 c 0,0.592667 0.35983,0.952501 0.95956,0.952501 z m 2.03906,-0.04939 h 0.89605 l 1.3335,-3.429002 h -0.90311 l -0.85372,2.561168 -0.81139,-2.561168 h -0.99484 z m 4.91066,0 h 0.64911 v -2.060224 c 0,-0.931333 -0.52916,-1.439334 -1.54516,-1.439334 -0.48684,0 -1.016,0.119945 -1.41817,0.331612 l 0.21167,0.627944 c 0.35983,-0.141111 0.6985,-0.211666 1.016,-0.211666 0.55033,0 0.84666,0.211666 0.84666,0.620889 v 0.09172 c -1.48166,0.02117 -2.13783,0.359834 -2.13783,1.086556 0,0.62089 0.45861,1.023057 1.18533,1.023057 0.43745,0 0.80434,-0.141112 1.06539,-0.409223 z M 411.03402,86.1381 c -0.16933,0.155222 -0.39511,0.246945 -0.65616,0.246945 -0.34573,0 -0.57856,-0.176389 -0.57856,-0.437445 0,-0.310445 0.35278,-0.451556 1.23472,-0.465667 z m 3.19617,0.931334 c 0.23284,0 0.48684,-0.04939 0.70556,-0.119945 l -0.18345,-0.642056 c -0.0988,0.04233 -0.21872,0.0635 -0.32455,0.0635 -0.32456,0 -0.52917,-0.190501 -0.52917,-0.486834 v -1.57339 h 0.86078 v -0.719667 h -0.86078 v -0.994834 h -0.889 v 0.994834 h -0.47978 v 0.719667 h 0.47978 v 1.629834 c 0,0.691445 0.45861,1.12889 1.22061,1.128891 z m 3.01978,0.02117 c 0.40217,0 0.83961,-0.08467 1.21356,-0.239889 l -0.20462,-0.62089 c -0.27516,0.112889 -0.57855,0.176389 -0.86783,0.176389 -0.61383,0 -0.99483,-0.289278 -1.10067,-0.853722 h 2.2225 c 0.0212,-0.141112 0.0423,-0.352778 0.0423,-0.508001 0,-0.938389 -0.5715,-1.524001 -1.48872,-1.524001 -1.02306,0 -1.70745,0.726723 -1.70745,1.792113 0,1.100667 0.71967,1.778001 1.89089,1.778001 z m -0.98072,-2.088446 c 0.0494,-0.515056 0.30339,-0.790223 0.73378,-0.790223 0.4445,0 0.70555,0.289278 0.70555,0.790223 z m 4.22628,2.074335 c 0.40217,0 0.78317,-0.155223 1.07245,-0.43039 l 0.16227,0.373945 h 0.64206 v -3.429002 h -0.90311 v 2.46239 c -0.1905,0.155223 -0.40922,0.239889 -0.64206,0.239889 -0.48683,0 -0.635,-0.373944 -0.635,-0.712611 v -1.989668 h -0.89605 v 2.187223 c 0,0.790223 0.48683,1.298224 1.19944,1.298224 z m 2.89278,-0.05644 h 0.90311 v -2.229557 c 0.20461,-0.246945 0.49389,-0.388056 0.81139,-0.388056 0.14111,0 0.31044,0.02822 0.43744,0.07761 l 0.20461,-0.8255 c -0.14111,-0.0635 -0.32455,-0.09878 -0.508,-0.09878 -0.40922,0 -0.78316,0.197556 -1.04422,0.543278 l -0.0847,-0.508 h -0.71966 z"
         id="text1257"
         aria-label="Salvateur" /><path
         d="m 390.1205,26.439 v 23.794302 c 0,7.043113 5.09198,12.559991 9.6265,16.618619 2.80935,2.497926 5.8352,4.741154 9.04183,6.703195 l 1.75398,1.036752 1.74038,-1.053748 c 0,0 4.48693,-2.719349 9.00785,-6.80517 4.52091,-4.09262 9.61969,-9.551713 9.61969,-16.499648 V 26.439 Z m 1.88179,1.881785 h 37.02666 v 21.912517 c -0.81866,10.143463 -9.88395,16.700733 -18.53373,22.06643 -8.53487,-5.376754 -17.80135,-11.79906 -18.49293,-22.06643 z"
         font-family="sans-serif"
         font-weight="400"
         overflow="visible"
         style="color:#bebebe;font-variant-ligatures:normal;font-variant-position:normal;font-variant-caps:normal;font-variant-numeric:normal;font-variant-alternates:normal;font-feature-settings:normal;text-indent:0;text-decoration-line:none;text-decoration-style:solid;text-decoration-color:#000000;text-transform:none;text-orientation:mixed;shape-padding:0;isolation:auto;mix-blend-mode:normal;fill:#cc0000;fill-opacity:1;stroke:none;stroke-width:0.00743297;stroke-linejoin:round;stroke-dasharray:none;stroke-opacity:1"
         id="path825"
         sodipodi:nodetypes="cscccccscccccccc" /><path
         d="m 409.11128,31.361083 v 36.348749 c -1.95293,-1.367051 -2.70155,-1.650689 -5.37521,-4.068605 -5.06367,-4.57544 -8.5743,-10.545829 -8.5743,-12.205821 V 31.361083 Z"
         overflow="visible"
         id="path827"
         style="color:#bebebe;fill:#cc0000;fill-opacity:1;stroke:#cc0000;stroke-width:2.67874;stroke-dasharray:none;stroke-opacity:1"
         sodipodi:nodetypes="cccscc" /><path
         id="path23"
         style="fill:#cc0000;fill-opacity:1;stroke:none;stroke-width:0.397412;stroke-linecap:round;stroke-linejoin:round"
         d="m 379.37059,12.225 a 7.1455797,7.1455797 0 0 0 -7.14559,7.145577 7.1455797,7.1455797 0 0 0 7.14559,7.145584 7.1455797,7.1455797 0 0 0 7.14558,-7.145584 7.1455797,7.1455797 0 0 0 -7.14558,-7.145577 z m 0.0534,2.60722 c 0.0933,0 0.18655,0.028 0.26115,0.0839 l 4.02056,3.655717 c 0.18651,0.14921 0.0745,0.41023 -0.14929,0.41023 h -0.70871 v 4.103377 c 0,0.22382 -0.1492,0.37301 -0.37302,0.37302 h -1.93164 l -0.0486,-2.04371 c -0.0118,-0.49316 -0.57716,-1.021847 -1.07045,-1.021847 -0.4933,0 -1.05872,0.528687 -1.07045,1.021847 l -0.0487,2.04371 h -1.93154 c -0.22382,0 -0.37301,-0.1492 -0.37302,-0.37302 v -4.103277 l -0.7088,-10e-5 c -0.22382,0 -0.3357,-0.26102 -0.14919,-0.41023 l 1.19528,-0.97146 v -2.07773 c 0,-0.223827 0.14921,-0.373027 0.37302,-0.373027 h 0.43948 c 0.17584,0 0.37301,0.19717 0.37301,0.373027 v 0.84671 l 1.63976,-1.453237 c 0.0746,-0.056 0.16789,-0.0839 0.26114,-0.0839 z" /><path
         id="path24"
         style="fill:#cc0000;fill-opacity:1;stroke:none;stroke-width:0.397412;stroke-linecap:round;stroke-linejoin:round"
         d="m 441.66057,12.225 c -3.94641,0 -7.14558,3.19918 -7.14557,7.145577 -10e-6,3.946407 3.19916,7.145584 7.14557,7.145584 3.94641,0 7.14559,-3.199177 7.14558,-7.145584 0,-3.946397 -3.19917,-7.145577 -7.14558,-7.145577 z m 0.13193,2.12294 c 1.73876,-10e-6 3.14833,1.409517 3.14838,3.148277 2e-5,1.46652 -1.01249,2.73883 -2.44157,3.06806 1.6281,0.27559 2.97848,1.412847 3.52698,2.970347 h -8.57058 c 0.55588,-1.5785 1.93454,-2.723587 3.58826,-2.980327 -1.40888,-0.34484 -2.39985,-1.60761 -2.39986,-3.05808 5e-5,-1.73877 1.40962,-3.148287 3.14839,-3.148277 z"
         sodipodi:nodetypes="ssssssscccccs" /></g></g><style
     type="text/css"
     id="style1397">
<![CDATA[
	.st0{fill:#000000;}
]]>
</style><style
     type="text/css"
     id="style1">
<![CDATA[
	.st0{fill:#000000;}
]]>
</style></svg>
