<?xml version="1.0" encoding="UTF-8" standalone="no"?>
<!-- Created with Inkscape (http://www.inkscape.org/) -->

<svg
   width="80.531296mm"
   height="80.531303mm"
   viewBox="0 0 80.531296 80.531303"
   version="1.1"
   id="svg5"
   inkscape:version="1.4.4 (dcaf3e7d9e, 2026-05-05)"
   sodipodi:docname="Soeurs.svg"
   xml:space="preserve"
   xmlns:inkscape="http://www.inkscape.org/namespaces/inkscape"
   xmlns:sodipodi="http://sodipodi.sourceforge.net/DTD/sodipodi-0.dtd"
   xmlns="http://www.w3.org/2000/svg"
   xmlns:svg="http://www.w3.org/2000/svg"><sodipodi:namedview
     id="namedview7"
     pagecolor="#ffffff"
     bordercolor="#000000"
     borderopacity="0.25"
     inkscape:showpageshadow="2"
     inkscape:pageopacity="0.0"
     inkscape:pagecheckerboard="true"
     inkscape:deskcolor="#d1d1d1"
     inkscape:document-units="mm"
     showgrid="false"
     inkscape:zoom="0.62827759"
     inkscape:cx="1015.4747"
     inkscape:cy="79.582657"
     inkscape:window-width="1920"
     inkscape:window-height="1014"
     inkscape:window-x="0"
     inkscape:window-y="0"
     inkscape:window-maximized="1"
     inkscape:current-layer="layer1"
     showguides="false" /><defs
     id="defs2"><inkscape:path-effect
   effect="fillet_chamfer"
   id="path-effect2"
   is_visible="true"
   lpeversion="1"
   nodesatellites_param="F,0,0,1,0,0,0,1 @ F,0,0,1,0,0,0,1 @ F,0,0,1,0,0,0,1 @ F,0,0,1,0,0,0,1 @ F,0,0,1,0,0,0,1 @ F,0,0,1,0,0,0,1 @ F,0,0,1,0,0,0,1 @ F,0,0,1,0,0,0,1 @ F,0,0,1,0,0,0,1"
   radius="0"
   unit="px"
   method="auto"
   mode="F"
   chamfer_steps="1"
   flexible="false"
   use_knot_distance="true"
   apply_no_radius="true"
   apply_with_radius="true"
   only_selected="false"
   hide_knots="false" /><inkscape:path-effect
   effect="fillet_chamfer"
   id="path-effect1"
   is_visible="true"
   lpeversion="1"
   nodesatellites_param="F,0,0,1,0,7.5338088,0,1 @ F,0,0,1,0,0,0,1 @ F,0,0,1,0,0,0,1 @ F,0,0,1,0,0,0,1 @ F,0,0,1,0,0,0,1 @ F,0,0,1,0,0,0,1 @ F,0,0,1,0,0,0,1 @ F,0,0,1,0,0,0,1 @ F,0,0,1,0,0,0,1 @ F,0,0,1,0,0,0,1 @ F,0,0,1,0,0,0,1"
   radius="0"
   unit="px"
   method="auto"
   mode="F"
   chamfer_steps="1"
   flexible="false"
   use_knot_distance="true"
   apply_no_radius="true"
   apply_with_radius="true"
   only_selected="false"
   hide_knots="false" /><inkscape:path-effect
   effect="spiro"
   id="path-effect6"
   is_visible="true"
   lpeversion="1" /><inkscape:path-effect
   effect="fillet_chamfer"
   id="path-effect3"
   is_visible="true"
   lpeversion="1"
   nodesatellites_param="F,0,0,1,0,0,0,1 @ F,0,0,1,0,0,0,1 @ F,0,0,1,0,0,0,1 @ F,0,0,1,0,0,0,1 @ F,0,0,1,0,0,0,1 @ F,0,0,1,0,0,0,1 @ F,0,0,1,0,0,0,1 @ F,0,0,1,0,0,0,1 @ F,0,0,1,0,0,0,1 @ F,0,0,1,0,0,0,1 @ F,0,0,1,0,0,0,1 @ F,0,0,1,0,0,0,1 @ F,0,0,1,0,0,0,1 @ F,0,0,1,0,0,0,1 | F,0,0,1,0,6.4303233,0,1 @ F,0,0,1,0,108.16171,0,1 @ F,0,0,1,0,0,0,1 @ F,0,0,1,0,20.169484,0,1 @ F,0,0,1,0,0,0,1 @ F,0,0,1,0,0,0,1 @ F,0,0,1,0,23.329183,0,1 @ F,0,0,1,0,0,0,1 @ F,0,0,1,0,0,0,1 @ F,0,0,1,0,0,0,1 | F,0,0,1,0,0,0,1 @ F,0,0,1,0,0,0,1 @ F,0,0,1,0,0,0,1 @ F,0,0,1,0,0,0,1 @ F,0,0,1,0,0,0,1 @ F,0,0,1,0,0,0,1 | F,0,0,1,0,0,0,1 @ F,0,0,1,0,0,0,1 @ F,0,0,1,0,0,0,1 @ F,0,0,1,0,0,0,1 @ F,0,0,1,0,0,0,1 @ F,0,0,1,0,0,0,1 @ F,0,0,1,0,0,0,1 @ F,0,0,1,0,0,0,1 @ F,0,0,1,0,0,0,1 @ F,0,0,1,0,0,0,1"
   radius="0"
   unit="px"
   method="auto"
   mode="F"
   chamfer_steps="1"
   flexible="false"
   use_knot_distance="true"
   apply_no_radius="true"
   apply_with_radius="true"
   only_selected="false"
   hide_knots="false" /><inkscape:path-effect
   effect="spiro"
   id="path-effect9346"
   is_visible="true"
   lpeversion="1" />
		
	
	
	

	

		
	
	

	

	

	

	

	
</defs><g
     inkscape:label="Calque 1"
     inkscape:groupmode="layer"
     id="layer1"
     transform="translate(-10.25,-100.25)"><g
       id="g54"><path
         id="rect933"
         style="opacity:1;stroke-width:0.05"
         d="m 17.691816,100.25 h 65.647663 c 4.122767,0 7.441817,3.31905 7.441817,7.44182 v 65.64766 c 0,4.12277 -3.31905,7.44182 -7.441817,7.44182 H 17.691816 c -4.122766,0 -7.441816,-3.31905 -7.441816,-7.44182 v -65.64766 c 0,-4.12277 3.31905,-7.44182 7.441816,-7.44182 z" /><path
         style="font-weight:bold;font-size:7.05605px;font-family:Cantarell;-inkscape-font-specification:'Cantarell Bold';fill:#cc0000;stroke-width:0.0500035"
         d="m 42.901966,176.84401 c 1.192473,0 1.91219,-0.5927 1.91219,-1.50999 0,-1.77107 -2.575459,-1.15719 -2.575459,-2.14504 0,-0.37397 0.338691,-0.58565 0.952567,-0.58565 0.402195,0 0.846726,0.0776 1.199529,0.21168 l 0.261073,-0.71972 c -0.416306,-0.18346 -0.924342,-0.2893 -1.411209,-0.2893 -1.164249,0 -1.94747,0.59977 -1.94747,1.52411 0,1.67228 2.568402,1.12191 2.568402,2.11682 0,0.35985 -0.317522,0.57859 -0.917287,0.57859 -0.444531,0 -0.987847,-0.0988 -1.474714,-0.30341 l -0.261074,0.73383 c 0.522148,0.23991 1.128968,0.38808 1.693452,0.38808 z m 4.134845,0 c 1.079575,0 1.806349,-0.74088 1.806349,-1.84163 0,-1.05135 -0.670325,-1.72873 -1.700508,-1.72873 -1.086632,0 -1.813405,0.73383 -1.813405,1.84163 0,1.0443 0.663268,1.72873 1.707564,1.72873 z m 0.07762,-0.76205 c -0.529203,0 -0.87495,-0.40925 -0.87495,-1.0443 0,-0.62093 0.317522,-1.00195 0.818502,-1.00195 0.529204,0 0.87495,0.4163 0.87495,1.0584 0,0.60682 -0.317522,0.98785 -0.818502,0.98785 z m 4.212467,0.76205 c 0.402195,0 0.83967,-0.0847 1.213641,-0.2399 l -0.204626,-0.62093 c -0.275186,0.11289 -0.578596,0.1764 -0.867894,0.1764 -0.613876,0 -0.994903,-0.2893 -1.100744,-0.85379 h 2.222656 c 0.02117,-0.14112 0.04234,-0.3528 0.04234,-0.50803 0,-0.93846 -0.57154,-1.52411 -1.488826,-1.52411 -1.023127,0 -1.707564,0.72678 -1.707564,1.79224 0,1.10074 0.719717,1.77812 1.891021,1.77812 z m -0.980791,-2.08859 c 0.04939,-0.51509 0.30341,-0.79028 0.733829,-0.79028 0.444532,0 0.705605,0.2893 0.705605,0.79028 z m 4.226579,2.07448 c 0.402195,0 0.783221,-0.15523 1.072519,-0.43042 l 0.16229,0.37397 h 0.6421 v -3.42924 h -0.903174 v 2.46256 c -0.190514,0.15524 -0.409251,0.23991 -0.642101,0.23991 -0.486867,0 -0.635044,-0.37397 -0.635044,-0.71266 v -1.98981 h -0.896119 v 2.18738 c 0,0.79028 0.486868,1.29831 1.199529,1.29831 z m 2.892974,-0.0565 h 0.903175 v -2.22971 c 0.204625,-0.24696 0.493923,-0.38808 0.811445,-0.38808 0.141121,0 0.310467,0.0282 0.437475,0.0776 l 0.204626,-0.82555 c -0.141121,-0.0635 -0.324578,-0.0988 -0.508036,-0.0988 -0.409251,0 -0.783221,0.19757 -1.044295,0.54332 l -0.08467,-0.50804 h -0.719717 z"
         id="text1145"
         aria-label="Soeur" /><path
         style="fill:#cc0000;fill-opacity:1;stroke:none;stroke-width:0.162315;stroke-dasharray:none;stroke-opacity:1"
         d="m 28.25866,166.01757 c -4.867229,-2.60159 -0.15549,-12.20371 7.795908,-15.88739 3.342165,-1.54834 3.441842,-1.68097 3.144999,-4.18494 -0.06748,-0.5693 -0.142527,-1.35068 -0.16675,-1.7364 -0.04404,-0.70132 -0.04404,-0.70132 -1.828188,-2.86325 -2.114916,-2.56274 -2.218614,-2.76985 -1.774964,-3.54502 0.629808,-1.10042 1.266967,-0.71236 3.8051,2.31746 2.350796,2.8062 2.674716,3.10156 3.834674,3.49664 0.923255,0.31446 3.863341,0.4687 4.1646,0.2185 0.03654,-0.0304 -0.547918,-0.80139 -1.298847,-1.71339 -1.791976,-2.17635 -1.892828,-2.4676 -1.086366,-3.13742 0.835875,-0.69424 1.033185,-0.5669 3.279533,2.11646 1.774206,2.11938 1.774206,2.11938 3.029973,1.60943 2.634587,-1.06985 2.592691,-0.90009 0.768217,-3.11272 -2.008968,-2.43638 -2.125649,-2.71616 -1.401499,-3.36049 0.848369,-0.75485 1.15983,-0.57059 3.250621,1.92312 1.963905,2.34237 1.716918,2.32219 4.072502,0.3328 0.72976,-0.61631 0.72976,-0.61631 -0.779735,-2.42423 -1.855735,-2.22261 -2.078616,-2.72177 -1.48634,-3.32876 0.826433,-0.84697 1.243288,-0.62214 3.215777,1.73439 1.514049,1.80882 1.514049,1.80882 2.449666,0.8936 2.045798,-2.00121 2.017151,-1.54346 0.237184,-3.7902 -1.997278,-2.52105 -2.13628,-2.88256 -1.35717,-3.52965 0.787207,-0.65382 1.227288,-0.38173 3.004692,1.85775 1.685556,2.12376 1.444904,2.04027 2.401416,0.8331 1.759522,-2.22061 1.778839,-1.82212 -0.203524,-4.19843 -2.27005,-2.72117 -2.511175,-3.42416 -1.337565,-3.89967 0.792265,-0.32099 0.967984,-0.19518 2.836004,2.03058 0.965673,1.1506 1.449865,1.65247 1.496866,1.55152 1.08081,-2.32135 0.659936,-3.67643 -2.238005,-7.20562 -2.541237,-3.09479 -2.736771,-3.57014 -1.739389,-4.22844 0.773284,-0.5104 0.936913,-0.39529 3.106008,2.18504 1.799792,2.14101 1.991748,2.33505 2.473361,2.50023 7.082895,2.42932 6.243434,12.26626 -1.758497,20.60637 -6.034238,6.28926 -11.531224,9.45708 -17.915148,10.3242 -2.652067,0.36023 -3.374207,0.60429 -4.985196,1.68484 -0.911584,0.61143 -1.00899,0.75145 -1.942063,2.79163 -3.543711,7.74837 -11.041234,13.29064 -15.067855,11.13836 z m 3.518405,-2.27293 c 3.98273,-1.57588 7.12116,-4.83993 9.424222,-9.80145 1.034526,-2.22869 1.32243,-2.69275 2.01335,-3.24524 2.026496,-1.62047 3.456344,-2.1569 7.040794,-2.64142 10.601021,-1.43297 23.976225,-15.07558 22.097758,-22.53954 -0.328248,-1.30427 -1.355817,-3.05631 -1.266555,-2.15951 0.388534,3.9034 -2.796745,8.74916 -10.268019,15.62072 -6.522302,5.99876 -13.776609,8.62237 -18.695175,6.76133 -0.699327,-0.2646 -0.648801,-0.33461 -0.545569,0.75598 0.246093,2.5998 -0.57962,3.9063 -3.241177,5.1284 -3.5214,1.61691 -5.157029,2.80132 -6.975949,5.0515 -3.892418,4.81529 -3.664582,8.68395 0.41632,7.06923 z m 14.10776,-26.67994 c -0.316229,-0.21255 -1.999543,-2.23619 -2.139196,-2.57168 -0.352359,-0.84648 0.441834,-1.73701 1.341514,-1.50424 0.435955,0.1128 2.190192,2.01098 2.449386,2.65037 0.432444,1.06678 -0.713729,2.05601 -1.651704,1.42555 z m -8.051409,-2.3226 c -1.607676,-1.93566 -1.738616,-2.62175 -0.588163,-3.08182 1.349091,-0.53952 4.374332,3.60172 3.289389,4.50282 -0.769381,0.63902 -1.161649,0.43267 -2.701226,-1.421 z m 13.304712,-1.34885 c -0.938169,-0.20347 -2.858405,-2.95428 -2.582075,-3.69893 0.611365,-1.64751 4.137695,0.84965 3.946187,2.79448 -0.04787,0.48611 -0.709266,1.16812 -0.972354,1.00266 -0.01769,-0.0111 -0.193975,-0.0553 -0.391759,-0.0982 z m -9.682592,-4.02668 c -1.779335,-2.14234 -1.870484,-2.41143 -1.048146,-3.09443 0.757749,-0.62936 0.995194,-0.49159 2.752928,1.59728 1.75848,2.08976 1.912531,2.49347 1.195066,3.13185 -0.775411,0.68994 -1.139621,0.48463 -2.899848,-1.6347 z m 14.198161,-0.0474 c -1.607137,-0.90534 -2.847125,-3.62961 -1.898543,-4.17111 1.327723,-0.75794 4.345748,2.89772 3.287586,3.98217 -0.418417,0.42882 -0.857262,0.48851 -1.389043,0.18894 z m -8.229912,-2.50944 c -2.218613,-1.78503 -3.573119,-4.4766 -2.57708,-5.12097 1.196151,-0.77383 5.021519,3.69072 4.212231,4.91605 -0.302014,0.45727 -1.184107,0.56782 -1.635151,0.20492 z m 11.944948,-1.53588 c -0.317255,-0.21313 -2.193376,-2.46994 -2.333974,-2.80757 -0.340024,-0.81652 0.232186,-1.57333 1.126946,-1.49051 0.711283,0.0658 2.924408,2.62521 2.861136,3.30876 -0.08651,0.93453 -0.958937,1.45633 -1.654108,0.98932 z m -6.816402,-2.03165 c -0.316796,-0.21252 -2.968132,-3.40295 -3.109392,-3.74162 -0.407766,-0.97763 0.421418,-1.96532 1.370835,-1.63289 0.313102,0.10964 3.275379,3.559 3.478973,4.05102 0.114207,0.27603 0.03801,0.69845 -0.211092,1.17024 -0.187136,0.35444 -1.093962,0.4453 -1.529328,0.15325 z m 5.367889,-3.2748 c -0.316881,-0.21264 -2.774394,-3.16965 -2.915526,-3.50812 -0.36397,-0.8729 0.272016,-1.67741 1.254174,-1.5865 0.457192,0.0423 3.406205,3.43301 3.491096,4.01397 0.143965,0.98521 -0.981437,1.64988 -1.829744,1.08065 z"
         id="path8802" /><path
         id="path19"
         style="fill:#cc0000;fill-opacity:1;stroke:none;stroke-width:0.397412;stroke-linecap:round;stroke-linejoin:round"
         d="m 81.66057,102.225 c -3.946409,0 -7.14558,3.19917 -7.14557,7.14556 -1e-5,3.9464 3.199161,7.14558 7.14557,7.14558 3.94641,0 7.145591,-3.19918 7.145581,-7.14558 0,-3.94639 -3.199171,-7.14556 -7.145581,-7.14556 z m 0.13193,2.12293 c 1.738761,-1e-5 3.14833,1.40952 3.14838,3.14828 2e-5,1.4665 -1.01249,2.73881 -2.44157,3.06804 1.6281,0.27559 2.97848,1.41285 3.52698,2.97035 h -8.570579 c 0.55588,-1.5785 1.934539,-2.72359 3.588259,-2.98033 -1.40888,-0.34484 -2.39985,-1.6076 -2.39986,-3.05806 5e-5,-1.73876 1.40962,-3.14829 3.14839,-3.14828 z"
         sodipodi:nodetypes="ssssssscccccs" /><path
         id="path20"
         style="fill:#cc0000;fill-opacity:1;stroke:none;stroke-width:0.397412;stroke-linecap:round;stroke-linejoin:round"
         d="m 19.37059,102.225 a 7.1455797,7.1455797 0 0 0 -7.14559,7.14558 7.1455797,7.1455797 0 0 0 7.14559,7.14558 7.1455797,7.1455797 0 0 0 7.14558,-7.14558 7.1455797,7.1455797 0 0 0 -7.14558,-7.14558 z m 0.0534,2.60722 c 0.0933,0 0.18655,0.028 0.26115,0.0839 l 4.02056,3.65571 c 0.18651,0.14921 0.0745,0.41024 -0.14929,0.41024 H 22.8477 v 4.10337 c 0,0.22382 -0.1492,0.37302 -0.37302,0.37302 h -1.93164 l -0.0486,-2.0437 c -0.0118,-0.49316 -0.57716,-1.02185 -1.07045,-1.02185 -0.4933,-1e-5 -1.05872,0.52869 -1.07045,1.02185 l -0.0487,2.0437 H 16.3733 c -0.22382,0 -0.37301,-0.1492 -0.37302,-0.37302 v -4.10327 l -0.7088,-1e-4 c -0.22382,0 -0.3357,-0.26103 -0.14919,-0.41024 l 1.19528,-0.97146 v -2.07773 c 0,-0.22382 0.14921,-0.37301 0.37302,-0.37301 h 0.43948 c 0.17584,0 0.37301,0.19717 0.37301,0.37301 v 0.84672 l 1.63976,-1.45324 c 0.0746,-0.056 0.16789,-0.0839 0.26114,-0.0839 z" /></g></g><style
     type="text/css"
     id="style10809">
	.puchipuchi_een{fill:#111918;}
</style><style
     type="text/css"
     id="style11287">
	.st0{fill:#000000;}
</style><style
     type="text/css"
     id="style1">
<![CDATA[
	.st0{fill:#000000;}
]]>
</style><style
     type="text/css"
     id="style1-3">
	.st0{fill:#FD6A7E;}
	.st1{fill:#17B978;}
	.st2{fill:#8797EE;}
	.st3{fill:#41A6F9;}
	.st4{fill:#37E0FF;}
	.st5{fill:#2FD9B9;}
	.st6{fill:#F498BD;}
	.st7{fill:#FFDF1D;}
	.st8{fill:#C6C9CC;}
</style></svg>
