<?xml version="1.0" encoding="UTF-8" standalone="no"?>
<!-- Created with Inkscape (http://www.inkscape.org/) -->

<svg
   width="80.531303mm"
   height="80.531303mm"
   viewBox="0 0 80.531303 80.531303"
   version="1.1"
   id="svg5"
   inkscape:version="1.4.4 (dcaf3e7d9e, 2026-05-05)"
   sodipodi:docname="Sorcière.svg"
   xml:space="preserve"
   xmlns:inkscape="http://www.inkscape.org/namespaces/inkscape"
   xmlns:sodipodi="http://sodipodi.sourceforge.net/DTD/sodipodi-0.dtd"
   xmlns="http://www.w3.org/2000/svg"
   xmlns:svg="http://www.w3.org/2000/svg"><sodipodi:namedview
     id="namedview7"
     pagecolor="#ffffff"
     bordercolor="#000000"
     borderopacity="0.25"
     inkscape:showpageshadow="2"
     inkscape:pageopacity="0.0"
     inkscape:pagecheckerboard="true"
     inkscape:deskcolor="#d1d1d1"
     inkscape:document-units="mm"
     showgrid="false"
     inkscape:zoom="0.62827759"
     inkscape:cx="155.98201"
     inkscape:cy="14.324878"
     inkscape:window-width="1920"
     inkscape:window-height="1014"
     inkscape:window-x="0"
     inkscape:window-y="0"
     inkscape:window-maximized="1"
     inkscape:current-layer="layer1"
     showguides="false" /><defs
     id="defs2"><inkscape:path-effect
   effect="fillet_chamfer"
   id="path-effect2"
   is_visible="true"
   lpeversion="1"
   nodesatellites_param="F,0,0,1,0,0,0,1 @ F,0,0,1,0,0,0,1 @ F,0,0,1,0,0,0,1 @ F,0,0,1,0,0,0,1 @ F,0,0,1,0,0,0,1 @ F,0,0,1,0,0,0,1 @ F,0,0,1,0,0,0,1 @ F,0,0,1,0,0,0,1 @ F,0,0,1,0,0,0,1"
   radius="0"
   unit="px"
   method="auto"
   mode="F"
   chamfer_steps="1"
   flexible="false"
   use_knot_distance="true"
   apply_no_radius="true"
   apply_with_radius="true"
   only_selected="false"
   hide_knots="false" /><inkscape:path-effect
   effect="fillet_chamfer"
   id="path-effect1"
   is_visible="true"
   lpeversion="1"
   nodesatellites_param="F,0,0,1,0,7.5338088,0,1 @ F,0,0,1,0,0,0,1 @ F,0,0,1,0,0,0,1 @ F,0,0,1,0,0,0,1 @ F,0,0,1,0,0,0,1 @ F,0,0,1,0,0,0,1 @ F,0,0,1,0,0,0,1 @ F,0,0,1,0,0,0,1 @ F,0,0,1,0,0,0,1 @ F,0,0,1,0,0,0,1 @ F,0,0,1,0,0,0,1"
   radius="0"
   unit="px"
   method="auto"
   mode="F"
   chamfer_steps="1"
   flexible="false"
   use_knot_distance="true"
   apply_no_radius="true"
   apply_with_radius="true"
   only_selected="false"
   hide_knots="false" /><inkscape:path-effect
   effect="spiro"
   id="path-effect6"
   is_visible="true"
   lpeversion="1" /><inkscape:path-effect
   effect="fillet_chamfer"
   id="path-effect3"
   is_visible="true"
   lpeversion="1"
   nodesatellites_param="F,0,0,1,0,0,0,1 @ F,0,0,1,0,0,0,1 @ F,0,0,1,0,0,0,1 @ F,0,0,1,0,0,0,1 @ F,0,0,1,0,0,0,1 @ F,0,0,1,0,0,0,1 @ F,0,0,1,0,0,0,1 @ F,0,0,1,0,0,0,1 @ F,0,0,1,0,0,0,1 @ F,0,0,1,0,0,0,1 @ F,0,0,1,0,0,0,1 @ F,0,0,1,0,0,0,1 @ F,0,0,1,0,0,0,1 @ F,0,0,1,0,0,0,1 | F,0,0,1,0,6.4303233,0,1 @ F,0,0,1,0,108.16171,0,1 @ F,0,0,1,0,0,0,1 @ F,0,0,1,0,20.169484,0,1 @ F,0,0,1,0,0,0,1 @ F,0,0,1,0,0,0,1 @ F,0,0,1,0,23.329183,0,1 @ F,0,0,1,0,0,0,1 @ F,0,0,1,0,0,0,1 @ F,0,0,1,0,0,0,1 | F,0,0,1,0,0,0,1 @ F,0,0,1,0,0,0,1 @ F,0,0,1,0,0,0,1 @ F,0,0,1,0,0,0,1 @ F,0,0,1,0,0,0,1 @ F,0,0,1,0,0,0,1 | F,0,0,1,0,0,0,1 @ F,0,0,1,0,0,0,1 @ F,0,0,1,0,0,0,1 @ F,0,0,1,0,0,0,1 @ F,0,0,1,0,0,0,1 @ F,0,0,1,0,0,0,1 @ F,0,0,1,0,0,0,1 @ F,0,0,1,0,0,0,1 @ F,0,0,1,0,0,0,1 @ F,0,0,1,0,0,0,1"
   radius="0"
   unit="px"
   method="auto"
   mode="F"
   chamfer_steps="1"
   flexible="false"
   use_knot_distance="true"
   apply_no_radius="true"
   apply_with_radius="true"
   only_selected="false"
   hide_knots="false" /><inkscape:path-effect
   effect="spiro"
   id="path-effect9346"
   is_visible="true"
   lpeversion="1" />
		
	
	
	

	

		
	
	

	

	

	

	

	
</defs><g
     inkscape:label="Calque 1"
     inkscape:groupmode="layer"
     id="layer1"
     transform="translate(-370.25,-190.25)"><g
       id="g47"><path
         id="rect953"
         style="stroke-width:0.05"
         d="m 377.69182,190.25 h 65.64766 c 4.12277,0 7.44182,3.31905 7.44182,7.44182 v 65.64766 c 0,4.12277 -3.31905,7.44182 -7.44182,7.44182 h -65.64766 c -4.12277,0 -7.44182,-3.31905 -7.44182,-7.44182 v -65.64766 c 0,-4.12277 3.31905,-7.44182 7.44182,-7.44182 z" /><path
         style="font-weight:bold;font-size:7.05556px;font-family:Cantarell;-inkscape-font-specification:'Cantarell Bold';fill:#cc0000;stroke-width:0.05"
         d="m 399.07536,267.2529 c 1.19239,0 1.91205,-0.59267 1.91205,-1.50989 0,-1.77095 -2.57528,-1.15711 -2.57528,-2.14489 0,-0.37395 0.33867,-0.58561 0.9525,-0.58561 0.40217,0 0.84667,0.0776 1.19945,0.21166 l 0.26106,-0.71966 c -0.41628,-0.18345 -0.92428,-0.28928 -1.41112,-0.28928 -1.16416,0 -1.94733,0.59972 -1.94733,1.524 0,1.67217 2.56822,1.12183 2.56822,2.11667 0,0.35983 -0.3175,0.57855 -0.91722,0.57855 -0.4445,0 -0.98778,-0.0988 -1.47461,-0.30339 l -0.26106,0.73378 c 0.52211,0.23989 1.12889,0.38806 1.69334,0.38806 z m 4.13455,0 c 1.07951,0 1.80623,-0.74084 1.80623,-1.8415 0,-1.05128 -0.67028,-1.72862 -1.70039,-1.72862 -1.08656,0 -1.81328,0.73378 -1.81328,1.84151 0,1.04422 0.66322,1.72861 1.70744,1.72861 z m 0.0776,-0.762 c -0.52917,0 -0.87489,-0.40922 -0.87489,-1.04423 0,-0.62088 0.3175,-1.00188 0.81844,-1.00188 0.52917,0 0.87489,0.41627 0.87489,1.05833 0,0.60678 -0.3175,0.98778 -0.81844,0.98778 z m 2.53295,0.69144 h 0.90311 v -2.22955 c 0.20461,-0.24695 0.49389,-0.38806 0.81139,-0.38806 0.14111,0 0.31044,0.0282 0.43744,0.0776 l 0.20461,-0.8255 c -0.14111,-0.0635 -0.32455,-0.0988 -0.508,-0.0988 -0.40922,0 -0.78316,0.19756 -1.04422,0.54328 l -0.0847,-0.508 h -0.71966 z m 4.40267,0.0706 c 0.41627,0 0.80433,-0.0917 1.12889,-0.26811 l -0.19756,-0.62089 c -0.24694,0.10583 -0.508,0.16228 -0.73378,0.16228 -0.635,0 -1.00189,-0.39512 -1.00189,-1.07951 0,-0.64911 0.33161,-1.00188 0.93839,-1.00188 0.254,0 0.54328,0.0564 0.79022,0.15522 l 0.1905,-0.71261 c -0.29633,-0.13406 -0.65616,-0.20462 -1.00894,-0.20462 -1.10772,0 -1.82739,0.73378 -1.82739,1.86267 0,1.07245 0.64206,1.70745 1.72156,1.70745 z m 1.8415,-0.0706 h 0.90311 v -3.429 h -0.90311 z m 0.45861,-4.064 c 0.33161,0 0.55033,-0.21167 0.55033,-0.55033 0,-0.33867 -0.21872,-0.55739 -0.55033,-0.55739 -0.33867,0 -0.55739,0.21872 -0.55739,0.55739 0,0.33866 0.21872,0.55033 0.55739,0.55033 z m 3.13972,4.13456 c 0.40217,0 0.83961,-0.0847 1.21356,-0.23989 l -0.20461,-0.62089 c -0.27517,0.11289 -0.57856,0.17639 -0.86784,0.17639 -0.61383,0 -0.99483,-0.28928 -1.10066,-0.85372 h 2.2225 c 0.0212,-0.14112 0.0423,-0.35278 0.0423,-0.508 0,-0.93839 -0.5715,-1.52401 -1.48872,-1.52401 -1.02306,0 -1.70745,0.72673 -1.70745,1.79212 0,1.10066 0.71967,1.778 1.89089,1.778 z m -0.33867,-3.92289 0.41628,-0.33867 -0.78316,-1.18533 -0.67028,0.54327 z m -0.64205,1.83444 c 0.0494,-0.51505 0.30339,-0.79022 0.73378,-0.79022 0.4445,0 0.70555,0.28928 0.70555,0.79022 z m 3.09034,2.01789 h 0.90311 v -2.22955 c 0.20461,-0.24695 0.49389,-0.38806 0.81139,-0.38806 0.14111,0 0.31044,0.0282 0.43744,0.0776 l 0.20461,-0.8255 c -0.14111,-0.0635 -0.32455,-0.0988 -0.508,-0.0988 -0.40922,0 -0.78316,0.19756 -1.04422,0.54328 l -0.0847,-0.508 h -0.71966 z m 4.572,0.0706 c 0.40217,0 0.83961,-0.0847 1.21356,-0.23989 l -0.20462,-0.62089 c -0.27516,0.11289 -0.57855,0.17639 -0.86783,0.17639 -0.61383,0 -0.99483,-0.28928 -1.10067,-0.85372 h 2.2225 c 0.0212,-0.14112 0.0423,-0.35278 0.0423,-0.508 0,-0.93839 -0.5715,-1.52401 -1.48873,-1.52401 -1.02305,0 -1.70744,0.72673 -1.70744,1.79212 0,1.10066 0.71967,1.778 1.89089,1.778 z m -0.98072,-2.08845 c 0.0494,-0.51505 0.30339,-0.79022 0.73377,-0.79022 0.4445,0 0.70556,0.28928 0.70556,0.79022 z"
         id="text1224"
         aria-label="Sorcière" /><g
         id="g4"><g
           id="g2838"
           transform="matrix(0.06863798,-0.01938971,0.01938971,0.06863798,397.31387,220.74516)"
           style="fill:#cc0000;fill-opacity:1;stroke:none;stroke-width:23.9969;stroke-dasharray:none">
	<g
   id="g2836"
   style="fill:#cc0000;fill-opacity:1;stroke:none;stroke-width:23.9969;stroke-dasharray:none">
		<path
   d="M 500.332,51.445 460.554,11.667 C 453.032,4.145 443.013,0.001 432.34,0.001 c -10.671,0 -20.691,4.142 -28.214,11.666 l -14.054,14.054 -4.122,-4.122 c -8.655,-8.655 -22.691,-8.655 -31.348,0 -8.657,8.655 -8.657,22.691 0,31.348 l 4.122,4.122 -84.841,84.84 c -72.738,-33.064 -159.885,-17.933 -217.221,39.404 -75.549,75.549 -75.549,198.476 0,274.025 37.775,37.775 87.393,56.661 137.012,56.661 49.62,0 99.238,-18.886 137.013,-56.661 57.337,-57.337 72.468,-144.483 39.404,-217.223 l 84.84,-84.84 4.122,4.122 c 4.328,4.328 10.002,6.493 15.673,6.493 5.672,0 11.346,-2.165 15.673,-6.493 8.657,-8.655 8.657,-22.691 0,-31.348 l -4.122,-4.122 14.054,-14.054 C 515.89,92.314 515.89,67.001 500.332,51.445 Z M 57.383,257.07 c 7.219,-16.112 17.423,-31.202 30.63,-44.409 47.356,-47.357 121.071,-57.406 179.263,-24.435 8.97,5.082 19.968,3.207 26.825,-3.872 0.129,-0.123 0.267,-0.229 0.393,-0.356 l 95.582,-95.58 33.507,33.507 -95.582,95.582 c -0.124,0.124 -0.229,0.262 -0.35,0.389 -7.083,6.855 -8.961,17.856 -3.876,26.831 4.123,7.278 7.574,14.799 14.8035,46.3985 5.2455,63.7085 -9.7675,103.3905 -39.2395,132.8635 -29.136,29.135 -67.393,43.7 -105.665,43.697 C 155.413,467.682 117.138,453.116 88.011,423.989 54.164,390.142 39.986,343.962 45.465,299.78 M 454.93,90.577 421.423,57.07 432.341,46.152 465.848,79.659 Z"
   id="path2834"
   sodipodi:nodetypes="cssccssscccsssccsscscsccccccccscccccscccccc"
   style="fill:#cc0000;fill-opacity:1;stroke:none;stroke-width:23.9969;stroke-dasharray:none" />
	</g>
</g><path
           id="path2894"
           style="font-variation-settings:'wdth' 83, 'wght' 488;fill:#cc0000;stroke-width:1.71156;stroke-linecap:round"
           transform="rotate(-5.8894041)"
           d="m 401.5003,279.82883 a 11.338586,12.299616 0 0 1 -11.33859,12.29961 11.338586,12.299616 0 0 1 -11.33858,-12.29961 11.338586,12.299616 0 0 1 11.33858,-12.29962 11.338586,12.299616 0 0 1 11.33859,12.29962 z" /><path
           id="rect2948"
           style="font-variation-settings:'wdth' 83, 'wght' 488;fill:#cc0000;stroke-width:1.71156;stroke-linecap:round"
           transform="rotate(-5.8894041)"
           d="m 396.33243,266.29089 h 4.839 v 3.5733 h -4.839 z" /><path
           id="rect2950"
           style="font-variation-settings:'wdth' 83, 'wght' 488;fill:#cc0000;stroke-width:1.71156;stroke-linecap:round"
           transform="rotate(-5.8894041)"
           d="m 394.51846,268.21036 h 6.4051 v 2.97577 h -6.4051 z" /><path
           id="rect2952"
           style="font-variation-settings:'wdth' 83, 'wght' 488;fill:#cc0000;stroke-width:1.71156;stroke-linecap:round"
           transform="rotate(-5.8894041)"
           d="m 396.49222,269.40518 h 4.16304 v 4.1243 h -4.16304 z" /><path
           id="rect2954"
           style="font-variation-settings:'wdth' 83, 'wght' 488;fill:#cc0000;stroke-width:1.71156;stroke-linecap:round"
           transform="rotate(-5.8894041)"
           d="m 397.36493,265.77423 h 5.58127 v 1.97986 h -5.58127 z" /><g
           id="g2795"
           transform="matrix(0.04083678,-0.05847641,0.05847641,0.04083678,374.10068,235.57543)"
           style="fill:#cc0000;fill-opacity:1;stroke-width:23.9969;stroke-dasharray:none">
	<g
   id="g2793"
   style="fill:#cc0000;fill-opacity:1;stroke-width:23.9969;stroke-dasharray:none">
		<path
   d="M 500.332,51.445 460.554,11.667 C 453.032,4.145 443.013,0.001 432.34,0.001 c -10.671,0 -20.691,4.142 -28.214,11.666 l -14.054,14.054 -4.122,-4.122 c -8.655,-8.655 -22.691,-8.655 -31.348,0 -8.657,8.655 -8.657,22.691 0,31.348 l 4.122,4.122 -84.841,84.84 c -72.738,-33.064 -159.885,-17.933 -217.221,39.404 -75.549,75.549 -75.549,198.476 0,274.025 37.775,37.775 87.393,56.661 137.012,56.661 49.62,0 99.238,-18.886 137.013,-56.661 57.337,-57.337 72.468,-144.483 39.404,-217.223 l 84.84,-84.84 4.122,4.122 c 4.328,4.328 10.002,6.493 15.673,6.493 5.672,0 11.346,-2.165 15.673,-6.493 8.657,-8.655 8.657,-22.691 0,-31.348 l -4.122,-4.122 14.054,-14.054 C 515.89,92.314 515.89,67.001 500.332,51.445 Z M 57.383,257.07 c 7.219,-16.112 17.423,-31.202 30.63,-44.409 47.356,-47.357 121.071,-57.406 179.263,-24.435 8.97,5.082 19.968,3.207 26.825,-3.872 0.129,-0.123 0.267,-0.229 0.393,-0.356 l 95.582,-95.58 33.507,33.507 -95.582,95.582 c -0.124,0.124 -0.229,0.262 -0.35,0.389 -7.083,6.855 -8.961,17.856 -3.876,26.831 4.123,7.278 7.574,14.799 14.8035,46.3985 5.2455,63.7085 -9.7675,103.3905 -39.2395,132.8635 -29.136,29.135 -67.393,43.7 -105.665,43.697 C 155.413,467.682 117.138,453.116 88.011,423.989 54.164,390.142 39.986,343.962 45.465,299.78 M 454.93,90.577 421.423,57.07 432.341,46.152 465.848,79.659 Z"
   id="path2791"
   sodipodi:nodetypes="cssccssscccsssccsscscsccccccccscccccscccccc"
   style="fill:#cc0000;fill-opacity:1;stroke-width:23.9969;stroke-dasharray:none" />
	</g>
</g><path
           style="font-variation-settings:'wdth' 83, 'wght' 488;fill:#cc0000;fill-opacity:1;stroke:#cc0000;stroke-width:1.71156;stroke-linecap:round;stroke-dasharray:none;stroke-opacity:1"
           d="m 390.06974,235.70233 13.64632,0.15595"
           id="path2958" /><path
           id="rect2976"
           style="font-variation-settings:'wdth' 83, 'wght' 488;fill:#cc0000;stroke:#cc0000;stroke-width:1.71156;stroke-linecap:round"
           d="m 426.4227,214.72197 h 4.16504 v 3.12864 h -4.16504 z" /></g><path
         id="path47"
         style="fill:#cc0000;fill-opacity:1;stroke:none;stroke-width:0.397412;stroke-linecap:round;stroke-linejoin:round"
         d="m 441.66057,192.225 c -3.94641,0 -7.14558,3.19917 -7.14557,7.14556 -10e-6,3.9464 3.19916,7.14558 7.14557,7.14558 3.94642,0 7.1456,-3.19918 7.14559,-7.14558 0,-3.94639 -3.19917,-7.14556 -7.14559,-7.14556 z m 0.13193,2.12293 c 1.73876,-1e-5 3.14834,1.40952 3.14839,3.14828 2e-5,1.4665 -1.01249,2.73881 -2.44158,3.06804 1.62811,0.27559 2.97849,1.41285 3.52699,2.97035 h -8.57059 c 0.55588,-1.5785 1.93454,-2.72359 3.58826,-2.98033 -1.40888,-0.34484 -2.39985,-1.6076 -2.39986,-3.05806 5e-5,-1.73876 1.40962,-3.14829 3.14839,-3.14828 z"
         sodipodi:nodetypes="ssssssscccccs" /><path
         id="path48"
         style="fill:#cc0000;fill-opacity:1;stroke:none;stroke-width:0.397412;stroke-linecap:round;stroke-linejoin:round"
         d="m 379.37059,192.225 a 7.1455797,7.1455797 0 0 0 -7.14559,7.14558 7.1455797,7.1455797 0 0 0 7.14559,7.14558 7.1455797,7.1455797 0 0 0 7.14559,-7.14558 7.1455797,7.1455797 0 0 0 -7.14559,-7.14558 z m 0.0534,2.60722 c 0.0933,0 0.18655,0.028 0.26115,0.0839 l 4.02056,3.65571 c 0.18651,0.14921 0.0745,0.41024 -0.14929,0.41024 h -0.70871 v 4.10337 c 0,0.22382 -0.1492,0.37302 -0.37302,0.37302 h -1.93164 l -0.0486,-2.0437 c -0.0118,-0.49316 -0.57716,-1.02185 -1.07045,-1.02185 -0.4933,-1e-5 -1.05872,0.52869 -1.07045,1.02185 l -0.0487,2.0437 h -1.93154 c -0.22382,0 -0.37301,-0.1492 -0.37302,-0.37302 v -4.10327 l -0.7088,-1e-4 c -0.22382,0 -0.3357,-0.26103 -0.14919,-0.41024 l 1.19528,-0.97146 v -2.07773 c 0,-0.22382 0.14921,-0.37301 0.37302,-0.37301 h 0.43948 c 0.17584,0 0.37301,0.19717 0.37301,0.37301 v 0.84672 l 1.63976,-1.45324 c 0.0746,-0.056 0.16789,-0.0839 0.26114,-0.0839 z" /></g></g><style
     type="text/css"
     id="style10809">
	.puchipuchi_een{fill:#111918;}
</style><style
     type="text/css"
     id="style11287">
	.st0{fill:#000000;}
</style><style
     type="text/css"
     id="style1">
<![CDATA[
	.st0{fill:#000000;}
]]>
</style><style
     type="text/css"
     id="style1-3">
	.st0{fill:#FD6A7E;}
	.st1{fill:#17B978;}
	.st2{fill:#8797EE;}
	.st3{fill:#41A6F9;}
	.st4{fill:#37E0FF;}
	.st5{fill:#2FD9B9;}
	.st6{fill:#F498BD;}
	.st7{fill:#FFDF1D;}
	.st8{fill:#C6C9CC;}
</style></svg>
