<?xml version="1.0" encoding="UTF-8" standalone="no"?>
<!-- Created with Inkscape (http://www.inkscape.org/) -->

<svg
   width="80.531303mm"
   height="80.531296mm"
   viewBox="0 0 80.531303 80.531296"
   version="1.1"
   id="svg5"
   inkscape:version="1.4.4 (dcaf3e7d9e, 2026-05-05)"
   sodipodi:docname="Villageois.svg"
   xml:space="preserve"
   xmlns:inkscape="http://www.inkscape.org/namespaces/inkscape"
   xmlns:sodipodi="http://sodipodi.sourceforge.net/DTD/sodipodi-0.dtd"
   xmlns="http://www.w3.org/2000/svg"
   xmlns:svg="http://www.w3.org/2000/svg"><sodipodi:namedview
     id="namedview7"
     pagecolor="#ffffff"
     bordercolor="#000000"
     borderopacity="0.25"
     inkscape:showpageshadow="2"
     inkscape:pageopacity="0.0"
     inkscape:pagecheckerboard="true"
     inkscape:deskcolor="#d1d1d1"
     inkscape:document-units="mm"
     showgrid="false"
     inkscape:zoom="0.88851869"
     inkscape:cx="572.86358"
     inkscape:cy="172.19672"
     inkscape:window-width="1920"
     inkscape:window-height="1014"
     inkscape:window-x="0"
     inkscape:window-y="0"
     inkscape:window-maximized="1"
     inkscape:current-layer="layer1"
     showguides="false" /><defs
     id="defs2"><inkscape:path-effect
   effect="fillet_chamfer"
   id="path-effect2"
   is_visible="true"
   lpeversion="1"
   nodesatellites_param="F,0,0,1,0,0,0,1 @ F,0,0,1,0,0,0,1 @ F,0,0,1,0,0,0,1 @ F,0,0,1,0,0,0,1 @ F,0,0,1,0,0,0,1 @ F,0,0,1,0,0,0,1 @ F,0,0,1,0,0,0,1 @ F,0,0,1,0,0,0,1 @ F,0,0,1,0,0,0,1"
   radius="0"
   unit="px"
   method="auto"
   mode="F"
   chamfer_steps="1"
   flexible="false"
   use_knot_distance="true"
   apply_no_radius="true"
   apply_with_radius="true"
   only_selected="false"
   hide_knots="false" /><inkscape:path-effect
   effect="fillet_chamfer"
   id="path-effect1"
   is_visible="true"
   lpeversion="1"
   nodesatellites_param="F,0,0,1,0,7.5338088,0,1 @ F,0,0,1,0,0,0,1 @ F,0,0,1,0,0,0,1 @ F,0,0,1,0,0,0,1 @ F,0,0,1,0,0,0,1 @ F,0,0,1,0,0,0,1 @ F,0,0,1,0,0,0,1 @ F,0,0,1,0,0,0,1 @ F,0,0,1,0,0,0,1 @ F,0,0,1,0,0,0,1 @ F,0,0,1,0,0,0,1"
   radius="0"
   unit="px"
   method="auto"
   mode="F"
   chamfer_steps="1"
   flexible="false"
   use_knot_distance="true"
   apply_no_radius="true"
   apply_with_radius="true"
   only_selected="false"
   hide_knots="false" /><inkscape:path-effect
   effect="spiro"
   id="path-effect6"
   is_visible="true"
   lpeversion="1" /><inkscape:path-effect
   effect="fillet_chamfer"
   id="path-effect3"
   is_visible="true"
   lpeversion="1"
   nodesatellites_param="F,0,0,1,0,0,0,1 @ F,0,0,1,0,0,0,1 @ F,0,0,1,0,0,0,1 @ F,0,0,1,0,0,0,1 @ F,0,0,1,0,0,0,1 @ F,0,0,1,0,0,0,1 @ F,0,0,1,0,0,0,1 @ F,0,0,1,0,0,0,1 @ F,0,0,1,0,0,0,1 @ F,0,0,1,0,0,0,1 @ F,0,0,1,0,0,0,1 @ F,0,0,1,0,0,0,1 @ F,0,0,1,0,0,0,1 @ F,0,0,1,0,0,0,1 | F,0,0,1,0,6.4303233,0,1 @ F,0,0,1,0,108.16171,0,1 @ F,0,0,1,0,0,0,1 @ F,0,0,1,0,20.169484,0,1 @ F,0,0,1,0,0,0,1 @ F,0,0,1,0,0,0,1 @ F,0,0,1,0,23.329183,0,1 @ F,0,0,1,0,0,0,1 @ F,0,0,1,0,0,0,1 @ F,0,0,1,0,0,0,1 | F,0,0,1,0,0,0,1 @ F,0,0,1,0,0,0,1 @ F,0,0,1,0,0,0,1 @ F,0,0,1,0,0,0,1 @ F,0,0,1,0,0,0,1 @ F,0,0,1,0,0,0,1 | F,0,0,1,0,0,0,1 @ F,0,0,1,0,0,0,1 @ F,0,0,1,0,0,0,1 @ F,0,0,1,0,0,0,1 @ F,0,0,1,0,0,0,1 @ F,0,0,1,0,0,0,1 @ F,0,0,1,0,0,0,1 @ F,0,0,1,0,0,0,1 @ F,0,0,1,0,0,0,1 @ F,0,0,1,0,0,0,1"
   radius="0"
   unit="px"
   method="auto"
   mode="F"
   chamfer_steps="1"
   flexible="false"
   use_knot_distance="true"
   apply_no_radius="true"
   apply_with_radius="true"
   only_selected="false"
   hide_knots="false" /><inkscape:path-effect
   effect="spiro"
   id="path-effect9346"
   is_visible="true"
   lpeversion="1" />
		
	
	
	

	

		
	
	

	

	

	

	

	
</defs><g
     inkscape:label="Calque 1"
     inkscape:groupmode="layer"
     id="layer1"
     transform="translate(-460.25,-10.25)"><g
       id="g46"><path
         id="rect931"
         style="stroke-width:0.05"
         d="m 467.69182,10.25 h 65.64766 c 4.12277,0 7.44182,3.31905 7.44182,7.441816 v 65.647663 c 0,4.122767 -3.31905,7.441817 -7.44182,7.441817 h -65.64766 c -4.12277,0 -7.44182,-3.31905 -7.44182,-7.441817 V 17.691816 c 0,-4.122766 3.31905,-7.441816 7.44182,-7.441816 z" /><path
         style="font-weight:bold;font-size:7.05556px;font-family:Cantarell;-inkscape-font-specification:'Cantarell Bold';fill:#cc0000;stroke-width:0.05"
         d="m 486.50685,87.02005 h 0.94545 l 1.76389,-4.896559 h -0.93134 l -1.26294,3.817058 -1.21356,-3.817058 h -1.05833 z m 3.24556,0 h 0.90311 v -3.429002 h -0.90311 z m 0.45861,-4.064003 c 0.33161,0 0.55033,-0.211666 0.55033,-0.550333 0,-0.338667 -0.21872,-0.55739 -0.55033,-0.55739 -0.33867,0 -0.55739,0.218723 -0.55739,0.55739 0,0.338667 0.21872,0.550333 0.55739,0.550333 z m 2.42005,4.113392 c 0.22578,0 0.47272,-0.04233 0.65617,-0.127 l -0.18345,-0.599723 c -0.0776,0.02822 -0.15522,0.04233 -0.21872,0.04233 -0.21167,0 -0.32456,-0.141112 -0.32456,-0.381001 v -4.198058 h -0.889 v 4.310947 c 0,0.592667 0.35984,0.952501 0.95956,0.952501 z m 2.15195,0 c 0.22578,0 0.47272,-0.04233 0.65616,-0.127 l -0.18344,-0.599723 c -0.0776,0.02822 -0.15522,0.04233 -0.21872,0.04233 -0.21167,0 -0.32456,-0.141112 -0.32456,-0.381001 v -4.198058 h -0.889 v 4.310947 c 0,0.592667 0.35984,0.952501 0.95956,0.952501 z m 3.34434,-0.04939 h 0.64911 v -2.060224 c 0,-0.931333 -0.52917,-1.439334 -1.54517,-1.439334 -0.48683,0 -1.016,0.119945 -1.41817,0.331612 l 0.21167,0.627944 c 0.35983,-0.141111 0.6985,-0.211666 1.016,-0.211666 0.55033,0 0.84667,0.211666 0.84667,0.620889 v 0.09172 c -1.48167,0.02117 -2.13784,0.359834 -2.13784,1.086556 0,0.62089 0.45861,1.023057 1.18534,1.023057 0.43744,0 0.80433,-0.141112 1.06539,-0.409223 z m -0.23989,-0.881945 c -0.16934,0.155222 -0.39512,0.246945 -0.65617,0.246945 -0.34572,0 -0.57856,-0.176389 -0.57856,-0.437445 0,-0.310445 0.35278,-0.451556 1.23473,-0.465667 z m 3.12561,2.504724 c 1.08656,0 1.81328,-0.670278 1.81328,-1.679223 v -3.372558 h -0.64206 l -0.11289,0.303389 c -0.23283,-0.246945 -0.55739,-0.373945 -0.95955,-0.373945 -0.9525,0 -1.60161,0.719667 -1.60161,1.813279 0,1.06539 0.61383,1.756835 1.48872,1.756835 0.37394,0 0.6985,-0.134056 0.94544,-0.373945 v 0.289278 c 0,0.585611 -0.33161,0.896056 -0.93839,0.896056 -0.29633,0 -0.64911,-0.07056 -0.9525,-0.197556 l -0.17639,0.670279 c 0.37395,0.176389 0.74789,0.268111 1.13595,0.268111 z m 0.93133,-4.007558 v 1.389945 c -0.15522,0.1905 -0.38805,0.303389 -0.67027,0.303389 -0.52212,0 -0.85373,-0.409222 -0.85373,-1.051278 0,-0.613834 0.31045,-0.994834 0.81845,-0.994834 0.28928,0 0.54328,0.127 0.70555,0.352778 z m 3.57717,2.455335 c 0.40217,0 0.83961,-0.08467 1.21356,-0.239889 l -0.20461,-0.62089 c -0.27517,0.112889 -0.57856,0.176389 -0.86784,0.176389 -0.61383,0 -0.99483,-0.289278 -1.10067,-0.853722 h 2.22251 c 0.0212,-0.141112 0.0423,-0.352778 0.0423,-0.508001 0,-0.938389 -0.5715,-1.524001 -1.48872,-1.524001 -1.02306,0 -1.70745,0.726723 -1.70745,1.792113 0,1.100667 0.71967,1.778001 1.89089,1.778001 z m -0.98072,-2.088446 c 0.0494,-0.515056 0.30339,-0.790223 0.73378,-0.790223 0.4445,0 0.70555,0.289278 0.70555,0.790223 z m 4.58612,2.088446 c 1.0795,0 1.80622,-0.740834 1.80622,-1.841502 0,-1.051278 -0.67028,-1.728612 -1.70039,-1.728612 -1.08656,0 -1.81328,0.733778 -1.81328,1.841501 0,1.044223 0.66322,1.728613 1.70745,1.728613 z m 0.0776,-0.762001 c -0.52917,0 -0.87489,-0.409222 -0.87489,-1.044223 0,-0.620889 0.3175,-1.001889 0.81844,-1.001889 0.52917,0 0.87489,0.416278 0.87489,1.058334 0,0.606778 -0.3175,0.987778 -0.81844,0.987778 z m 2.53295,0.691445 h 0.90311 v -3.429002 h -0.90311 z m 0.45861,-4.064003 c 0.33161,0 0.55033,-0.211666 0.55033,-0.550333 0,-0.338667 -0.21872,-0.55739 -0.55033,-0.55739 -0.33867,0 -0.55739,0.218723 -0.55739,0.55739 0,0.338667 0.21872,0.550333 0.55739,0.550333 z m 2.58939,4.134559 c 0.93838,0 1.49577,-0.416278 1.49577,-1.100668 0,-1.284112 -1.94027,-0.853723 -1.94027,-1.432278 0,-0.204612 0.24694,-0.331612 0.66322,-0.331612 0.28222,0 0.62089,0.05644 0.93839,0.148167 l 0.1905,-0.677334 c -0.3175,-0.112889 -0.71967,-0.176389 -1.10773,-0.176389 -0.98072,0 -1.55222,0.395112 -1.55222,1.100668 0,1.277056 1.91206,0.790222 1.91206,1.411112 0,0.218722 -0.23284,0.352778 -0.61384,0.352778 -0.33161,0 -0.79022,-0.09172 -1.15005,-0.232834 l -0.19756,0.670278 c 0.38806,0.169334 0.889,0.268112 1.36173,0.268112 z"
         id="text1497"
         aria-label="Villageois" /><path
         class="st7"
         d="m 478.34275,47.554034 6.18975,-5.030727 2e-5,-10.759081 c 0,-1.159041 0.77269,-1.931739 1.93171,-1.931735 l 2.27597,3e-6 c 0.91061,-1e-6 1.93173,1.021086 1.93172,1.931712 l 10e-6,4.384389 8.49135,-7.525498 c 0.77269,-0.579528 1.93173,-0.579519 2.70443,-8e-6 l 20.82052,18.930933 c 0.96587,0.772692 0.38634,2.124887 -0.77267,2.124893 l -3.67029,-7e-6 10e-6,21.249048 c 0,1.159041 -0.77269,1.931719 -1.93173,1.931737 l -10.00288,-1.8e-5 -0.25176,-10.583366 c -0.0608,-2.55382 -2.98888,-5.291662 -5.54342,-5.291661 -2.55454,-8e-6 -5.48266,2.737844 -5.54341,5.291659 l -0.25176,10.583356 h -10.00287 c -1.15904,8e-6 -1.93171,-0.772692 -1.93173,-1.93174 l 10e-6,-21.248995 -3.67029,-2.5e-5 c -1.15904,0 -1.73854,-1.352179 -0.77269,-2.124869 z"
         id="path5"
         style="fill:none;stroke:#cc0000;stroke-width:2.14361;stroke-linecap:round;stroke-dasharray:none;stroke-opacity:1"
         sodipodi:nodetypes="ccssssccccsccccssscsccsc" /><path
         id="path53"
         style="fill:#cc0000;fill-opacity:1;stroke:none;stroke-width:0.397412;stroke-linecap:round;stroke-linejoin:round"
         d="m 531.66057,12.225 c -3.94641,0 -7.14558,3.19917 -7.14557,7.145557 -10e-6,3.946397 3.19916,7.145577 7.14557,7.145577 3.94642,0 7.1456,-3.19918 7.14559,-7.145577 0,-3.946387 -3.19917,-7.145557 -7.14559,-7.145557 z m 0.13193,2.12293 c 1.73876,-10e-6 3.14834,1.40952 3.14839,3.148277 2e-5,1.4665 -1.01249,2.73881 -2.44158,3.06804 1.62811,0.27559 2.97849,1.412847 3.52699,2.970347 h -8.57059 c 0.55588,-1.5785 1.93454,-2.723587 3.58826,-2.980327 -1.40888,-0.34484 -2.39985,-1.6076 -2.39986,-3.05806 5e-5,-1.738757 1.40962,-3.148287 3.14839,-3.148277 z"
         sodipodi:nodetypes="ssssssscccccs" /><path
         id="path54"
         style="fill:#cc0000;fill-opacity:1;stroke:none;stroke-width:0.397412;stroke-linecap:round;stroke-linejoin:round"
         d="m 469.37059,12.225 a 7.1455797,7.1455797 0 0 0 -7.14559,7.145577 7.1455797,7.1455797 0 0 0 7.14559,7.145577 7.1455797,7.1455797 0 0 0 7.14559,-7.145577 7.1455797,7.1455797 0 0 0 -7.14559,-7.145577 z m 0.0534,2.60722 c 0.0933,0 0.18655,0.028 0.26115,0.0839 l 4.02056,3.655707 c 0.18651,0.14921 0.0745,0.41024 -0.14929,0.41024 h -0.70871 v 4.103367 c 0,0.22382 -0.1492,0.37302 -0.37302,0.37302 h -1.93164 l -0.0486,-2.0437 c -0.0118,-0.493157 -0.57716,-1.021847 -1.07045,-1.021847 -0.4933,-10e-6 -1.05872,0.52869 -1.07045,1.021847 l -0.0487,2.0437 h -1.93154 c -0.22382,0 -0.37301,-0.1492 -0.37302,-0.37302 v -4.103267 l -0.7088,-10e-5 c -0.22382,0 -0.3357,-0.26103 -0.14919,-0.41024 l 1.19528,-0.97146 V 15.52264 c 0,-0.22382 0.14921,-0.37301 0.37302,-0.37301 h 0.43948 c 0.17584,0 0.37301,0.19717 0.37301,0.37301 v 0.846717 l 1.63976,-1.453237 c 0.0746,-0.056 0.16789,-0.0839 0.26114,-0.0839 z" /></g></g><style
     type="text/css"
     id="style10809">
	.puchipuchi_een{fill:#111918;}
</style><style
     type="text/css"
     id="style11287">
	.st0{fill:#000000;}
</style><style
     type="text/css"
     id="style1">
<![CDATA[
	.st0{fill:#000000;}
]]>
</style><style
     type="text/css"
     id="style1-3">
	.st0{fill:#FD6A7E;}
	.st1{fill:#17B978;}
	.st2{fill:#8797EE;}
	.st3{fill:#41A6F9;}
	.st4{fill:#37E0FF;}
	.st5{fill:#2FD9B9;}
	.st6{fill:#F498BD;}
	.st7{fill:#FFDF1D;}
	.st8{fill:#C6C9CC;}
</style></svg>
