<?xml version="1.0" encoding="UTF-8" standalone="no"?>
<!-- Created with Inkscape (http://www.inkscape.org/) -->

<svg
   width="80.531303mm"
   height="80.531296mm"
   viewBox="0 0 80.531303 80.531296"
   version="1.1"
   id="svg5"
   inkscape:version="1.4.4 (dcaf3e7d9e, 2026-05-05)"
   sodipodi:docname="Voleur.svg"
   xml:space="preserve"
   xmlns:inkscape="http://www.inkscape.org/namespaces/inkscape"
   xmlns:sodipodi="http://sodipodi.sourceforge.net/DTD/sodipodi-0.dtd"
   xmlns="http://www.w3.org/2000/svg"
   xmlns:svg="http://www.w3.org/2000/svg"
   xmlns:osb="http://www.openswatchbook.org/uri/2009/osb"><sodipodi:namedview
     id="namedview7"
     pagecolor="#ffffff"
     bordercolor="#000000"
     borderopacity="0.25"
     inkscape:showpageshadow="2"
     inkscape:pageopacity="0.0"
     inkscape:pagecheckerboard="true"
     inkscape:deskcolor="#d1d1d1"
     inkscape:document-units="mm"
     showgrid="false"
     inkscape:zoom="0.55338715"
     inkscape:cx="312.62019"
     inkscape:cy="399.35875"
     inkscape:window-width="1920"
     inkscape:window-height="1014"
     inkscape:window-x="0"
     inkscape:window-y="0"
     inkscape:window-maximized="1"
     inkscape:current-layer="layer1"
     showguides="false" /><defs
     id="defs2"><rect
   x="488.54166"
   y="174.47917"
   width="138.54167"
   height="32.8125"
   id="rect49" /><inkscape:path-effect
   effect="spiro"
   id="path-effect3997"
   is_visible="true"
   lpeversion="1" /><style
   id="style3170">.cls-1{fill:none;stroke:#020202;stroke-miterlimit:10;stroke-width:1.91px;}</style><linearGradient
   osb:paint="solid"
   id="linearGradient5606"><stop
     style="stop-color:#000000;stop-opacity:1;"
     offset="0"
     id="stop5608" /></linearGradient><filter
   style="color-interpolation-filters:sRGB"
   id="filter7554"><feBlend
     mode="darken"
     in2="BackgroundImage"
     id="feBlend7556" /></filter>
	

	

	

	
	
<inkscape:path-effect
   effect="fillet_chamfer"
   id="path-effect3"
   is_visible="true"
   lpeversion="1"
   nodesatellites_param="F,0,0,1,0,0,0,1 @ F,0,0,1,0,0,0,1 @ F,0,0,1,0,0,0,1 @ F,0,0,1,0,0,0,1 @ F,0,0,1,0,0,0,1 @ F,0,0,1,0,0,0,1 @ F,0,0,1,0,0,0,1 @ F,0,0,1,0,0,0,1 @ F,0,0,1,0,0,0,1 @ F,0,0,1,0,0,0,1 @ F,0,0,1,0,0,0,1 @ F,0,0,1,0,0,0,1 @ F,0,0,1,0,0,0,1 @ F,0,0,1,0,0,0,1 | F,0,0,1,0,6.4303233,0,1 @ F,0,0,1,0,108.16171,0,1 @ F,0,0,1,0,0,0,1 @ F,0,0,1,0,20.169484,0,1 @ F,0,0,1,0,0,0,1 @ F,0,0,1,0,0,0,1 @ F,0,0,1,0,23.329183,0,1 @ F,0,0,1,0,0,0,1 @ F,0,0,1,0,0,0,1 @ F,0,0,1,0,0,0,1 | F,0,0,1,0,0,0,1 @ F,0,0,1,0,0,0,1 @ F,0,0,1,0,0,0,1 @ F,0,0,1,0,0,0,1 @ F,0,0,1,0,0,0,1 @ F,0,0,1,0,0,0,1 | F,0,0,1,0,0,0,1 @ F,0,0,1,0,0,0,1 @ F,0,0,1,0,0,0,1 @ F,0,0,1,0,0,0,1 @ F,0,0,1,0,0,0,1 @ F,0,0,1,0,0,0,1 @ F,0,0,1,0,0,0,1 @ F,0,0,1,0,0,0,1 @ F,0,0,1,0,0,0,1 @ F,0,0,1,0,0,0,1"
   radius="0"
   unit="px"
   method="auto"
   mode="F"
   chamfer_steps="1"
   flexible="false"
   use_knot_distance="true"
   apply_no_radius="true"
   apply_with_radius="true"
   only_selected="false"
   hide_knots="false" /></defs><g
     inkscape:label="Calque 1"
     inkscape:groupmode="layer"
     id="layer1"
     transform="translate(-460.25,-10.25)"><g
       id="g5"><path
         id="rect931"
         style="fill:#000000;fill-opacity:1;stroke:none;stroke-width:0.05"
         d="m 467.69182,10.25 h 65.64766 c 4.12277,0 7.44182,3.31905 7.44182,7.441816 v 65.647663 c 0,4.122767 -3.31905,7.441817 -7.44182,7.441817 h -65.64766 c -4.12277,0 -7.44182,-3.31905 -7.44182,-7.441817 V 17.691816 c 0,-4.122766 3.31905,-7.441816 7.44182,-7.441816 z" /><path
         style="font-weight:bold;font-size:7.05556px;font-family:Cantarell;-inkscape-font-specification:'Cantarell Bold';fill:#cc0000;fill-opacity:1;stroke-width:0.05"
         d="m 491.55486,87.02005 h 0.94544 l 1.76389,-4.896559 h -0.93133 l -1.26295,3.817058 -1.21355,-3.817058 h -1.05834 z m 4.74133,0.07056 c 1.0795,0 1.80622,-0.740834 1.80622,-1.841502 0,-1.051278 -0.67028,-1.728612 -1.70039,-1.728612 -1.08655,0 -1.81328,0.733778 -1.81328,1.841501 0,1.044223 0.66323,1.728613 1.70745,1.728613 z m 0.0776,-0.762001 c -0.52917,0 -0.87489,-0.409222 -0.87489,-1.044223 0,-0.620889 0.3175,-1.001889 0.81845,-1.001889 0.52916,0 0.87488,0.416278 0.87488,1.058334 0,0.606778 -0.3175,0.987778 -0.81844,0.987778 z m 3.49251,0.740834 c 0.22577,0 0.47272,-0.04233 0.65616,-0.127 l -0.18344,-0.599723 c -0.0776,0.02822 -0.15522,0.04233 -0.21872,0.04233 -0.21167,0 -0.32456,-0.141112 -0.32456,-0.381001 v -4.198058 h -0.889 v 4.310947 c 0,0.592667 0.35983,0.952501 0.95956,0.952501 z m 2.87161,0.02117 c 0.40217,0 0.83961,-0.08467 1.21356,-0.239889 l -0.20461,-0.62089 c -0.27517,0.112889 -0.57856,0.176389 -0.86784,0.176389 -0.61383,0 -0.99483,-0.289278 -1.10066,-0.853722 h 2.2225 c 0.0212,-0.141112 0.0423,-0.352778 0.0423,-0.508001 0,-0.938389 -0.5715,-1.524001 -1.48872,-1.524001 -1.02306,0 -1.70745,0.726723 -1.70745,1.792113 0,1.100667 0.71967,1.778001 1.89089,1.778001 z M 501.7572,85.00216 c 0.0494,-0.515056 0.30339,-0.790223 0.73378,-0.790223 0.4445,0 0.70555,0.289278 0.70555,0.790223 z m 4.22628,2.074335 c 0.40217,0 0.78317,-0.155223 1.07245,-0.43039 l 0.16228,0.373945 h 0.64205 v -3.429002 h -0.90311 v 2.46239 c -0.1905,0.155223 -0.40922,0.239889 -0.64205,0.239889 -0.48684,0 -0.63501,-0.373944 -0.63501,-0.712611 v -1.989668 h -0.89605 v 2.187223 c 0,0.790223 0.48683,1.298224 1.19944,1.298224 z m 2.89278,-0.05644 h 0.90311 v -2.229557 c 0.20461,-0.246945 0.49389,-0.388056 0.81139,-0.388056 0.14111,0 0.31044,0.02822 0.43744,0.07761 l 0.20461,-0.8255 c -0.14111,-0.0635 -0.32455,-0.09878 -0.508,-0.09878 -0.40922,0 -0.78316,0.197556 -1.04422,0.543278 l -0.0847,-0.508 h -0.71966 z"
         id="text1269"
         aria-label="Voleur" /><g
         id="g13"
         transform="matrix(0.99998739,0,0,0.99998739,-0.11701041,10.150685)"
         style="stroke:#cc0000;stroke-opacity:1"><path
           style="color:#bebebe;font-variation-settings:'wdth' 83, 'wght' 488;fill:none;fill-opacity:1;fill-rule:nonzero;stroke:#cc0000;stroke-width:1.04303;stroke-linecap:round;stroke-linejoin:round;stroke-dasharray:none;stroke-opacity:1"
           d="m 485.04845,53.603136 c -2.64678,-0.264023 -5.26269,-1.231948 -7.3981,-2.737384 -1.24238,-0.875866 -2.58287,-2.244682 -3.44686,-3.519692 -3.58393,-5.288941 -2.65238,-12.150788 2.24072,-16.505123 1.19426,-1.062761 2.28717,-1.76709 3.76716,-2.42776 1.34078,-0.598524 2.42709,-0.92211 3.97567,-1.184271 0.81095,-0.137286 3.08318,-0.186069 4.22193,-0.09064 3.09462,0.259313 6.77571,2.183794 10.93065,3.630307 l 1.304,0.453979 0.84949,-0.300713 c 5.27732,-1.868131 9.59221,-3.839693 13.15139,-3.841671 3.02107,-0.0017 5.62631,0.705041 8.06153,2.186838 3.61774,2.201341 5.83614,5.480922 6.44593,9.529338 0.11637,0.772636 0.0985,2.510961 -0.0347,3.366312 -0.45421,2.918388 -1.82458,5.442658 -4.09934,7.55111 -2.21752,2.055414 -4.98748,3.351354 -8.1311,3.80419 -3.61011,0.520028 -8.78224,-1.43586 -14.86893,-3.638652 l -1.37319,-0.496962 -1.30458,0.46986 c -3.86641,1.392535 -7.03784,3.265347 -10.05104,3.639641 -1.15575,0.143583 -3.34207,0.200928 -4.2407,0.111295 z m 3.87626,-0.870854 c 2.95717,-0.321025 6.27357,-2.226518 10.3798,-3.709826 l 1.33517,-0.482308 0.85145,0.311747 c 5.1393,1.881686 9.02752,3.852485 12.54653,4.002504 7.11237,0.303199 13.20987,-4.326571 14.21292,-10.791716 0.11379,-0.733148 0.12985,-2.46832 0.0299,-3.207239 -0.65662,-4.848672 -4.25859,-8.8647 -9.30632,-10.376049 -1.60367,-0.480163 -2.97511,-0.646088 -4.89981,-0.592811 -3.39906,0.09409 -7.3856,2.039186 -12.41576,3.820207 l -1.01532,0.359493 -1.43632,-0.498956 c -6.064,-2.106542 -10.82757,-4.009226 -14.3767,-3.606652 -5.04387,0.572117 -9.3782,3.740477 -11.10863,8.120306 -1.03647,2.623423 -1.08367,5.596427 -0.13052,8.223899 1.52621,4.207256 5.48443,7.430997 10.19459,8.302881 0.43943,0.08135 1.08225,0.174374 1.42847,0.206735 0.80086,0.07484 2.6389,0.03396 3.71062,-0.08222 z"
           id="path7844"
           sodipodi:nodetypes="cssssssscsssscssscsscccscssscssscsssssscc" /><path
           id="path7846"
           style="color:#bebebe;font-variation-settings:'wdth' 83, 'wght' 488;fill:none;stroke:#cc0000;stroke-width:2;stroke-linecap:round;stroke-linejoin:round;stroke-opacity:1"
           d="m 492.44603,40.000004 a 5.1311531,3.5680313 0 0 1 -5.13115,3.568031 5.1311531,3.5680313 0 0 1 -5.13115,-3.568031 5.1311531,3.5680313 0 0 1 5.13115,-3.568031 5.1311531,3.5680313 0 0 1 5.13115,3.568031 z" /><path
           id="ellipse7848"
           style="color:#bebebe;font-variation-settings:'wdth' 83, 'wght' 488;fill:none;stroke:#cc0000;stroke-width:2;stroke-linecap:round;stroke-linejoin:round;stroke-opacity:1"
           d="m 517.31682,40.000004 a 5.1311531,3.5680313 0 0 1 -5.13115,3.568031 5.1311531,3.5680313 0 0 1 -5.13115,-3.568031 5.1311531,3.5680313 0 0 1 5.13115,-3.568031 5.1311531,3.5680313 0 0 1 5.13115,3.568031 z" /></g><path
         id="path13"
         style="fill:#cc0000;fill-opacity:1;stroke:none;stroke-width:0.397412;stroke-linecap:round;stroke-linejoin:round"
         d="m 469.37059,12.225 a 7.1455797,7.1455797 0 0 0 -7.14559,7.145581 7.1455797,7.1455797 0 0 0 7.14559,7.145579 7.1455797,7.1455797 0 0 0 7.14558,-7.145579 7.1455797,7.1455797 0 0 0 -7.14558,-7.145581 z m 0.0534,2.607219 c 0.0933,0 0.18655,0.02798 0.26115,0.08392 l 4.02056,3.655717 c 0.18651,0.149211 0.0745,0.410236 -0.14929,0.410236 h -0.70871 v 4.103375 c 0,0.223818 -0.1492,0.373013 -0.37302,0.373018 h -1.93164 l -0.0486,-2.043706 c -0.0118,-0.493158 -0.57716,-1.021851 -1.07045,-1.021851 -0.4933,-2e-6 -1.05872,0.528694 -1.07045,1.021851 l -0.0487,2.043706 h -1.93154 c -0.22382,1e-6 -0.37301,-0.149198 -0.37302,-0.373018 v -4.103274 l -0.7088,-1.01e-4 c -0.22382,0 -0.3357,-0.261025 -0.14919,-0.410236 l 1.19528,-0.97146 v -2.07773 c 0,-0.22382 0.14921,-0.373018 0.37302,-0.373018 h 0.43948 c 0.17584,0 0.37301,0.19717 0.37301,0.373018 v 0.846719 l 1.63976,-1.453246 c 0.0746,-0.05596 0.16789,-0.08392 0.26114,-0.08392 z" /><path
         id="path14"
         style="fill:#cc0000;fill-opacity:1;stroke:none;stroke-width:0.397412;stroke-linecap:round;stroke-linejoin:round"
         d="m 531.66057,12.225 c -3.94641,0 -7.14558,3.199173 -7.14557,7.145579 -10e-6,3.946404 3.19916,7.14558 7.14557,7.14558 3.94641,0 7.14559,-3.199176 7.14558,-7.14558 0,-3.946406 -3.19917,-7.145579 -7.14558,-7.145579 z m 0.13193,2.122936 c 1.73876,-9e-6 3.14833,1.409515 3.14838,3.148283 2e-5,1.466512 -1.01249,2.738826 -2.44157,3.068051 1.6281,0.275591 2.97848,1.412856 3.52698,2.970355 h -8.57058 c 0.55588,-1.578499 1.93454,-2.723592 3.58826,-2.980335 -1.40888,-0.34484 -2.39985,-1.607602 -2.39986,-3.058071 5e-5,-1.73877 1.40962,-3.148294 3.14839,-3.148283 z"
         sodipodi:nodetypes="ssssssscccccs" /></g></g><style
     type="text/css"
     id="style1397">
<![CDATA[
	.st0{fill:#000000;}
]]>
</style><style
     type="text/css"
     id="style1">
<![CDATA[
	.st0{fill:#000000;}
]]>
</style></svg>
