<?xml version="1.0" encoding="UTF-8" standalone="no"?>
<!-- Created with Inkscape (http://www.inkscape.org/) -->

<svg
   width="80.531303mm"
   height="80.531296mm"
   viewBox="0 0 80.531303 80.531296"
   version="1.1"
   id="svg5"
   inkscape:version="1.4.4 (dcaf3e7d9e, 2026-05-05)"
   sodipodi:docname="Voyante.svg"
   xml:space="preserve"
   xmlns:inkscape="http://www.inkscape.org/namespaces/inkscape"
   xmlns:sodipodi="http://sodipodi.sourceforge.net/DTD/sodipodi-0.dtd"
   xmlns="http://www.w3.org/2000/svg"
   xmlns:svg="http://www.w3.org/2000/svg"><sodipodi:namedview
     id="namedview7"
     pagecolor="#ffffff"
     bordercolor="#000000"
     borderopacity="0.25"
     inkscape:showpageshadow="2"
     inkscape:pageopacity="0.0"
     inkscape:pagecheckerboard="true"
     inkscape:deskcolor="#d1d1d1"
     inkscape:document-units="mm"
     showgrid="false"
     inkscape:zoom="0.3141388"
     inkscape:cx="50.932901"
     inkscape:cy="738.52706"
     inkscape:window-width="1920"
     inkscape:window-height="1014"
     inkscape:window-x="0"
     inkscape:window-y="0"
     inkscape:window-maximized="1"
     inkscape:current-layer="layer1"
     showguides="false" /><defs
     id="defs2"><inkscape:path-effect
   effect="fillet_chamfer"
   id="path-effect2"
   is_visible="true"
   lpeversion="1"
   nodesatellites_param="F,0,0,1,0,0,0,1 @ F,0,0,1,0,0,0,1 @ F,0,0,1,0,0,0,1 @ F,0,0,1,0,0,0,1 @ F,0,0,1,0,0,0,1 @ F,0,0,1,0,0,0,1 @ F,0,0,1,0,0,0,1 @ F,0,0,1,0,0,0,1 @ F,0,0,1,0,0,0,1"
   radius="0"
   unit="px"
   method="auto"
   mode="F"
   chamfer_steps="1"
   flexible="false"
   use_knot_distance="true"
   apply_no_radius="true"
   apply_with_radius="true"
   only_selected="false"
   hide_knots="false" /><inkscape:path-effect
   effect="fillet_chamfer"
   id="path-effect1"
   is_visible="true"
   lpeversion="1"
   nodesatellites_param="F,0,0,1,0,7.5338088,0,1 @ F,0,0,1,0,0,0,1 @ F,0,0,1,0,0,0,1 @ F,0,0,1,0,0,0,1 @ F,0,0,1,0,0,0,1 @ F,0,0,1,0,0,0,1 @ F,0,0,1,0,0,0,1 @ F,0,0,1,0,0,0,1 @ F,0,0,1,0,0,0,1 @ F,0,0,1,0,0,0,1 @ F,0,0,1,0,0,0,1"
   radius="0"
   unit="px"
   method="auto"
   mode="F"
   chamfer_steps="1"
   flexible="false"
   use_knot_distance="true"
   apply_no_radius="true"
   apply_with_radius="true"
   only_selected="false"
   hide_knots="false" /><inkscape:path-effect
   effect="spiro"
   id="path-effect6"
   is_visible="true"
   lpeversion="1" /><inkscape:path-effect
   effect="fillet_chamfer"
   id="path-effect3"
   is_visible="true"
   lpeversion="1"
   nodesatellites_param="F,0,0,1,0,0,0,1 @ F,0,0,1,0,0,0,1 @ F,0,0,1,0,0,0,1 @ F,0,0,1,0,0,0,1 @ F,0,0,1,0,0,0,1 @ F,0,0,1,0,0,0,1 @ F,0,0,1,0,0,0,1 @ F,0,0,1,0,0,0,1 @ F,0,0,1,0,0,0,1 @ F,0,0,1,0,0,0,1 @ F,0,0,1,0,0,0,1 @ F,0,0,1,0,0,0,1 @ F,0,0,1,0,0,0,1 @ F,0,0,1,0,0,0,1 | F,0,0,1,0,6.4303233,0,1 @ F,0,0,1,0,108.16171,0,1 @ F,0,0,1,0,0,0,1 @ F,0,0,1,0,20.169484,0,1 @ F,0,0,1,0,0,0,1 @ F,0,0,1,0,0,0,1 @ F,0,0,1,0,23.329183,0,1 @ F,0,0,1,0,0,0,1 @ F,0,0,1,0,0,0,1 @ F,0,0,1,0,0,0,1 | F,0,0,1,0,0,0,1 @ F,0,0,1,0,0,0,1 @ F,0,0,1,0,0,0,1 @ F,0,0,1,0,0,0,1 @ F,0,0,1,0,0,0,1 @ F,0,0,1,0,0,0,1 | F,0,0,1,0,0,0,1 @ F,0,0,1,0,0,0,1 @ F,0,0,1,0,0,0,1 @ F,0,0,1,0,0,0,1 @ F,0,0,1,0,0,0,1 @ F,0,0,1,0,0,0,1 @ F,0,0,1,0,0,0,1 @ F,0,0,1,0,0,0,1 @ F,0,0,1,0,0,0,1 @ F,0,0,1,0,0,0,1"
   radius="0"
   unit="px"
   method="auto"
   mode="F"
   chamfer_steps="1"
   flexible="false"
   use_knot_distance="true"
   apply_no_radius="true"
   apply_with_radius="true"
   only_selected="false"
   hide_knots="false" /><inkscape:path-effect
   effect="spiro"
   id="path-effect9346"
   is_visible="true"
   lpeversion="1" />
		
	
	
	

	

		
	
	

	

	

	

	

	
</defs><g
     inkscape:label="Calque 1"
     inkscape:groupmode="layer"
     id="layer1"
     transform="translate(-370.25,-10.25)"><g
       id="g45"><path
         id="rect929"
         style="stroke-width:0.05"
         d="m 377.69182,10.25 h 65.64766 c 4.12277,0 7.44182,3.31905 7.44182,7.441816 v 65.647663 c 0,4.122767 -3.31905,7.441817 -7.44182,7.441817 h -65.64766 c -4.12277,0 -7.44182,-3.31905 -7.44182,-7.441817 V 17.691816 c 0,-4.122766 3.31905,-7.441816 7.44182,-7.441816 z" /><path
         style="font-weight:bold;font-size:7.05556px;font-family:Cantarell;-inkscape-font-specification:'Cantarell Bold';fill:#cc0000;stroke-width:0.05"
         d="m 399.14586,86.702545 h 0.94545 l 1.76389,-4.896559 h -0.93134 l -1.26294,3.817058 -1.21356,-3.817058 h -1.05833 z m 4.74133,0.07056 c 1.0795,0 1.80623,-0.740834 1.80623,-1.841501 0,-1.051279 -0.67028,-1.728613 -1.70039,-1.728613 -1.08656,0 -1.81328,0.733779 -1.81328,1.841502 0,1.044222 0.66322,1.728612 1.70744,1.728612 z m 0.0776,-0.762001 c -0.52916,0 -0.87489,-0.409222 -0.87489,-1.044223 0,-0.620889 0.3175,-1.001889 0.81845,-1.001889 0.52917,0 0.87489,0.416278 0.87489,1.058334 0,0.606778 -0.3175,0.987778 -0.81845,0.987778 z m 2.75873,2.222502 h 0.97367 l 0.55033,-1.531057 1.31234,-3.429002 h -0.89606 l -0.85372,2.596446 -0.80434,-2.596446 h -0.99483 l 1.3335,3.429002 z m 5.52451,-1.531057 h 0.64911 v -2.060223 c 0,-0.931334 -0.52917,-1.439335 -1.54517,-1.439335 -0.48683,0 -1.016,0.119945 -1.41817,0.331612 l 0.21167,0.627945 c 0.35983,-0.141112 0.6985,-0.211667 1.016,-0.211667 0.55033,0 0.84667,0.211667 0.84667,0.620889 v 0.09172 c -1.48167,0.02117 -2.13784,0.359834 -2.13784,1.086557 0,0.620889 0.45861,1.023056 1.18534,1.023056 0.43744,0 0.80433,-0.141111 1.06539,-0.409223 z M 412.00815,85.8206 c -0.16934,0.155222 -0.39511,0.246945 -0.65617,0.246945 -0.34572,0 -0.57856,-0.176389 -0.57856,-0.437445 0,-0.310445 0.35278,-0.451556 1.23473,-0.465667 z m 4.09928,0.881945 h 0.89606 v -2.116668 c 0,-0.846667 -0.47978,-1.368779 -1.24884,-1.368779 -0.41628,0 -0.80433,0.148167 -1.10772,0.43039 l -0.15522,-0.373945 h -0.64911 v 3.429002 h 0.90311 V 84.24721 c 0.20461,-0.162278 0.43744,-0.246944 0.6985,-0.246944 0.43744,0 0.66322,0.246944 0.66322,0.712611 z m 3.21028,0.04939 c 0.23283,0 0.48683,-0.04939 0.70556,-0.119944 l -0.18345,-0.642056 c -0.0988,0.04233 -0.21872,0.0635 -0.32455,0.0635 -0.32456,0 -0.52917,-0.1905 -0.52917,-0.486834 v -1.57339 h 0.86078 V 83.273544 H 418.9861 V 82.27871 h -0.889 v 0.994834 h -0.47978 v 0.719667 h 0.47978 v 1.629834 c 0,0.691445 0.45861,1.12889 1.22061,1.12889 z m 3.01978,0.02117 c 0.40216,0 0.83961,-0.08467 1.21355,-0.239889 l -0.20461,-0.62089 c -0.27517,0.112889 -0.57855,0.176389 -0.86783,0.176389 -0.61384,0 -0.99484,-0.289278 -1.10067,-0.853722 h 2.2225 c 0.0212,-0.141112 0.0423,-0.352778 0.0423,-0.508001 0,-0.938389 -0.57151,-1.524001 -1.48873,-1.524001 -1.02305,0 -1.70744,0.726723 -1.70744,1.792113 0,1.100667 0.71966,1.778001 1.89089,1.778001 z m -0.98073,-2.088446 c 0.0494,-0.515056 0.30339,-0.790223 0.73378,-0.790223 0.4445,0 0.70556,0.289278 0.70556,0.790223 z"
         id="text1485"
         aria-label="Voyante" /><path
         id="path11376"
         style="font-variation-settings:'wdth' 83, 'wght' 488;fill:none;stroke:#cc0000;stroke-width:2.00002;stroke-linecap:round;stroke-linejoin:round;stroke-dasharray:none;stroke-opacity:1"
         d="m 410.18839,38.468072 c -0.0211,6.62e-4 -0.0423,0.0019 -0.0634,0.0026 -8.72545,0.111647 -14.14745,3.548255 -20.0877,8.395001 -1.75049,1.218785 -3.42692,2.462076 -5.00831,3.649806 1.14989,0.821895 2.25266,1.622082 3.33097,2.398206 6.70454,5.929684 11.61768,9.287533 21.621,9.626114 0.0696,0.0074 0.13735,0.0166 0.20742,0.02369 0.11137,-0.0019 0.21768,-0.0064 0.32778,-0.0089 0.11001,0.0025 0.21653,0.0072 0.32778,0.0089 0.0701,-0.0071 0.13773,-0.01627 0.20744,-0.02369 10.00297,-0.338675 14.91592,-3.696528 21.62033,-9.626114 1.07832,-0.776124 2.1811,-1.576311 3.33099,-2.398206 -1.58139,-1.18773 -3.25783,-2.431021 -5.00832,-3.649806 -5.9401,-4.846628 -11.362,-8.283198 -20.08706,-8.395001 -0.0212,-7.3e-4 -0.0422,-0.0019 -0.0634,-0.0026 -0.0442,-3.52e-4 -0.0878,1.85e-4 -0.13188,0 -0.12984,-9.16e-4 -0.26113,-5.52e-4 -0.39245,0 -0.0439,1.85e-4 -0.0871,-3.5e-4 -0.13123,0 z" /><path
         id="path11379"
         style="font-variation-settings:'wdth' 83, 'wght' 488;fill:none;stroke:#cc0000;stroke-width:2.00002;stroke-linecap:round;stroke-linejoin:round"
         d="m 421.93703,50.365723 a 11.391102,11.324366 0 0 1 -11.3911,11.324365 11.391102,11.324366 0 0 1 -11.3911,-11.324365 11.391102,11.324366 0 0 1 11.3911,-11.324366 11.391102,11.324366 0 0 1 11.3911,11.324366 z" /><path
         id="ellipse11384"
         style="font-variation-settings:'wdth' 83, 'wght' 488;fill:#cc0000;stroke-width:1.81496;stroke-linecap:round;stroke-linejoin:round"
         d="m 417.7031,50.365723 a 7.1571674,7.1152353 0 0 1 -7.15717,7.115235 7.1571674,7.1152353 0 0 1 -7.15717,-7.115235 7.1571674,7.1152353 0 0 1 7.15717,-7.115236 7.1571674,7.1152353 0 0 1 7.15717,7.115236 z" /><path
         id="path45"
         style="fill:#cc0000;fill-opacity:1;stroke:none;stroke-width:0.397412;stroke-linecap:round;stroke-linejoin:round"
         d="m 441.66057,12.225 c -3.94641,0 -7.14558,3.19917 -7.14557,7.145557 -10e-6,3.946397 3.19916,7.145577 7.14557,7.145577 3.94642,0 7.1456,-3.19918 7.14559,-7.145577 0,-3.946387 -3.19917,-7.145557 -7.14559,-7.145557 z m 0.13193,2.12293 c 1.73876,-10e-6 3.14834,1.40952 3.14839,3.148277 2e-5,1.4665 -1.01249,2.73881 -2.44158,3.06804 1.62811,0.27559 2.97849,1.412847 3.52699,2.970347 h -8.57059 c 0.55588,-1.5785 1.93454,-2.723587 3.58826,-2.980327 -1.40888,-0.34484 -2.39985,-1.6076 -2.39986,-3.05806 5e-5,-1.738757 1.40962,-3.148287 3.14839,-3.148277 z"
         sodipodi:nodetypes="ssssssscccccs" /><path
         id="path46"
         style="fill:#cc0000;fill-opacity:1;stroke:none;stroke-width:0.397412;stroke-linecap:round;stroke-linejoin:round"
         d="m 379.37059,12.225 a 7.1455797,7.1455797 0 0 0 -7.14559,7.145577 7.1455797,7.1455797 0 0 0 7.14559,7.145577 7.1455797,7.1455797 0 0 0 7.14559,-7.145577 7.1455797,7.1455797 0 0 0 -7.14559,-7.145577 z m 0.0534,2.60722 c 0.0933,0 0.18655,0.028 0.26115,0.0839 l 4.02056,3.655707 c 0.18651,0.14921 0.0745,0.41024 -0.14929,0.41024 h -0.70871 v 4.103367 c 0,0.22382 -0.1492,0.37302 -0.37302,0.37302 h -1.93164 l -0.0486,-2.0437 c -0.0118,-0.493157 -0.57716,-1.021847 -1.07045,-1.021847 -0.4933,-10e-6 -1.05872,0.52869 -1.07045,1.021847 l -0.0487,2.0437 h -1.93154 c -0.22382,0 -0.37301,-0.1492 -0.37302,-0.37302 v -4.103267 l -0.7088,-10e-5 c -0.22382,0 -0.3357,-0.26103 -0.14919,-0.41024 l 1.19528,-0.97146 V 15.52264 c 0,-0.22382 0.14921,-0.37301 0.37302,-0.37301 h 0.43948 c 0.17584,0 0.37301,0.19717 0.37301,0.37301 v 0.846717 l 1.63976,-1.453237 c 0.0746,-0.056 0.16789,-0.0839 0.26114,-0.0839 z" /></g></g><style
     type="text/css"
     id="style10809">
	.puchipuchi_een{fill:#111918;}
</style><style
     type="text/css"
     id="style11287">
	.st0{fill:#000000;}
</style><style
     type="text/css"
     id="style1">
<![CDATA[
	.st0{fill:#000000;}
]]>
</style><style
     type="text/css"
     id="style1-3">
	.st0{fill:#FD6A7E;}
	.st1{fill:#17B978;}
	.st2{fill:#8797EE;}
	.st3{fill:#41A6F9;}
	.st4{fill:#37E0FF;}
	.st5{fill:#2FD9B9;}
	.st6{fill:#F498BD;}
	.st7{fill:#FFDF1D;}
	.st8{fill:#C6C9CC;}
</style></svg>
