<?xml version="1.0" encoding="UTF-8" standalone="no"?>
<!-- Created with Inkscape (http://www.inkscape.org/) -->

<svg
   width="58.644737mm"
   height="55.86932mm"
   viewBox="0 0 58.644737 55.86932"
   version="1.1"
   id="svg1"
   inkscape:version="1.4.2 (ebf0e940d0, 2025-05-08)"
   sodipodi:docname="Icon.svg"
   xmlns:inkscape="http://www.inkscape.org/namespaces/inkscape"
   xmlns:sodipodi="http://sodipodi.sourceforge.net/DTD/sodipodi-0.dtd"
   xmlns="http://www.w3.org/2000/svg"
   xmlns:svg="http://www.w3.org/2000/svg">
  <sodipodi:namedview
     id="namedview1"
     pagecolor="#ffffff"
     bordercolor="#111111"
     borderopacity="1"
     inkscape:showpageshadow="0"
     inkscape:pageopacity="0"
     inkscape:pagecheckerboard="1"
     inkscape:deskcolor="#d1d1d1"
     inkscape:document-units="mm"
     inkscape:zoom="2.8114108"
     inkscape:cx="89.101173"
     inkscape:cy="118.44587"
     inkscape:window-width="1920"
     inkscape:window-height="1011"
     inkscape:window-x="0"
     inkscape:window-y="0"
     inkscape:window-maximized="1"
     inkscape:current-layer="layer1" />
  <defs
     id="defs1" />
  <g
     inkscape:label="Calque 1"
     inkscape:groupmode="layer"
     id="layer1"
     transform="translate(-108.74375,-93.133332)">
    <path
       id="path1826"
       style="fill:#000000;stroke-width:0.19447"
       d="m 146.00666,97.543366 c -0.6365,-0.01743 -1.27244,1.098282 -3.55943,5.091474 -2.69099,4.69857 -2.71476,4.7099 -4.05882,1.93368 -1.41483,-2.92239 -3.51056,-5.10903 -6.40842,-6.686716 -1.43147,-0.779348 -1.67706,1.675003 -0.9261,9.251966 0.39512,3.98663 0.39523,3.98677 -0.32932,4.56502 -2.584,2.06228 -3.75504,3.8805 -5.27547,8.19255 -0.8298,2.35335 -0.82979,2.35324 -6.45314,6.30187 -3.09284,2.17174 -5.62331,4.02337 -5.62331,4.11465 0,0.34905 4.04586,4.23045 5.24871,5.03534 3.49492,2.33863 5.98408,2.58024 12.05908,1.17109 7.48409,-1.73601 9.56553,-1.00387 10.53842,3.70644 0.27227,1.31814 0.33472,1.35036 1.02611,0.52871 0.7915,-0.94065 1.4044,-2.28682 1.9713,-4.33029 0.61903,-2.23146 0.52471,-2.20927 1.92713,-0.45522 1.95184,2.44124 2.33108,3.4825 2.33108,6.39645 0,2.74126 0.0394,2.7688 1.57048,1.10757 2.35365,-2.55369 3.51065,-5.15935 4.32944,-9.74992 0.20602,-1.15508 0.41501,-2.14046 0.46434,-2.18979 0.21572,-0.21574 2.74543,2.39559 3.43324,3.54405 0.75675,1.2636 0.75672,1.26371 1.09845,0.3689 0.79839,-2.09053 -0.57413,-7.06893 -2.72563,-9.88666 -0.70105,-0.91834 -0.70087,-0.91841 -0.003,-0.91841 1.21235,0 3.64734,0.59688 4.83109,1.1842 1.43525,0.71211 1.36368,0.73316 1.20613,-0.35779 -0.26373,-1.82645 -1.35015,-3.6648 -3.84401,-6.50386 -1.14346,-1.30172 -1.1436,-1.30161 0.22876,-2.20573 3.51969,-2.3188 3.64227,-2.8332 0.78736,-3.3022 -5.06042,-0.83131 -5.37636,-1.13618 -8.06179,-7.7755 -1.76087,-4.35352 -3.02809,-6.32879 -4.93621,-7.695158 -0.34813,-0.249298 -0.59727,-0.429861 -0.84634,-0.436716 z m -9.51604,18.269794 c 0.0765,-8.4e-4 0.11805,0.0258 0.11937,0.0855 0.0203,0.89939 0.0803,2.69743 0.0803,2.69743 -0.17334,1.01105 -0.28157,1.25242 -5.37605,3.17145 l -3.03614,0.32418 c -1.91043,0.20409 7.06537,-6.2567 8.2125,-6.27851 z" />
    <path
       style="fill:#da0000;fill-opacity:1;stroke-width:2.01653;stroke-linecap:square;stroke:#da0000;stroke-opacity:1"
       d="m 73.121237,109.06249 c -0.737151,-1.19273 10.721388,-10.532519 21.720027,-17.703861 4.38051,-2.856183 9.113496,-5.458697 9.927316,-5.458697 0.43058,0 0.51642,0.962767 0.51531,5.780016 -0.002,7.818758 -0.20453,8.116418 -7.81949,11.481092 -8.114841,3.58555 -11.936137,4.80818 -16.680291,5.33685 -2.468343,0.27507 -5.161195,0.58108 -5.984117,0.68004 -0.822921,0.099 -1.578361,0.047 -1.678755,-0.11544 z"
       id="path1"
       transform="matrix(0.26458333,0,0,0.26458333,108.74375,93.133332)" />
  </g>
</svg>
